<svg xmlns="http://www.w3.org/2000/svg" width="125" height="125" viewBox="0 0 125 125"><g transform="translate(-898 -8683)"><circle cx="62.5" cy="62.5" r="62.5" transform="translate(898 8683)" fill="#dd052b"/><g transform="translate(363.671 217.941)"><path d="M39.469,59.709l.586,1a1.422,1.422,0,0,0-.5.5.708.708,0,0,0,0,.586c.084.251.251.335.5.419a.814.814,0,0,0,.754-.084.755.755,0,0,0,.5-.5.925.925,0,0,0,0-.67,1.47,1.47,0,0,0-.335-.419l.921-.251a.885.885,0,0,0,.5.586.917.917,0,0,0,.67,0,.836.836,0,0,0,.419-.335.534.534,0,0,0,0-.5,1.009,1.009,0,0,0-.419-.419.917.917,0,0,0-.67,0l-.251-1a3.756,3.756,0,0,1,.921-.084,2.974,2.974,0,0,1,.754.335,1.824,1.824,0,0,1,.586.754,1.9,1.9,0,0,1,.084,1.507,1.5,1.5,0,0,1-.754.837,1.3,1.3,0,0,1-1.507-.251,2.062,2.062,0,0,1-.084,1,1.478,1.478,0,0,1-.754.67,1.6,1.6,0,0,1-1.507,0A1.982,1.982,0,0,1,38.8,62.3a2.174,2.174,0,0,1-.167-1.424,1.512,1.512,0,0,1,.837-1.172M39.721,36.6a1.051,1.051,0,0,0-.921.5c-.084.167-.167.419-.251.586a1.244,1.244,0,0,0,.335,1.172,2.079,2.079,0,0,0,1.424.67,2.057,2.057,0,0,0,1.507-.251,1.553,1.553,0,0,0,.586-1,1.3,1.3,0,0,0-.167-1,1.284,1.284,0,0,0-.837-.586l-.084,1.34-.921-.167.335-2.345,2.931.5v.837h-.67a2.1,2.1,0,0,1,.419.67,1.84,1.84,0,0,1,.084,1.172,2.221,2.221,0,0,1-1,1.675,3.124,3.124,0,0,1-2.177.419,2.964,2.964,0,0,1-2.01-1.089,2.573,2.573,0,0,1-.5-2.094,2.459,2.459,0,0,1,.837-1.591,1.875,1.875,0,0,1,1.424-.5Zm.67-5.276,1.424.5.419-1.256c.084-.251.167-.419.084-.586q0-.377-.5-.5c-.335-.084-.586-.084-.754.084a1.364,1.364,0,0,0-.251.5Zm.084-2.6a2.22,2.22,0,0,1,.5-.419,1.242,1.242,0,0,1,.586-.084,1.425,1.425,0,0,1,.586.084,1.823,1.823,0,0,1,.67.419,1.415,1.415,0,0,1,.251.837,1.064,1.064,0,0,1,.586-.335,2.141,2.141,0,0,1,.921.167l.335.084c.251.084.419.084.5.167.167,0,.251,0,.335-.084l.167.084L45.5,30.734h-.335c-.167,0-.335-.084-.5-.084l-.5-.167a2.885,2.885,0,0,0-.754-.084.829.829,0,0,0-.419.586l-.419,1.172,2.094.754L44.326,34l-5.276-1.842.921-2.6a2.418,2.418,0,0,1,.5-.837m1.507-3.685.586-1,3.015,1.675a1.872,1.872,0,0,0,.837.251.872.872,0,0,0,.837-.586q.377-.628,0-1a1.531,1.531,0,0,0-.67-.5l-3.015-1.675.586-1,3.015,1.675a2.445,2.445,0,0,1,1.089.921,2.082,2.082,0,0,1-.167,2.177,2.12,2.12,0,0,1-1.759,1.256A3.078,3.078,0,0,1,45,26.8ZM48.681,17c-.167,0-.335.167-.586.419l-.67.837,1.256,1,.67-.837a1.114,1.114,0,0,0,.251-.67.726.726,0,0,0-.335-.586A.8.8,0,0,0,48.681,17m2.177.586a1.918,1.918,0,0,1-.586,1.34l-.754.921L51.11,21.1l-.754.921L46,18.507l1.507-1.926a2.035,2.035,0,0,1,1.172-.754,1.712,1.712,0,0,1,1.34.419,2.687,2.687,0,0,1,.837,1.34M56.05,13.9a2.051,2.051,0,0,0-.67-1.34,2.219,2.219,0,0,0-1.256-.837,1.244,1.244,0,0,0-1.172.335,1.474,1.474,0,0,0-.5,1.089,2.051,2.051,0,0,0,.67,1.34,2.219,2.219,0,0,0,1.256.837,1.5,1.5,0,0,0,1.172-.335,1.244,1.244,0,0,0,.5-1.089m1.089.167a2.289,2.289,0,0,1-.921,1.675,2.747,2.747,0,0,1-1.842.754A3.011,3.011,0,0,1,52.2,15.325a2.958,2.958,0,0,1-.921-2.261,2.289,2.289,0,0,1,.921-1.675,2.714,2.714,0,0,1,1.759-.754,3.011,3.011,0,0,1,2.177,1.172,2.555,2.555,0,0,1,1,2.261m5.276-5.36,1.256-.67L62,6.448Zm-1.507-3.1,1.172-.586,4.355,4.02-1.089.586-.837-.837-1.842,1,.167,1.172-1.089.586Zm5.443-2.6,1.172-.335,1.089,3.266a1.578,1.578,0,0,0,.335.754.865.865,0,0,0,1,.167,1.126,1.126,0,0,0,.754-.754,1.821,1.821,0,0,0-.167-.837L69.449,2.01l1.172-.335L71.71,4.941a2.992,2.992,0,0,1,.167,1.424,2.224,2.224,0,0,1-1.591,1.507,1.967,1.967,0,0,1-2.177-.251,2.91,2.91,0,0,1-.67-1.256ZM77.572.335l.167,1-1.675.251.754,4.522-1.172.251-.754-4.522-1.675.251-.084-1Zm6.113,4.1A2.4,2.4,0,0,0,84.1,3.015a1.935,1.935,0,0,0-.419-1.424A1.751,1.751,0,0,0,82.6,1a1.244,1.244,0,0,0-1.089.5,2.4,2.4,0,0,0-.419,1.424,2.155,2.155,0,0,0,.419,1.507,1.431,1.431,0,0,0,2.177,0m.754.837a2.154,2.154,0,0,1-1.842.586,2.468,2.468,0,0,1-1.842-.67,3.1,3.1,0,0,1-.837-2.345A2.836,2.836,0,0,1,80.838.586,2.443,2.443,0,0,1,82.681,0a2.468,2.468,0,0,1,1.842.67,2.983,2.983,0,0,1,.837,2.345,3.521,3.521,0,0,1-.921,2.261M87.957.5l3.936.67-.167,1-2.764-.5-.167,1.256,2.429.419-.167.921-2.429-.419L88.291,6.2l-1.172-.167Zm5.778,6.951-1.089-.335L94.07,1.675l1.089.335Zm4.271-4.606,1.089.5.419,4.522,1.591-3.6,1,.419L99.848,9.8l-1.089-.5-.5-4.606-1.591,3.6-.921-.251Zm12.729,7.286,1.34,1-3.35,4.522-.837-.67,2.261-3.015.251-.335.251-.335-3.685,3.1-.921-.67,2.01-4.355-.251.335-.251.335-2.261,3.015-.837-.67,3.35-4.438,1.34,1-1.842,4.1Zm5.611,6.951-2.01-2.177-.837.837,1.842,2.01-.67.67-1.842-2.01-1.089,1,2.094,2.261-.754.67-2.931-3.1,4.1-3.852,2.764,3.015Zm1.424-2.261-1.591-.084-.5-.586,1.34-.251Zm-3.015,7.872L114,21.522h3.35l1.34-2.931.754,1.172-1,1.842,2.094-.167.754,1.172H118.1l-1.424,3.1-.754-1.172,1-1.926Zm3.182,5.443-.5-1,5.025-2.429.5,1Zm5.862.754a2.033,2.033,0,0,1,1.172,1.424,2.137,2.137,0,0,1-.251,2.261,1.583,1.583,0,0,1-.837.67l-.419-1.089a1.422,1.422,0,0,0,.5-.5,1.318,1.318,0,0,0,.084-1,1.092,1.092,0,0,0-.837-.754,3.166,3.166,0,0,0-1.507.084,1.867,1.867,0,0,0-1.172.837,1.23,1.23,0,0,0-.084,1.089c.167.419.335.67.67.754a1.859,1.859,0,0,0,.754.084l.419,1.089a2.846,2.846,0,0,1-1.675-.251,2.517,2.517,0,0,1-1.089-1.34,2.594,2.594,0,0,1,.084-2.094,2.949,2.949,0,0,1,1.759-1.34,3.407,3.407,0,0,1,2.429.084m-1,10.8a2.239,2.239,0,0,0,1.507.167,2.523,2.523,0,0,0,1.424-.67,1.188,1.188,0,0,0,.335-1.172,1.3,1.3,0,0,0-.67-1,2.239,2.239,0,0,0-1.507-.167,2.051,2.051,0,0,0-1.34.67,1.244,1.244,0,0,0-.335,1.172,1.277,1.277,0,0,0,.586,1m-.67.837a2.24,2.24,0,0,1-.921-1.675,2.87,2.87,0,0,1,.335-1.926,2.947,2.947,0,0,1,2.177-1.172,2.889,2.889,0,0,1,2.429.5,2.24,2.24,0,0,1,.921,1.675,2.87,2.87,0,0,1-.335,1.926,2.947,2.947,0,0,1-2.177,1.172,3.633,3.633,0,0,1-2.429-.5M49.267,73.861l.921,1.089,1.256-1.926Zm2.68-2.177.837,1L49.77,77.8l-.837-1,.67-1L48.262,74.2l-1.089.419-.754-.921Zm3.35,3.6.921.837-1,4.438,2.6-2.931.837.754-3.768,4.187-.837-.754,1-4.522-2.68,2.931-.837-.754Zm2.512.335c0,.084.084.084.084.167l.167.335.084.167.084.084a.308.308,0,0,0,.251.084c.084,0,.167-.084.251-.084l.419.335a2.507,2.507,0,0,1-.67.335.518.518,0,0,1-.586-.167c-.084-.084-.084-.167-.167-.251s-.084-.167-.167-.167l-.167-.251a.082.082,0,0,0-.084-.084l-.084-.084a.419.419,0,0,0-.5,0l-.335-.335a1.113,1.113,0,0,1,.586-.251.675.675,0,0,1,.754.251c-.084-.251,0-.167.084-.084m3.1,9.212a2.456,2.456,0,0,0,1.089-1,1.994,1.994,0,0,0,.419-1.424,1.377,1.377,0,0,0-.67-1,1.2,1.2,0,0,0-1.172-.167,2.456,2.456,0,0,0-1.089,1,1.994,1.994,0,0,0-.419,1.424,1.377,1.377,0,0,0,.67,1,1.046,1.046,0,0,0,1.172.167M61.075,86a2.424,2.424,0,0,1-1.926-.419,2.24,2.24,0,0,1-1.172-1.507,3.315,3.315,0,0,1,.5-2.429,2.965,2.965,0,0,1,1.926-1.507,2.424,2.424,0,0,1,1.926.419A2.24,2.24,0,0,1,63.5,82.068,3.387,3.387,0,0,1,63,84.5,2.849,2.849,0,0,1,61.075,86m4.271.67a.708.708,0,0,0,0,.586c.084.335.335.5.754.67a2.589,2.589,0,0,0,.67.167.663.663,0,0,0,.67-.419.4.4,0,0,0-.084-.5,1.816,1.816,0,0,0-.586-.5l-.5-.335a6.376,6.376,0,0,1-1-.837,1.5,1.5,0,0,1-.084-1.34,1.7,1.7,0,0,1,1-1,2.417,2.417,0,0,1,1.675.167,3.047,3.047,0,0,1,1.256,1,1.576,1.576,0,0,1,.084,1.507l-1-.419a.769.769,0,0,0-.167-.837,3.545,3.545,0,0,0-.586-.419,1.182,1.182,0,0,0-.754-.084.59.59,0,0,0-.419.335.4.4,0,0,0,.084.5,5.013,5.013,0,0,0,.586.5l.837.586a3.2,3.2,0,0,1,.754.754,1.324,1.324,0,0,1,0,1.256,1.4,1.4,0,0,1-1,.921,2.651,2.651,0,0,1-1.759-.167,2.812,2.812,0,0,1-1.424-1.089,1.9,1.9,0,0,1-.084-1.507Zm10.133-.335a2.277,2.277,0,0,1,1.842-.419,2.434,2.434,0,0,1,1.926,1.172,2.579,2.579,0,0,1,.251,1.089l-1.172-.167a1.578,1.578,0,0,0-.167-.67,1.41,1.41,0,0,0-.921-.5,1.319,1.319,0,0,0-1.089.335,2.241,2.241,0,0,0-.586,1.424,2.477,2.477,0,0,0,.167,1.424,1.136,1.136,0,0,0,.921.586,1.044,1.044,0,0,0,1-.251,3.545,3.545,0,0,0,.419-.586l1.172.167a2.08,2.08,0,0,1-1,1.34,2.274,2.274,0,0,1-1.675.335,2.241,2.241,0,0,1-1.759-1,3.124,3.124,0,0,1-.419-2.177,3.383,3.383,0,0,1,1.089-2.094m5.946.084H82.6l.084,3.433a1.8,1.8,0,0,0,.167.837.794.794,0,0,0,.921.419.887.887,0,0,0,.921-.5,2.1,2.1,0,0,0,.084-.837l-.084-3.433h1.172l.084,3.433A3.337,3.337,0,0,1,85.7,91.2a2.562,2.562,0,0,1-3.936,0,2.956,2.956,0,0,1-.335-1.424Zm9.965-1,1.675-.335,1.089,5.527-1.089.167-.754-3.685-.084-.419-.084-.419-.167,4.857-1.089.167-1.926-4.438.084.419.084.419.754,3.685-1.089.251-1.089-5.527,1.675-.335,1.842,4.1Zm6.448-.754a.672.672,0,0,0-.67.084l-1,.419.586,1.507,1-.419a.858.858,0,0,0,.5-.419.917.917,0,0,0,0-.67c-.084-.335-.167-.5-.419-.5m1.591,1.507a2.738,2.738,0,0,1-1.172.921l-1.089.419.754,1.926-1.089.419-2.01-5.276,2.261-.837a2.114,2.114,0,0,1,1.424-.084,1.544,1.544,0,0,1,.921,1.089,2.046,2.046,0,0,1,0,1.424m.921-3.936,1-.586,2.177,4.02,2.429-1.34.5.837-3.433,1.926Zm9.212.921-.921.67L105.375,79.3l.921-.67Zm2.094-7.956-2.177,2.01.837.837,2.01-1.842.67.754-2.01,1.842,1,1.089,2.261-2.094.67.754-3.1,2.931-3.852-4.1,3.015-2.764Zm.67-2.177.754-.921,4.438.754L114.5,70.428l.67-.837,4.355,3.517-.754.921-4.522-.754,3.1,2.512-.67.837Zm5.192-5.611,3.182,1.759.5-.921a1.153,1.153,0,0,0-.167-1.424,2.28,2.28,0,0,0-.837-.67,3.131,3.131,0,0,0-1.256-.419,1.174,1.174,0,0,0-.921.67Zm.335-2.261a2.6,2.6,0,0,1,1.089-.5,4.077,4.077,0,0,1,1,.084,8.688,8.688,0,0,1,.837.335,3.163,3.163,0,0,1,1.424,1.34,2.043,2.043,0,0,1,0,2.177l-1.172,2.094-4.857-2.764,1.172-2.094a1.3,1.3,0,0,1,.5-.67m6.364-4.773a2.379,2.379,0,0,0-1.256-.837,1.92,1.92,0,0,0-1.507-.084,1.382,1.382,0,0,0-.837.837,1.416,1.416,0,0,0,.084,1.172,2.869,2.869,0,0,0,2.764.921,1.331,1.331,0,0,0,.837-.921.887.887,0,0,0-.084-1.089m1.089-.419a2.533,2.533,0,0,1,0,1.926,2.316,2.316,0,0,1-1.256,1.507,3.406,3.406,0,0,1-2.429.084,2.9,2.9,0,0,1-1.926-1.591,2.534,2.534,0,0,1,0-1.926,2.474,2.474,0,0,1,1.172-1.507,3.406,3.406,0,0,1,2.429-.084,3.067,3.067,0,0,1,2.01,1.591m-85.92-9.714a1.172,1.172,0,1,1,1.172,1.172,1.145,1.145,0,0,1-1.172-1.172m83.659.084a1.145,1.145,0,0,1,1.172-1.172,1.2,1.2,0,0,1,1.172,1.172,1.172,1.172,0,1,1-2.345,0" transform="translate(514 8481)" fill="#fff"/><path d="M100.7,49.579c-1.34-3.768,5.192-8.709,8.709-9.547,0,0,.754-4.355,2.847-4.941l4.857-1.34L120.546,43.8l-20.433,7.034-.251-.67c-.167-.419.837-.586.837-.586M90.483,33.5c-4.02,0-6.616-7.7-6.2-11.305,0,0-3.852-2.094-3.685-4.271l.251-5.025H91.488V34.506h-.754c-.335,0-.251-1-.251-1M72.311,38.274c-1.256,3.852-9.379,3.852-12.645,2.345,0,0-3.182,3.015-5.276,2.177L49.7,40.954,52.966,30.9l20.6,6.7-.251.67c-.084.419-1,0-1,0M88.724,63.648c3.266-2.261,9.8,2.6,11.557,5.778,0,0,4.355-.5,5.527,1.424l2.68,4.271L99.778,81.15,87.3,63.4l.586-.419c.335-.251.837.67.837.67m-17.67-6.867c3.266,2.345.754,10.133-1.675,12.813,0,0,1.926,3.936.5,5.695l-3.266,3.852L58.074,72.86,70.8,55.358l.586.419c.335.251-.335,1-.335,1" transform="translate(512.06 8478.903)" fill="#fff"/><path d="M78.631,47.821a5.738,5.738,0,0,0,5.611,5.695,5.611,5.611,0,0,0,0-11.222,5.488,5.488,0,0,0-5.611,5.527M67.745,80.062l6.281-9.8-1-4.941s2.847-4.187,5.025-8.207c1.34-2.429-3.015-4.857-1.089-7.034L75.7,48.658l.251-.335L68,46.648l-7.118,2.094L48.4,44.387l.586-1.759L60.208,45.56l4.438-2.512s4.773,1.424,9.379,2.261c2.68.5,3.685-4.355,6.281-3.182l1-1.675.251.084.335-.419-.837-7.872-4.187-6.2L77.208,12.9H79.05l.67,11.64,3.768,3.433s.167,5.025.67,9.63c.335,2.764,5.276,2.177,5.025,5.025l1.842.419v.67l.586.167,7.118-3.35,4.522-5.946,12.561-4.02.586,1.759L105.68,36.767l-2.094,4.606s-4.69,1.759-8.877,3.768c-2.512,1.256-.335,5.695-3.1,6.364l.167,1.926-.335.084,4.941,5.695,6.951,2.68,7.286,10.97-1.507,1.089-7.2-9.128-5.025-.67s-3.015-4.02-6.113-7.453c-1.675-1.842-4.857.67-6.532-.67L80.725,57.2l-3.266,6.029-.251,7.453L69.252,81.15Z" transform="translate(512.271 8478.903)" fill="#fff"/></g></g></svg>