<svg xmlns="http://www.w3.org/2000/svg" width="183.1" height="136.7" viewBox="0 0 183.1 136.7"><path d="M0,117.2l183.1.1v19.4L0,136.6Z" fill="#eee"/><path d="M9.6,129a1.88,1.88,0,0,0,.4,1,2.059,2.059,0,0,0,1.7.6,2.165,2.165,0,0,0,1.2-.2,1.147,1.147,0,0,0,.9-1.1.909.909,0,0,0-.4-.8,5.889,5.889,0,0,0-1.3-.5l-1-.2A5.375,5.375,0,0,1,9,127a2.393,2.393,0,0,1-1-2.1,2.7,2.7,0,0,1,1-2.2,3.927,3.927,0,0,1,2.8-.9,5.029,5.029,0,0,1,2.7.8,3.292,3.292,0,0,1,1.2,2.4h-2a1.441,1.441,0,0,0-.8-1.3,2.165,2.165,0,0,0-1.2-.2,2.5,2.5,0,0,0-1.3.3,1.05,1.05,0,0,0-.5.9.891.891,0,0,0,.5.8,3.934,3.934,0,0,0,1.3.4l1.7.4a5.438,5.438,0,0,1,1.7.7,2.384,2.384,0,0,1,.9,2,2.9,2.9,0,0,1-1,2.3,4.374,4.374,0,0,1-2.9.9,4.479,4.479,0,0,1-3-.9A2.324,2.324,0,0,1,7.6,129Z" fill="#00795d"/><path d="M23.6,129.6a5.179,5.179,0,0,0,0-5.2,2.323,2.323,0,0,0-1.9-.9,2.518,2.518,0,0,0-2,.9,5.179,5.179,0,0,0,0,5.2,2.384,2.384,0,0,0,2,.9,2.183,2.183,0,0,0,1.9-.9m1.3,1.5a4.076,4.076,0,0,1-3.2,1.2,4.076,4.076,0,0,1-3.2-1.2,6.353,6.353,0,0,1,0-8.2,4.035,4.035,0,0,1,3.2-1.1A4.459,4.459,0,0,1,25,123a5.289,5.289,0,0,1,1.5,4.1,6.666,6.666,0,0,1-1.6,4" fill="#00795d" fill-rule="evenodd"/><path d="M27.9,122.1H30v8.2h4.9V132h-7Z" fill="#00795d"/><path d="M38.2,132h-2v-9.9h2Z" fill="#00795d"/><path d="M42.2,123.9v6.5h1.9a1.958,1.958,0,0,0,2-1.4,5.412,5.412,0,0,0,.3-1.9,3.75,3.75,0,0,0-.5-2.3A2.026,2.026,0,0,0,44,124Zm3.7-1.5a2.742,2.742,0,0,1,1.7,1.3,3.287,3.287,0,0,1,.7,1.6,9.971,9.971,0,0,1,.2,1.6,6.71,6.71,0,0,1-.8,3.3,3.546,3.546,0,0,1-3.3,1.8H40.1v-9.9h4.3a5.665,5.665,0,0,1,1.5.3" fill="#00795d" fill-rule="evenodd"/><path d="M57.4,123.9H52.1V126H57v1.7H52.1v2.6h5.5v1.8H50.1v-9.9h7.3Z" fill="#00795d"/><path d="M58.5,130.3l5.1-6.4H58.7v-1.7h7.5v1.6L61,130.3h5.2v1.8H58.5Z" fill="#00795d"/><path d="M76.9,122.2h2.3l-3.3,6.2v3.7H73.8v-3.8l-3.4-6.1h2.4l2.1,4.3Z" fill="#00795d"/><path d="M91.3,123.9H86V126h4.8v1.7H86v2.6h5.5v1.8H84v-9.9h7.3Z" fill="#00795d"/><path d="M94.7,132.1H92.3l3.2-5.1-3.1-4.8h2.5l1.8,3.2,1.8-3.2h2.4l-3,4.8,3.2,5.1H98.6l-1.9-3.4Z" fill="#00795d"/><path d="M107.5,124.2a2.016,2.016,0,0,0-1.1-.3h-1.9v2.9h1.9a1.384,1.384,0,0,0,1.5-1.5,1.82,1.82,0,0,0-.4-1.1m1.5,3.6a3.727,3.727,0,0,1-2.5.7h-2.1v3.6h-2.1v-9.9h4.3a3.649,3.649,0,0,1,2.4.8,3.65,3.65,0,0,1,0,4.8" fill="#00795d" fill-rule="evenodd"/><path d="M118.8,124l-5.3-.1v2.2h4.8v1.7h-4.8v2.5H119v1.8h-7.5v-9.9h7.3Z" fill="#00795d"/><path d="M122.7,123.9v2.7H125a2.151,2.151,0,0,0,1-.2,1.149,1.149,0,0,0,.6-1.1,1.209,1.209,0,0,0-.6-1.2,2.509,2.509,0,0,0-1-.2Zm4.4-1.4a1.6,1.6,0,0,1,.9.7,2.177,2.177,0,0,1,.5.8,3.553,3.553,0,0,1,.2,1,2.5,2.5,0,0,1-.4,1.4,1.646,1.646,0,0,1-1.2.9,1.649,1.649,0,0,1,1,.8,2.81,2.81,0,0,1,.3,1.5v1.6a1.275,1.275,0,0,0,.4.6v.2h-2.3a1.087,1.087,0,0,1-.1-.5,2.769,2.769,0,0,1-.1-.9v-.9a2.062,2.062,0,0,0-.3-1.3,1.737,1.737,0,0,0-1.2-.3h-2.1V132h-2v-9.9h4.9a4.577,4.577,0,0,1,1.5.4" fill="#00795d" fill-rule="evenodd"/><rect width="2.1" height="9.9" transform="translate(130.4 122.2)" fill="#00795d"/><path d="M141.7,124h-5.2v2.1h4.8v1.7h-4.8v2.5h5.4v1.8h-7.5v-9.9h7.3Z" fill="#00795d"/><path d="M143.5,122.2h2.2l3.9,6.9v-6.9h1.9v9.9h-2l-4.1-7v7h-1.9Z" fill="#00795d"/><path d="M154.4,123.3a4.143,4.143,0,0,1,3.1-1.2,3.905,3.905,0,0,1,3.6,1.6,3.4,3.4,0,0,1,.7,1.8h-2.1a2.812,2.812,0,0,0-.5-1.1,2.2,2.2,0,0,0-1.7-.6,2.138,2.138,0,0,0-1.8.9,4.728,4.728,0,0,0-.7,2.6,3.727,3.727,0,0,0,.7,2.5,1.99,1.99,0,0,0,1.7.8,2.06,2.06,0,0,0,1.7-.7,2.7,2.7,0,0,0,.5-1.2h2.1a3.936,3.936,0,0,1-1.4,2.6,3.857,3.857,0,0,1-2.8,1,4.6,4.6,0,0,1-3.4-1.4,5.586,5.586,0,0,1-1.2-3.8,5.722,5.722,0,0,1,1.5-3.8" fill="#00795d"/><rect width="2.1" height="9.9" transform="translate(163.2 122.2)" fill="#00795d"/><path d="M169.9,128.4h2.5l-1.2-3.9Zm.1-6.2h2.3l3.5,9.9h-2.2l-.6-2h-3.6l-.7,2h-2.2Z" fill="#00795d" fill-rule="evenodd"/><path d="M39.8,71.3l.7,1.2a1.7,1.7,0,0,0-.6.6.846.846,0,0,0,0,.7c.1.3.3.4.6.5a.972.972,0,0,0,.9-.1.9.9,0,0,0,.6-.6,1.1,1.1,0,0,0,0-.8,1.756,1.756,0,0,0-.4-.5l1.1-.3a1.057,1.057,0,0,0,.6.7,1.1,1.1,0,0,0,.8,0,1,1,0,0,0,.5-.4.638.638,0,0,0,0-.6,1.205,1.205,0,0,0-.5-.5,1.1,1.1,0,0,0-.8,0L43,70a4.485,4.485,0,0,1,1.1-.1,3.552,3.552,0,0,1,.9.4,2.178,2.178,0,0,1,.7.9,2.263,2.263,0,0,1,.1,1.8,1.789,1.789,0,0,1-.9,1,1.551,1.551,0,0,1-1.8-.3,2.462,2.462,0,0,1-.1,1.2,1.765,1.765,0,0,1-.9.8,1.912,1.912,0,0,1-1.8,0A2.367,2.367,0,0,1,39,74.4a2.6,2.6,0,0,1-.2-1.7,1.806,1.806,0,0,1,1-1.4m.3-27.6a1.255,1.255,0,0,0-1.1.6c-.1.2-.2.5-.3.7a1.485,1.485,0,0,0,.4,1.4,2.482,2.482,0,0,0,1.7.8,2.457,2.457,0,0,0,1.8-.3,1.855,1.855,0,0,0,.7-1.2,1.551,1.551,0,0,0-.2-1.2,1.533,1.533,0,0,0-1-.7L42,45.4l-1.1-.2.4-2.8,3.5.6v1H44a2.509,2.509,0,0,1,.5.8,2.2,2.2,0,0,1,.1,1.4,2.652,2.652,0,0,1-1.2,2,3.73,3.73,0,0,1-2.6.5,3.539,3.539,0,0,1-2.4-1.3,3.072,3.072,0,0,1-.6-2.5,2.936,2.936,0,0,1,1-1.9,2.239,2.239,0,0,1,1.7-.6Zm.8-6.3,1.7.6.5-1.5c.1-.3.2-.5.1-.7q0-.45-.6-.6c-.4-.1-.7-.1-.9.1a1.628,1.628,0,0,0-.3.6Zm.1-3.1a2.651,2.651,0,0,1,.6-.5,1.483,1.483,0,0,1,.7-.1,1.7,1.7,0,0,1,.7.1,2.177,2.177,0,0,1,.8.5,1.689,1.689,0,0,1,.3,1,1.27,1.27,0,0,1,.7-.4,2.557,2.557,0,0,1,1.1.2l.4.1c.3.1.5.1.6.2.2,0,.3,0,.4-.1l.2.1L47,36.7h-.4c-.2,0-.4-.1-.6-.1l-.6-.2a3.445,3.445,0,0,0-.9-.1.99.99,0,0,0-.5.7l-.5,1.4,2.5.9-.4,1.3-6.3-2.2,1.1-3.1a2.887,2.887,0,0,1,.6-1m1.8-4.4.7-1.2,3.6,2a2.236,2.236,0,0,0,1,.3,1.041,1.041,0,0,0,1-.7q.45-.75,0-1.2a1.828,1.828,0,0,0-.8-.6l-3.6-2,.7-1.2,3.6,2a2.92,2.92,0,0,1,1.3,1.1,2.487,2.487,0,0,1-.2,2.6A2.531,2.531,0,0,1,48,32.5a3.675,3.675,0,0,1-1.6-.5Zm8-9.6c-.2,0-.4.2-.7.5l-.8,1L50.8,23l.8-1a1.33,1.33,0,0,0,.3-.8.867.867,0,0,0-.4-.7.952.952,0,0,0-.7-.2m2.6.7a2.29,2.29,0,0,1-.7,1.6l-.9,1.1,1.9,1.5-.9,1.1-5.2-4.2,1.8-2.3a2.43,2.43,0,0,1,1.4-.9,2.044,2.044,0,0,1,1.6.5,3.209,3.209,0,0,1,1,1.6m6.2-4.4a2.449,2.449,0,0,0-.8-1.6,2.649,2.649,0,0,0-1.5-1,1.485,1.485,0,0,0-1.4.4,1.76,1.76,0,0,0-.6,1.3,2.449,2.449,0,0,0,.8,1.6,2.649,2.649,0,0,0,1.5,1,1.792,1.792,0,0,0,1.4-.4,1.486,1.486,0,0,0,.6-1.3m1.3.2a2.733,2.733,0,0,1-1.1,2,3.281,3.281,0,0,1-2.2.9A3.6,3.6,0,0,1,55,18.3a3.532,3.532,0,0,1-1.1-2.7,2.733,2.733,0,0,1,1.1-2,3.241,3.241,0,0,1,2.1-.9,3.6,3.6,0,0,1,2.6,1.4,3.051,3.051,0,0,1,1.2,2.7m6.3-6.4,1.5-.8-2-1.9ZM65.4,6.7,66.8,6,72,10.8l-1.3.7-1-1-2.2,1.2.2,1.4-1.3.7Zm6.5-3.1,1.4-.4,1.3,3.9A1.884,1.884,0,0,0,75,8a1.033,1.033,0,0,0,1.2.2,1.345,1.345,0,0,0,.9-.9,2.175,2.175,0,0,0-.2-1L75.6,2.4,77,2l1.3,3.9a3.572,3.572,0,0,1,.2,1.7,2.656,2.656,0,0,1-1.9,1.8A2.348,2.348,0,0,1,74,9.1a3.475,3.475,0,0,1-.8-1.5ZM85.3.4l.2,1.2-2,.3.9,5.4L83,7.6l-.9-5.4-2,.3L80,1.3Zm7.3,4.9a2.86,2.86,0,0,0,.5-1.7,2.311,2.311,0,0,0-.5-1.7,2.091,2.091,0,0,0-1.3-.7,1.486,1.486,0,0,0-1.3.6,2.86,2.86,0,0,0-.5,1.7A2.573,2.573,0,0,0,90,5.3a1.708,1.708,0,0,0,2.6,0m.9,1a2.572,2.572,0,0,1-2.2.7,2.947,2.947,0,0,1-2.2-.8,3.705,3.705,0,0,1-1-2.8A3.387,3.387,0,0,1,89.2.7,2.918,2.918,0,0,1,91.4,0a2.947,2.947,0,0,1,2.2.8,3.562,3.562,0,0,1,1,2.8,4.2,4.2,0,0,1-1.1,2.7M97.7.6l4.7.8-.2,1.2L98.9,2l-.2,1.5,2.9.5-.2,1.1-2.9-.5-.4,2.8-1.4-.2Zm6.9,8.3-1.3-.4L105,2l1.3.4Zm5.1-5.5L111,4l.5,5.4,1.9-4.3,1.2.5-2.7,6.1-1.3-.6L110,5.6l-1.9,4.3L107,9.6Zm15.2,8.7,1.6,1.2-4,5.4-1-.8,2.7-3.6.3-.4.3-.4-4.4,3.7-1.1-.8,2.4-5.2-.3.4-.3.4-2.7,3.6-1-.8,4-5.3,1.6,1.2-2.2,4.9Zm6.7,8.3-2.4-2.6-1,1,2.2,2.4-.8.8-2.2-2.4-1.3,1.2,2.5,2.7-.9.8-3.5-3.7,4.9-4.6,3.3,3.6Zm1.7-2.7-1.9-.1-.6-.7,1.6-.3Zm-3.6,9.4-.9-1.4h4l1.6-3.5.9,1.4-1.2,2.2,2.5-.2.9,1.4h-3.8L132,30.7l-.9-1.4,1.2-2.3Zm3.8,6.5-.6-1.2,6-2.9.6,1.2Zm7,.9a2.428,2.428,0,0,1,1.4,1.7,2.552,2.552,0,0,1-.3,2.7,1.891,1.891,0,0,1-1,.8l-.5-1.3a1.7,1.7,0,0,0,.6-.6,1.574,1.574,0,0,0,.1-1.2,1.3,1.3,0,0,0-1-.9,3.78,3.78,0,0,0-1.8.1,2.229,2.229,0,0,0-1.4,1,1.468,1.468,0,0,0-.1,1.3c.2.5.4.8.8.9a2.22,2.22,0,0,0,.9.1l.5,1.3a3.4,3.4,0,0,1-2-.3,3.006,3.006,0,0,1-1.3-1.6,3.1,3.1,0,0,1,.1-2.5,3.521,3.521,0,0,1,2.1-1.6,4.068,4.068,0,0,1,2.9.1m-1.2,12.9a2.674,2.674,0,0,0,1.8.2,3.013,3.013,0,0,0,1.7-.8,1.419,1.419,0,0,0,.4-1.4,1.549,1.549,0,0,0-.8-1.2,2.674,2.674,0,0,0-1.8-.2,2.449,2.449,0,0,0-1.6.8,1.485,1.485,0,0,0-.4,1.4,1.525,1.525,0,0,0,.7,1.2m-.8,1a2.675,2.675,0,0,1-1.1-2,3.427,3.427,0,0,1,.4-2.3,3.519,3.519,0,0,1,2.6-1.4,3.45,3.45,0,0,1,2.9.6,2.675,2.675,0,0,1,1.1,2,3.427,3.427,0,0,1-.4,2.3,3.519,3.519,0,0,1-2.6,1.4,4.338,4.338,0,0,1-2.9-.6m-87,39.8,1.1,1.3,1.5-2.3Zm3.2-2.6,1,1.2-3.6,6.1-1-1.2.8-1.2-1.6-1.9-1.3.5L48.1,88Zm4,4.3,1.1,1-1.2,5.3,3.1-3.5,1,.9-4.5,5-1-.9,1.2-5.4-3.2,3.5-1-.9Zm3,.4c0,.1.1.1.1.2l.2.4.1.2.1.1a.367.367,0,0,0,.3.1c.1,0,.2-.1.3-.1l.5.4a2.994,2.994,0,0,1-.8.4.618.618,0,0,1-.7-.2c-.1-.1-.1-.2-.2-.3s-.1-.2-.2-.2l-.2-.3a.1.1,0,0,0-.1-.1l-.1-.1a.5.5,0,0,0-.6,0l-.4-.4a1.329,1.329,0,0,1,.7-.3.806.806,0,0,1,.9.3c-.1-.3,0-.2.1-.1m3.7,11a2.933,2.933,0,0,0,1.3-1.2,2.381,2.381,0,0,0,.5-1.7,1.644,1.644,0,0,0-.8-1.2A1.438,1.438,0,0,0,65,97a2.933,2.933,0,0,0-1.3,1.2,2.381,2.381,0,0,0-.5,1.7,1.644,1.644,0,0,0,.8,1.2,1.249,1.249,0,0,0,1.4.2m.2,1.4a2.9,2.9,0,0,1-2.3-.5,2.675,2.675,0,0,1-1.4-1.8,3.958,3.958,0,0,1,.6-2.9,3.541,3.541,0,0,1,2.3-1.8,2.9,2.9,0,0,1,2.3.5A2.675,2.675,0,0,1,68.5,98a4.044,4.044,0,0,1-.6,2.9,3.4,3.4,0,0,1-2.3,1.8m5.1.8a.846.846,0,0,0,0,.7c.1.4.4.6.9.8a3.091,3.091,0,0,0,.8.2.792.792,0,0,0,.8-.5.471.471,0,0,0-.1-.6,2.169,2.169,0,0,0-.7-.6l-.6-.4a7.615,7.615,0,0,1-1.2-1,1.789,1.789,0,0,1-.1-1.6,2.031,2.031,0,0,1,1.2-1.2,2.886,2.886,0,0,1,2,.2,3.638,3.638,0,0,1,1.5,1.2,1.882,1.882,0,0,1,.1,1.8l-1.2-.5a.919.919,0,0,0-.2-1,4.233,4.233,0,0,0-.7-.5,1.412,1.412,0,0,0-.9-.1.7.7,0,0,0-.5.4.471.471,0,0,0,.1.6,5.986,5.986,0,0,0,.7.6l1,.7a3.819,3.819,0,0,1,.9.9,1.581,1.581,0,0,1,0,1.5,1.669,1.669,0,0,1-1.2,1.1,3.165,3.165,0,0,1-2.1-.2,3.358,3.358,0,0,1-1.7-1.3,2.263,2.263,0,0,1-.1-1.8Zm12.1-.4a2.719,2.719,0,0,1,2.2-.5,2.906,2.906,0,0,1,2.3,1.4,3.079,3.079,0,0,1,.3,1.3l-1.4-.2a1.884,1.884,0,0,0-.2-.8,1.684,1.684,0,0,0-1.1-.6,1.575,1.575,0,0,0-1.3.4,2.676,2.676,0,0,0-.7,1.7,2.958,2.958,0,0,0,.2,1.7,1.356,1.356,0,0,0,1.1.7,1.247,1.247,0,0,0,1.2-.3,4.233,4.233,0,0,0,.5-.7l1.4.2a2.484,2.484,0,0,1-1.2,1.6,2.715,2.715,0,0,1-2,.4,2.676,2.676,0,0,1-2.1-1.2,3.73,3.73,0,0,1-.5-2.6,4.04,4.04,0,0,1,1.3-2.5m7.1.1h1.4l.1,4.1a2.151,2.151,0,0,0,.2,1,.948.948,0,0,0,1.1.5,1.059,1.059,0,0,0,1.1-.6,2.509,2.509,0,0,0,.1-1l-.1-4.1h1.4l.1,4.1a3.984,3.984,0,0,1-.3,1.7,3.06,3.06,0,0,1-4.7,0,3.53,3.53,0,0,1-.4-1.7Zm11.9-1.2,2-.4,1.3,6.6-1.3.2-.9-4.4-.1-.5-.1-.5-.2,5.8-1.3.2-2.3-5.3.1.5.1.5.9,4.4-1.3.3-1.3-6.6,2-.4,2.2,4.9Zm7.7-.9a.8.8,0,0,0-.8.1l-1.2.5.7,1.8,1.2-.5a1.024,1.024,0,0,0,.6-.5,1.1,1.1,0,0,0,0-.8c-.1-.4-.2-.6-.5-.6m1.9,1.8A3.269,3.269,0,0,1,110,104l-1.3.5.9,2.3-1.3.5-2.4-6.3,2.7-1a2.524,2.524,0,0,1,1.7-.1,1.844,1.844,0,0,1,1.1,1.3,2.444,2.444,0,0,1,0,1.7m1.1-4.7,1.2-.7,2.6,4.8,2.9-1.6.6,1-4.1,2.3Zm11,1.1-1.1.8-3.9-5.4,1.1-.8Zm2.5-9.5-2.6,2.4,1,1,2.4-2.2.8.9-2.4,2.2,1.2,1.3,2.7-2.5.8.9-3.7,3.5-4.6-4.9,3.6-3.3Zm.8-2.6.9-1.1,5.3.9-3.6-2.9.8-1,5.2,4.2-.9,1.1-5.4-.9,3.7,3-.8,1Zm6.2-6.7,3.8,2.1.6-1.1a1.377,1.377,0,0,0-.2-1.7,2.723,2.723,0,0,0-1-.8,3.739,3.739,0,0,0-1.5-.5,1.4,1.4,0,0,0-1.1.8Zm.4-2.7a3.1,3.1,0,0,1,1.3-.6,4.869,4.869,0,0,1,1.2.1,10.376,10.376,0,0,1,1,.4,3.778,3.778,0,0,1,1.7,1.6,2.439,2.439,0,0,1,0,2.6l-1.4,2.5-5.8-3.3,1.4-2.5a1.555,1.555,0,0,1,.6-.8m7.6-5.7a2.84,2.84,0,0,0-1.5-1,2.293,2.293,0,0,0-1.8-.1,1.651,1.651,0,0,0-1,1,1.691,1.691,0,0,0,.1,1.4,3.426,3.426,0,0,0,3.3,1.1,1.589,1.589,0,0,0,1-1.1,1.059,1.059,0,0,0-.1-1.3m1.3-.5a3.025,3.025,0,0,1,0,2.3,2.766,2.766,0,0,1-1.5,1.8,4.068,4.068,0,0,1-2.9.1,3.466,3.466,0,0,1-2.3-1.9,3.025,3.025,0,0,1,0-2.3,2.954,2.954,0,0,1,1.4-1.8,4.068,4.068,0,0,1,2.9-.1,3.662,3.662,0,0,1,2.4,1.9M39.7,60a1.4,1.4,0,1,1,1.4,1.4A1.367,1.367,0,0,1,39.7,60m99.9.1a1.367,1.367,0,0,1,1.4-1.4,1.43,1.43,0,0,1,1.4,1.4,1.4,1.4,0,1,1-2.8,0" fill="#00795d"/><path d="M110.6,56.7c-1.6-4.5,6.2-10.4,10.4-11.4,0,0,.9-5.2,3.4-5.9l5.8-1.6,4.1,12-24.4,8.4-.3-.8c-.2-.5,1-.7,1-.7M98.4,37.5c-4.8,0-7.9-9.2-7.4-13.5,0,0-4.6-2.5-4.4-5.1l.3-6H99.6V38.7h-.9c-.4,0-.3-1.2-.3-1.2M76.7,43.2c-1.5,4.6-11.2,4.6-15.1,2.8,0,0-3.8,3.6-6.3,2.6l-5.6-2.2,3.9-12,24.6,8-.3.8c-.1.5-1.2,0-1.2,0M96.3,73.5c3.9-2.7,11.7,3.1,13.8,6.9,0,0,5.2-.6,6.6,1.7l3.2,5.1-10.4,7.2L94.6,73.2l.7-.5c.4-.3,1,.8,1,.8M75.2,65.3c3.9,2.8.9,12.1-2,15.3,0,0,2.3,4.7.6,6.8L69.9,92,59.7,84.5,74.9,63.6l.7.5c.4.3-.4,1.2-.4,1.2" fill="#eee"/><path d="M84.5,54.6a6.852,6.852,0,0,0,6.7,6.8,6.7,6.7,0,0,0,0-13.4,6.553,6.553,0,0,0-6.7,6.6m-13,38.5L79,81.4l-1.2-5.9s3.4-5,6-9.8c1.6-2.9-3.6-5.8-1.3-8.4L81,55.6l.3-.4-9.5-2-8.5,2.5L48.4,50.5l.7-2.1,13.4,3.5,5.3-3s5.7,1.7,11.2,2.7c3.2.6,4.4-5.2,7.5-3.8l1.2-2,.3.1.4-.5-1-9.4-5-7.4.4-15.7H85l.8,13.9,4.5,4.1s.2,6,.8,11.5c.4,3.3,6.3,2.6,6,6l2.2.5v.8l.7.2,8.5-4,5.4-7.1,15-4.8.7,2.1-12.8,5.3-2.5,5.5s-5.6,2.1-10.6,4.5c-3,1.5-.4,6.8-3.7,7.6l.2,2.3-.4.1,5.9,6.8,8.3,3.2,8.7,13.1-1.8,1.3-8.6-10.9-6-.8s-3.6-4.8-7.3-8.9c-2-2.2-5.8.8-7.8-.8L87,65.8,83.1,73l-.3,8.9L73.3,94.4Z" fill="#00795d"/><text transform="translate(39.942 77.38) rotate(61.19)" fill="#00795d" font-size="9.953" font-family="Arial-BoldMT, Arial" font-weight="700"><tspan x="0" y="0">5</tspan></text></svg>