<svg xmlns="http://www.w3.org/2000/svg" width="250" height="35.451" viewBox="0 0 250 35.451"><g transform="translate(0 5.424)"><path d="M4.585,27.818a4.364,4.364,0,1,1,0-8.718,3.513,3.513,0,0,1,2,.517V19.1h.743v2.034H6.587v-.646a2.546,2.546,0,0,0-1.711-.743c-1.711,0-2.97,1.582-2.97,3.713a3.278,3.278,0,0,0,2.97,3.519,3.536,3.536,0,0,0,1.711-.517v-.839h.743v1.485a5.444,5.444,0,0,1-2.744.71" transform="translate(0 -18.357)" fill="#fff"/><path d="M28.37,33.167h-.1v-.743h.1c.743,0,1.291-.969,1.291-2.454,0-1.388-.517-2.228-1.291-2.228h-.1V27h.1a2.882,2.882,0,0,1,2.874,2.97,2.985,2.985,0,0,1-2.874,3.2m-.1,0a2.945,2.945,0,0,1-2.874-3.2A2.861,2.861,0,0,1,28.274,27v.743c-.743.1-1.259.969-1.259,2.228,0,1.388.517,2.454,1.259,2.454Z" transform="translate(-17.199 -23.707)" fill="#fff"/><path d="M44.694,26.066V25.55h.646V17.672H44.5v-.549l1.9-.323h.549v8.75H47.7v.517Z" transform="translate(-30.132 -16.8)" fill="#fff"/><path d="M58.574,33.235h-.323V32.169a2.71,2.71,0,0,0,.839.226c.549,0,.646,0,1.711-.517L61,32.4a4.58,4.58,0,0,1-2.422.839M58.251,27.2a.39.39,0,0,1,.323-.1,2.334,2.334,0,0,1,2.454,2.357v.517H58.251v-.743h1.162v-.1c0-.969-.323-1.485-.872-1.485a.424.424,0,0,0-.323.1V27.2m.032,6.038c-1.582-.1-2.551-1.259-2.551-3.2a2.657,2.657,0,0,1,2.551-2.874v.549A1.623,1.623,0,0,0,57.185,29.2h1.065v.743H57.185c0,1.162.323,1.9,1.065,2.228Z" transform="translate(-37.716 -23.774)" fill="#fff"/><path d="M78.3,28c.323.42.517.549.517,1.065a2.322,2.322,0,0,1-2.325,2.357v-.646c.517-.1.743-.743.743-1.711,0-.743-.226-1.388-.743-1.485v-.549a1.558,1.558,0,0,1,1.065.323h.969l.839-.226v.839H78.3M76.493,32.26h1.582c.839,0,1.259.323,1.259,1.162a2.867,2.867,0,0,1-2.874,2.648v-.517a1.628,1.628,0,0,0,1.582-1.582c0-.517-.1-.517-.646-.517h-.936V32.26m.032-.839H76.17a1.274,1.274,0,0,1-.872-.226,7,7,0,0,0-.517.839c0,.226,0,.226.226.226h1.485v1.162H75.1c-.1.42-.323.517-.323.969,0,.646.743,1.162,1.614,1.162h.1v.517H76.17A3.422,3.422,0,0,1,73.2,34.81c.323-.42.517-.646.872-1.162.194-.226.194-.323.42-.323a8.821,8.821,0,0,1-1.291-.743c.743-.839.872-1.065,1.388-1.614a2.353,2.353,0,0,1-1.065-1.711A2.264,2.264,0,0,1,75.977,26.9c.226,0,.323.1.549.1v.581a.424.424,0,0,0-.323-.1c-.646,0-1.065.743-1.065,1.582,0,1.065.42,1.808,1.065,1.808a.424.424,0,0,0,.323-.1v.646Z" transform="translate(-49.566 -23.639)" fill="#fff"/><path d="M93.494,26.676v-.549h.646V21.671H93.3v-.42l1.9-.549h.323v5.424H96.5v.549h-3m1.388-7.135a.789.789,0,0,1-.839-.872.888.888,0,0,1,.839-.969c.549,0,.839.42.839.969a.761.761,0,0,1-.839.872" transform="translate(-63.176 -17.409)" fill="#fff"/><path d="M107.674,27a2.88,2.88,0,0,1,2.874,2.97,2.945,2.945,0,0,1-2.874,3.2v-.743c.743,0,1.291-1.065,1.291-2.454,0-1.291-.517-2.131-1.291-2.228V27m-.1,6.167a2.931,2.931,0,0,1-2.777-3.2A2.786,2.786,0,0,1,107.577,27h.1v.743h-.1c-.743,0-1.291.839-1.291,2.228,0,1.485.549,2.454,1.291,2.454h.1v.743h-.1Z" transform="translate(-70.963 -23.707)" fill="#fff"/><path d="M138.385,26.066h-.549v-.646a3.172,3.172,0,0,1-1.162.839v-.839h.1c.226,0,.517-.226,1.066-.743v-2.97c0-.646-.323-1.065-.646-1.065a5.067,5.067,0,0,0-.517.1v-.646h.1a2.044,2.044,0,0,1,1.066.226V17.672H136.77v-.549l2-.323h.549v8.395h.872v.549l-1.808.323m-1.711.194h-.323c-1.485,0-2.551-1.162-2.551-2.97a3.059,3.059,0,0,1,2.874-3.2v.646a2.564,2.564,0,0,0-1.291,2.357,2.283,2.283,0,0,0,1.291,2.325Z" transform="translate(-90.6 -16.8)" fill="#fff"/><path d="M157.277,33.235h0V32.169a1.678,1.678,0,0,0,.743.226,2.625,2.625,0,0,0,1.582-.517l.323.517a4.675,4.675,0,0,1-2.648.839m0-6.038c0-.1.1-.1.226-.1a2.334,2.334,0,0,1,2.454,2.357v.517h-2.648v-.743h1.065v-.1c0-.969-.323-1.485-.839-1.485-.1,0-.226,0-.226.1V27.2m-.032,6.038c-1.582,0-2.777-1.259-2.777-3.2a2.757,2.757,0,0,1,2.777-2.874v.549a1.579,1.579,0,0,0-1.162,1.485h1.162v.743h-1.162a2.184,2.184,0,0,0,1.162,2.228Z" transform="translate(-104.616 -23.774)" fill="#fff"/><path d="M187.852,27.818a4.349,4.349,0,0,1-4.553-4.359,4.3,4.3,0,0,1,4.359-4.359,3.385,3.385,0,0,1,2.131.517V19.1h.743v2.034h-.743v-.646a2.382,2.382,0,0,0-1.711-.743c-1.808,0-2.97,1.582-2.97,3.713a3.355,3.355,0,0,0,3.1,3.519,3.277,3.277,0,0,0,1.582-.517v-.839h.743v1.485a5.74,5.74,0,0,1-2.68.71" transform="translate(-124.118 -18.357)" fill="#fff"/><path d="M211.367,27a2.88,2.88,0,0,1,2.874,2.97,2.945,2.945,0,0,1-2.874,3.2v-.743c.646,0,1.259-1.065,1.259-2.454,0-1.291-.646-2.131-1.259-2.228V27m-.1,6.167a3.019,3.019,0,0,1-2.97-3.2A2.9,2.9,0,0,1,211.27,27h.1v.743h-.1c-.743,0-1.291.839-1.291,2.228,0,1.485.549,2.454,1.291,2.454h.1v.743h-.1Z" transform="translate(-141.046 -23.707)" fill="#fff"/><path d="M232.21,32.973v-.549h.743V28.808c0-.743-.226-.839-.743-.839-.549,0-.646,0-1.582.839v3.616h.936v.549h-2.97v-.549h.646V27.969H228.4v-.42L230.111,27h.549v1.065c.936-.839,1.388-1.065,2.131-1.065a1.413,1.413,0,0,1,1.582,1.614v3.842h.839v.549h-3Z" transform="translate(-154.656 -23.707)" fill="#fff"/><path d="M252.631,30.323a1.226,1.226,0,0,1-1.162-1.388v-3.81H250.5V24.7l.969-.1V22.8h1.388v1.808h1.162v.517h-1.162v4.036a.342.342,0,0,0,.323.323c.226,0,.323-.226.743-.323l.323.42c-.775.452-1.1.743-1.614.743" transform="translate(-169.62 -20.863)" fill="#fff"/><path d="M267.059,32.973h-.549c-.517,0-.743-.1-.743-.646a2.782,2.782,0,0,1-.969.743v-.743a2.46,2.46,0,0,0,.84-.517V30.422l-.84.1v-.646l.84-.194V28.518c0-.743-.226-.969-.517-.969a.424.424,0,0,0-.323.1V27h.323c1.388,0,2.034.549,2.034,1.485v3.842h.743v.323l-.839.323m-2.228.1a1.3,1.3,0,0,1-.646.1,1.465,1.465,0,0,1-1.485-1.582,1.361,1.361,0,0,1,1.162-1.388l.969-.323v.646l-.743.226v.743c0,.517.323.839.646.839h.1v.743m0-5.424a.832.832,0,0,0-.42.1v.549l-1.388.323a.381.381,0,0,1-.226-.323c0-.646.743-1.162,2.034-1.291Z" transform="translate(-177.881 -23.707)" fill="#fff"/><path d="M285.017,26.066h-.549v-.646a2.642,2.642,0,0,1-1.292.839v-.839h.194c.323,0,.517-.226,1.065-.743v-2.97c0-.646-.42-1.065-.743-1.065-.226,0-.323.1-.517.1v-.646h.194a2.228,2.228,0,0,1,1.065.226V17.672H283.6v-.549l1.711-.323h.517v8.395h.839v.549l-1.647.323m-1.84.194h-.323c-1.388,0-2.454-1.162-2.454-2.97a3.146,3.146,0,0,1,2.777-3.2v.646a2.483,2.483,0,0,0-1.162,2.357,2.365,2.365,0,0,0,1.162,2.325Z" transform="translate(-189.867 -16.8)" fill="#fff"/><path d="M303.87,33.167h0v-.743c.743,0,1.291-.969,1.291-2.454,0-1.388-.517-2.228-1.291-2.228V27a2.848,2.848,0,0,1,2.97,2.97,2.945,2.945,0,0,1-2.97,3.2m0,0a3.019,3.019,0,0,1-2.97-3.2A2.942,2.942,0,0,1,303.87,27v.743c-.743.1-1.388.969-1.388,2.228,0,1.388.646,2.454,1.388,2.454Z" transform="translate(-203.748 -23.707)" fill="#fff"/><path d="M324.645,28.614c-.226-.1-.323-.323-.549-.323-.323,0-.517.194-.839.743v3.39h.839v.549h-2.97v-.549h.743V27.969H320.9v-.42L322.708,27h.549v1.065l.323-.323c.517-.549.743-.743,1.065-.743a.623.623,0,0,1,.549.226l.323.323Z" transform="translate(-217.29 -23.707)" fill="#fff"/><path d="M338.644,33.167h-.226V32.1a2.183,2.183,0,0,0,.743.226,3.239,3.239,0,0,0,1.808-.517l.323.517a5.5,5.5,0,0,1-2.648.839M338.451,27h.226a2.231,2.231,0,0,1,2.454,2.357v.517h-2.648v-.743h1.065v-.1c0-.969-.323-1.485-.839-1.485a.349.349,0,0,0-.226.1V27m-.032,6.167c-1.614-.1-2.551-1.259-2.551-3.2A2.723,2.723,0,0,1,338.451,27v.646a1.469,1.469,0,0,0-.969,1.485h.969v.743h-.969q0,1.744.969,2.228Z" transform="translate(-227.447 -23.707)" fill="#fff"/><path d="M356.686,33.167a2.807,2.807,0,0,1-1.808-.517v.323h-.549V31.262h.743v.323c0,.517.743.839,1.388.839.743,0,1.065-.1,1.065-.42,0-.517-.323-.969-1.614-1.291-1.162-.549-1.711-1.065-1.711-1.9A1.882,1.882,0,0,1,356.331,27a2.522,2.522,0,0,1,1.388.549V27h.646l-.323,1.808h-.517v-.323a1.122,1.122,0,0,0-1.195-.969.927.927,0,0,0-.936.743c0,.517.226.743,1.582,1.162,1.259.549,1.582.969,1.582,1.808a1.734,1.734,0,0,1-1.873,1.937" transform="translate(-239.839 -23.707)" fill="#fff"/><path d="M384.707,24.375h-.743V23.73h.323c.969,0,1.292-.517,1.292-1.808,0-.969-.323-1.711-1.292-1.711h-.839v7.135h1.065v.549H380.8v-.549h1.065V20.017H380.8V19.5h3.939a2.382,2.382,0,0,1,2.551,2.454,2.474,2.474,0,0,1-2.583,2.422" transform="translate(-257.85 -18.628)" fill="#fff"/><path d="M408.2,27.218h-.517v-.969c-.969.839-1.292,1.162-2.131,1.162a1.542,1.542,0,0,1-1.614-1.679V22.213H403.1v-.42l1.679-.549h.549v4.262c0,.743.42,1.065.743,1.065.517,0,.84-.226,1.614-1.065V22.213h-.743v-.42l1.808-.549h.323v5.1h.839v.549l-1.711.323M406.264,20.4H405.3l1.388-1.9h1.485Z" transform="translate(-272.95 -17.951)" fill="#fff"/><path d="M430.421,25.227a3.039,3.039,0,0,1-2.551,1.065,19.263,19.263,0,0,1-2.131-.323v-8.3H424.9v-.549l1.9-.323h.549v8.621c.1.1.323.1.549.1,1.065,0,1.711-.969,1.711-2.454,0-1.388-.517-2.228-1.388-2.228h-.517v-.549a2.164,2.164,0,0,1,1.065-.226,2.372,2.372,0,0,1,2.454,2.68,5.656,5.656,0,0,1-.807,2.486" transform="translate(-287.712 -16.8)" fill="#fff"/><path d="M445.9,26.066V25.55h.743V17.672H445.9v-.549l1.711-.323h.517v8.75h.743v.517Z" transform="translate(-301.931 -16.8)" fill="#fff"/><path d="M456.8,26.676v-.549h.84V21.671h-.84v-.42l1.711-.549h.549v5.424h.743v.549h-3m1.388-7.135a.932.932,0,0,1-.872-.872,1.069,1.069,0,0,1,.872-.969,1.058,1.058,0,0,1,1.065.969.981.981,0,0,1-1.065.872" transform="translate(-309.312 -17.409)" fill="#fff"/><path d="M470.377,33.167A2.751,2.751,0,0,1,467.6,30.2a3.016,3.016,0,0,1,2.97-3.2,4.148,4.148,0,0,1,2.034.549l-.839.969a7.114,7.114,0,0,0-1.195-.969A2.684,2.684,0,0,0,469.182,30c0,1.291.839,2.325,1.711,2.325A2.739,2.739,0,0,0,472.282,32l.323.42a5.017,5.017,0,0,1-2.228.743" transform="translate(-316.625 -23.707)" fill="#fff"/><path d="M487.47,33.167h-.1v-.743h.1c.646,0,1.162-.969,1.162-2.454,0-1.388-.517-2.228-1.162-2.228h-.1V27h.1a2.824,2.824,0,0,1,2.777,2.97,2.932,2.932,0,0,1-2.777,3.2m-.1,0a2.945,2.945,0,0,1-2.874-3.2A2.861,2.861,0,0,1,487.374,27v.743c-.839.1-1.292.969-1.292,2.228,0,1.388.42,2.454,1.292,2.454Z" transform="translate(-328.068 -23.707)" fill="#fff"/><path d="M507.325,33.167a3.226,3.226,0,0,1-1.808-.517v.323H505V31.262h.743v.323c0,.517.646.839,1.388.839s1.066-.1,1.066-.42c0-.517-.323-.969-1.582-1.291-1.195-.549-1.614-1.065-1.614-1.9A1.756,1.756,0,0,1,506.9,27a2.077,2.077,0,0,1,1.485.549l.1-.549H509l-.1,1.808h-.743v-.323c0-.517-.517-.969-1.259-.969a.829.829,0,0,0-.872.743c0,.517.226.743,1.582,1.162,1.259.549,1.582.969,1.582,1.808a1.735,1.735,0,0,1-1.873,1.937" transform="translate(-341.949 -23.707)" fill="#fff"/><g transform="translate(114.071 15.11)"><path d="M357.885,72.866h-.549v-.743c-.549.517-.969.839-1.291.839v-.839h.226c.323,0,.517-.1,1.065-.646v-2.97c0-.743-.42-1.065-.743-1.065a1.1,1.1,0,0,0-.549.1v-.646h.226a2.228,2.228,0,0,1,1.065.226v-2.68h-.969v-.517l1.808-.323h.517v8.427h.872v.549l-1.679.291m-1.808.1a.356.356,0,0,1-.323.129,2.7,2.7,0,0,1-2.454-2.97,3.049,3.049,0,0,1,2.777-3.2v.646a2.356,2.356,0,0,0-1.162,2.357c0,1.162.517,2.131,1.162,2.228Z" transform="translate(-353.3 -63.6)" fill="#fff"/><path d="M376.574,80.067h-.1V79a1.657,1.657,0,0,0,.743.1,2.371,2.371,0,0,0,1.582-.549l.323.549a4.223,4.223,0,0,1-2.551.969m-.1-6.167h.194a2.234,2.234,0,0,1,2.454,2.228v.549h-2.648v-.646h1.162v-.194c0-.872-.42-1.388-.969-1.388h-.194V73.9m0,6.167a2.97,2.97,0,0,1-2.777-3.2,2.843,2.843,0,0,1,2.777-2.97v.517A1.986,1.986,0,0,0,375.314,76h1.162v.646h-1.162A2.3,2.3,0,0,0,376.477,79Z" transform="translate(-367.113 -70.574)" fill="#fff"/><path d="M409.161,74.695v-.549h1.065V68.528l-2.551,6.167-3.2-5.941v5.392h1.065v.549H402.8v-.549h.936V66.817H402.8V66.3h2l3.2,5.941,2.648-5.941H413.1v.517h-1.065v7.329H413.1v.549Z" transform="translate(-386.818 -65.428)" fill="#fff"/><path d="M439.574,74.244h-.1V73.178a1.731,1.731,0,0,0,.743.1,2.515,2.515,0,0,0,1.582-.549l.323.549a4.292,4.292,0,0,1-2.551.969m-.1-6.167h.226a2.234,2.234,0,0,1,2.454,2.228v.549h-2.648v-.646h1.065v-.194c0-.872-.323-1.388-.84-1.388h-.226v-.549m-.032-.969V66.043l.646-.743h1.162l-1.808,1.808m0,7.135a2.95,2.95,0,0,1-2.777-3.2,2.843,2.843,0,0,1,2.777-2.97v.517a1.815,1.815,0,0,0-1.162,1.582h1.162v.646h-1.162a2.3,2.3,0,0,0,1.162,2.357v1.065m0-8.2v1.065l-.1.1h-.872Z" transform="translate(-409.773 -64.751)" fill="#fff"/><path d="M457.17,80.247V79.7h.291l-.839-1.582L455.362,79.7h.743v.549h-1.9V79.7h.517l1.582-2.1-1.582-2.583h-.323V74.5h2.551v.517h-.517l.936,1.388.969-1.388h-.517V74.5h1.808v.517h-.549l-1.388,1.937L459.3,79.7h.323v.549Z" transform="translate(-421.622 -70.981)" fill="#fff"/><path d="M472.126,73.611v-.549h.646V68.51H471.9v-.323l1.808-.517h.517v5.424h.646v.549h-2.744m1.388-7.265a.839.839,0,1,1,0-1.679.805.805,0,0,1,.872.839.822.822,0,0,1-.872.839" transform="translate(-433.607 -64.345)" fill="#fff"/><path d="M485.577,80.067A2.885,2.885,0,0,1,482.8,77.1a3.143,3.143,0,0,1,3.2-3.2,4.3,4.3,0,0,1,1.9.517l-.872.839a2.686,2.686,0,0,0-1.066-.839,2.432,2.432,0,0,0-1.614,2.454c0,1.162.839,2.228,1.711,2.228a2.814,2.814,0,0,0,1.485-.323l.323.517c-1.033.323-1.55.775-2.292.775" transform="translate(-440.988 -70.574)" fill="#fff"/><path d="M502.6,80.067h-.1v-.743h.1c.743,0,1.259-1.065,1.259-2.454s-.517-2.228-1.259-2.228h-.1V73.9h.1a2.848,2.848,0,0,1,2.97,2.97,3.055,3.055,0,0,1-2.97,3.2m-.129,0a3.08,3.08,0,0,1-2.874-3.2,2.807,2.807,0,0,1,2.874-2.97v.743c-.646,0-1.259.872-1.259,2.228,0,1.388.646,2.325,1.259,2.454Z" transform="translate(-452.364 -70.574)" fill="#fff"/></g></g><g transform="translate(216.938 9.686)"><path d="M674.87,60.85v-.517H673.9V52.843h.969v-.517H671.9v.517h.969V60.3H671.9v.517h2.97m12.334.032v-.517h-1.065V52.843H687.2v-.517H685.17l-3.1,6.587L679.2,52.326h-2.1v.517h.969V60.3H677.1v.517h2.648V60.3h-.936V53.94l3.067,7.006,3.2-6.909V60.3H684.1v.517h3.1m9.363-.42V58.687h-.549v.936a3.283,3.283,0,0,1-2,.646,3.5,3.5,0,0,1-3.422-3.713c0-2.228,1.292-3.713,3.2-3.713a3.833,3.833,0,0,1,2.228.743v.646h.549V52.1h-.549v.517a5.172,5.172,0,0,0-2.228-.42,4.324,4.324,0,0,0-4.456,4.359,4.378,4.378,0,0,0,4.585,4.456,5.622,5.622,0,0,0,2.648-.613m8.395-5.618a2.437,2.437,0,0,0-2.551-2.454H698.8v.517h.969V60.3H698.8v.517h3.2V60.3h-1.162V52.972h1.485A1.618,1.618,0,0,1,703.8,54.78a2.111,2.111,0,0,1-2.034,2.131.424.424,0,0,1-.323-.1v.42a1.964,1.964,0,0,0,.743.1,2.576,2.576,0,0,0,2.777-2.551" transform="translate(-671.9 -44.965)" fill="#fff"/><path d="M718.92,34.262v-.323c.1,0,.194-.129.323-.226v-.646l-.323.1v-.323l.323-.1V32.1c0-.226-.1-.323-.323-.323v-.194h.1c.549,0,.872.194.872.646v1.711h.42v.194l-.42.1h-.226a.435.435,0,0,1-.42-.323c-.1.226-.226.355-.323.355m2.874,0v-.323h-.323V30h-.226l-.839.226v.226h.42v3.519H720.5v.323h1.291m-2.874-2.712v.194h-.226V32.1l-.646.226c-.1-.1-.1-.1-.1-.226,0-.291.452-.517.969-.517m0,1.291V33.2h-.42v.42c0,.226.1.323.323.323h.1v.323H718.6a.656.656,0,0,1-.742-.646.68.68,0,0,1,.517-.646l.549-.1m-4.036,1.388v-.226c.323,0,.646-.42.646-1.065,0-.743-.323-1.162-.646-1.162v-.194a1.324,1.324,0,0,1,0,2.648m0-2.68v.194c-.323,0-.646.42-.646,1.162,0,.646.323,1.065.646,1.065v.226a1.325,1.325,0,0,1,0-2.648m-3.1,2.68v-.323c.226,0,.323-.129.549-.323V32.228c0-.323-.1-.42-.323-.42-.1,0-.226,0-.226.1v-.323h.517V30.42h-.42v-.226l.872-.194h.226v3.842h.42v.226l-.839.226h-.226v-.323c-.226.161-.323.291-.549.291m0-2.68V31.9a1.016,1.016,0,0,0-.549.969,1.072,1.072,0,0,0,.549,1.065v.323h-.194c-.646,0-1.065-.549-1.065-1.291a1.313,1.313,0,0,1,1.259-1.388m-2.874,2.68v-.323c.1,0,.226-.129.323-.226v-.646l-.323.1v-.323l.323-.1V32.1c0-.226-.1-.323-.323-.323v-.194c.646,0,.936.194.936.646v1.711h.42v.194l-.42.1h-.323c-.226,0-.226-.1-.323-.323-.065.226-.194.355-.291.355m0-2.68v.194h-.226V32.1l-.646.226c-.1-.1-.1-.1-.1-.226.032-.291.323-.517.969-.517m0,1.291V33.2h-.42v.42c0,.226.1.323.323.323h.1v.323h-.323a.656.656,0,0,1-.743-.646.72.72,0,0,1,.517-.646l.549-.1m-5.618,1.388v-.323h.226v-1.9h-.226v-.226l.646-.194h.226v2.357h.323v.323h-1.195m0-3.971v-.194c0,.1,0,.1.1.1l-.1.1m.936.194c0-.226-.194-.323-.42-.323s-.42.1-.42.323a.387.387,0,0,0,.42.42.374.374,0,0,0,.42-.42m1.808,3.745v-.323h-.323V30h-.226l-.839.226v.226h.42v3.519h-.42v.323h1.388m1.614-.032v-.323h-.323V31.582H707.1l-.839.194V32h.42v1.9h-.42v.323h1.388m-.323-3.713c0-.226-.1-.323-.323-.323-.323,0-.42.1-.42.323,0,.323.1.42.42.42.226,0,.323-.1.323-.42m-6.619,3.745v-.323h-.226l-1.453-3.616h-.323v.936l.517,1.388h-.517v.42h.646l.323.872h-.323v.323h1.356m2.583-4.165v.226l-.323.323c-.194-.226-.323-.226-.646-.42-.42.1-.42.226-.42,1.065v.42h.646v.323H701.9v1.9h.42v.323h-1.485v-.323h.452v-1.9h-.452v-.226l.452-.1v-.517a1.064,1.064,0,0,1,.42-.969,2.138,2.138,0,0,1,.84-.226,2.325,2.325,0,0,1,.743.1m0,1.711h-.226v.226h.226Zm0,2.131h-.1v.323h.1Zm-4.585-3.519-1.485,3.519H696.9v.323h1.162v-.323h-.42l.323-.872h.742v-.42h-.646l.646-1.388Z" transform="translate(-688.828 -30)" fill="#fff"/></g><g transform="translate(175.587)"><path d="M591.153,5.779a3.077,3.077,0,0,0,1.873-2.68A3.08,3.08,0,0,0,591.153.291v1.13a1.986,1.986,0,0,1,.936,1.647,2.114,2.114,0,0,1-.936,1.55V5.779M589.28,0V5.779c-.194.1-.517.323-.807.517V7.329a5.842,5.842,0,0,1,.807-.517v4.133a1.761,1.761,0,0,1-.807-.42v1.13a3,3,0,0,0,1.356.323h.517V6.3a2.044,2.044,0,0,0,.839-.517V4.649c-.194.1-.517.323-.839.517V1.033a1.877,1.877,0,0,1,.839.42V.291A3.052,3.052,0,0,0,589.861,0h-.581m-.807,6.3A3.244,3.244,0,0,0,586.6,8.879a2.97,2.97,0,0,0,1.873,2.777v-1.13a1.94,1.94,0,0,1,0-3.2Z" transform="translate(-572.79)" fill="#d93044" fill-rule="evenodd"/><path d="M568.172,19.43a3.2,3.2,0,0,0,2.389-.71l.323-.1s-1.356-2.066-2.68-4.036v1.744c.71,1.033,1.227,1.873,1.324,2.066a2.1,2.1,0,0,1-1.324.1v.936m-.032-6.619a3.93,3.93,0,0,0,0-2.906v2.906m-2.163.71c.194.194.323.42.516.613-.194.291-.323.517-.516.839v3.1c.1.1.1.1.1.226a3.153,3.153,0,0,0,2.066,1.13v-.936a2.137,2.137,0,0,1-1.13-.71,2.748,2.748,0,0,1,.1-2.809c.42.517.71.936,1.033,1.356V14.587c-.194-.194-.323-.42-.517-.613a9.546,9.546,0,0,0,.517-1.13V9.938c-.1-.1-.1-.1-.1-.194a3.154,3.154,0,0,0-2.066-1.13V9.647a2.6,2.6,0,0,1,1.13.839c.517.613.42,1.55-.1,2.68-.42-.517-.71-.936-1.033-1.356v1.711M563.2,9.615s1.453,2.066,2.777,3.939V11.811a13.869,13.869,0,0,1-1.324-2.066,2.1,2.1,0,0,1,1.324-.1V8.55a3.56,3.56,0,0,0-2.389.613l-.387.452m2.809,5.36a3.293,3.293,0,0,0,0,3.1Z" transform="translate(-556.945 -5.773)" fill="#d93044" fill-rule="evenodd"/><path d="M552.395,39.4a2.9,2.9,0,0,0,3-2.163l.1-.517s-1.453-.517-3.1-1.033v1a13.06,13.06,0,0,1,1.969.743,2.357,2.357,0,0,1-1.969,1.13V39.4m-5.069-4.359c.613.194,1.324.42,2.066.613.194,1.356.517,3.1,2.26,3.616a1.8,1.8,0,0,0,.71.1v-.839a.672.672,0,0,0-.42-.1c-1.033-.42-1.356-1.227-1.55-2.389.71.194,1.356.42,1.97.613V35.626c-.71-.194-1.453-.42-2.163-.613-.323-1.324-.613-3.1-2.163-3.616a1.8,1.8,0,0,0-.71-.1v.807c.1.1.194.1.42.1.839.42,1.13,1.227,1.55,2.389-.71-.194-1.453-.42-1.97-.613v1.065M544,34.012s1.453.517,3.326,1.033V34.012a13.06,13.06,0,0,1-1.969-.743,2.175,2.175,0,0,1,1.969-1.13v-.807a3.157,3.157,0,0,0-3.2,2.163Z" transform="translate(-543.944 -21.194)" fill="#d93044" fill-rule="evenodd"/><path d="M552.569,63.849a2.586,2.586,0,0,0,.839-.1,3.121,3.121,0,0,0,1.873-4.036l-.194-.517-2.486.839v1.13a8.359,8.359,0,0,1,1.97-.613,2.168,2.168,0,0,1-1.356,2.163,1.362,1.362,0,0,1-.614.1v1.033m-5.812-.936a27.337,27.337,0,0,0,2.777-.807,4.592,4.592,0,0,0,3,1.744V62.816c-.71,0-1.227-.42-1.97-1.13a9.134,9.134,0,0,0,1.97-.517v-1.13c-.84.323-1.873.71-2.809,1.033a5.427,5.427,0,0,0-3-1.873v1.033a3.209,3.209,0,0,1,1.97.936c-.71.291-1.356.517-1.97.71v1.033m-2.551.839s1.13-.323,2.583-.839V61.88c-.936.323-1.776.613-1.97.71a2.1,2.1,0,0,1,1.453-2.26c.1-.1.323-.1.517-.1V59.2a3.084,3.084,0,0,0-.936.1,3.26,3.26,0,0,0-1.873,4.133Z" transform="translate(-543.828 -40.086)" fill="#d93044" fill-rule="evenodd"/><path d="M567.382,74.883a2.434,2.434,0,0,0,1.873-1.13,3.031,3.031,0,0,0-.839-4.359L567.9,69.2l-.516.71v1.97c.42-.71.839-1.13.936-1.356a1.892,1.892,0,0,1,.1,2.583,1.4,1.4,0,0,1-1.033.71v1.065m-4.843,3.39c.71-.807,1.744-2.26,2.68-3.519a8.113,8.113,0,0,0,2.163.1V73.817a3.805,3.805,0,0,1-1.453-.1c.516-.743,1.033-1.356,1.453-1.873v-1.97c-.613.936-1.647,2.389-2.68,3.713a8.112,8.112,0,0,0-2.163-.1v1.033a3.806,3.806,0,0,1,1.453.1c-.517.71-1.033,1.356-1.453,1.97v1.679m-.71.936a7.136,7.136,0,0,0,.742-.936V76.626a9.254,9.254,0,0,0-.936,1.227,1.894,1.894,0,0,1-.1-2.583,1.536,1.536,0,0,1,1.033-.743V73.494a2.784,2.784,0,0,0-1.969,1.13,3.1,3.1,0,0,0,.936,4.326Z" transform="translate(-554.831 -46.857)" fill="#d93044" fill-rule="evenodd"/><path d="M591.153,79.05a3.058,3.058,0,0,0,1.873-2.583,2.878,2.878,0,0,0-1.873-2.777v1.033a2.314,2.314,0,0,1,.936,1.744,2.124,2.124,0,0,1-.936,1.453v1.13m-.84,6.1V79.47a1.878,1.878,0,0,0,.84-.42V77.92a4.717,4.717,0,0,1-.84.613V74.4a4.151,4.151,0,0,1,.84.323V73.691a3.053,3.053,0,0,0-1.324-.291h-.517v5.586a2.313,2.313,0,0,1-.807.517v1.13a5.836,5.836,0,0,1,.807-.613v4.23a1.071,1.071,0,0,1-.807-.323v.936a3,3,0,0,0,1.356.291h.452m-1.84-5.683a3.406,3.406,0,0,0-1.873,2.777,2.663,2.663,0,0,0,1.873,2.583v-.9a1.906,1.906,0,0,1-.839-1.647,2.08,2.08,0,0,1,.839-1.647Z" transform="translate(-572.79 -49.701)" fill="#d93044" fill-rule="evenodd"/><path d="M613.917,77.744s-1.453-1.97-2.777-3.81v1.744c.71.936,1.227,1.647,1.453,1.97a2.235,2.235,0,0,1-1.453,0v1.033a2.669,2.669,0,0,0,2.357-.613l.42-.323m-2.777-5.683a3.436,3.436,0,0,0,0-2.874v2.874m0,1.873-.517-.71a10.693,10.693,0,0,1,.517-1.13V69.156c-.1-.1-.1-.226-.194-.226a2.847,2.847,0,0,0-1.969-1.13v1.033a1.85,1.85,0,0,1,1.13.743c.613.71.291,1.744,0,2.68-.42-.517-.839-1.033-1.13-1.453v1.744l.613.743c-.194.42-.42.807-.613,1.227v2.712a.521.521,0,0,1,.194.42,3.036,3.036,0,0,0,1.969,1.033V77.648a1.9,1.9,0,0,1-1.227-.71,2.547,2.547,0,0,1,.194-2.68c.29.517.71.936,1.033,1.453V73.935m-2.163-6.1a3.075,3.075,0,0,0-2.26.613l-.517.291s1.453,1.97,2.777,3.842V70.835c-.71-.936-1.227-1.647-1.453-1.873a2.538,2.538,0,0,1,1.453-.1V67.832m0,6.716a3.362,3.362,0,0,0,0,2.68Z" transform="translate(-586.062 -45.909)" fill="#d93044" fill-rule="evenodd"/><path d="M625.059,59.242s-1.453-.517-3.2-1.033v1.033a7.046,7.046,0,0,1,1.969.743,2.37,2.37,0,0,1-1.969,1.033v.936a2.866,2.866,0,0,0,3-2.163l.194-.549m-3.2-1c-.743-.194-1.55-.517-2.292-.71-.194-1.356-.517-3-2.066-3.519a3.23,3.23,0,0,0-.936-.194v.936a1.362,1.362,0,0,1,.613.1,2.647,2.647,0,0,1,1.356,2.389c-.71-.194-1.356-.517-1.97-.71v1.13l2.26.613c.194,1.356.517,3.1,2.26,3.616.194,0,.516.1.743.1V61.05c-.226,0-.42,0-.517-.1-.936-.291-1.227-1.13-1.453-2.357.71.323,1.453.517,1.969.71V58.241M616.6,53.786a2.977,2.977,0,0,0-3,2.292l-.1.517s1.453.42,3.1,1.033V56.5c-.936-.323-1.647-.517-1.97-.613a2.268,2.268,0,0,1,1.97-1.162Z" transform="translate(-591.005 -36.415)" fill="#d93044" fill-rule="evenodd"/><path d="M624.615,36.5l-2.389.839v1.13c.936-.291,1.55-.517,1.873-.613a1.987,1.987,0,0,1-1.453,2.163c-.194.1-.291.1-.42.226v1.033a2.634,2.634,0,0,0,.71-.194c1.647-.517,2.389-2.163,1.873-4.036l-.194-.549m-2.389.839c-.936.291-1.97.71-2.906,1.033a4.982,4.982,0,0,0-3-1.873v1.033a5.321,5.321,0,0,1,2.066,1.13c-.839.194-1.453.42-2.066.613V40.31c.936-.323,1.969-.613,2.906-.936a4.839,4.839,0,0,0,3,1.873V40.213a3.056,3.056,0,0,1-1.97-1.13c.71-.194,1.356-.42,1.97-.613v-1.13m-5.876-.839a2.731,2.731,0,0,0-.84.226c-1.743.517-2.389,2.163-1.969,4.036l.194.517s1.13-.42,2.583-.936V39.309a9.334,9.334,0,0,0-1.873.613,1.932,1.932,0,0,1,1.356-2.26,5.065,5.065,0,0,0,.517-.1V36.5Z" transform="translate(-590.948 -24.715)" fill="#d93044" fill-rule="evenodd"/><path d="M611.011,10.3a5.024,5.024,0,0,1-.71.839v1.647c.517-.613.84-1.033.936-1.13a2.037,2.037,0,0,1,.323,2.486,1.657,1.657,0,0,1-1.227.807v.936a2.094,2.094,0,0,0,1.969-1.033c1.033-1.356.614-3.2-.839-4.456l-.452-.1m-.743.807c-.614.936-1.776,2.292-2.68,3.519a14.694,14.694,0,0,0-2.066,0V15.66a8.332,8.332,0,0,1,1.55-.1,11.455,11.455,0,0,1-1.55,2.066v1.744c.71-.936,1.647-2.389,2.583-3.713a4.949,4.949,0,0,0,2.163.194v-.936a7.83,7.83,0,0,1-1.453-.1c.517-.71,1.033-1.453,1.453-2.066V11.107m-4.746,3.519a2.56,2.56,0,0,0-1.969,1.033,3.057,3.057,0,0,0,1.033,4.23l.291.42.646-.936V17.629c-.42.613-.839,1.13-.936,1.356a2.048,2.048,0,0,1-.194-2.583,2.188,2.188,0,0,1,1.162-.743V14.626Z" transform="translate(-583.963 -6.974)" fill="#d93044" fill-rule="evenodd"/></g></svg>