<svg xmlns="http://www.w3.org/2000/svg" width="125" height="125" viewBox="0 0 125 125"><g transform="translate(-898 -8938)"><circle cx="62.5" cy="62.5" r="62.5" transform="translate(898 8938)"/><g transform="translate(926.5 8965.211)"><path d="M595.581,11.4c2.038-1.21,3.694-2.675,3.694-5.287A6.075,6.075,0,0,0,595.581.573V2.8a3.917,3.917,0,0,1,1.847,3.249,4.17,4.17,0,0,1-1.847,3.057V11.4M591.887,0V11.4c-.382.191-1.019.637-1.592,1.019v2.038a11.535,11.535,0,0,1,1.592-1.019v8.153a3.474,3.474,0,0,1-1.592-.828v2.229a5.922,5.922,0,0,0,2.675.637h1.019V12.421a4.033,4.033,0,0,0,1.656-1.019V9.172c-.382.191-1.019.637-1.656,1.019V2.038a3.7,3.7,0,0,1,1.656.828V.573A6.022,6.022,0,0,0,593.033,0h-1.147m-1.592,12.421c-1.847,1.019-3.694,2.866-3.694,5.1a5.859,5.859,0,0,0,3.694,5.478V20.765a3.828,3.828,0,0,1,0-6.306Z" transform="translate(-559.355)" fill="#d93044" fill-rule="evenodd"/><path d="M573.009,30.039a6.3,6.3,0,0,0,4.714-1.4l.637-.191s-2.675-4.077-5.287-7.962v3.44c1.4,2.038,2.421,3.694,2.612,4.077a4.134,4.134,0,0,1-2.612.191v1.847m-.064-13.058a7.752,7.752,0,0,0,0-5.733v5.733m-4.268,1.4c.382.382.637.828,1.019,1.21-.382.573-.637,1.019-1.019,1.656v6.115c.191.191.191.191.191.446a6.222,6.222,0,0,0,4.077,2.229V28.192a4.216,4.216,0,0,1-2.229-1.4c-1.019-1.847-.828-3.5.191-5.542.828,1.019,1.4,1.847,2.038,2.675v-3.44c-.382-.382-.637-.828-1.019-1.21a18.832,18.832,0,0,0,1.019-2.229V11.312c-.191-.191-.191-.191-.191-.382A6.223,6.223,0,0,0,568.742,8.7v2.038a5.137,5.137,0,0,1,2.229,1.656c1.019,1.21.828,3.057-.191,5.287-.828-1.019-1.4-1.847-2.038-2.675v3.376M563.2,10.675s2.866,4.077,5.478,7.771v-3.44a27.358,27.358,0,0,1-2.612-4.077,4.133,4.133,0,0,1,2.612-.191V8.573a7.024,7.024,0,0,0-4.714,1.21l-.764.892m5.542,10.574c-.828,2.038-1.21,4.077,0,6.115Z" transform="translate(-550.861 -3.095)" fill="#d93044" fill-rule="evenodd"/><path d="M560.561,47.288a5.719,5.719,0,0,0,5.924-4.268L566.676,42s-2.866-1.019-6.115-2.038v1.975a25.768,25.768,0,0,1,3.885,1.465,4.65,4.65,0,0,1-3.885,2.229v1.656m-10-8.6c1.21.382,2.612.828,4.077,1.21.382,2.675,1.019,6.115,4.459,7.134a3.555,3.555,0,0,0,1.4.191V45.568a1.326,1.326,0,0,0-.828-.191c-2.038-.828-2.675-2.42-3.057-4.714,1.4.382,2.675.828,3.885,1.21V39.835c-1.4-.382-2.866-.828-4.268-1.21-.637-2.612-1.21-6.115-4.268-7.134a3.557,3.557,0,0,0-1.4-.191v1.592c.191.191.382.191.828.191,1.656.828,2.229,2.42,3.057,4.714-1.4-.382-2.866-.828-3.885-1.21v2.1M544,36.651s2.866,1.019,6.561,2.038V36.651a25.762,25.762,0,0,1-3.885-1.465,4.291,4.291,0,0,1,3.885-2.229V31.364c-2.866-.191-5.1,1.4-6.306,4.268Z" transform="translate(-543.89 -11.363)" fill="#d93044" fill-rule="evenodd"/><path d="M561.072,68.372a5.1,5.1,0,0,0,1.656-.191,6.157,6.157,0,0,0,3.694-7.962L566.04,59.2l-4.9,1.656v2.229a16.487,16.487,0,0,1,3.885-1.21,4.277,4.277,0,0,1-2.675,4.268,2.686,2.686,0,0,1-1.21.191v2.038M549.67,66.525a53.939,53.939,0,0,0,5.478-1.592c1.4,1.592,3.695,3.44,5.924,3.44V66.334c-1.4,0-2.421-.828-3.885-2.229a18.019,18.019,0,0,0,3.885-1.019V60.856c-1.656.637-3.694,1.4-5.542,2.038-1.592-1.656-3.631-3.44-5.924-3.694v2.038a6.329,6.329,0,0,1,3.885,1.847c-1.4.573-2.675,1.019-3.885,1.4v2.038m-5.032,1.656s2.229-.637,5.1-1.656V64.487c-1.847.637-3.5,1.21-3.885,1.4a4.132,4.132,0,0,1,2.866-4.459c.191-.191.637-.191,1.019-.191V59.2a6.084,6.084,0,0,0-1.847.191c-3.057,1.019-4.714,4.459-3.694,8.153Z" transform="translate(-543.828 -21.491)" fill="#d93044" fill-rule="evenodd"/><path d="M574.487,80.411a4.8,4.8,0,0,0,3.694-2.229c2.038-2.675,1.4-6.306-1.656-8.6l-1.019-.382-1.019,1.4v3.886c.828-1.4,1.656-2.229,1.847-2.675a3.733,3.733,0,0,1,.191,5.1,2.769,2.769,0,0,1-2.038,1.4v2.1M564.933,87.1c1.4-1.592,3.44-4.459,5.287-6.943a16,16,0,0,0,4.268.191V78.309a7.508,7.508,0,0,1-2.866-.191c1.019-1.465,2.038-2.675,2.866-3.694V70.538c-1.21,1.847-3.249,4.714-5.287,7.325a16,16,0,0,0-4.268-.191V79.71a7.509,7.509,0,0,1,2.866.191c-1.019,1.4-2.038,2.675-2.866,3.885V87.1m-1.4,1.847A14.087,14.087,0,0,0,565,87.1V83.85a18.244,18.244,0,0,0-1.847,2.421,3.736,3.736,0,0,1-.191-5.1A3.03,3.03,0,0,1,565,79.71V77.672a5.492,5.492,0,0,0-3.885,2.229c-1.847,2.675-1.21,6.306,1.847,8.535Z" transform="translate(-549.727 -25.122)" fill="#d93044" fill-rule="evenodd"/><path d="M595.581,84.547c2.038-1.019,3.694-2.866,3.694-5.1a5.677,5.677,0,0,0-3.694-5.478v2.038a4.566,4.566,0,0,1,1.847,3.44,4.19,4.19,0,0,1-1.847,2.866v2.229m-1.656,12.039V85.375a3.7,3.7,0,0,0,1.656-.828V82.318a9.3,9.3,0,0,1-1.656,1.21V75.375a8.182,8.182,0,0,1,1.656.637V73.973a6.022,6.022,0,0,0-2.612-.573h-1.019V84.42a4.561,4.561,0,0,1-1.593,1.019v2.229a11.516,11.516,0,0,1,1.593-1.21V94.8a2.113,2.113,0,0,1-1.593-.637v1.847a5.911,5.911,0,0,0,2.675.573h.892m-3.631-11.211c-1.847,1.21-3.694,2.866-3.694,5.478a5.254,5.254,0,0,0,3.694,5.1V94.165a3.76,3.76,0,0,1-1.656-3.249,4.1,4.1,0,0,1,1.656-3.249Z" transform="translate(-559.355 -26.646)" fill="#d93044" fill-rule="evenodd"/><path d="M621.424,87.419s-2.866-3.886-5.478-7.516v3.44c1.4,1.847,2.42,3.249,2.866,3.886a4.409,4.409,0,0,1-2.866,0v2.038a5.265,5.265,0,0,0,4.65-1.21l.828-.637m-5.478-11.211c.637-1.847,1.019-3.886,0-5.669v5.669m0,3.694-1.019-1.4a21.1,21.1,0,0,1,1.019-2.229v-5.8c-.191-.191-.191-.446-.382-.446a5.617,5.617,0,0,0-3.885-2.229v2.038a3.65,3.65,0,0,1,2.229,1.465c1.21,1.4.573,3.44,0,5.287-.828-1.019-1.656-2.038-2.229-2.866v3.44l1.21,1.465c-.382.828-.828,1.592-1.21,2.42V86.4a1.028,1.028,0,0,1,.382.828,5.99,5.99,0,0,0,3.885,2.038V87.228a3.757,3.757,0,0,1-2.421-1.4c-1.019-1.4-.637-3.5.382-5.287.573,1.019,1.4,1.847,2.038,2.866V79.9m-4.268-12.039a6.067,6.067,0,0,0-4.459,1.21l-1.019.573s2.866,3.886,5.478,7.58v-3.44c-1.4-1.847-2.421-3.249-2.866-3.694a5.007,5.007,0,0,1,2.866-.191V67.864m0,13.249a6.633,6.633,0,0,0,0,5.287Z" transform="translate(-566.471 -24.613)" fill="#d93044" fill-rule="evenodd"/><path d="M636.3,64.557s-2.866-1.019-6.306-2.038v2.038c2.038.637,3.44,1.019,3.885,1.465A4.676,4.676,0,0,1,630,68.06v1.847a5.655,5.655,0,0,0,5.924-4.268l.382-1.083M630,62.582c-1.465-.382-3.057-1.019-4.522-1.4-.382-2.675-1.019-5.924-4.077-6.943a6.373,6.373,0,0,0-1.847-.382V55.7a2.686,2.686,0,0,1,1.21.191c1.656.637,2.42,2.484,2.675,4.714-1.4-.382-2.675-1.019-3.885-1.4v2.229c1.4.382,3.058.828,4.459,1.21.382,2.675,1.019,6.115,4.459,7.134.382,0,1.019.191,1.465.191V68.124c-.446,0-.828,0-1.019-.191-1.847-.573-2.421-2.229-2.866-4.65,1.4.637,2.866,1.019,3.886,1.4v-2.1m-10.319-8.79a5.873,5.873,0,0,0-5.924,4.522l-.191,1.019s2.866.828,6.115,2.038V59.143c-1.847-.637-3.249-1.019-3.886-1.21a4.474,4.474,0,0,1,3.886-2.293Z" transform="translate(-569.121 -19.523)" fill="#d93044" fill-rule="evenodd"/><path d="M635.509,36.5,630.8,38.156v2.229c1.847-.573,3.057-1.019,3.694-1.21,0,2.038-.764,3.694-2.866,4.268-.382.191-.573.191-.828.446v2.038a5.2,5.2,0,0,0,1.4-.382c3.249-1.019,4.714-4.268,3.694-7.962l-.382-1.083M630.8,38.156c-1.847.573-3.885,1.4-5.733,2.038-1.4-1.592-3.44-3.44-5.924-3.694v2.038c1.21.191,2.421,1.019,4.077,2.229-1.656.382-2.866.828-4.077,1.21v2.038c1.847-.637,3.886-1.21,5.733-1.847,1.4,1.656,3.44,3.44,5.924,3.694V43.825c-1.4,0-2.675-1.019-3.885-2.229,1.4-.382,2.675-.828,3.885-1.21V38.156M619.2,36.5a5.387,5.387,0,0,0-1.656.446c-3.44,1.019-4.714,4.268-3.885,7.962l.382,1.019s2.229-.828,5.1-1.847V42.042a18.42,18.42,0,0,0-3.694,1.21,3.811,3.811,0,0,1,2.675-4.459,9.989,9.989,0,0,0,1.019-.191V36.5Z" transform="translate(-569.091 -13.251)" fill="#d93044" fill-rule="evenodd"/><path d="M618.706,10.3a9.9,9.9,0,0,1-1.4,1.656V15.2c1.019-1.21,1.656-2.038,1.847-2.229a4.019,4.019,0,0,1,.637,4.9,3.269,3.269,0,0,1-2.42,1.592V21.32a4.13,4.13,0,0,0,3.885-2.038c2.038-2.675,1.21-6.306-1.656-8.79l-.892-.191m-1.465,1.592c-1.21,1.847-3.5,4.522-5.287,6.943a28.989,28.989,0,0,0-4.077,0v2.038a16.436,16.436,0,0,1,3.057-.191,22.6,22.6,0,0,1-3.057,4.077V28.2c1.4-1.847,3.248-4.714,5.1-7.325a9.764,9.764,0,0,0,4.268.382V19.409a15.446,15.446,0,0,1-2.866-.191c1.019-1.4,2.038-2.866,2.866-4.077V11.892m-9.363,6.943a5.052,5.052,0,0,0-3.886,2.038,6.031,6.031,0,0,0,2.038,8.344l.573.828,1.274-1.847v-3.44c-.828,1.21-1.656,2.229-1.847,2.675a4.04,4.04,0,0,1-.382-5.1,4.316,4.316,0,0,1,2.293-1.465V18.835Z" transform="translate(-565.346 -3.739)" fill="#d93044" fill-rule="evenodd"/></g></g></svg>