<svg xmlns="http://www.w3.org/2000/svg" width="125" height="125" viewBox="0 0 125 125"><g transform="translate(-898 -6992)"><circle cx="62.5" cy="62.5" r="62.5" transform="translate(898 6992)"/><path d="M48.512,15.828Q48.2,7.811,43.578,4.111C40.289,1.439,34.123,0,25.284,0h0C15.006,0,8.428,1.85,4.933,5.344,1.644,9.045,0,16.239,0,26.722c0,11.1,1.644,18.706,4.522,22.611,3.083,3.906,9.045,5.756,17.884,5.756a71,71,0,0,0,11.717-1.028v.617c0,6.578-2.056,8.222-10.483,8.222H6.989A1.3,1.3,0,0,0,5.55,64.34v7.4a1.565,1.565,0,0,0,1.439,1.644,114.559,114.559,0,0,0,17.884,1.439c12.333,0,18.706-2.261,21.378-7.606,1.85-3.494,2.467-7.4,2.467-13.567v-37l-.206-.822ZM25.489,42.756c-4.933,0-8.017-1.028-9.25-2.878s-1.85-6.167-1.85-12.333.617-10.072,1.644-12.128q1.85-3.083,8.633-3.083h.617c5.55,0,8.633,1.85,9.045,5.55v24.05a35.856,35.856,0,0,1-8.839.822" transform="translate(935.599 7017.026)" fill="#fff"/></g></svg>