<svg xmlns="http://www.w3.org/2000/svg" width="200" height="63.903" viewBox="0 0 200 63.903"><path d="M56.293,2.356c1.885,1.531,2.827,3.887,2.827,7.185v19.2a1.674,1.674,0,0,1-1.178,1.767,55.213,55.213,0,0,1-12.6,1.178c-4.712,0-6.949-.236-9.423-1.531-2.356-1.3-3.3-3.769-3.416-8.127,0-3.534.942-5.889,2.709-7.185,1.885-1.3,4.712-1.885,8.6-1.885h7.067v-2c0-2.591-1.767-3.769-5.183-3.769H35.68c-.589,0-.825-.118-.825-.825V1.767c0-.589.118-.707.825-.942A60.2,60.2,0,0,1,45.692,0c5.183,0,8.716.825,10.6,2.356m-5.418,15.9H44.514c-2.827,0-3.887.942-3.887,3.3,0,2.591,1.178,3.416,4.712,3.416a17.58,17.58,0,0,0,5.536-.589Z" transform="translate(6.227)" fill="#fff"/><path d="M120.871,3.15c1.885,2,2.709,6.125,2.827,12.368v1.767c0,1.06-.353,1.531-1.767,1.531H104.5c0,2.474.471,4,1.3,4.712s2.474,1.06,4.947,1.06h9.776c.589,0,.825.236.825.825v4.594a.9.9,0,0,1-.825.942,58.277,58.277,0,0,1-10.6.825c-5.654,0-9.305-1.06-11.19-3.18S95.9,22.231,95.9,15.988c0-6.361.942-10.6,2.827-12.6,1.885-2.12,5.536-3.18,11.19-3.18,5.536-.236,9.187.825,10.954,2.945m-16.49,10.13h10.954c0-4.829-1.3-6.125-5.418-6.125-4.123-.118-5.418,1.3-5.536,6.125" transform="translate(18.385 0.031)" fill="#fff"/><path d="M92.627,10.719c-.236-4.123-.825-6.6-2.709-8.245C87.8.471,84.853,0,79.317,0H78.61c-5.654,0-8.481.471-10.6,2.474-1.885,1.649-2.591,4.24-2.709,8.481h0V30.507a.96.96,0,0,0,.825.942h6.6c.589,0,.824-.236.824-.942V12.6c.118-2.238.353-3.416,1.06-4.358.942-1.06,1.885-1.178,4.358-1.178s3.534.118,4.358,1.178c.825.942,1.06,2.356,1.06,5.183V30.389c0,.589.236.942.825.942h6.478c.589,0,.825-.236.825-.942V13.31l.118-2.591Z" transform="translate(12.516 0)" fill="#fff"/><path d="M175.144,10.719c-.236-4.123-.825-6.6-2.709-8.245C170.315.471,167.37,0,161.834,0h-.707c-4.476,0-7.3.353-9.305,1.413C149.82.236,147.11,0,142.517,0h-.707c-5.654,0-8.481.471-10.6,2.474-1.885,1.649-2.591,4.24-2.709,8.481h0V30.507a.96.96,0,0,0,.824.942h6.6c.589,0,.825-.236.825-.942V12.6c.118-2.238.353-3.416,1.06-4.358.942-1.06,1.885-1.178,4.358-1.178s3.534.118,4.358,1.178c.825.942,1.06,2.356,1.06,5.183V30.389c0,.589.236.942.825.942h6.478c.589,0,.825-.236.825-.942V12.6c.118-2.238.353-3.416,1.06-4.358.942-1.06,1.885-1.178,4.358-1.178s3.534.118,4.358,1.178c.825.942,1.06,2.356,1.06,5.183V30.389c0,.589.236.942.825.942h6.949c.589,0,.825-.236.825-.942V10.719Z" transform="translate(24.856 0)" fill="#fff"/><path d="M27.8,9.07q-.177-4.594-2.827-6.714C23.086.825,19.553,0,14.488,0h0C8.6,0,4.829,1.06,2.827,3.062.942,5.183,0,9.305,0,15.312c0,6.361.942,10.719,2.591,12.957,1.767,2.238,5.183,3.3,10.248,3.3a40.686,40.686,0,0,0,6.714-.589v.353c0,3.769-1.178,4.712-6.007,4.712H4a.744.744,0,0,0-.825.825v4.24A.9.9,0,0,0,4,42.05a65.644,65.644,0,0,0,10.248.825c7.067,0,10.719-1.3,12.25-4.358,1.06-2,1.413-4.24,1.413-7.774V9.541L27.8,9.07ZM14.606,24.5c-2.827,0-4.594-.589-5.3-1.649s-1.06-3.534-1.06-7.067.353-5.772.942-6.949q1.06-1.767,4.947-1.767h.353c3.18,0,4.947,1.06,5.183,3.18V24.029a20.546,20.546,0,0,1-5.065.471" transform="translate(0)" fill="#fff"/><path d="M66.8,46.1a3.38,3.38,0,0,1,3.062,1.649l-1.06.589a2.444,2.444,0,0,0-2-1.06,2.829,2.829,0,0,0,0,5.654,2.256,2.256,0,0,0,1.767-.707V51.047H66.334V49.869h3.651V52.7A4.246,4.246,0,0,1,66.8,54.11a4,4,0,0,1,0-8.01" transform="translate(11.946 8.836)" fill="#bbbcbe"/><path d="M74.709,51.029h-1.3v2.827H72V46.2h3.416a2.259,2.259,0,0,1,2.474,2.356,2.116,2.116,0,0,1-1.767,2.238l1.885,3.062H76.476Zm.589-3.651H73.413v2.474H75.3a1.211,1.211,0,0,0,1.3-1.178,1.307,1.307,0,0,0-1.3-1.3" transform="translate(13.69 8.854)" fill="#bbbcbe"/><path d="M83.788,46.1a3.741,3.741,0,0,1,3.887,4,3.874,3.874,0,0,1-3.887,4,3.741,3.741,0,0,1-3.887-4,3.68,3.68,0,0,1,3.887-4m0,1.178A2.838,2.838,0,1,0,86.379,50.1c-.118-1.649-1.06-2.827-2.591-2.827" transform="translate(15.2 8.836)" fill="#bbbcbe"/><path d="M89.6,46.2h1.413v4.594a2,2,0,1,0,4,0V46.2h1.413v4.594a3.3,3.3,0,0,1-6.6,0V46.2Z" transform="translate(17.041 8.854)" fill="#bbbcbe"/><path d="M98.6,46.2h3.416a2.258,2.258,0,0,1,2.474,2.356,2.321,2.321,0,0,1-2.474,2.356h-2v2.827h-1.3V46.2Zm3.18,1.178H99.9v2.474h1.885a1.211,1.211,0,0,0,1.3-1.178,1.307,1.307,0,0,0-1.3-1.3" transform="translate(18.747 8.854)" fill="#bbbcbe"/><rect width="0.118" height="9.659" transform="translate(63.058 53.994)" fill="#e75f00"/><rect width="0.118" height="9.659" transform="translate(63.058 53.994)" fill="none" stroke="#e75f00" stroke-miterlimit="10" stroke-width="0.5"/><rect width="0.118" height="9.659" transform="translate(136.943 53.994)" fill="#e75f00"/><rect width="0.118" height="9.659" transform="translate(136.943 53.994)" fill="none" stroke="#e75f00" stroke-miterlimit="10" stroke-width="0.5"/></svg>