<svg xmlns="http://www.w3.org/2000/svg" xmlns:xlink="http://www.w3.org/1999/xlink" width="125" height="125" viewBox="0 0 125 125"><defs><radialGradient id="a" cx="0.798" cy="0" r="0.647" gradientUnits="objectBoundingBox"><stop offset="0"/><stop offset="1" stop-color="#e31c42"/></radialGradient><clipPath id="b"><path d="M63.885,32.363A23.16,23.16,0,0,1,32.363,63.885L22,74.249A37.476,37.476,0,0,0,74.249,22Z" transform="translate(-22 -22)" fill="url(#a)"/></clipPath></defs><g transform="translate(-898 -8393)"><circle cx="62.5" cy="62.5" r="62.5" transform="translate(898 8393)"/><g transform="translate(-91 1509)"><path d="M37.5,0a37.5,37.5,0,1,0,37.5,37.5A37.518,37.518,0,0,0,37.5,0m0,60.669a23.138,23.138,0,0,1,0-46.276A22.582,22.582,0,0,1,48.65,17.272L28,37.855l9.068,9L57.79,26.124a22.98,22.98,0,0,1,2.951,11.3A23.281,23.281,0,0,1,37.5,60.669" transform="translate(1014 6909)" fill="#e31c42"/><g transform="translate(1029.833 6924.833)"><g clip-path="url(#b)"><rect width="59.23" height="59.23" transform="translate(0 0)" fill="url(#a)"/></g></g></g></g></svg>