<svg xmlns="http://www.w3.org/2000/svg" xmlns:xlink="http://www.w3.org/1999/xlink" width="200" height="53.231" viewBox="0 0 200 53.231"><defs><radialGradient id="a" cx="0.798" cy="0" r="0.647" gradientUnits="objectBoundingBox"><stop offset="0" stop-color="#1d4a60"/><stop offset="1" stop-color="#e31c42"/></radialGradient><clipPath id="b"><path d="M51.732,29.356A16.44,16.44,0,0,1,29.356,51.732L22,59.088A26.6,26.6,0,0,0,59.088,22Z" transform="translate(-22 -22)" fill="url(#a)"/></clipPath></defs><path d="M168.926,26.086h-1.533v3.78h-4.138V16.941L163,15h6.59c4.5,0,7.2,1.89,7.2,5.773a4.53,4.53,0,0,1-3.525,4.7L176.64,29.1v.766H172.2Zm.409-3.474c2.043,0,3.269-.409,3.269-1.788,0-1.89-1.277-2.35-3.372-2.35h-2.095l.255,1.635v2.5Z" transform="translate(-79.731 -7.337)" fill="#f2f2f2"/><path d="M230.842,26.545v3.321h-4.087V16.89L226.5,15h6.59c4.5,0,7.2,1.89,7.2,5.773,0,4.342-3.372,5.773-7.561,5.773h-1.89Zm1.941-3.678c2.094,0,3.269-.46,3.269-2.043,0-1.89-1.277-2.095-3.372-2.095h-2.146l.307,1.379v2.81h1.941Z" transform="translate(-110.791 -7.337)" fill="#f2f2f2"/><path d="M143.574,15.726l-.307,3.423H142.3a5.489,5.489,0,0,0-3.321-1.175,3.909,3.909,0,0,0-4.087,4.087,3.965,3.965,0,0,0,4.087,4.189,4.964,4.964,0,0,0,2.605-.766V22.367h3.474v5.262a10.052,10.052,0,0,1-6.641,2.3c-4.649,0-7.714-3.474-7.714-7.969,0-4.393,3.525-7.561,8.276-7.561a6.617,6.617,0,0,1,4.6,1.328" transform="translate(-63.931 -7.041)" fill="#f2f2f2"/><path d="M201.15,30.172c-4.24,0-7.05-1.737-7.05-7.254V15h4.138v7.816c0,3.065,1.277,3.831,2.963,3.831s2.963-.715,2.963-3.678V15H208.3v7.816c0,5.619-2.912,7.356-7.152,7.356" transform="translate(-94.943 -7.337)" fill="#f2f2f2"/><path d="M264.32,29.781a7.649,7.649,0,0,1-8.02-7.816c0-4.5,3.372-7.765,8.072-7.765a7.625,7.625,0,0,1,7.969,7.765,7.679,7.679,0,0,1-8.02,7.816m0-11.852c-2.146,0-3.831,1.277-3.831,4.036A3.809,3.809,0,0,0,264.423,26c2.4,0,3.831-1.533,3.831-3.985-.051-2.81-1.533-4.087-3.934-4.087" transform="translate(-125.368 -6.946)" fill="#f2f2f2"/><path d="M134.536,63.142a3.615,3.615,0,0,0,3.883,3.218c1.43,0,3.321-.358,3.729-.868h1.277l.409,2.759c-.664.817-2.759,1.533-5.466,1.533a7.552,7.552,0,0,1-7.867-7.816c0-4.291,3.065-7.867,7.458-7.867,5.006,0,7.05,3.116,7.05,7.612v.051l-.2,1.328H134.536Zm.2-2.708h6.437a2.871,2.871,0,0,0-3.014-3.116,3.43,3.43,0,0,0-3.423,3.116" transform="translate(-63.833 -26.463)" fill="#f2f2f2"/><path d="M170.213,69.719l-3.065-4.7-3.014,4.7H160.2V68.9l4.751-6.794-4.5-6.59V54.7h3.985l2.81,4.342,2.81-4.342h3.934v.817l-4.547,6.488,4.8,6.9v.817Z" transform="translate(-78.361 -26.756)" fill="#f2f2f2"/><path d="M207.232,61.962c0,4.649-3.269,7.918-7.1,7.918a7.074,7.074,0,0,1-4.444-1.584v4.291H191.6V54.5h2.963l.817,1.89a7.194,7.194,0,0,1,4.955-2.095c3.627-.051,6.9,2.656,6.9,7.663m-11.545,3.014a4.309,4.309,0,0,0,3.014,1.277c2.452,0,4.24-1.788,4.24-4.6,0-2.861-1.686-4.189-3.678-4.189s-3.576,1.277-3.576,3.831Z" transform="translate(-93.72 -26.56)" fill="#f2f2f2"/><path d="M226.988,55.524A16.4,16.4,0,0,1,232.2,54.4c4.649,0,6.692,2.4,6.692,6.488v8.736h-3.014l-.817-1.635a5.81,5.81,0,0,1-4.547,1.89c-2.861,0-5.313-1.635-5.313-4.751,0-3.167,2.35-4.955,6.488-4.955a9.934,9.934,0,0,1,3.372.562v-.2c0-1.992-1.584-2.759-3.321-2.759a6.8,6.8,0,0,0-3.065.766H227.4Zm8.123,8.429v-.817a11.926,11.926,0,0,0-3.014-.409c-1.737,0-3.423.46-3.423,2.095,0,1.277.92,2.095,2.81,2.095,1.941,0,3.627-1.124,3.627-2.963" transform="translate(-110.155 -26.609)" fill="#f2f2f2"/><path d="M267.2,69.475V60.432c0-2.043-.971-3.014-2.554-3.014-1.635,0-2.656,1.022-2.656,3.014v9.042H257.7V54.455h3.116l.868,1.584a7.3,7.3,0,0,1,4.7-1.839c3.218,0,5.109,2.146,5.109,5.568v9.757H267.2Z" transform="translate(-126.052 -26.512)" fill="#f2f2f2"/><path d="M299.821,55.472l-.255,2.963H298.6a6.309,6.309,0,0,0-3.474-.971c-1.073,0-1.992.307-1.992,1.226,0,.868.46,1.226,3.167,2.2,2.35.817,4.291,1.839,4.291,4.291,0,3.065-2.708,4.6-5.824,4.6a8.126,8.126,0,0,1-5.109-1.584l.2-2.759h.92a7.6,7.6,0,0,0,4.036,1.328c1.073,0,1.89-.358,1.89-1.328,0-.817-.868-1.175-3.065-2.043-2.3-.868-4.24-1.89-4.24-4.547,0-3.116,2.708-4.547,5.773-4.547a8.005,8.005,0,0,1,4.649,1.175" transform="translate(-141.558 -26.557)" fill="#f2f2f2"/><path d="M315.7,44h4.5v4.087h-4.5Zm.1,5.466h4.24V64.485H315.8Z" transform="translate(-154.423 -21.522)" fill="#f2f2f2"/><path d="M337.587,47.073l3.218-3.269-2.554-2.5-4.189,4.189,1.584,1.635h1.941Zm-.92.766a7.481,7.481,0,0,0-7.867,7.867c0,4.649,3.627,7.816,8.276,7.816,3.474,0,7.867-3.218,7.867-7.816,0-4.7-3.627-7.867-8.276-7.867m0,12.005c-2.35,0-3.678-1.686-3.678-4.138,0-2.554,1.175-4.138,3.627-4.138,2.35,0,3.678,1.635,3.678,4.189,0,2.452-1.175,4.087-3.627,4.087" transform="translate(-160.831 -20.202)" fill="#f2f2f2"/><path d="M374.051,69.475V60.432c0-2.043-.92-3.014-2.554-3.014s-2.656,1.022-2.656,3.014v9.042H364.6V54.455h3.116l.817,1.584a7.3,7.3,0,0,1,4.7-1.839c3.218,0,5.109,2.146,5.109,5.568v9.757h-4.291Z" transform="translate(-178.342 -26.512)" fill="#f2f2f2"/><path d="M26.616,0A26.616,26.616,0,1,0,53.231,26.616,26.631,26.631,0,0,0,26.616,0m0,43.065a16.424,16.424,0,0,1,0-32.848,16.029,16.029,0,0,1,7.918,2.043L19.872,26.871l6.437,6.386L41.022,18.544a16.312,16.312,0,0,1,2.095,8.02,16.526,16.526,0,0,1-16.5,16.5" fill="#e31c42"/><g transform="translate(11.239 11.239)"><g clip-path="url(#b)"><rect width="42.043" height="42.043" transform="translate(0 0)" fill="url(#a)"/></g></g></svg>