<svg xmlns="http://www.w3.org/2000/svg" width="200" height="62.957" viewBox="0 0 200 62.957"><g transform="translate(1.631)"><path d="M29.75,24.347h-9.5c-1.063,0-1.347-.638-1.347-1.56V.1H15.5V25.836a1.777,1.777,0,0,0,1.56,1.772H29.75Z" transform="translate(-6.142 -0.029)" fill="#fff"/><path d="M27.859,28.884v3.4H10.985A1.938,1.938,0,0,1,9,30.3V.1h3.4V26.828c0,1.134.5,2.127,1.914,2.127H27.859Z" transform="translate(-4.25 -0.029)" fill="#fff"/><path d="M2.371.2h3.4V31.324a2.074,2.074,0,0,0,2.2,2.34H25.909v3.261H6.341A4.133,4.133,0,0,1,2.3,32.883V.2Z" transform="translate(-2.3 -0.058)" fill="#fff"/><path d="M22,.2h3.4V18.42A1.151,1.151,0,0,0,26.679,19.7h5.034v3.4H23.7A1.5,1.5,0,0,1,22,21.4Z" transform="translate(-8.033 -0.058)" fill="#fff"/><path d="M28.4,16.5h9.5c1.063,0,1.347.638,1.347,1.56V40.75h3.4V14.872a1.777,1.777,0,0,0-1.56-1.772H28.4Z" transform="translate(-9.896 -3.813)" fill="#fff"/><path d="M28.4,9.932V6.6H45.415A1.938,1.938,0,0,1,47.4,8.585v30.2H44V12.059c0-1.134-.5-2.127-1.914-2.127Z" transform="translate(-9.896 -1.921)" fill="#fff"/><path d="M51.938,36.866h-3.4V5.672a2.074,2.074,0,0,0-2.2-2.34H28.4V0H47.968a4.133,4.133,0,0,1,4.041,4.041V36.866Z" transform="translate(-9.896)" fill="#fff"/><path d="M38.113,42.571h-3.4V24.279A1.151,1.151,0,0,0,33.434,23H28.4V19.6h8.011a1.5,1.5,0,0,1,1.7,1.7V42.571Z" transform="translate(-9.896 -5.704)" fill="#fff"/><g transform="translate(51.329 8.153)"><path d="M169.074,27.23a2.06,2.06,0,0,1,1.985-2.127h2.978V21.7h-3.616a4.781,4.781,0,0,0-4.821,4.821V43.182H169Z" transform="translate(-101.155 -14.469)" fill="#fff"/><rect width="3.403" height="21.411" transform="translate(15.101 7.231)" fill="#fff"/><path d="M176.9,51h3.4V39.655a11.2,11.2,0,0,0,7.94,3.19,11.076,11.076,0,0,0,9.571-5.388,11.321,11.321,0,0,0,19.284,0,11.273,11.273,0,1,0,0-11.769,11.321,11.321,0,0,0-19.284,0,11.245,11.245,0,0,0-20.844,5.884V51Zm49.84-27.366a7.94,7.94,0,1,1-7.94,7.94,8.019,8.019,0,0,1,7.94-7.94m-19.355,0a7.94,7.94,0,1,1-7.94,7.94,8.019,8.019,0,0,1,7.94-7.94m-19.213,0a7.94,7.94,0,1,1-7.94,7.94,8.019,8.019,0,0,1,7.94-7.94" transform="translate(-104.443 -14.061)" fill="#fff"/><path d="M142.673,42.9a11.071,11.071,0,0,0,10.847-8.579h-3.261a8.037,8.037,0,0,1-15.6-1.985H153.8V31.7a11.2,11.2,0,1,0-11.131,11.2m0-19.284a7.954,7.954,0,0,1,7.586,5.6H134.945a8.332,8.332,0,0,1,7.728-5.6" transform="translate(-91.201 -14.119)" fill="#fff"/><path d="M115.674,43.182,124.182,21.7h-3.97l-6.735,17.228L106.6,21.7h-3.9l8.579,21.482Z" transform="translate(-82.849 -14.469)" fill="#fff"/><rect width="3.403" height="28.713" transform="translate(135.271)" fill="#fff"/><path d="M78.245,11.5V34.825a1.933,1.933,0,0,0,1.985,2.127H88.6v3.261H77.04a2.09,2.09,0,0,1-2.34-2.2V11.5Z" transform="translate(-74.7 -11.5)" fill="#fff"/><path d="M278.1,15.9a2.123,2.123,0,0,1-2.2-2.2,2.2,2.2,0,1,1,4.4,0,2.256,2.256,0,0,1-2.2,2.2m0-4.112a1.914,1.914,0,1,0,1.914,1.914,2,2,0,0,0-1.914-1.914m-1.063.78H278.1c.638,0,.851.425.851.638a.7.7,0,0,1-.638.709h0c.213.071.284.284.5.638l.284.425h-.425l-.213-.425c-.284-.5-.425-.638-.709-.638h-.284v1.063h-.425Zm.993.993c.284,0,.5-.071.5-.284s-.213-.284-.425-.284h-.638V13.7h.5v-.142Z" transform="translate(-133.256 -11.5)" fill="#fff"/><rect width="3.403" height="3.474" transform="translate(15.101)" fill="#fff"/></g></g><g transform="translate(0 45.019)"><path d="M1.772,75.963A1.909,1.909,0,0,0,3.9,78.09,7.306,7.306,0,0,0,7.94,76.6a15.721,15.721,0,0,0,4.041-3.828l.709.284a13.985,13.985,0,0,1-4.325,4.325,9.482,9.482,0,0,1-5.034,1.7,3.335,3.335,0,0,1-2.41-.851A2.266,2.266,0,0,1,0,76.1a4.947,4.947,0,0,1,1.56-3.616A5.786,5.786,0,0,1,5.459,71a2.875,2.875,0,0,1,1.772.425A1.431,1.431,0,0,1,7.87,72.7c0,.851-.638,1.56-1.772,2.2A8.167,8.167,0,0,1,1.772,75.963Zm.142-.638a6.122,6.122,0,0,0,3.049-.851A2.171,2.171,0,0,0,6.239,72.7a.824.824,0,0,0-.922-.922A2.939,2.939,0,0,0,3.19,72.843,3.185,3.185,0,0,0,1.914,75.325Z" transform="translate(0 -65.683)" fill="#fff"/><path d="M19.359,76.272a1.846,1.846,0,0,1,.284,1.063,2.256,2.256,0,0,1-1.063,1.914,4.406,4.406,0,0,1-2.552.851,2.79,2.79,0,0,1-1.489-.425.959.959,0,0,1-.638-.851c0-.425.284-.709.851-1.134a11.044,11.044,0,0,1,2.765-1.347l-.638-.922A5.06,5.06,0,0,1,15.6,72.8c0-.922.638-1.56,1.914-2.2.709.213,1.134.5,1.134.922,0,.5-.5,1.063-1.489,1.56l.922,1.489.709,1.134a27.2,27.2,0,0,0,2.41-1.347,25.051,25.051,0,0,0,2.127-1.772l.638.284A10.618,10.618,0,0,1,19.359,76.272Zm-1.347.638c-1.7.709-2.552,1.347-2.552,1.772s.284.5,1.063.5a1.654,1.654,0,0,0,1.276-.425,1.443,1.443,0,0,0,.425-1.063C18.083,77.548,18.083,77.264,18.012,76.91Z" transform="translate(-4.045 -65.566)" fill="#fff"/><path d="M34.465,77.875,33.827,80.5a7.324,7.324,0,0,0-.213,1.56,1.2,1.2,0,0,0,.213.709c-.567.071-1.063.213-1.276.213-.425,0-.709-.213-.709-.638a7.361,7.361,0,0,1,.284-1.7l2.41-10.422a4.374,4.374,0,0,1-1.276.142,1.472,1.472,0,0,1-1.063-.284,1.658,1.658,0,0,1-.5-1.063,4.526,4.526,0,0,0,1.914.284,10.557,10.557,0,0,0,3.049-.5l-.638,2.765A5.041,5.041,0,0,1,39,70.431a2.831,2.831,0,0,1,2.2.851,2.6,2.6,0,0,1,.922,2.127,4.361,4.361,0,0,1-1.7,3.474,5.923,5.923,0,0,1-3.9,1.489A5.473,5.473,0,0,1,34.465,77.875Zm.284-1.134a3.346,3.346,0,0,0,4.679-.213,3.481,3.481,0,0,0,1.063-2.552,2.592,2.592,0,0,0-.638-1.772,2.085,2.085,0,0,0-1.56-.638A4.113,4.113,0,0,0,35.741,72.7Z" transform="translate(-9.226 -65.042)" fill="#fff"/><path d="M55.673,74.674a10.552,10.552,0,0,1-2.623,3.19,4.933,4.933,0,0,1-2.765,1.347,1.931,1.931,0,0,1-1.489-.638,2.4,2.4,0,0,1-.5-1.772,5.348,5.348,0,0,1,1.56-3.9,4.992,4.992,0,0,1,3.687-1.7,7.061,7.061,0,0,1,2.765.638c.071-.425.709-.638,1.772-.638h.284a5.568,5.568,0,0,0-.709,1.7l-.071.5a6.067,6.067,0,0,0-.284,2.34c0,1.063.284,1.56.851,1.56a4.681,4.681,0,0,0,2.552-1.276A19.989,19.989,0,0,0,63.9,72.76l.638.425a15.887,15.887,0,0,1-3.616,3.9,6.07,6.07,0,0,1-3.474,1.56c-1.276,0-1.772-.851-1.772-2.552A2.366,2.366,0,0,1,55.673,74.674Zm.284-1.7a6.411,6.411,0,0,0-2.978-.922,2.7,2.7,0,0,0-2.2,1.276,5.008,5.008,0,0,0-.922,3.049c0,.922.425,1.489,1.134,1.489.851,0,2.34-1.489,4.679-4.467C55.673,73.256,55.886,73.185,55.957,72.972Z" transform="translate(-14.057 -65.741)" fill="#fff"/><path d="M69.972,79.028c-.425.071-.709.213-.922.213-.638,0-.851-.213-.851-.638a7.955,7.955,0,0,1,.284-1.56l.425-1.772a15.237,15.237,0,0,0,.425-2.34.91.91,0,0,0-.284-.709,4.152,4.152,0,0,1,1.489-.213.564.564,0,0,1,.638.638,16.438,16.438,0,0,1-.425,2.127l-.5,2.127a20.31,20.31,0,0,1,3.261-4.112A5.114,5.114,0,0,1,76.495,71.3a2.136,2.136,0,0,1,.851.213.475.475,0,0,1,.284.5c0,.354-.425.709-1.276,1.347a.857.857,0,0,0-.922-.5c-.709,0-1.56.638-2.765,1.914a12.641,12.641,0,0,0-1.772,2.552,4.532,4.532,0,0,0-.709,1.772h-.213Z" transform="translate(-19.848 -65.77)" fill="#fff"/><path d="M86.928,74.94a2.253,2.253,0,0,1,.213.638c0,.425-.567.922-1.347,1.56a5.707,5.707,0,0,1-2.552.851,2.2,2.2,0,0,1-1.7-.709,2.9,2.9,0,0,1-.638-1.985,12.588,12.588,0,0,1,.851-3.828l.425-1.134H80.689a4.416,4.416,0,0,0-1.489.213,2.164,2.164,0,0,1,.851-.922,3.482,3.482,0,0,1,1.063-.213H82.39l.213-.5a2.357,2.357,0,0,1,.922-1.489A2.409,2.409,0,0,1,85.084,67h.425a8.04,8.04,0,0,0-1.347,2.41h4.466A5.425,5.425,0,0,0,90.4,69.2c-.071.5-.284.851-.5.922a3.8,3.8,0,0,1-1.276.213h-4.75c-.071.071-.071.284-.071.284a17.463,17.463,0,0,0-1.063,4.467c0,1.063.425,1.7,1.347,1.7a3.35,3.35,0,0,0,1.56-.5A3.724,3.724,0,0,0,86.928,74.94Z" transform="translate(-23.05 -64.519)" fill="#fff"/><path d="M93.5,75.934a1.909,1.909,0,0,0,2.127,2.127,7.306,7.306,0,0,0,4.041-1.489,15.721,15.721,0,0,0,4.041-3.828l.709.284a13.985,13.985,0,0,1-4.325,4.325,9.482,9.482,0,0,1-5.034,1.7,3.335,3.335,0,0,1-2.41-.851A2.607,2.607,0,0,1,91.8,76a4.947,4.947,0,0,1,1.56-3.616,5.786,5.786,0,0,1,3.9-1.489,2.875,2.875,0,0,1,1.772.425A1.431,1.431,0,0,1,99.67,72.6c0,.851-.638,1.56-1.772,2.2A8,8,0,0,1,93.5,75.934Zm.142-.638a6.122,6.122,0,0,0,3.049-.851,2.171,2.171,0,0,0,1.276-1.772c0-.638-.284-.922-.922-.922a2.939,2.939,0,0,0-2.127,1.063A3.185,3.185,0,0,0,93.643,75.3Z" transform="translate(-26.717 -65.654)" fill="#fff"/><path d="M118.573,72.437a12.459,12.459,0,0,1-2.765,3.19,4.456,4.456,0,0,1-2.623,1.134,1.931,1.931,0,0,1-1.489-.638,3.276,3.276,0,0,1-.5-1.772,5.348,5.348,0,0,1,1.56-3.9,4.992,4.992,0,0,1,3.687-1.7,7.061,7.061,0,0,1,2.765.638l.922-3.828a8.6,8.6,0,0,1-1.276.071,1.472,1.472,0,0,1-1.063-.284,1.693,1.693,0,0,1-.5-1.134,4.526,4.526,0,0,0,1.914.284,11.412,11.412,0,0,0,3.049-.5l-1.914,7.8a8.887,8.887,0,0,0-.284,2.2q0,1.276.851,1.276a5.806,5.806,0,0,0,2.765-1.56,17.867,17.867,0,0,0,3.19-3.4l.709.425a15.056,15.056,0,0,1-3.828,4.112,6.146,6.146,0,0,1-3.616,1.772c-1.134,0-1.7-.709-1.7-2.34A9.783,9.783,0,0,1,118.573,72.437ZM119,70.593a6.186,6.186,0,0,0-2.978-.922,2.7,2.7,0,0,0-2.2,1.276A5.008,5.008,0,0,0,112.9,74c0,.922.425,1.489,1.134,1.489.851,0,2.34-1.489,4.679-4.467C118.786,70.877,118.928,70.806,119,70.593Z" transform="translate(-32.363 -63.646)" fill="#fff"/><path d="M132.6,75.534a1.909,1.909,0,0,0,2.127,2.127,7.306,7.306,0,0,0,4.041-1.489,15.721,15.721,0,0,0,4.041-3.828l.709.284a14.79,14.79,0,0,1-4.325,4.325,9.482,9.482,0,0,1-5.034,1.7,3.335,3.335,0,0,1-2.41-.851,2.607,2.607,0,0,1-.851-2.2,4.947,4.947,0,0,1,1.56-3.616,5.786,5.786,0,0,1,3.9-1.489,2.876,2.876,0,0,1,1.772.425,1.431,1.431,0,0,1,.638,1.276c0,.851-.638,1.56-1.772,2.2A8.65,8.65,0,0,1,132.6,75.534Zm.071-.638a6.122,6.122,0,0,0,3.049-.851A2.171,2.171,0,0,0,137,72.272c0-.638-.284-.922-.922-.922a2.7,2.7,0,0,0-2.127,1.063A3.411,3.411,0,0,0,132.672,74.9Z" transform="translate(-38.096 -65.537)" fill="#fff"/><path d="M156.6,76.088c1.985-3.616,3.828-5.388,5.388-5.388q1.063,0,1.063,1.276a10.2,10.2,0,0,1-.425,2.41l-.5,2.127a17.3,17.3,0,0,1,3.049-4.254,4.285,4.285,0,0,1,2.765-1.56,1.128,1.128,0,0,1,1.276,1.276,11.55,11.55,0,0,1-.425,2.127l-.284,1.134a4.35,4.35,0,0,0-.213,1.489c0,.5.213.851.709.851,1.063,0,2.765-1.7,5.034-5.1l.709.284c-2.41,4.041-4.679,6.026-6.452,6.026-1.134,0-1.772-.638-1.772-1.914a10.844,10.844,0,0,1,.284-2.127l.213-.922a3.742,3.742,0,0,0,.213-1.276c0-.213-.071-.284-.425-.284-.638,0-1.7,1.063-3.261,3.049a13.5,13.5,0,0,0-2.127,3.19v.071a1.247,1.247,0,0,0-.425.071h-.425c-.5,0-.709-.213-.709-.638a11,11,0,0,0,.213-1.134,2.7,2.7,0,0,1,.213-.709l.284-1.489a12.392,12.392,0,0,0,.425-1.985.376.376,0,0,0-.425-.425c-.638,0-1.489.922-2.765,2.765a13.9,13.9,0,0,0-1.772,3.261c0,.071.071.213.071.284a4.953,4.953,0,0,1-.851.213c-.638,0-.851-.213-.851-.851,0-.071.071-.709.213-2.127l.213-1.489a10.976,10.976,0,0,0,.071-1.489,1.654,1.654,0,0,0-.425-1.276,4.938,4.938,0,0,1,1.347-.284c.5,0,.709.213.709.709,0,.213-.142.851-.213,1.985Z" transform="translate(-44.935 -65.595)" fill="#fff"/><path d="M190.271,71.534a19.128,19.128,0,0,1-3.9,4.467,5.89,5.89,0,0,1-3.474,1.56,2.723,2.723,0,0,1-1.56-.5,1.647,1.647,0,0,1-.638-1.347c0-.213.142-.5.213-1.063l.213-.709a11.383,11.383,0,0,0,.425-2.41.691.691,0,0,0-.284-.638c.709-.071,1.134-.213,1.347-.213.425,0,.638.213.638.709a9.53,9.53,0,0,1-.213,1.56l-.284,1.347a3.742,3.742,0,0,0-.213,1.276c0,.638.284.851.851.851a4.965,4.965,0,0,0,2.836-1.489,20.368,20.368,0,0,0,3.4-3.828Zm-7.657-3.616h.071a4.3,4.3,0,0,0,1.56-.5,9.18,9.18,0,0,0,1.7-.922,4.209,4.209,0,0,1-1.347,1.7,5.292,5.292,0,0,1-1.914,1.063c-.213,0-.284-.071-.284-.284A3.054,3.054,0,0,1,182.614,67.918Z" transform="translate(-52.589 -64.373)" fill="#fff"/><path d="M201.365,78.508a7.037,7.037,0,0,0,.213-1.063,11.1,11.1,0,0,0-.851-3.9,9.631,9.631,0,0,0-2.127-3.261A3.288,3.288,0,0,1,199.947,70c.638,0,1.276.638,1.914,2.127a17.978,17.978,0,0,1,1.347,4.963,20.331,20.331,0,0,0,2.41-3.261,6.75,6.75,0,0,0,1.063-2.836c.851.284,1.276.638,1.276.922a6.229,6.229,0,0,1-1.276,2.2c-.851,1.134-1.7,2.2-2.623,3.261a2.9,2.9,0,0,1-1.134.922A4.059,4.059,0,0,1,201.365,78.508Z" transform="translate(-57.799 -65.392)" fill="#fff"/><path d="M223.329,71.534A19.127,19.127,0,0,1,219.43,76a5.89,5.89,0,0,1-3.474,1.56,2.723,2.723,0,0,1-1.56-.5,1.541,1.541,0,0,1-.5-1.347,5.275,5.275,0,0,1,.213-1.063l.213-.709a11.385,11.385,0,0,0,.425-2.41.691.691,0,0,0-.284-.638c.709-.071,1.134-.213,1.347-.213.425,0,.638.213.638.709a9.529,9.529,0,0,1-.213,1.56l-.354,1.347a3.742,3.742,0,0,0-.213,1.276c0,.638.284.851.851.851a4.965,4.965,0,0,0,2.836-1.489,20.367,20.367,0,0,0,3.4-3.828Zm-7.586-3.616h.071a5.9,5.9,0,0,0,1.7-.5,9.179,9.179,0,0,0,1.7-.922,4.208,4.208,0,0,1-1.347,1.7,4.91,4.91,0,0,1-1.985,1.063c-.213,0-.284-.071-.284-.284A1.546,1.546,0,0,1,215.743,67.918Z" transform="translate(-62.252 -64.373)" fill="#fff"/><path d="M230.873,72.437a12.459,12.459,0,0,1-2.765,3.19,4.456,4.456,0,0,1-2.623,1.134A1.931,1.931,0,0,1,224,76.123a3.276,3.276,0,0,1-.5-1.772,5.348,5.348,0,0,1,1.56-3.9,4.992,4.992,0,0,1,3.687-1.7,7.061,7.061,0,0,1,2.765.638l.922-3.828a9.093,9.093,0,0,1-1.276.071,1.472,1.472,0,0,1-1.063-.284,1.693,1.693,0,0,1-.5-1.134,4.526,4.526,0,0,0,1.914.284,10.557,10.557,0,0,0,3.049-.5l-1.914,7.8a8.887,8.887,0,0,0-.284,2.2q0,1.276.851,1.276a5.806,5.806,0,0,0,2.765-1.56,17.868,17.868,0,0,0,3.19-3.4l.709.425a15.056,15.056,0,0,1-3.828,4.112,6.146,6.146,0,0,1-3.616,1.772c-1.134,0-1.7-.709-1.7-2.34A9.783,9.783,0,0,1,230.873,72.437Zm.567-1.843a6.186,6.186,0,0,0-2.978-.922,2.7,2.7,0,0,0-2.2,1.276A5.008,5.008,0,0,0,225.343,74c0,.922.425,1.489,1.134,1.489.851,0,2.34-1.489,4.679-4.467C231.086,70.877,231.228,70.806,231.44,70.593Z" transform="translate(-65.046 -63.646)" fill="#fff"/><path d="M250.573,74.174a10.552,10.552,0,0,1-2.623,3.19,4.933,4.933,0,0,1-2.765,1.347,1.931,1.931,0,0,1-1.489-.638,3.276,3.276,0,0,1-.5-1.772,5.348,5.348,0,0,1,1.56-3.9,4.992,4.992,0,0,1,3.687-1.7,7.061,7.061,0,0,1,2.765.638c.071-.425.709-.638,1.772-.638h.284a5.568,5.568,0,0,0-.709,1.7l-.071.638a7.974,7.974,0,0,0-.213,2.34c0,1.063.284,1.56.851,1.56a4.681,4.681,0,0,0,2.552-1.276,23.321,23.321,0,0,0,3.19-3.261l.638.425a15.886,15.886,0,0,1-3.616,3.9,6.07,6.07,0,0,1-3.474,1.56c-1.276,0-1.772-.851-1.772-2.552A2.314,2.314,0,0,1,250.573,74.174Zm.284-1.631a6.411,6.411,0,0,0-2.978-.922,2.7,2.7,0,0,0-2.2,1.276,5.008,5.008,0,0,0-.922,3.049c0,.922.284,1.489,1.134,1.489s2.34-1.489,4.679-4.466C250.573,72.827,250.644,72.756,250.857,72.543Z" transform="translate(-70.779 -65.595)" fill="#fff"/><path d="M270.736,69.172a2.836,2.836,0,1,1,2.836-2.836,2.94,2.94,0,0,1-2.836,2.836Zm0-5.317a2.412,2.412,0,0,0,0,4.821,2.436,2.436,0,0,0,2.41-2.41,2.535,2.535,0,0,0-2.41-2.41Zm-1.276.851h1.347c.709,0,1.063.425,1.063.851a.782.782,0,0,1-.851.851h0c.284.071.425.284.709.709l.425.638h-.638l-.284-.5c-.425-.709-.5-.851-.922-.851h-.284v1.276h-.5V64.705Zm1.134,1.418c.425,0,.638-.071.638-.425,0-.284-.213-.425-.5-.425h-.851v.922h.709Z" transform="translate(-77.967 -63.5)" fill="#fff"/></g></svg>