<svg xmlns="http://www.w3.org/2000/svg" width="125" height="125" viewBox="0 0 125 125"><g transform="translate(-898 -7867)"><circle cx="62.5" cy="62.5" r="62.5" transform="translate(898 7867)" fill="#e10098"/><g transform="translate(926.762 7901.914)"><path d="M36.438,35.726H22.479c-1.563,0-1.979-.938-1.979-2.292V.1h-5V37.913a2.611,2.611,0,0,0,2.292,2.6H36.438Z" transform="translate(0.55 0.004)" fill="#fff"/><path d="M36.709,42.392v5H11.917A2.848,2.848,0,0,1,9,44.476V.1h5V39.372c0,1.667.729,3.125,2.813,3.125h19.9Z" transform="translate(0.279 0.004)" fill="#fff"/><path d="M2.4.2h5V45.93c0,1.667.729,3.438,3.229,3.438H36.988v4.792H8.238A6.073,6.073,0,0,1,2.3,48.222V.2Z" transform="translate(0 0.008)" fill="#fff"/><path d="M22,.2h5V26.971a1.692,1.692,0,0,0,1.875,1.875h7.4v5H24.5a2.206,2.206,0,0,1-2.5-2.5Z" transform="translate(0.821 0.008)" fill="#fff"/><path d="M28.4,18.1H42.359c1.563,0,1.979.938,1.979,2.292V53.726h5V15.7a2.611,2.611,0,0,0-2.292-2.6H28.4Z" transform="translate(1.088 0.546)" fill="#fff"/><path d="M28.4,11.5V6.6h25a2.848,2.848,0,0,1,2.917,2.917V53.893h-5V14.621c0-1.667-.729-3.125-2.813-3.125Z" transform="translate(1.088 0.275)" fill="#fff"/><path d="M62.984,54.168h-5V8.333c0-1.667-.729-3.438-3.229-3.438H28.4V0H57.151a6.073,6.073,0,0,1,5.938,5.938v48.23Z" transform="translate(1.088)" fill="#fff"/><path d="M42.671,53.351h-5V26.475A1.692,1.692,0,0,0,35.8,24.6H28.4v-5H40.171a2.206,2.206,0,0,1,2.5,2.5V53.351Z" transform="translate(1.088 0.817)" fill="#fff"/></g></g></svg>