<svg xmlns="http://www.w3.org/2000/svg" width="200" height="48.527" viewBox="0 0 200 48.527"><path d="M70.154,22.945C70.154,10.3,54.459,0,35.1,0,15.7,0,0,10.3,0,22.945v1.318C0,37.693,13.718,48.527,35.057,48.527c21.5,0,35.1-10.834,35.1-24.264V22.945Z" fill="#302f83"/><path d="M70.777,24.886c0,11.905-15.118,21.586-33.738,21.586C18.377,46.431,3.3,36.791,3.3,24.886S18.377,3.3,37.038,3.3c18.62,0,33.738,9.64,33.738,21.586" transform="translate(-1.941 -1.941)" fill="#f2e222"/><path d="M57.7,27.964c0,.041-.371.371-.124.659.536.659,2.183,1.071,3.831.7a10.824,10.824,0,0,0,3.5-2.225,13.882,13.882,0,0,1,4-2.554,4.568,4.568,0,0,1,2.884-.082,8.841,8.841,0,0,1,2.636,1.524C76.734,27.717,86,35.832,87.61,37.233a81.334,81.334,0,0,1,14.83-4.779c-.659-4.161-3.213-7.951-7.044-11.081-5.355,2.266-11.864,3.419-18.249.288a17.212,17.212,0,0,0-6.88-1.565c-5.067.124-7.291,2.307-9.6,4.614Z" transform="translate(-33.809 -11.816)" fill="#fff"/><path d="M55.723,39.084C55.6,39,44.806,29.527,42.376,27.714a5.983,5.983,0,0,0-3.007-1.442,5.534,5.534,0,0,0-1.442.124,13.619,13.619,0,0,0-3.955,2.348A10.882,10.882,0,0,1,30.1,31.134a6.273,6.273,0,0,1-4.243-.618,2.054,2.054,0,0,1-.7-.783,1.2,1.2,0,0,1,.371-1.4l2.966-3.213c.33-.33.7-.7,1.071-1.03a17.537,17.537,0,0,0-2.719.618,12.264,12.264,0,0,1-3.172.577,27.458,27.458,0,0,1-3.213-.494,49.419,49.419,0,0,1-8.61-3.09C7.566,24.79,4.724,28.744,3.9,33.07c.618.165,1.607.453,2.019.536,9.6,2.142,12.564,4.325,13.141,4.779A3.135,3.135,0,0,1,24,38.672a3.509,3.509,0,0,1,2.266-.824,3.955,3.955,0,0,1,1.359.247,3.273,3.273,0,0,1,1.936,1.73,3.267,3.267,0,0,1,1.318-.288,4.48,4.48,0,0,1,1.607.33,3.4,3.4,0,0,1,1.895,3.79,1.14,1.14,0,0,1,.371-.041,3.8,3.8,0,0,1,3.337,5.6,5.939,5.939,0,0,0,3.3.865,2.356,2.356,0,0,0,1.565-.659c.082-.124.206-.288.124-.412l-2.719-2.884s-.453-.412-.288-.577.453.082.618.247c1.359,1.153,3.048,2.884,3.048,2.884a1.187,1.187,0,0,0,.742.371,2.893,2.893,0,0,0,2.142-.494,1.756,1.756,0,0,0,.453-.494l-.041.041a1.4,1.4,0,0,0-.082-1.771l-3.172-3.543s-.453-.412-.288-.577c.124-.165.412.082.618.247.989.824,2.43,2.266,3.749,3.584a2.59,2.59,0,0,0,3.048-.124,2.145,2.145,0,0,0,1.112-1.977,2.32,2.32,0,0,0-.659-1.318L47.031,38.3s-.453-.412-.288-.577c.124-.165.412.082.618.247,1.483,1.071,5.191,4.49,5.191,4.49a2.623,2.623,0,0,0,2.925-.041,1.951,1.951,0,0,0,.947-1.565,2.225,2.225,0,0,0-.7-1.771" transform="translate(-2.293 -12.761)" fill="#fff"/><path d="M56.436,68.126a8.359,8.359,0,0,0-1.483.33c-.041-.041.041-.288.124-.453.041-.165.947-2.8-1.195-3.708a2.553,2.553,0,0,0-3.007.453c-.082.082-.124.082-.124-.041A2.369,2.369,0,0,0,49.1,62.524a3.239,3.239,0,0,0-3.749,1.236A2.337,2.337,0,1,0,43.048,66.4a2.274,2.274,0,0,0,1.607-.659v.082A3.138,3.138,0,0,0,46.591,69.4a2.294,2.294,0,0,0,2.266-.371c.165-.124.206-.082.206.082A2.25,2.25,0,0,0,50.71,71.5a2.13,2.13,0,0,0,2.472-.453c.206-.206.288-.165.288.124a2.967,2.967,0,1,0,2.966-3.048" transform="translate(-23.934 -36.283)" fill="#fff"/><path d="M55.841,35.561c-3.337-2.884-11-9.6-13.1-11.164a8.865,8.865,0,0,0-2.719-1.565,4.9,4.9,0,0,0-1.318-.206,6.317,6.317,0,0,0-1.689.288,13.7,13.7,0,0,0-4,2.513l-.082.041a10.988,10.988,0,0,1-3.378,2.183,6.4,6.4,0,0,1-1.277.124,3.121,3.121,0,0,1-2.348-.742c-.041-.082-.041-.206.124-.371h0l2.925-3.172c2.307-2.307,4.449-4.449,9.434-4.573h.247a17.4,17.4,0,0,1,6.55,1.565,20.371,20.371,0,0,0,8.939,2.142,23.5,23.5,0,0,0,9.8-2.348c-.371-.33-.783-.618-1.195-.947a21.345,21.345,0,0,1-8.61,1.977,18.642,18.642,0,0,1-8.363-2.019A18.683,18.683,0,0,0,38.663,17.6h-.288a12.093,12.093,0,0,0-8.115,2.884,15.688,15.688,0,0,0-4.037.742,11.328,11.328,0,0,1-2.884.536c-.371,0-1.03-.041-1.071-.041A58.139,58.139,0,0,1,12.01,18.877c-.412.288-.824.618-1.195.906A48.433,48.433,0,0,0,21.938,23c.453.041.947.082,1.442.082a10.585,10.585,0,0,0,3.213-.618c.618-.165,1.318-.371,2.019-.494l-.577.577-2.966,3.213a1.492,1.492,0,0,0-.412,1.648,1.938,1.938,0,0,0,.783.865,6.774,6.774,0,0,0,4.449.659,11.684,11.684,0,0,0,3.955-2.43,13.563,13.563,0,0,1,3.872-2.307,4.749,4.749,0,0,1,1.071-.124h.288A6.01,6.01,0,0,1,42,25.468c2.43,1.854,13.265,11.287,13.347,11.37a2.169,2.169,0,0,1,.659,1.607A1.737,1.737,0,0,1,55.14,39.8a2.679,2.679,0,0,1-1.4.453,2.219,2.219,0,0,1-1.277-.371c-.041-.041-3.749-3.419-5.108-4.573a1.144,1.144,0,0,0-.618-.33.374.374,0,0,0-.288.124c-.206.247.041.618.288.865l4.284,4.367a1.942,1.942,0,0,1,.577,1.153,2.028,2.028,0,0,1-1.03,1.813,2.783,2.783,0,0,1-1.524.494,2.242,2.242,0,0,1-1.236-.371l-.618-.618c-1.153-1.112-2.307-2.266-3.172-2.966a1.144,1.144,0,0,0-.618-.33.374.374,0,0,0-.288.124c-.082.082-.165.288.082.618a1.925,1.925,0,0,0,.206.247l3.172,3.543a1.208,1.208,0,0,1,.082,1.524l-.124.124a1.9,1.9,0,0,1-.288.288,2.51,2.51,0,0,1-1.565.494,1.27,1.27,0,0,1-.412-.041.868.868,0,0,1-.618-.247l-.041-.041c-.165-.165-1.771-1.813-3.09-2.884a.83.83,0,0,0-.618-.371.374.374,0,0,0-.288.124c-.247.288.124.7.288.865l2.678,2.966c0,.041-.041.082-.124.165-.082.124-.412.453-1.4.577h-.371a6.432,6.432,0,0,1-2.636-.783,4.036,4.036,0,0,0-3.625-5.726h-.165a3.551,3.551,0,0,0-2.019-3.749,4.322,4.322,0,0,0-1.689-.371,3.883,3.883,0,0,0-1.236.206,3.3,3.3,0,0,0-1.977-1.648,4.612,4.612,0,0,0-1.442-.247,4.081,4.081,0,0,0-2.266.7A3.465,3.465,0,0,0,20.99,34.7a3.4,3.4,0,0,0-2.389.989c-.7-.618-4.037-2.719-12.935-4.737-.453-.124-1.442-.371-2.019-.577-.124.494-.165.947-.247,1.442,0,0,1.648.371,1.977.453,9.1,2.019,12.07,4.119,12.606,4.49a3.568,3.568,0,0,0-.247,1.318,3.411,3.411,0,0,0,3.419,3.419,3.118,3.118,0,0,0,.618-.041,3.969,3.969,0,0,0,2.554,2.966,3.264,3.264,0,0,0,1.195.247,2.587,2.587,0,0,0,.783-.124,3.54,3.54,0,0,0,2.1,1.977,4.01,4.01,0,0,0,1.318.288,2.2,2.2,0,0,0,1.03-.206,4,4,0,0,0,3.708,2.472,4.155,4.155,0,0,0,2.884-1.195,7.44,7.44,0,0,0,3.378,1.03,2.534,2.534,0,0,0,.536-.041,3.124,3.124,0,0,0,2.307-1.112c.041-.082.124-.165.124-.247a4.512,4.512,0,0,0,1.112.165,3.552,3.552,0,0,0,2.183-.783A3.283,3.283,0,0,0,48.3,44.994v-.041a4.54,4.54,0,0,0,.742.082,4.292,4.292,0,0,0,2.266-.7,3.185,3.185,0,0,0,1.607-2.925,4.539,4.539,0,0,0,.742.082,4,4,0,0,0,2.1-.618,3.152,3.152,0,0,0,1.483-2.389,3.627,3.627,0,0,0-.453-1.936,87.066,87.066,0,0,1,14.006-4.408c-.041-.494-.124-.989-.206-1.442a79.975,79.975,0,0,0-14.748,4.861M34.5,47.878a2.763,2.763,0,0,1-2.76-2.636c0-.124,0-.453-.288-.453-.124,0-.206.082-.33.165a1.994,1.994,0,0,1-1.318.618,1.921,1.921,0,0,1-.906-.206,2.012,2.012,0,0,1-1.524-2.142c0-.124.041-.247-.041-.33l-.082-.082h-.124a.548.548,0,0,0-.288.124,2.287,2.287,0,0,1-1.318.494,1.616,1.616,0,0,1-.742-.165,2.929,2.929,0,0,1-1.813-3.337.348.348,0,0,0-.082-.288l-.165-.124-.124.165a2.28,2.28,0,0,1-1.483.618,2.142,2.142,0,1,1,2.1-2.43l.082.577.33-.494A3.2,3.2,0,0,1,26.1,36.591a2.7,2.7,0,0,1,.947.165,2.149,2.149,0,0,1,1.524,2.019c.041.288.206.288.247.288a.352.352,0,0,0,.247-.124,2.226,2.226,0,0,1,1.565-.659,3.264,3.264,0,0,1,1.195.247c2.019.865,1.112,3.419,1.071,3.46-.165.412-.165.618,0,.7l.082.041h.041a3.451,3.451,0,0,0,.412-.082A4.088,4.088,0,0,1,34.5,42.4a2.74,2.74,0,1,1,0,5.479" transform="translate(-1.999 -10.35)" fill="#302f83"/><g transform="translate(78.146 1.112)"><path d="M212.521,21.42l-.041,10.051h-3.666V21.338a3.068,3.068,0,0,0-.288-1.483,2.573,2.573,0,0,0-2.348-1.112,2.858,2.858,0,0,0-2.678,1.442A4.748,4.748,0,0,0,203.17,22v9.475H199.3V22a5.068,5.068,0,0,0-.288-2.06c-.33-.783-1.648-1.153-2.678-1.153a2.421,2.421,0,0,0-2.389,1.153,4.9,4.9,0,0,0-.33,1.977v9.6H189.7V21.626s-.165-6.426,6.55-6.426a6.77,6.77,0,0,1,5.026,2.142,6.154,6.154,0,0,1,5.067-2.142c6.179,0,6.179,5.191,6.179,6.22" transform="translate(-189.699 -10.051)" fill="#eee"/><path d="M263.017,15.624a6.567,6.567,0,0,1,2.76,2.348,8,8,0,0,1,1.277,3.3,17.266,17.266,0,0,1,.124,3.172H255.561a3.86,3.86,0,0,0,1.689,3.378,4.089,4.089,0,0,0,2.307.577,3.448,3.448,0,0,0,2.307-.742,3.076,3.076,0,0,0,.865-1.112h4.243a5.354,5.354,0,0,1-1.524,2.884,7.706,7.706,0,0,1-6.014,2.307,8.544,8.544,0,0,1-5.6-1.977c-1.607-1.318-2.43-3.419-2.43-6.385a8.715,8.715,0,0,1,2.183-6.344,7.729,7.729,0,0,1,5.726-2.225,10.626,10.626,0,0,1,3.708.824m-6.22,3.625a4.584,4.584,0,0,0-1.112,2.472h7.168a3.507,3.507,0,0,0-1.112-2.513,3.618,3.618,0,0,0-2.472-.865,3.205,3.205,0,0,0-2.472.906" transform="translate(-225.983 -9.815)" fill="#eee"/><path d="M332.087,21.079a3.428,3.428,0,0,0-.659-1.607,2.744,2.744,0,0,0-2.348-.989,3.119,3.119,0,0,0-3.131,2.1,8.223,8.223,0,0,0-.453,2.925,7.5,7.5,0,0,0,.453,2.8,3,3,0,0,0,3.007,1.977,2.782,2.782,0,0,0,2.225-.783,4.039,4.039,0,0,0,.824-2.06h4.573a6.232,6.232,0,0,1-1.483,3.584,7.44,7.44,0,0,1-6.262,2.719c-2.76,0-4.779-.742-6.1-2.266a8.935,8.935,0,0,1-1.936-5.932,8.938,8.938,0,0,1,2.142-6.385,7.761,7.761,0,0,1,5.932-2.266,9.366,9.366,0,0,1,5.273,1.359A6.119,6.119,0,0,1,336.578,21h-4.49Z" transform="translate(-266.793 -9.874)" fill="#eee"/><path d="M370.674,21.791a10.959,10.959,0,0,0,1.689-.371,1.245,1.245,0,0,0,.906-1.195,1.422,1.422,0,0,0-.7-1.359,4.406,4.406,0,0,0-2.019-.371,2.6,2.6,0,0,0-2.1.742,3.034,3.034,0,0,0-.577,1.483h-4.037a6.157,6.157,0,0,1,1.153-3.419q1.668-2.1,5.685-2.1a10.051,10.051,0,0,1,4.655,1.03c1.359.7,2.019,2.019,2.019,3.913v7.333c0,2.884-4.367,4.573-9.063,4.573a5.265,5.265,0,0,1-3.584-1.236,4.36,4.36,0,0,1-1.4-3.5,4.472,4.472,0,0,1,2.266-4.243,9.8,9.8,0,0,1,3.666-1.03Zm2.554,1.936a7.682,7.682,0,0,1-.824.412,5.382,5.382,0,0,1-1.112.288l-.947.165a5.428,5.428,0,0,0-1.895.577,1.912,1.912,0,0,0-.989,1.771,1.765,1.765,0,0,0,.618,1.524,2.267,2.267,0,0,0,1.442.494,4.226,4.226,0,0,0,2.513-.783,3.343,3.343,0,0,0,1.195-2.884Z" transform="translate(-291.786 -10.051)" fill="#eee"/><path d="M460.195,29.3a7.482,7.482,0,0,1-6.138,2.513c-2.76,0-4.779-.824-6.138-2.513a9.152,9.152,0,0,1-2.019-6.014,9.2,9.2,0,0,1,2.019-5.973c1.359-1.689,3.378-2.513,6.138-2.513,2.719,0,4.779.824,6.138,2.513a9.2,9.2,0,0,1,2.019,5.973,9.153,9.153,0,0,1-2.019,6.014m-3.337-2.307a6.019,6.019,0,0,0,.989-3.708,6.019,6.019,0,0,0-.989-3.708,3.266,3.266,0,0,0-2.8-1.277,3.317,3.317,0,0,0-2.8,1.277,6.019,6.019,0,0,0-.989,3.708,6.019,6.019,0,0,0,.989,3.708,3.348,3.348,0,0,0,2.8,1.318,3.4,3.4,0,0,0,2.8-1.318" transform="translate(-340.359 -9.815)" fill="#eee"/><path d="M409.156,8.014a5.168,5.168,0,0,1,2.884.742,5.593,5.593,0,0,1,1.73,1.689V5.5c0-2.183,2.636-2.8,4.161-2.8V17.736c0,6.179-5.767,7-8.239,7a6.89,6.89,0,0,1-5.52-2.43,10.4,10.4,0,0,1-1.771-6.138,9.414,9.414,0,0,1,1.771-5.85,6.083,6.083,0,0,1,4.985-2.307m1.071,13.306a3.178,3.178,0,0,0,2.8-1.359,5.823,5.823,0,0,0,.906-3.378,7.9,7.9,0,0,0-.453-2.842,3.137,3.137,0,0,0-3.131-2.06,3.069,3.069,0,0,0-3.09,2.1,7.815,7.815,0,0,0-.453,2.8A5.785,5.785,0,0,0,407.714,20a2.882,2.882,0,0,0,2.513,1.318" transform="translate(-314.779 -2.7)" fill="#eee"/><path d="M304.868,14.741a1.811,1.811,0,0,1,.371.041v4.573a4.49,4.49,0,0,0-.7-.041h-.494c-1.689,0-2.8.536-3.378,1.648a6.276,6.276,0,0,0-.494,2.842v7.621H296.3V22.074c0-5.644,4.573-7.374,8.4-7.374a.311.311,0,0,1,.165.041" transform="translate(-252.386 -9.757)" fill="#eee"/><path d="M259.561,83.1H255.4V64.566c0-3.543,3.5-3.007,4.161-3.007Z" transform="translate(-228.335 -37.295)" fill="#eee"/><path d="M279.743,65.131h-4.2V61.3h4.2ZM275.5,67.026h4.2V82.968h-4.2Z" transform="translate(-240.155 -37.16)" fill="#eee"/><path d="M308.959,68.685a9.164,9.164,0,0,1,1.771,5.85,10.032,10.032,0,0,1-1.771,6.138,6.89,6.89,0,0,1-5.52,2.43c-2.513,0-8.239-.824-8.239-7V63.495c0-2.678,3.5-2.6,4.161-2.6V68.85a5.7,5.7,0,0,1,1.771-1.689,5.169,5.169,0,0,1,2.884-.742,5.917,5.917,0,0,1,4.943,2.266m-3.46,9.722a6.1,6.1,0,0,0,.906-3.419,7.815,7.815,0,0,0-.453-2.8,3.036,3.036,0,0,0-3.09-2.1,3.137,3.137,0,0,0-3.131,2.06,7.9,7.9,0,0,0-.453,2.842,5.823,5.823,0,0,0,.906,3.378,3.178,3.178,0,0,0,2.8,1.359,3.031,3.031,0,0,0,2.513-1.318" transform="translate(-251.739 -36.924)" fill="#eee"/><path d="M347.01,73.5h.371v4.573c-.247,0-.494-.041-.7-.041h-.494c-1.689,0-2.8.536-3.378,1.648a6.276,6.276,0,0,0-.494,2.842v7.621H338.4V80.874c0-5.644,4.573-7.374,8.4-7.374h.206" transform="translate(-277.143 -44.334)" fill="#eee"/><path d="M375.417,74.824a6.567,6.567,0,0,1,2.76,2.348,8,8,0,0,1,1.277,3.3,17.273,17.273,0,0,1,.124,3.172H367.961a3.735,3.735,0,0,0,1.689,3.337,4.1,4.1,0,0,0,2.307.618,3.448,3.448,0,0,0,2.307-.742,3.076,3.076,0,0,0,.865-1.112h4.243a5.354,5.354,0,0,1-1.524,2.884,7.705,7.705,0,0,1-6.014,2.307,8.623,8.623,0,0,1-5.6-1.977c-1.607-1.318-2.43-3.419-2.43-6.385a8.715,8.715,0,0,1,2.183-6.344A7.634,7.634,0,0,1,371.668,74a9.816,9.816,0,0,1,3.749.824m-6.22,3.584a4.584,4.584,0,0,0-1.112,2.472h7.168a3.507,3.507,0,0,0-1.112-2.513,3.618,3.618,0,0,0-2.472-.865,3.205,3.205,0,0,0-2.472.906" transform="translate(-292.08 -44.628)" fill="#eee"/></g></svg>