<svg xmlns="http://www.w3.org/2000/svg" width="125" height="125" viewBox="0 0 125 125"><g transform="translate(-898 -8128)"><circle cx="62.5" cy="62.5" r="62.5" transform="translate(898 8128)" fill="#302f83"/><g transform="translate(915.422 8159.375)"><path d="M89.31,29.21C89.31,13.111,69.329,0,44.681,0,19.981,0,0,13.111,0,29.21v1.678c0,17.1,17.463,30.889,44.629,30.889C72,61.777,89.31,47.985,89.31,30.889V29.21Z" fill="#302f83"/><path d="M89.2,30.78c0,15.156-19.246,27.48-42.95,27.48C22.494,58.207,3.3,45.936,3.3,30.78S22.494,3.3,46.25,3.3c23.7,0,42.95,12.272,42.95,27.48" transform="translate(-1.569 -1.569)" fill="#f2e222"/><path d="M57.759,30.113c0,.052-.472.472-.157.839.682.839,2.779,1.364,4.877.892,1.259-.262,2.884-1.573,4.458-2.832a17.672,17.672,0,0,1,5.087-3.251,5.815,5.815,0,0,1,3.671-.1,11.254,11.254,0,0,1,3.356,1.94c2.937,2.2,14.736,12.534,16.782,14.317a103.542,103.542,0,0,1,18.879-6.083c-.839-5.3-4.091-10.121-8.968-14.107-6.818,2.884-15.1,4.353-23.232.367A21.912,21.912,0,0,0,73.754,20.1c-6.45.157-9.282,2.937-12.219,5.874Z" transform="translate(-27.343 -9.556)" fill="#fff"/><path d="M69.873,43.831c-.157-.1-13.9-12.167-16.991-14.474a7.617,7.617,0,0,0-3.828-1.835,7.045,7.045,0,0,0-1.835.157,17.338,17.338,0,0,0-5.034,2.989c-1.731,1.416-3.356,2.675-4.93,3.042a7.986,7.986,0,0,1-5.4-.787,2.615,2.615,0,0,1-.892-1,1.527,1.527,0,0,1,.472-1.783l3.776-4.091c.42-.42.892-.892,1.364-1.311a22.326,22.326,0,0,0-3.461.787,15.612,15.612,0,0,1-4.038.734,34.956,34.956,0,0,1-4.091-.629A62.912,62.912,0,0,1,14.021,21.7C8.567,25.633,4.949,30.668,3.9,36.174c.787.21,2.045.577,2.57.682,12.219,2.727,15.995,5.506,16.729,6.083a3.991,3.991,0,0,1,6.293.367,4.467,4.467,0,0,1,2.884-1.049,5.035,5.035,0,0,1,1.731.315,4.167,4.167,0,0,1,2.465,2.2,4.159,4.159,0,0,1,1.678-.367,5.7,5.7,0,0,1,2.045.42,4.321,4.321,0,0,1,2.412,4.825,1.452,1.452,0,0,1,.472-.052,4.84,4.84,0,0,1,4.248,7.132,7.561,7.561,0,0,0,4.2,1.1,3,3,0,0,0,1.993-.839c.1-.157.262-.367.157-.524L50.312,52.8s-.577-.524-.367-.734.577.1.787.315c1.731,1.468,3.881,3.671,3.881,3.671a1.511,1.511,0,0,0,.944.472,3.682,3.682,0,0,0,2.727-.629,2.235,2.235,0,0,0,.577-.629l-.052.052a1.78,1.78,0,0,0-.1-2.255l-4.038-4.51s-.577-.524-.367-.734c.157-.21.524.1.787.315,1.259,1.049,3.094,2.884,4.772,4.563a3.3,3.3,0,0,0,3.881-.157,2.731,2.731,0,0,0,1.416-2.517,2.953,2.953,0,0,0-.839-1.678l-5.506-5.506s-.577-.524-.367-.734c.157-.21.524.1.787.315,1.888,1.364,6.608,5.716,6.608,5.716a3.339,3.339,0,0,0,3.723-.052,2.484,2.484,0,0,0,1.206-1.993,2.832,2.832,0,0,0-.892-2.255" transform="translate(-1.855 -10.32)" fill="#fff"/><path d="M60.733,69.881a10.641,10.641,0,0,0-1.888.42c-.052-.052.052-.367.157-.577.052-.21,1.206-3.566-1.521-4.72a3.25,3.25,0,0,0-3.828.577c-.1.1-.157.1-.157-.052a3.016,3.016,0,0,0-2.1-2.779,4.123,4.123,0,0,0-4.772,1.573,2.975,2.975,0,1,0-2.937,3.356,2.9,2.9,0,0,0,2.045-.839v.1A4,4,0,0,0,48.2,71.507a2.92,2.92,0,0,0,2.884-.472c.21-.157.262-.1.262.1-.1.682.052,2.2,2.1,3.042A2.712,2.712,0,0,0,56.59,73.6c.262-.262.367-.21.367.157a3.777,3.777,0,1,0,3.776-3.881" transform="translate(-19.356 -29.343)" fill="#fff"/><path d="M70.159,40.465c-4.248-3.671-14-12.219-16.677-14.212a11.285,11.285,0,0,0-3.461-1.993A6.241,6.241,0,0,0,48.343,24a8.042,8.042,0,0,0-2.15.367,17.441,17.441,0,0,0-5.087,3.2l-.1.052c-1.521,1.206-3.094,2.517-4.3,2.779a8.142,8.142,0,0,1-1.626.157,3.973,3.973,0,0,1-2.989-.944c-.052-.1-.052-.262.157-.472h0L35.967,25.1c2.937-2.937,5.664-5.664,12.009-5.821h.315a22.145,22.145,0,0,1,8.338,1.993A25.933,25.933,0,0,0,68.009,24a29.92,29.92,0,0,0,12.481-2.989c-.472-.42-1-.787-1.521-1.206a27.173,27.173,0,0,1-10.96,2.517,23.732,23.732,0,0,1-10.646-2.57,23.784,23.784,0,0,0-9.073-2.15h-.367a15.4,15.4,0,0,0-10.331,3.671,19.971,19.971,0,0,0-5.139.944,14.421,14.421,0,0,1-3.671.682c-.472,0-1.311-.052-1.364-.052A74.013,74.013,0,0,1,14.36,19.226c-.524.367-1.049.787-1.521,1.154C18.294,22.634,24.9,24.365,27,24.47c.577.052,1.206.1,1.835.1a13.475,13.475,0,0,0,4.091-.787c.787-.21,1.678-.472,2.57-.629l-.734.734-3.776,4.091a1.9,1.9,0,0,0-.524,2.1,2.467,2.467,0,0,0,1,1.1,8.624,8.624,0,0,0,5.664.839c1.573-.367,3.251-1.678,5.034-3.094a17.266,17.266,0,0,1,4.93-2.937,6.046,6.046,0,0,1,1.364-.157h.367a7.651,7.651,0,0,1,3.723,1.783c3.094,2.36,16.886,14.369,16.991,14.474a2.761,2.761,0,0,1,.839,2.045,2.211,2.211,0,0,1-1.1,1.731,3.411,3.411,0,0,1-1.783.577,2.825,2.825,0,0,1-1.626-.472c-.052-.052-4.772-4.353-6.5-5.821a1.457,1.457,0,0,0-.787-.42.476.476,0,0,0-.367.157c-.262.315.052.787.367,1.1l5.454,5.559a2.473,2.473,0,0,1,.734,1.468,2.582,2.582,0,0,1-1.311,2.307,3.543,3.543,0,0,1-1.94.629,2.854,2.854,0,0,1-1.573-.472l-.787-.787c-1.468-1.416-2.937-2.884-4.038-3.776a1.457,1.457,0,0,0-.787-.42.476.476,0,0,0-.367.157c-.1.1-.21.367.1.787a2.451,2.451,0,0,0,.262.315l4.038,4.51a1.538,1.538,0,0,1,.1,1.94l-.157.157a2.423,2.423,0,0,1-.367.367,3.2,3.2,0,0,1-1.993.629,1.617,1.617,0,0,1-.524-.052A1.1,1.1,0,0,1,54.636,54l-.052-.052c-.21-.21-2.255-2.307-3.933-3.671a1.057,1.057,0,0,0-.787-.472.476.476,0,0,0-.367.157c-.315.367.157.892.367,1.1l3.409,3.776c0,.052-.052.1-.157.21-.1.157-.524.577-1.783.734H50.86a8.189,8.189,0,0,1-3.356-1,5.139,5.139,0,0,0-4.615-7.29h-.21a4.521,4.521,0,0,0-2.57-4.772,5.5,5.5,0,0,0-2.15-.472,4.944,4.944,0,0,0-1.573.262,4.2,4.2,0,0,0-2.517-2.1,5.872,5.872,0,0,0-1.835-.315,5.2,5.2,0,0,0-2.884.892,4.412,4.412,0,0,0-3.356-1.626,4.327,4.327,0,0,0-3.042,1.259c-.892-.787-5.139-3.461-16.467-6.031-.577-.157-1.835-.472-2.57-.734-.157.629-.21,1.206-.315,1.835,0,0,2.1.472,2.517.577,11.59,2.57,15.366,5.244,16.047,5.716a4.542,4.542,0,0,0-.315,1.678A4.342,4.342,0,0,0,26,48.017a3.969,3.969,0,0,0,.787-.052,5.053,5.053,0,0,0,3.251,3.776,4.155,4.155,0,0,0,1.521.315,3.293,3.293,0,0,0,1-.157,4.507,4.507,0,0,0,2.675,2.517,5.105,5.105,0,0,0,1.678.367,2.8,2.8,0,0,0,1.311-.262,5.1,5.1,0,0,0,4.72,3.147,5.29,5.29,0,0,0,3.671-1.521,9.472,9.472,0,0,0,4.3,1.311,3.226,3.226,0,0,0,.682-.052,3.977,3.977,0,0,0,2.937-1.416c.052-.1.157-.21.157-.315a5.744,5.744,0,0,0,1.416.21,4.522,4.522,0,0,0,2.779-1,4.179,4.179,0,0,0,1.678-2.412v-.052a5.779,5.779,0,0,0,.944.1,5.463,5.463,0,0,0,2.884-.892,4.055,4.055,0,0,0,2.045-3.723,5.778,5.778,0,0,0,.944.1,5.1,5.1,0,0,0,2.675-.787,4.013,4.013,0,0,0,1.888-3.042,4.617,4.617,0,0,0-.577-2.465A110.838,110.838,0,0,1,89.2,36.112c-.052-.629-.157-1.259-.262-1.835a101.811,101.811,0,0,0-18.774,6.188M42.994,56.145a3.518,3.518,0,0,1-3.514-3.356c0-.157,0-.577-.367-.577-.157,0-.262.1-.42.21a2.539,2.539,0,0,1-1.678.787,2.446,2.446,0,0,1-1.154-.262,2.561,2.561,0,0,1-1.94-2.727c0-.157.052-.315-.052-.42l-.1-.1h-.157a.7.7,0,0,0-.367.157,2.912,2.912,0,0,1-1.678.629,2.057,2.057,0,0,1-.944-.21,3.729,3.729,0,0,1-2.307-4.248.442.442,0,0,0-.1-.367L28,45.5l-.157.21a2.9,2.9,0,0,1-1.888.787A2.727,2.727,0,1,1,28.625,43.4l.1.734.42-.629A4.078,4.078,0,0,1,32.3,41.776a3.441,3.441,0,0,1,1.206.21,2.736,2.736,0,0,1,1.94,2.57c.052.367.262.367.315.367a.448.448,0,0,0,.315-.157,2.834,2.834,0,0,1,1.993-.839,4.156,4.156,0,0,1,1.521.315c2.57,1.1,1.416,4.353,1.364,4.405-.21.524-.21.787,0,.892l.1.052h.052a4.393,4.393,0,0,0,.524-.1,5.2,5.2,0,0,1,1.364-.315,3.488,3.488,0,1,1,0,6.975" transform="translate(-1.617 -8.37)" fill="#302f83"/></g></g></svg>