<svg xmlns="http://www.w3.org/2000/svg" width="200" height="62.664" viewBox="0 0 200 62.664"><g transform="translate(-0.1)"><g transform="translate(0.1)"><g transform="translate(0 0.25)"><path d="M47.591,31.986A17.562,17.562,0,0,1,30.081,49.5,17.777,17.777,0,0,1,21.2,47.12a13.65,13.65,0,0,0,3.627-2.877,12.383,12.383,0,0,0,5.253,1.126,13.281,13.281,0,0,0,7.255-24.39,13.642,13.642,0,0,0-3.877-1.751,15.745,15.745,0,0,0-3.377-.5,12.383,12.383,0,0,0-5.253,1.126A15.98,15.98,0,0,0,21.2,16.976,17.777,17.777,0,0,1,30.081,14.6a16.792,16.792,0,0,1,4.378.5,14.961,14.961,0,0,1,4.128,1.626A17.47,17.47,0,0,1,47.591,31.986Z" transform="translate(5.191 3.411)" fill="#ff9e18"/><path d="M35,31.61a17.433,17.433,0,0,1-4.878,12.133,15.98,15.98,0,0,1-3.627,2.877A17.777,17.777,0,0,1,17.611,49a17.517,17.517,0,0,1-8.38-32.9,23.606,23.606,0,0,0,1.126,4.253,13.281,13.281,0,0,0,7.255,24.39,12.383,12.383,0,0,0,5.253-1.126,12.159,12.159,0,0,0,3.627-2.376,13.287,13.287,0,0,0,4.378-9.881v-.75A14.961,14.961,0,0,0,35,28.983Z" transform="translate(-0.1 3.787)" fill="#fff"/><path d="M42.122,17.836A15.137,15.137,0,0,1,42,20.213a14.961,14.961,0,0,0-4.128-1.626v-.75a13.258,13.258,0,0,0-26.517,0v.75a14.231,14.231,0,0,0,.876,4.128,12.728,12.728,0,0,0,5,6.129A16.415,16.415,0,0,0,16.106,33.1,17.143,17.143,0,0,1,8.351,24.34a16.415,16.415,0,0,1-1.126-4.253A15.137,15.137,0,0,1,7.1,17.711a17.511,17.511,0,1,1,35.022.125Z" transform="translate(1.655 -0.2)" fill="#ffb71b"/></g><g transform="translate(57.536)"><path d="M79.6.4h4.753V27.917H79.6Z" transform="translate(-37.699 0.1)" fill="#ffb71b"/><path d="M92.753.4l13.759,19.012V.4h4.753V27.917h-4.253L93.253,9.03V27.917H88.5V.4h4.253Z" transform="translate(-35.467 0.1)" fill="#ffb71b"/><path d="M130.113,22.764V16.886h-6.254V12.508H134.74V25.016s-3.5,3.5-10.131,3.5A14.229,14.229,0,0,1,110.1,14.259,14.019,14.019,0,0,1,124.359,0,13.46,13.46,0,0,1,134.49,4.128l-3.252,3.127a9.067,9.067,0,0,0-7-2.877,9.587,9.587,0,0,0-9.506,9.881,9.768,9.768,0,0,0,9.631,9.881C128.486,24.14,130.113,22.764,130.113,22.764Z" transform="translate(-30.05)" fill="#ffb71b"/><path d="M150.31.4h4.753V17.911c0,6-4.128,10.507-10.632,10.507S133.8,24.04,133.8,17.911V.4h4.753V17.411c0,3.877,2,6.629,5.879,6.629s5.879-2.627,5.879-6.629Z" transform="translate(-24.106 0.1)" fill="#ffb71b"/><path d="M58.608,27.917,65.237,9.281l6.629,18.637h3.252L84.374.4H79.5l-6,18.762L67.363.4H63.486L57.232,19.162,51.353.4H46.1l9.131,27.517Z" transform="translate(-46.1 0.1)" fill="#ffb71b"/></g><g transform="translate(62.039 32.77)"><path d="M62.583,35.355v9.756H59.831V35.855A3.384,3.384,0,0,0,56.2,32.1c-2.5,0-3.752,2.5-3.752,2.5V44.986H49.7V29.976h2.5V32.1a5.676,5.676,0,0,1,10.381,3.252Z" transform="translate(-49.7 -25.348)" fill="#fff"/><path d="M78.159,37.606v.876H66.027c.125,2.251,2.376,4.378,5.253,4.378a5.629,5.629,0,0,0,4.5-2.251l1.751,1.751a8.288,8.288,0,0,1-6.254,3,7.694,7.694,0,0,1-7.88-7.88c0-4.378,3-7.88,7.5-7.88C75.032,29.476,78.159,32.728,78.159,37.606Zm-2.752-1.5a4.729,4.729,0,0,0-9.381,0Z" transform="translate(-46.264 -25.348)" fill="#fff"/><path d="M76.7,30.828h3V26.2h2.752v4.628h4.628v2.5H82.329v8.13a2.081,2.081,0,0,0,2.251,2.376,3.55,3.55,0,0,0,1.751-.625l1,2.251a5.68,5.68,0,0,1-3.127.876,4.389,4.389,0,0,1-4.5-4.753V33.329h-3v-2.5Z" transform="translate(-42.929 -26.2)" fill="#fff"/><path d="M122.81,37.481a7.756,7.756,0,1,1-7.755-7.88C119.558,29.476,122.81,32.978,122.81,37.481Zm-2.752,0c0-3-2-5.378-5-5.378s-5,2.376-5,5.378,2,5.378,5,5.378C118.182,42.859,120.058,40.482,120.058,37.481Z" transform="translate(-35.255 -25.348)" fill="#fff"/><path d="M131.206,29.979l-1,2.5a3.637,3.637,0,0,0-1.751-.375c-2.376,0-3.5,2.5-3.5,2.5V44.989H122.2V29.979h2.5v2.376a5.146,5.146,0,0,1,4.253-2.752A4.106,4.106,0,0,1,131.206,29.979Z" transform="translate(-31.518 -25.351)" fill="#fff"/><path d="M142.651,40.482a5.9,5.9,0,0,0,4.628,2.5c1.5,0,3.252-.625,3.252-1.876s-1.126-2-3.377-2.376c-3.252-.625-5.5-1.876-5.5-4.753,0-2.251,2.251-4.378,5.5-4.378a8.228,8.228,0,0,1,5.629,2.251l-1.751,1.876a5.556,5.556,0,0,0-3.752-1.626c-1.876,0-2.877,1-2.877,1.876,0,1.126,1.126,1.751,3.627,2.251,2.877.625,5.378,1.751,5.378,4.753,0,2.877-3.127,4.378-6,4.378a8.4,8.4,0,0,1-6.5-3.127Z" transform="translate(-26.829 -25.347)" fill="#fff"/><path d="M95.055,44.909l4.128-10.256,4.128,10.256h1.751l6-15.009h-2.752l-4.128,10.632-4-10.632H98.307L94.429,40.532,90.3,29.9h-3l6.129,15.009Z" transform="translate(-40.271 -25.272)" fill="#fff"/><g transform="translate(101.689 4.597)"><path d="M136,43.3h5l-5-7h-5Z" transform="translate(-131 -28.264)" fill="#fff" fill-rule="evenodd"/><g transform="translate(0 0)"><path d="M140.881,29.1h-5L131,35.979h5Z" transform="translate(-131 -29.1)" fill="#fff" fill-rule="evenodd"/></g></g></g></g><g transform="translate(119.55 57.161)"><path d="M98.352,46.8v2.877h-.5v-.5l-.375.375a1.626,1.626,0,0,1-1.251,0,.977.977,0,0,1-.5-.5,2.314,2.314,0,0,1,0-1.5.977.977,0,0,1,.5-.5,1.626,1.626,0,0,1,1.251,0l.375.375v-.5h.5Zm-.625,2.251a1.778,1.778,0,0,0,.25-.75,1.057,1.057,0,0,0-.25-.75.907.907,0,0,0-1.251,0,1.778,1.778,0,0,0-.25.75,1.057,1.057,0,0,0,.25.75.907.907,0,0,0,1.251,0Z" transform="translate(-95.6 -45.424)" fill="#fff"/><path d="M103.577,49.9h-1.251L100.7,48.026V49.9h-1v-4h1v1.751l1.5-1.751h1.251L101.7,47.776Z" transform="translate(-94.572 -45.65)" fill="#fff"/><path d="M102.8,49.9v-4h1v4Z" transform="translate(-93.794 -45.65)" fill="#fff"/><path d="M105.1,49.7a2.124,2.124,0,0,1-.75-.75,2.5,2.5,0,0,1-.25-1.126,3.652,3.652,0,0,1,.25-1.126,2.124,2.124,0,0,1,.75-.75,2.5,2.5,0,0,1,1.126-.25,3.652,3.652,0,0,1,1.126.25,2.124,2.124,0,0,1,.75.75,2.5,2.5,0,0,1,.25,1.126,3.652,3.652,0,0,1-.25,1.126,2.124,2.124,0,0,1-.75.75,2.658,2.658,0,0,1-2.251,0Zm1.751-.876a1.808,1.808,0,0,0,.25-.876,1.458,1.458,0,0,0-.25-.876.756.756,0,0,0-.75-.375,1.081,1.081,0,0,0-.75.375,1.808,1.808,0,0,0-.25.876,1.458,1.458,0,0,0,.25.876.938.938,0,0,0,1.5,0Z" transform="translate(-93.468 -45.7)" fill="#fff"/><path d="M110.727,45.9h.5v4h-.375l-2.376-3.252V49.9H108.1v-4h.375l2.376,3.252V45.9Z" transform="translate(-92.465 -45.65)" fill="#fff"/><path d="M113.627,48.176H111.5a1.808,1.808,0,0,0,.25.876,1.057,1.057,0,0,0,.75.25,1.136,1.136,0,0,0,.876-.375l.125.375a.65.65,0,0,1-.5.25,1.128,1.128,0,0,1-.625.125,1.231,1.231,0,0,1-1-.375A1.529,1.529,0,0,1,111,48.176a1.586,1.586,0,0,1,.125-.75.977.977,0,0,1,.5-.5,1.354,1.354,0,0,1,.75-.125,1.135,1.135,0,0,1,.876.375,1.231,1.231,0,0,1,.375,1Zm-1.751-.876a.955.955,0,0,0-.25.625h1.626a.8.8,0,0,0-1.376-.625Z" transform="translate(-91.738 -45.424)" fill="#fff"/><path d="M114.4,47.351v1.5c0,.25,0,.375.125.5a.459.459,0,0,0,.375.125h.25v.375h-.375a.855.855,0,0,1-.876-.876V47.351h-.5v-.375h.5v-.75l.5-.125v.876h.75v.375h-.75Z" transform="translate(-91.136 -45.6)" fill="#fff"/><path d="M119.1,46.8h.5l-1,2.877h-.5l-.75-2.251-.75,2.251h-.5l-1-2.877h.5l.75,2.251.876-2.251h.375l.876,2.251Z" transform="translate(-90.71 -45.424)" fill="#fff"/><path d="M119.625,49.527a.977.977,0,0,1-.5-.5,2.314,2.314,0,0,1,0-1.5.977.977,0,0,1,.5-.5,2.314,2.314,0,0,1,1.5,0,.977.977,0,0,1,.5.5,2.314,2.314,0,0,1,0,1.5.977.977,0,0,1-.5.5,2.314,2.314,0,0,1-1.5,0Zm1.376-.5a1.341,1.341,0,0,0,.25-.75,1.057,1.057,0,0,0-.25-.75c-.125-.25-.375-.25-.625-.25a.955.955,0,0,0-.625.25,1.778,1.778,0,0,0-.25.75,1.057,1.057,0,0,0,.25.75.907.907,0,0,0,1.251,0Z" transform="translate(-89.732 -45.399)" fill="#fff"/><path d="M123.326,46.8v.375h-.25a.855.855,0,0,0-.876.876v1.626h-.5V46.925h.375v.5c.125-.25.125-.375.375-.5a.752.752,0,0,1,.5-.125Z" transform="translate(-89.055 -45.424)" fill="#fff"/><path d="M125.827,49.928H125.2l-1.5-1.376v1.376h-.5V45.8h.5v2.627l1.376-1.251h.625l-1.376,1.376Z" transform="translate(-88.678 -45.675)" fill="#fff"/><path d="M125.5,49.327l.125-.375a.65.65,0,0,0,.5.25c.125,0,.375.125.5.125.25,0,.375,0,.5-.125s.125-.125.125-.375c0-.125,0-.25-.125-.25a.459.459,0,0,0-.375-.125l-.5-.125a.884.884,0,0,1-.75-.75.955.955,0,0,1,.25-.625,1.778,1.778,0,0,1,.75-.25c.25,0,.375,0,.5.125s.375.125.5.25l-.125.375a1.136,1.136,0,0,0-.876-.375c-.25,0-.375,0-.5.125s-.125.125-.125.375c0,.125,0,.25.125.25.125.125.125.125.375.125l.5.125a.955.955,0,0,1,.625.25.65.65,0,0,1,.25.5.955.955,0,0,1-.25.625,1.778,1.778,0,0,1-.75.25A1.66,1.66,0,0,1,125.5,49.327Z" transform="translate(-88.102 -45.449)" fill="#fff"/><path d="M129.351,45.825c.125.125.375.25.375.375a.937.937,0,0,1,.125.625,1.128,1.128,0,0,1-.125.625c-.125.125-.25.375-.375.375a5.416,5.416,0,0,1-.625.125,1.128,1.128,0,0,1-.625-.125c-.125-.125-.375-.25-.375-.375a.937.937,0,0,1-.125-.625,1.128,1.128,0,0,1,.125-.625c.125-.125.25-.375.375-.375a1.626,1.626,0,0,1,1.251,0Zm0,2,.375-.375a.752.752,0,0,0,.125-.5c0-.25,0-.375-.125-.5l-.375-.375a.752.752,0,0,0-.5-.125c-.25,0-.375,0-.5.125l-.375.375a.752.752,0,0,0-.125.5c0,.25,0,.375.125.5l.375.375a.752.752,0,0,0,.5.125C128.976,47.951,129.226,47.826,129.351,47.826Zm-.125-.625.25.375h-.25l-.25-.5a.123.123,0,0,0-.125-.125h-.25v.5h-.25V46.075h.625a.46.46,0,0,1,.375.125c.125.125.125.125.125.25s0,.25-.125.25c0,.125-.125.125-.25.125C129.1,47.076,129.1,47.076,129.226,47.2Zm-.125-.375.125-.125c0-.125,0-.125-.125-.125h-.5v.5h.25C128.976,46.826,128.976,46.826,129.1,46.826Z" transform="translate(-87.575 -45.7)" fill="#fff"/><path d="M131.976,49.7a1.281,1.281,0,0,1-.625-.75,2.5,2.5,0,0,1-.25-1.126,3.653,3.653,0,0,1,.25-1.126,3.316,3.316,0,0,1,.625-.75,2.356,2.356,0,0,1,1-.25,1.587,1.587,0,0,1,.751.125c.25.125.375.25.625.375l-.125.375c-.25-.125-.375-.25-.625-.375a.937.937,0,0,0-.625-.125,1.231,1.231,0,0,0-1,.375A1.867,1.867,0,0,0,131.6,47.7a2.113,2.113,0,0,0,.375,1.251,1.42,1.42,0,0,0,1,.375,1.128,1.128,0,0,0,.625-.125c.25-.125.375-.25.625-.375l.125.375a2.735,2.735,0,0,1-.625.375,1.586,1.586,0,0,1-.751.125A.953.953,0,0,1,131.976,49.7Z" transform="translate(-86.697 -45.7)" fill="#fff"/><path d="M134.725,49.527a.976.976,0,0,1-.5-.5,2.314,2.314,0,0,1,0-1.5.977.977,0,0,1,.5-.5,1.354,1.354,0,0,1,.75-.125,1.586,1.586,0,0,1,.75.125.976.976,0,0,1,.5.5,2.314,2.314,0,0,1,0,1.5.977.977,0,0,1-.5.5,1.354,1.354,0,0,1-.75.125C135.1,49.652,134.85,49.652,134.725,49.527Zm1.251-.5a1.341,1.341,0,0,0,.25-.75,1.057,1.057,0,0,0-.25-.75c-.125-.25-.375-.25-.625-.25a.955.955,0,0,0-.625.25,1.778,1.778,0,0,0-.25.75,1.057,1.057,0,0,0,.25.75.955.955,0,0,0,.625.25A.735.735,0,0,0,135.976,49.026Z" transform="translate(-85.945 -45.399)" fill="#fff"/><path d="M140.878,47.905v1.751h-.5V47.905a.937.937,0,0,0-.125-.625c-.125-.125-.25-.125-.5-.125a.65.65,0,0,0-.5.25.955.955,0,0,0-.25.625v1.626h-.5V47.905a.937.937,0,0,0-.125-.625c-.125-.125-.25-.125-.5-.125s-.375.125-.625.25a.955.955,0,0,0-.25.625v1.626h-.5V46.9h.375v.5c.125-.125.25-.375.375-.375a.752.752,0,0,1,.5-.125c.25,0,.375,0,.5.125l.375.375L139,47.03a.937.937,0,0,1,.625-.125C140.628,46.78,140.878,47.155,140.878,47.905Z" transform="translate(-85.343 -45.404)" fill="#fff"/><path d="M142.826,46.95a.976.976,0,0,1,.5.5,2.314,2.314,0,0,1,0,1.5.977.977,0,0,1-.5.5,1.626,1.626,0,0,1-1.251,0c-.25-.125-.25-.25-.375-.375v1.751h-.5v-4h.375v.5a1.726,1.726,0,0,1,.375-.5.937.937,0,0,1,.625-.125C142.326,46.825,142.576,46.825,142.826,46.95Zm-.125,2.126a1.341,1.341,0,0,0,.25-.75,1.057,1.057,0,0,0-.25-.75c-.125-.25-.375-.25-.625-.25a.955.955,0,0,0-.625.25,1.341,1.341,0,0,0-.25.75,1.057,1.057,0,0,0,.25.75c.125.25.375.25.625.25A.955.955,0,0,0,142.7,49.076Z" transform="translate(-84.29 -45.449)" fill="#fff"/><path d="M145.952,46.8v2.877h-.5v-.5l-.375.375a1.626,1.626,0,0,1-1.251,0,.977.977,0,0,1-.5-.5,2.314,2.314,0,0,1,0-1.5.977.977,0,0,1,.5-.5,1.626,1.626,0,0,1,1.251,0l.375.375v-.5h.5Zm-.625,2.251a1.778,1.778,0,0,0,.25-.75,1.057,1.057,0,0,0-.25-.75.907.907,0,0,0-1.251,0,1.778,1.778,0,0,0-.25.75,1.057,1.057,0,0,0,.25.75.956.956,0,0,0,.625.25C144.951,49.3,145.076,49.176,145.326,49.051Z" transform="translate(-83.663 -45.424)" fill="#fff"/><path d="M148.5,47.905v1.751H148V47.905a.937.937,0,0,0-.125-.625c-.125-.125-.25-.125-.5-.125a.855.855,0,0,0-.876.876v1.626H146V46.9h.375v.5c.125-.125.25-.375.375-.375a.937.937,0,0,1,.625-.125C148.251,46.78,148.5,47.155,148.5,47.905Z" transform="translate(-82.961 -45.404)" fill="#fff"/><path d="M151.277,46.8,149.9,49.927a1.6,1.6,0,0,1-.5.75,1.778,1.778,0,0,1-.75.25l-.125-.375a.956.956,0,0,0,.625-.25,1.727,1.727,0,0,0,.375-.5l.125-.25L148.4,46.8h.5l1,2.376,1-2.376h.375Z" transform="translate(-82.359 -45.424)" fill="#fff"/></g><g transform="translate(193.346)"><path d="M157.977,0A3.377,3.377,0,1,1,154.6,3.377,3.287,3.287,0,0,1,157.977,0Zm0,6A2.642,2.642,0,0,0,160.6,3.377a2.627,2.627,0,0,0-5.253,0A2.565,2.565,0,0,0,157.977,6Zm-1.251-4.253h1.5a.987.987,0,0,1,1,1,.951.951,0,0,1-.75,1l.876,1.126h-1l-.75-1.126h-.25V5H156.6V1.751Zm1.751,1.126c0-.375-.25-.375-.5-.375h-.5v.75h.5C158.227,3.252,158.477,3.127,158.477,2.877Z" transform="translate(-154.6)" fill="#ffb71b"/></g></g></svg>