<svg xmlns="http://www.w3.org/2000/svg" width="125" height="125" viewBox="0 0 125 125"><g transform="translate(-898 -7290)"><circle cx="62.5" cy="62.5" r="62.5" transform="translate(898 7290)" fill="#2a2c2e"/><g transform="translate(904.313 7295.313)"><path d="M90.986,68.591A23.222,23.222,0,0,1,67.794,91.783,22.93,22.93,0,0,1,56,88.513a26.018,26.018,0,0,0,4.857-3.865,17.69,17.69,0,0,0,6.938,1.388,17.54,17.54,0,0,0,9.614-32.212,18.566,18.566,0,0,0-5.154-2.28,17.434,17.434,0,0,0-4.559-.595,17.69,17.69,0,0,0-6.938,1.388A23.156,23.156,0,0,0,55.9,48.471,22.931,22.931,0,0,1,67.695,45.2a22.274,22.274,0,0,1,5.749.694,21.627,21.627,0,0,1,5.451,2.18A23.515,23.515,0,0,1,90.986,68.591Z" transform="translate(-0.312 -0.208)" fill="#ff9e18"/><path d="M67.085,68.619A23.193,23.193,0,1,1,32.693,48.4a26.3,26.3,0,0,0,1.487,5.649A17.57,17.57,0,1,0,55.588,81.8a17.29,17.29,0,0,0,5.749-12.984v-.991a21.627,21.627,0,0,0,5.451-2.18A9.474,9.474,0,0,1,67.085,68.619Z" transform="translate(0 -0.237)" fill="#fff"/><path d="M78.985,44.893c0,1.09-.1,2.081-.2,3.172a24.1,24.1,0,0,0-5.451-2.181v-.991a17.543,17.543,0,0,0-35.086,0v.991a16.765,16.765,0,0,0,1.189,5.451,18.089,18.089,0,0,0,6.641,8.226,21.573,21.573,0,0,0-1.487,5.649,23.746,23.746,0,0,1-10.308-11.5A21.574,21.574,0,0,1,32.8,48.064c-.1-.991-.2-2.081-.2-3.172a23.193,23.193,0,0,1,46.385,0Z" transform="translate(-0.105)" fill="#ffb71b"/></g></g></svg>