<svg xmlns="http://www.w3.org/2000/svg" width="78.701" height="99.937" viewBox="0 0 78.701 99.937"><path d="M15.583,23.967A12.063,12.063,0,0,0,27.567,11.983a11.983,11.983,0,1,0-23.967,0A12.063,12.063,0,0,0,15.583,23.967Z" transform="translate(4.54 0)" fill="#bbdfdc" fill-rule="evenodd"/><path d="M32.783,28.393A12.063,12.063,0,0,0,44.767,16.409,12.26,12.26,0,0,0,32.783,4.2a12.1,12.1,0,0,0,0,24.193Z" transform="translate(26.229 5.296)" fill="#bbdfdc" fill-rule="evenodd"/><g transform="translate(0 27.358)"><path d="M23.515,46.241a16.148,16.148,0,0,1-3.844-10.175,15.632,15.632,0,0,1,15.6-15.6h1.809A18.863,18.863,0,0,0,21.48,12.1H18.766A18.72,18.72,0,0,0,0,30.866V50.311s0,3.844,15.375,4.522A21.2,21.2,0,0,1,23.515,46.241Z" transform="translate(0 -12.1)" fill="#bbdfdc" fill-rule="evenodd"/><path d="M34.392,16.4H31.679A19.086,19.086,0,0,0,20.6,20.018a15.194,15.194,0,0,1,4.3,10.853,14.974,14.974,0,0,1-3.844,10.175,21.081,21.081,0,0,1,10.4,18.314h1.131c20.123,0,20.123-4.522,20.123-4.522V35.393A18.125,18.125,0,0,0,34.392,16.4Z" transform="translate(25.977 -6.678)" fill="#bbdfdc" fill-rule="evenodd"/></g><g transform="translate(18.54 41.377)"><ellipse cx="9.948" cy="9.948" rx="9.948" ry="9.948" transform="translate(6.783)" fill="#bbdfdc"/><path d="M41.663,60.28s0,3.844-16.731,3.844S8.2,60.28,8.2,60.28V44A15.632,15.632,0,0,1,23.8,28.4h2.261A15.632,15.632,0,0,1,41.663,44Z" transform="translate(-8.2 -5.564)" fill="#bbdfdc" fill-rule="evenodd"/></g></svg>