<svg xmlns="http://www.w3.org/2000/svg" width="91.714" height="80.709" viewBox="0 0 91.714 80.709"><path d="M46.625,15.771,25.4,21.8V48L46.625,54.03a3.076,3.076,0,0,0,3.931-2.882V18.654A2.99,2.99,0,0,0,46.625,15.771Z" transform="translate(41.158 25.369)" fill="#bbdfdc" fill-rule="evenodd"/><path d="M18.867,37.472A18.956,18.956,0,0,0,37.734,18.605,18.732,18.732,0,0,0,18.867,0,18.789,18.789,0,0,0,0,18.867,18.568,18.568,0,0,0,18.867,37.472Zm0-25.68a6.937,6.937,0,0,1,6.813,6.813,7.172,7.172,0,0,1-6.813,7.075,6.945,6.945,0,0,1,0-13.888Z" fill="#bbdfdc" fill-rule="evenodd"/><path d="M34.767,37.472A18.956,18.956,0,0,0,53.634,18.605,18.732,18.732,0,0,0,34.767,0,18.956,18.956,0,0,0,15.9,18.867,18.568,18.568,0,0,0,34.767,37.472Zm0-25.68a6.937,6.937,0,0,1,6.813,6.813,6.813,6.813,0,1,1-13.626,0A6.766,6.766,0,0,1,34.767,11.792Z" transform="translate(25.765)" fill="#bbdfdc" fill-rule="evenodd"/><path d="M3.144,15.3A3.028,3.028,0,0,0,0,18.445V32.333a3.028,3.028,0,0,0,3.144,3.145,3.028,3.028,0,0,0,3.144-3.145V18.445A3.028,3.028,0,0,0,3.144,15.3Z" transform="translate(0 24.792)" fill="#bbdfdc" fill-rule="evenodd"/><path d="M54.922,15.3H6.969A3.582,3.582,0,0,0,3.3,18.969V52.248a3.582,3.582,0,0,0,3.669,3.669H54.922a3.582,3.582,0,0,0,3.669-3.669V18.969A3.748,3.748,0,0,0,54.922,15.3ZM52.564,37.836H9.327V20.279h43.5V37.836Z" transform="translate(5.347 24.792)" fill="#bbdfdc" fill-rule="evenodd"/></svg>