<svg xmlns="http://www.w3.org/2000/svg" width="91.452" height="68.049" viewBox="0 0 91.452 68.049"><path d="M38.28,1.5H12.6V15.912a1.791,1.791,0,0,0,1.834,1.834H36.446a1.791,1.791,0,0,0,1.834-1.834Z" transform="translate(20.417 2.431)" fill="#bbdfdc"/><path d="M91.452,20.439A19.634,19.634,0,0,0,84.377,8.123V2.62A2.626,2.626,0,0,0,81.757,0H73.372a2.626,2.626,0,0,0-2.62,2.62v1.31H61.842V21.487a1.791,1.791,0,0,1-1.834,1.834H31.445a1.791,1.791,0,0,1-1.834-1.834V3.931H20.177V2.62A2.626,2.626,0,0,0,17.557,0H9.171a2.626,2.626,0,0,0-2.62,2.62V8.647A18.111,18.111,0,0,0,.262,20.439H0V60.27a7.633,7.633,0,0,0,5.241,7.337,7.531,7.531,0,0,0,9.433-4.717l7.075-20.7h.524a10.359,10.359,0,0,0,16.247,0H53.456a10.359,10.359,0,0,0,16.247,0h.262l6.813,20.439a7.48,7.48,0,0,0,14.674-2.1V20.439ZM23.06,23.06H16.771v6.289H10.482V23.06H4.193V16.509h6.289V10.22h6.551v6.289h6.289V23.06Zm6.551,18.867A6.289,6.289,0,1,1,35.9,35.638,6.377,6.377,0,0,1,29.611,41.927Zm16.247-2.62a3.669,3.669,0,1,1,3.669-3.669A3.582,3.582,0,0,1,45.857,39.306ZM78.088,9.958a3.582,3.582,0,0,1,3.669,3.669,3.669,3.669,0,1,1-7.337,0A3.582,3.582,0,0,1,78.088,9.958ZM62.1,41.927a6.289,6.289,0,1,1,6.289-6.289A6.377,6.377,0,0,1,62.1,41.927Zm9.171-18.081a3.669,3.669,0,1,1,3.669-3.669A3.582,3.582,0,0,1,71.275,23.846ZM78.088,30.4a3.669,3.669,0,1,1,3.669-3.669A3.938,3.938,0,0,1,78.088,30.4Zm6.551-6.551a3.669,3.669,0,1,1,3.669-3.669A3.748,3.748,0,0,1,84.639,23.846Z" fill="#bbdfdc"/></svg>