<svg xmlns="http://www.w3.org/2000/svg" width="79.361" height="99.937" viewBox="0 0 79.361 99.937"><path d="M79.135,0l-61.5,22.158V77.553a12.5,12.5,0,0,0-5.653-1.583,11.983,11.983,0,0,0,0,23.967A11.732,11.732,0,0,0,23.741,88.632v-45.9l21.48-7.687V68.961a12.5,12.5,0,0,0-5.653-1.583A11.983,11.983,0,1,0,51.551,79.362V33.011L72.8,25.323V59.691a10.742,10.742,0,0,0-5.426-1.357A11.983,11.983,0,1,0,79.361,70.318V0ZM23.741,37.533V32.785L45.22,25.1v4.748Zm27.81-9.948V22.836L72.8,15.149V19.9Z" fill="#bbdfdc" fill-rule="evenodd"/></svg>