<svg xmlns="http://www.w3.org/2000/svg" width="91.977" height="71.014" viewBox="0 0 91.977 71.014"><ellipse cx="20.701" cy="20.701" rx="20.701" ry="20.701" transform="translate(36.162 18.605)" fill="#bbdfdc"/><path d="M89.88,7.861H73.634l-1.31-6.289A1.732,1.732,0,0,0,70.489,0H43.237A1.971,1.971,0,0,0,41.4,1.31L39.83,7.861h-38A1.791,1.791,0,0,0,0,9.7V61.842a1.791,1.791,0,0,0,1.834,1.834H36.424a30.99,30.99,0,0,0,20.439,7.337A32.423,32.423,0,0,0,77.3,63.676h12.84a1.791,1.791,0,0,0,1.834-1.834V9.7A2.224,2.224,0,0,0,89.88,7.861ZM11.268,24.37a4.417,4.417,0,0,1-4.455-4.455,4.2,4.2,0,0,1,4.455-4.193,4.367,4.367,0,0,1,4.455,4.193A4.592,4.592,0,0,1,11.268,24.37Zm45.6,40.879a26.074,26.074,0,0,1,0-52.146,26.074,26.074,0,0,1,0,52.146Z" transform="translate(0 0)" fill="#bbdfdc"/></svg>