<svg id="Grupo_1995" data-name="Grupo 1995" xmlns="http://www.w3.org/2000/svg" width="501.175" height="137.315" viewBox="0 0 501.175 137.315">
  <g id="Grupo_1994" data-name="Grupo 1994">
    <g id="Grupo_1980" data-name="Grupo 1980" transform="translate(99.347 39.024)">
      <g id="Grupo_1978" data-name="Grupo 1978" transform="translate(1.057)">
        <path id="Trazado_5259" data-name="Trazado 5259" d="M100.281,75.154c0,3.593-1.268,6.341-4.016,8.244s-6.553,2.959-11.837,2.959a44.632,44.632,0,0,1-5.5-.423A11.1,11.1,0,0,1,74.7,84.666a7.288,7.288,0,0,1-2.748-2.114,5.094,5.094,0,0,1-.846-3.171,5.288,5.288,0,0,1,.634-2.748,4.99,4.99,0,0,1,1.691-1.9,15.348,15.348,0,0,0,4.65,1.9,17.914,17.914,0,0,0,6.13.846,7.411,7.411,0,0,0,3.382-.634,1.741,1.741,0,0,0,1.057-1.691,1.415,1.415,0,0,0-.846-1.48,7.025,7.025,0,0,0-2.748-.846l-2.114-.423c-4.016-.846-7.187-2.114-9.089-3.8A9.54,9.54,0,0,1,70.9,61.2a10.761,10.761,0,0,1,1.057-4.65,10.276,10.276,0,0,1,3.171-3.593,14.7,14.7,0,0,1,4.862-2.114A28.763,28.763,0,0,1,86.331,50a34.693,34.693,0,0,1,4.862.423,22.3,22.3,0,0,1,4.016,1.057,12.714,12.714,0,0,1,2.748,1.9,4.582,4.582,0,0,1,1.057,2.959,5.851,5.851,0,0,1-.634,2.748,4.6,4.6,0,0,1-1.48,1.9,7.156,7.156,0,0,0-1.691-.634c-.846-.211-1.48-.423-2.537-.634a10.71,10.71,0,0,0-2.748-.423,10.292,10.292,0,0,0-2.537-.211,15.177,15.177,0,0,0-3.593.423c-.846.423-1.268.846-1.268,1.691a1.827,1.827,0,0,0,.634,1.268c.423.423,1.268.634,2.748.846l2.114.423c4.439,1.057,7.61,2.537,9.512,4.228A9.556,9.556,0,0,1,100.281,75.154Z" transform="translate(-70.9 -35.415)" fill="#21362c"/>
        <path id="Trazado_5260" data-name="Trazado 5260" d="M103.653,50.1a17.8,17.8,0,0,1,5.707.846,17.264,17.264,0,0,1,4.862,2.325,31.82,31.82,0,0,1,4.65-2.325,18.425,18.425,0,0,1,6.341-.846,22.573,22.573,0,0,1,5.284.634,18.5,18.5,0,0,1,4.65,2.114,12.164,12.164,0,0,1,3.171,4.016,13.18,13.18,0,0,1,1.268,6.13V84.977a18.313,18.313,0,0,1-2.114.423,16,16,0,0,1-3.171.211,11.167,11.167,0,0,1-2.748-.211,6.33,6.33,0,0,1-2.114-.846,3.287,3.287,0,0,1-1.268-1.691,9.381,9.381,0,0,1-.423-2.748v-16.7a3.291,3.291,0,0,0-1.268-2.959,5.094,5.094,0,0,0-3.171-.846,9.3,9.3,0,0,0-2.114.423,6.2,6.2,0,0,0-1.691.846v24.1a15.793,15.793,0,0,1-2.325.423,14.974,14.974,0,0,1-2.959.211,11.167,11.167,0,0,1-2.748-.211,6.329,6.329,0,0,1-2.114-.846,3.287,3.287,0,0,1-1.268-1.691,9.381,9.381,0,0,1-.423-2.748v-16.7a3.291,3.291,0,0,0-1.268-2.959,5.094,5.094,0,0,0-3.171-.846,6.254,6.254,0,0,0-2.114.423,10.3,10.3,0,0,0-1.48.634v24.52a18.306,18.306,0,0,1-2.114.423,16,16,0,0,1-3.171.211,11.167,11.167,0,0,1-2.748-.211,6.329,6.329,0,0,1-2.114-.846,3.287,3.287,0,0,1-1.268-1.691,9.381,9.381,0,0,1-.423-2.748V59.189a4.132,4.132,0,0,1,.846-2.959,10.02,10.02,0,0,1,2.114-2.114,21.9,21.9,0,0,1,5.919-2.748C98.58,50.311,101.117,50.1,103.653,50.1Z" transform="translate(-52.077 -35.304)" fill="#21362c"/>
        <path id="Trazado_5261" data-name="Trazado 5261" d="M130.442,50.1a24.283,24.283,0,0,1,6.975.846,13.427,13.427,0,0,1,5.284,2.325,10.451,10.451,0,0,1,3.382,4.016,12.585,12.585,0,0,1,1.268,5.707V78.636A4.582,4.582,0,0,1,146.3,81.6a6.608,6.608,0,0,1-2.325,1.9c-2.959,1.9-7.4,2.748-12.894,2.748a33.446,33.446,0,0,1-6.764-.634,18.3,18.3,0,0,1-5.073-2.114,9.223,9.223,0,0,1-3.382-3.593,9.953,9.953,0,0,1-1.057-5.073,9.54,9.54,0,0,1,2.959-7.4q2.854-2.537,8.878-3.171l9.089-1.057v-.423a3.373,3.373,0,0,0-1.691-2.959,11.549,11.549,0,0,0-5.073-.846,22.573,22.573,0,0,0-5.284.634,29.933,29.933,0,0,0-4.65,1.48,4.6,4.6,0,0,1-1.48-1.9,5.851,5.851,0,0,1-.634-2.748,4.473,4.473,0,0,1,.846-2.959,10.244,10.244,0,0,1,2.748-1.9,24.062,24.062,0,0,1,4.862-1.057A20.582,20.582,0,0,1,130.442,50.1Zm.634,27.479a10.291,10.291,0,0,0,2.536-.211,8.567,8.567,0,0,0,2.114-.634V71.026l-5.073.423a7,7,0,0,0-3.171.846,2.325,2.325,0,0,0-1.268,2.114,3.394,3.394,0,0,0,1.057,2.325A6.356,6.356,0,0,0,131.076,77.579Z" transform="translate(-22.005 -35.304)" fill="#21362c"/>
        <path id="Trazado_5262" data-name="Trazado 5262" d="M145.437,84.866a18.314,18.314,0,0,1-2.114.423,16,16,0,0,1-3.171.211,11.167,11.167,0,0,1-2.748-.211,6.33,6.33,0,0,1-2.114-.846,3.287,3.287,0,0,1-1.268-1.691A9.381,9.381,0,0,1,133.6,80V59.078a5.851,5.851,0,0,1,.634-2.748,8.276,8.276,0,0,1,1.691-2.114,31.289,31.289,0,0,1,2.748-1.691c1.057-.423,2.325-.846,3.593-1.268a22.453,22.453,0,0,1,4.016-.846A25.582,25.582,0,0,1,150.3,50.2a9.3,9.3,0,0,1,5.284,1.268,4.783,4.783,0,0,1,1.9,4.228,5.852,5.852,0,0,1-.211,1.9,14.57,14.57,0,0,1-.634,1.691,13.955,13.955,0,0,0-2.959.211,12.475,12.475,0,0,0-2.959.423c-1.057.211-1.9.423-2.748.634a13.133,13.133,0,0,0-2.114.634V84.866Z" transform="translate(-1.067 -35.192)" fill="#21362c"/>
        <path id="Trazado_5263" data-name="Trazado 5263" d="M159.248,76.693a2.883,2.883,0,0,0,1.057,2.537,7,7,0,0,0,3.171.846,7.191,7.191,0,0,0,2.114-.211,13.473,13.473,0,0,0,1.9-.423,4.6,4.6,0,0,1,1.057,1.691,7.6,7.6,0,0,1,.423,2.325,6.084,6.084,0,0,1-1.9,4.439c-1.268,1.057-3.593,1.691-6.975,1.691-4.016,0-7.187-.846-9.512-2.748-2.114-1.9-3.382-4.862-3.382-9.089V47.734a18.313,18.313,0,0,1,2.114-.423,13.956,13.956,0,0,1,2.959-.211,10.364,10.364,0,0,1,4.862,1.057c1.057.634,1.691,2.325,1.691,4.65v4.439h9.089a8.283,8.283,0,0,1,.845,1.9,10.609,10.609,0,0,1,.423,2.537,5.6,5.6,0,0,1-1.057,3.593,4.182,4.182,0,0,1-2.959,1.057h-6.341V76.693Z" transform="translate(14.081 -38.645)" fill="#21362c"/>
        <path id="Trazado_5264" data-name="Trazado 5264" d="M185.847,86.245a28.767,28.767,0,0,1-7.61-1.057,19.111,19.111,0,0,1-6.13-3.382A16.775,16.775,0,0,1,167.88,76.1a19.814,19.814,0,0,1-1.48-8.244,18.806,18.806,0,0,1,1.48-8.032,17.591,17.591,0,0,1,4.016-5.5,15.221,15.221,0,0,1,5.707-3.171,22.139,22.139,0,0,1,6.341-1.057,22.686,22.686,0,0,1,6.764,1.057,14.933,14.933,0,0,1,8.666,7.821,14.184,14.184,0,0,1,1.268,5.919,4.647,4.647,0,0,1-1.268,3.593,6.384,6.384,0,0,1-3.8,1.691l-17.333,2.537a5.039,5.039,0,0,0,3.171,3.382,11.629,11.629,0,0,0,5.5,1.057,23.04,23.04,0,0,0,5.5-.634,15.974,15.974,0,0,0,4.228-1.691,4.148,4.148,0,0,1,1.9,1.9,6,6,0,0,1,.845,2.748,5.068,5.068,0,0,1-2.959,4.65,17.9,17.9,0,0,1-5.073,1.691C189.229,86.034,187.538,86.245,185.847,86.245Zm-1.9-27.479a6.751,6.751,0,0,0-2.959.634,4.6,4.6,0,0,0-1.9,1.48,8.568,8.568,0,0,0-1.057,1.9A7.51,7.51,0,0,0,177.6,64.9l12.048-1.9a5.891,5.891,0,0,0-1.48-2.748A6.093,6.093,0,0,0,183.944,58.766Z" transform="translate(35.465 -35.304)" fill="#aac27f"/>
        <path id="Trazado_5265" data-name="Trazado 5265" d="M200.142,50.1a24.283,24.283,0,0,1,6.975.846,13.426,13.426,0,0,1,5.284,2.325,10.451,10.451,0,0,1,3.382,4.016,12.585,12.585,0,0,1,1.268,5.707V78.636A4.582,4.582,0,0,1,216,81.6a6.608,6.608,0,0,1-2.325,1.9c-2.959,1.9-7.4,2.748-12.894,2.748a33.446,33.446,0,0,1-6.764-.634,18.3,18.3,0,0,1-5.073-2.114,9.223,9.223,0,0,1-3.382-3.593,9.954,9.954,0,0,1-1.057-5.073,9.54,9.54,0,0,1,2.959-7.4q2.854-2.537,8.878-3.171l9.089-1.057v-.423a3.373,3.373,0,0,0-1.691-2.959,11.549,11.549,0,0,0-5.073-.846,22.573,22.573,0,0,0-5.284.634,29.935,29.935,0,0,0-4.65,1.48,4.6,4.6,0,0,1-1.48-1.9,5.851,5.851,0,0,1-.634-2.748,4.473,4.473,0,0,1,.845-2.959,10.244,10.244,0,0,1,2.748-1.9,24.062,24.062,0,0,1,4.862-1.057A20.583,20.583,0,0,1,200.142,50.1Zm.634,27.479a10.291,10.291,0,0,0,2.537-.211,8.567,8.567,0,0,0,2.114-.634V71.026l-5.073.423a7,7,0,0,0-3.171.846,2.325,2.325,0,0,0-1.268,2.114,3.394,3.394,0,0,0,1.057,2.325A6.356,6.356,0,0,0,200.776,77.579Z" transform="translate(55.624 -35.304)" fill="#aac27f"/>
        <path id="Trazado_5266" data-name="Trazado 5266" d="M215.248,76.693a2.883,2.883,0,0,0,1.057,2.537,7,7,0,0,0,3.171.846,7.191,7.191,0,0,0,2.114-.211,13.474,13.474,0,0,0,1.9-.423,4.6,4.6,0,0,1,1.057,1.691,7.6,7.6,0,0,1,.423,2.325,6.084,6.084,0,0,1-1.9,4.439c-1.268,1.057-3.593,1.691-6.975,1.691-4.016,0-7.187-.846-9.512-2.748-2.114-1.9-3.382-4.862-3.382-9.089V47.734a18.312,18.312,0,0,1,2.114-.423,13.955,13.955,0,0,1,2.959-.211,10.364,10.364,0,0,1,4.862,1.057c1.057.634,1.691,2.325,1.691,4.65v4.439h9.089a8.282,8.282,0,0,1,.845,1.9,10.609,10.609,0,0,1,.423,2.537,5.6,5.6,0,0,1-1.057,3.593,4.181,4.181,0,0,1-2.959,1.057h-6.341V76.693Z" transform="translate(76.452 -38.645)" fill="#aac27f"/>
        <path id="Trazado_5267" data-name="Trazado 5267" d="M216.4,49.441A6.822,6.822,0,0,1,218.091,45a6.215,6.215,0,0,1,4.65-1.9,6.141,6.141,0,0,1,6.341,6.341,6.822,6.822,0,0,1-1.691,4.439,6.215,6.215,0,0,1-4.65,1.9,5.9,5.9,0,0,1-4.65-1.9A6.822,6.822,0,0,1,216.4,49.441Zm12.471,43.332a18.844,18.844,0,0,0-2.325.423,14.974,14.974,0,0,1-2.959.211,11.167,11.167,0,0,1-2.748-.211,6.33,6.33,0,0,1-2.114-.846,3.287,3.287,0,0,1-1.268-1.691,9.381,9.381,0,0,1-.423-2.748V59.376a18.844,18.844,0,0,0,2.325-.423,14.975,14.975,0,0,1,2.959-.211,11.167,11.167,0,0,1,2.748.211,6.33,6.33,0,0,1,2.114.846,3.287,3.287,0,0,1,1.268,1.691,9.381,9.381,0,0,1,.423,2.748Z" transform="translate(91.154 -43.1)" fill="#aac27f"/>
        <path id="Trazado_5268" data-name="Trazado 5268" d="M247.46,63.517a3.709,3.709,0,0,0-1.268-3.171,5.378,5.378,0,0,0-3.382-1.057,12.371,12.371,0,0,0-2.748.423,7.814,7.814,0,0,0-2.325,1.057V85.077a18.311,18.311,0,0,1-2.114.423,16,16,0,0,1-3.171.211A11.168,11.168,0,0,1,229.7,85.5a6.33,6.33,0,0,1-2.114-.846,3.287,3.287,0,0,1-1.268-1.691,9.381,9.381,0,0,1-.423-2.748V59.289a5.1,5.1,0,0,1,.845-3.171A10.021,10.021,0,0,1,228.859,54a21.9,21.9,0,0,1,5.919-2.748A30.808,30.808,0,0,1,242.81,50.2c5.284,0,9.3,1.057,12.26,3.382a12.023,12.023,0,0,1,4.228,9.723V85.289a18.314,18.314,0,0,1-2.114.423,16,16,0,0,1-3.171.211,11.167,11.167,0,0,1-2.748-.211,6.33,6.33,0,0,1-2.114-.846,3.287,3.287,0,0,1-1.268-1.691,9.381,9.381,0,0,1-.423-2.748V63.517Z" transform="translate(101.734 -35.192)" fill="#aac27f"/>
        <path id="Trazado_5269" data-name="Trazado 5269" d="M262.678,50.1a24.5,24.5,0,0,1,7.187,1.057,18.877,18.877,0,0,1,5.5,2.537,9.964,9.964,0,0,1,2.114,2.114,5.094,5.094,0,0,1,.846,3.171V83.5a11.751,11.751,0,0,1-1.48,6.341,11,11,0,0,1-3.8,4.439,13.945,13.945,0,0,1-5.707,2.537,24.283,24.283,0,0,1-6.975.846,24.737,24.737,0,0,1-9.935-1.691,5.732,5.732,0,0,1-3.593-5.5,5.289,5.289,0,0,1,.634-2.748,4.6,4.6,0,0,1,1.48-1.9,15.348,15.348,0,0,0,4.65,1.9,21.252,21.252,0,0,0,5.284.846,11.721,11.721,0,0,0,5.919-1.268,4.3,4.3,0,0,0,2.325-4.016V82.229a17.141,17.141,0,0,1-6.975,1.268,18.236,18.236,0,0,1-5.919-.846,15.256,15.256,0,0,1-5.073-2.959,12.6,12.6,0,0,1-3.382-5.073,20.1,20.1,0,0,1-1.268-7.4,20.1,20.1,0,0,1,1.268-7.4,13.574,13.574,0,0,1,3.8-5.284,18.846,18.846,0,0,1,5.707-3.171A17.072,17.072,0,0,1,262.678,50.1Zm4.228,10.146a10.3,10.3,0,0,0-1.48-.634A7.926,7.926,0,0,0,263.1,59.4q-3.488,0-5.073,1.9a8.526,8.526,0,0,0-1.691,5.5c0,2.748.634,4.65,1.691,5.919a5.326,5.326,0,0,0,4.439,1.691,8.039,8.039,0,0,0,4.65-1.268V60.246Z" transform="translate(122.451 -35.304)" fill="#aac27f"/>
      </g>
      <g id="Grupo_1979" data-name="Grupo 1979" transform="translate(0 63.413)">
        <path id="Trazado_5270" data-name="Trazado 5270" d="M74.416,94.1a7.69,7.69,0,0,1-2.959-3.382A13.053,13.053,0,0,1,70.4,85.435a13.847,13.847,0,0,1,1.057-5.284,7.69,7.69,0,0,1,2.959-3.382,8.039,8.039,0,0,1,4.65-1.268,9.874,9.874,0,0,1,3.593.634,6.437,6.437,0,0,1,2.748,1.9L84.774,79.3a6.49,6.49,0,0,0-2.748-1.691,6.752,6.752,0,0,0-2.959-.634,6.266,6.266,0,0,0-5.073,2.114,8.872,8.872,0,0,0-1.9,6.13,9.247,9.247,0,0,0,1.9,6.13,6.266,6.266,0,0,0,5.073,2.114,6.751,6.751,0,0,0,2.959-.634,19.3,19.3,0,0,0,2.748-1.691l.634,1.268a8.044,8.044,0,0,1-2.748,1.9,9.874,9.874,0,0,1-3.593.634A5.706,5.706,0,0,1,74.416,94.1Z" transform="translate(-70.4 -70.427)" fill="#794039"/>
        <path id="Trazado_5271" data-name="Trazado 5271" d="M82.3,94.824V75.8h1.48V93.344h9.935v1.48Z" transform="translate(-57.146 -70.093)" fill="#794039"/>
        <path id="Trazado_5272" data-name="Trazado 5272" d="M92,97.831V78.807h1.691V97.831Zm1.48-20.715H92.211L94.959,73.1h1.9Z" transform="translate(-46.343 -73.1)" fill="#794039"/>
        <path id="Trazado_5273" data-name="Trazado 5273" d="M111.317,75.8h1.48V94.824h-1.268L99.48,78.548V94.824H98V75.8h1.268l12.048,16.276V75.8Z" transform="translate(-39.66 -70.093)" fill="#794039"/>
        <path id="Trazado_5274" data-name="Trazado 5274" d="M110.3,94.824V75.8h1.691V94.824Z" transform="translate(-25.961 -70.093)" fill="#794039"/>
        <path id="Trazado_5275" data-name="Trazado 5275" d="M120.016,94.1a7.69,7.69,0,0,1-2.959-3.382A13.053,13.053,0,0,1,116,85.435a13.847,13.847,0,0,1,1.057-5.284,7.69,7.69,0,0,1,2.959-3.382,8.039,8.039,0,0,1,4.65-1.268,9.874,9.874,0,0,1,3.593.634,6.437,6.437,0,0,1,2.748,1.9l-.634,1.268a6.49,6.49,0,0,0-2.748-1.691,6.752,6.752,0,0,0-2.959-.634,6.266,6.266,0,0,0-5.073,2.114,8.872,8.872,0,0,0-1.9,6.13,9.247,9.247,0,0,0,1.9,6.13,6.266,6.266,0,0,0,5.073,2.114,6.751,6.751,0,0,0,2.959-.634,19.3,19.3,0,0,0,2.748-1.691l.634,1.268a8.044,8.044,0,0,1-2.748,1.9,9.874,9.874,0,0,1-3.593.634A5.706,5.706,0,0,1,120.016,94.1Z" transform="translate(-19.612 -70.427)" fill="#794039"/>
        <path id="Trazado_5276" data-name="Trazado 5276" d="M143.376,94.824l-2.114-5.073H130.9l-2.114,5.073H127.1L135.344,75.8h1.48l8.244,19.024Zm-11.837-6.553h9.089L136.189,77.7Z" transform="translate(-7.249 -70.093)" fill="#794039"/>
        <path id="Trazado_5277" data-name="Trazado 5277" d="M159.517,75.8H161V94.824h-1.268L147.68,78.548V94.824H146.2V75.8h1.268l12.048,16.276Z" transform="translate(14.024 -70.093)" fill="#794039"/>
        <path id="Trazado_5278" data-name="Trazado 5278" d="M160.3,93.133q-1.9-1.9-1.9-5.707V75.8h1.691V87.637c0,4.016,1.9,5.919,5.707,5.919,1.9,0,3.382-.423,4.228-1.48a5.955,5.955,0,0,0,1.48-4.439V75.8H173.2V87.426q0,3.8-1.9,5.707a7.552,7.552,0,0,1-5.5,1.9C163.262,95.035,161.571,94.4,160.3,93.133Z" transform="translate(27.612 -70.093)" fill="#794039"/>
        <path id="Trazado_5279" data-name="Trazado 5279" d="M176.364,94.824V77.28H169.6V75.8h15.219v1.48h-6.764V94.824Z" transform="translate(40.086 -70.093)" fill="#794039"/>
        <path id="Trazado_5280" data-name="Trazado 5280" d="M195.585,94.824h-1.691l-2.325-6.341a2.192,2.192,0,0,0-1.268-1.691,6.525,6.525,0,0,0-2.325-.423h-5.284v8.455H181V75.8h7.4a7.594,7.594,0,0,1,4.65,1.268,4.644,4.644,0,0,1,1.691,3.8,5.192,5.192,0,0,1-1.057,3.171,4.133,4.133,0,0,1-2.748,1.691,3.156,3.156,0,0,1,1.48.634,5.851,5.851,0,0,1,1.057,1.691Zm-7.4-9.935c3.171,0,4.65-1.268,4.65-3.8s-1.48-3.8-4.65-3.8H182.48v7.61h5.707Z" transform="translate(52.783 -70.093)" fill="#794039"/>
        <path id="Trazado_5281" data-name="Trazado 5281" d="M192.6,94.824V75.8h1.691V94.824Z" transform="translate(65.703 -70.093)" fill="#794039"/>
        <path id="Trazado_5282" data-name="Trazado 5282" d="M202.316,94.1a7.69,7.69,0,0,1-2.959-3.382,13.053,13.053,0,0,1-1.057-5.284,13.847,13.847,0,0,1,1.057-5.284,7.691,7.691,0,0,1,2.959-3.382,8.039,8.039,0,0,1,4.65-1.268,9.874,9.874,0,0,1,3.593.634,6.437,6.437,0,0,1,2.748,1.9l-.634,1.268a6.489,6.489,0,0,0-2.748-1.691,6.751,6.751,0,0,0-2.959-.634,6.266,6.266,0,0,0-5.073,2.114,8.872,8.872,0,0,0-1.9,6.13,9.247,9.247,0,0,0,1.9,6.13,6.266,6.266,0,0,0,5.073,2.114,6.751,6.751,0,0,0,2.959-.634,19.3,19.3,0,0,0,2.748-1.691l.634,1.268a8.043,8.043,0,0,1-2.748,1.9,9.874,9.874,0,0,1-3.593.634A5.706,5.706,0,0,1,202.316,94.1Z" transform="translate(72.051 -70.427)" fill="#794039"/>
        <path id="Trazado_5283" data-name="Trazado 5283" d="M210.2,94.824V75.8h1.691V94.824Z" transform="translate(85.305 -70.093)" fill="#794039"/>
        <path id="Trazado_5284" data-name="Trazado 5284" d="M219.916,94.1a7.69,7.69,0,0,1-2.959-3.382,13.052,13.052,0,0,1-1.057-5.284,13.847,13.847,0,0,1,1.057-5.284,7.69,7.69,0,0,1,2.959-3.382,7.814,7.814,0,0,1,4.439-1.268,9.051,9.051,0,0,1,4.65,1.268,7.69,7.69,0,0,1,2.959,3.382,12.772,12.772,0,0,1,1.057,5.073,13.847,13.847,0,0,1-1.057,5.284,7.691,7.691,0,0,1-2.959,3.382,7.814,7.814,0,0,1-4.439,1.268A6.67,6.67,0,0,1,219.916,94.1Zm9.3-2.325c1.268-1.48,1.691-3.382,1.691-6.13a10.538,10.538,0,0,0-1.691-6.13,6,6,0,0,0-5.073-2.114,6.266,6.266,0,0,0-5.073,2.114C217.8,81,217.38,82.9,217.38,85.646a10.538,10.538,0,0,0,1.691,6.13,6,6,0,0,0,5.073,2.114A6.334,6.334,0,0,0,229.217,91.776Z" transform="translate(91.654 -70.427)" fill="#794039"/>
        <path id="Trazado_5285" data-name="Trazado 5285" d="M242.117,75.8h1.48V94.824h-1.268L230.28,78.548V94.824H228.8V75.8h1.268l12.048,16.276Z" transform="translate(106.021 -70.093)" fill="#794039"/>
        <path id="Trazado_5286" data-name="Trazado 5286" d="M256.576,94.824l-2.114-5.073H244.1l-2.114,5.073H240.3L248.544,75.8h1.48l8.244,19.024Zm-11.837-6.553h9.089L249.389,77.7Z" transform="translate(118.83 -70.093)" fill="#794039"/>
        <path id="Trazado_5287" data-name="Trazado 5287" d="M253.2,94.824V75.8h1.691V93.344h9.935v1.48Z" transform="translate(133.197 -70.093)" fill="#794039"/>
      </g>
    </g>
    <g id="Grupo_1993" data-name="Grupo 1993">
      <g id="Grupo_1981" data-name="Grupo 1981" transform="translate(5.919 35.22)">
        <path id="Trazado_5288" data-name="Trazado 5288" d="M60.02,41.3C41,41.3,26.2,95.624,26.2,103.656a33.82,33.82,0,1,0,67.641,0C93.841,95.624,79.678,41.3,60.02,41.3Z" transform="translate(-26.2 -41.3)" fill="#f3efa1"/>
      </g>
      <g id="Grupo_1982" data-name="Grupo 1982" transform="translate(0 29.09)">
        <path id="Trazado_5289" data-name="Trazado 5289" d="M63.139,44.53c19.658,0,33.82,54.535,33.82,62.356a33.82,33.82,0,1,1-67.641,0c.211-8.032,14.8-62.356,33.82-62.356m0-6.13C37.562,38.4,23.4,100.333,23.4,106.886a39.739,39.739,0,1,0,79.478,0c0-7.4-13.74-68.486-39.739-68.486Z" transform="translate(-23.4 -38.4)" fill="#21362c"/>
      </g>
      <g id="Grupo_1983" data-name="Grupo 1983" transform="translate(5.919 35.22)">
        <path id="Trazado_5290" data-name="Trazado 5290" d="M60.02,45.1c6.553,0,14.374,9.512,20.926,25.788,5.919,14.585,9.089,29.381,9.089,32.341a30.016,30.016,0,0,1-60.031,0c0-3.382,3.593-18.39,9.3-32.341C46.069,54.617,53.679,45.1,60.02,45.1m0-3.8C41,41.3,26.2,95.624,26.2,103.656a33.82,33.82,0,1,0,67.641,0c0-8.032-14.162-62.356-33.82-62.356Z" transform="translate(-26.2 -41.3)" fill="#aac27f"/>
      </g>
      <g id="Grupo_1991" data-name="Grupo 1991" transform="translate(22.829 68.194)">
        <g id="Grupo_1985" data-name="Grupo 1985" transform="translate(11.626 46.08)">
          <g id="Grupo_1984" data-name="Grupo 1984">
            <path id="Trazado_5291" data-name="Trazado 5291" d="M48.789,81.659H41.18a1.445,1.445,0,0,1-1.48-1.48h0a1.445,1.445,0,0,1,1.48-1.48h7.61a1.445,1.445,0,0,1,1.48,1.48h0A1.445,1.445,0,0,1,48.789,81.659Z" transform="translate(-39.7 -78.7)" fill="#794039"/>
          </g>
        </g>
        <g id="Grupo_1987" data-name="Grupo 1987" transform="translate(7.821 41.007)">
          <g id="Grupo_1986" data-name="Grupo 1986">
            <path id="Trazado_5292" data-name="Trazado 5292" d="M54.6,79.259H39.38a1.445,1.445,0,0,1-1.48-1.48h0a1.445,1.445,0,0,1,1.48-1.48H54.6a1.445,1.445,0,0,1,1.48,1.48h0A1.445,1.445,0,0,1,54.6,79.259Z" transform="translate(-37.9 -76.3)" fill="#794039"/>
          </g>
        </g>
        <g id="Grupo_1989" data-name="Grupo 1989" transform="translate(7.398 36.357)">
          <g id="Grupo_1988" data-name="Grupo 1988">
            <path id="Trazado_5293" data-name="Trazado 5293" d="M55.456,77.059H39.18a1.445,1.445,0,0,1-1.48-1.48h0a1.445,1.445,0,0,1,1.48-1.48H55.456a1.445,1.445,0,0,1,1.48,1.48h0A1.445,1.445,0,0,1,55.456,77.059Z" transform="translate(-37.7 -74.1)" fill="#794039"/>
          </g>
        </g>
        <g id="Grupo_1990" data-name="Grupo 1990">
          <path id="Trazado_5294" data-name="Trazado 5294" d="M68.02,73.81a16.91,16.91,0,0,0-33.82,0,16.646,16.646,0,0,0,7.4,13.951v2.325a1.445,1.445,0,0,0,1.48,1.48H59.354a1.445,1.445,0,0,0,1.48-1.48V87.761A16.468,16.468,0,0,0,68.02,73.81Z" transform="translate(-34.2 -56.9)" fill="#794039"/>
        </g>
      </g>
      <g id="Grupo_1992" data-name="Grupo 1992">
        <path id="Trazado_5295" data-name="Trazado 5295" d="M56.163,50.557s-6.553,1.9-11.626,0S32.278,29.631,23.4,28.574c0,0,13.951-6.553,24.942-2.748C56.375,28.362,63.35,38.72,61.025,49.5c0,0-4.862-14.374-19.447-15.431C41.578,33.858,49.611,38.72,56.163,50.557Z" transform="translate(-23.4 -24.638)" fill="#aac27f"/>
      </g>
    </g>
  </g>
</svg>
