<svg xmlns="http://www.w3.org/2000/svg" width="313.019" height="205.6" viewBox="0 0 313.019 205.6">
  <g id="Grupo_1957" data-name="Grupo 1957" transform="translate(-0.439 -0.1)">
    <g id="Grupo_1952" data-name="Grupo 1952" transform="translate(67.616 0.1)">
      <path id="Trazado_5226" data-name="Trazado 5226" d="M133.283,76.143h0c.465-.542,1.007-1.085,1.472-1.7s1.085-1.472,1.7-2.4a27.957,27.957,0,0,0,4.106-12.782,27.351,27.351,0,0,1-8.754,2.711,18.223,18.223,0,0,1-9.606,12.317,18.435,18.435,0,0,1-19.367-31.22A69.9,69.9,0,0,1,101.754,34h0a26.677,26.677,0,1,0,24.17,47.565h0a45.243,45.243,0,0,0,7.359-5.423h0" transform="translate(-87.155 -7.738)" fill="#1c85c3"/>
      <path id="Trazado_5227" data-name="Trazado 5227" d="M156.925,30.665h0a19.638,19.638,0,0,0-2.247-.31,29.38,29.38,0,0,0-2.944-.155,26.544,26.544,0,0,0-13.015,3.409,25.737,25.737,0,0,1,6.895,5.965,18.416,18.416,0,1,1-.465,34.551,64.922,64.922,0,0,1-7.05,5.733h0a26.691,26.691,0,1,0,27.191-45.939h0a44.786,44.786,0,0,0-8.367-3.254h0" transform="translate(-98.634 -6.882)" fill="#213d87"/>
      <path id="Trazado_5228" data-name="Trazado 5228" d="M105.5,35.735h0c.232.7.542,1.394.852,2.092a17.469,17.469,0,0,0,1.394,2.556,27.812,27.812,0,0,0,9.529,9.451,26.383,26.383,0,0,1,1.549-8.986,18.395,18.395,0,1,1,29.9-17.2,70.035,70.035,0,0,1,8.521,3.176h0a26.726,26.726,0,1,0-53.453,0V26.9a75.875,75.875,0,0,0,1.7,8.831h0" transform="translate(-90.906 -0.1)" fill="#e79115"/>
    </g>
    <path id="Trazado_5229" data-name="Trazado 5229" d="M210.27,148.284c-8.676,0-13.015-6.507-13.015-19.6,0-12.937,4.338-19.444,13.015-19.444s13.015,6.507,13.015,19.444c0,13.092-4.338,19.6-13.015,19.6M235.292,91.5a5.5,5.5,0,0,0-4.726,2.092c-2.247,3.254-4.648,7.05-7.127,11.388a34.746,34.746,0,0,0-13.17-2.324c-8.444,0-15.261,2.247-20.452,6.662-5.113,4.493-7.747,10.923-7.747,19.367v1.007a26.183,26.183,0,0,0,6.662,18.128c3.1,3.564,8.134,7.05,15.106,10.613,5.888,3.021,9.529,5.113,11.078,6.352A16.343,16.343,0,0,1,221.27,177.8c0,5.655-2.014,10.071-6.042,13.325a20.548,20.548,0,0,1-12.86,4.261,29.273,29.273,0,0,1-5.5-.542,27.131,27.131,0,0,0-4.028-.542c-2.789,0-4.261,1.239-4.261,3.641a4.364,4.364,0,0,0,3.331,4.571,32.653,32.653,0,0,0,9.374,1.085c9.606,0,17.74-2.247,24.325-6.817,7.127-4.958,10.768-11.31,10.768-19.212a17.527,17.527,0,0,0-6.042-13.789q-3.951-3.486-16.036-9.064c-.077-.077-.232-.077-.31-.155,6.74-.62,12.317-2.711,16.656-6.507,5.113-4.493,7.747-10.923,7.747-19.367,0-8.367-2.556-14.8-7.592-19.212,2.169-1.782,5.19-4.338,8.986-7.592a5.271,5.271,0,0,0,1.627-4.261A6.273,6.273,0,0,0,239.63,93.2a5.9,5.9,0,0,0-4.338-1.7m61.432,13.325a7.2,7.2,0,0,0-5.268-2.169,7.5,7.5,0,0,0-5.345,2.169,6.9,6.9,0,0,0-2.324,5.19v27.579c0,6.972-.465,11.7-1.317,14.332-1.627,4.8-5.035,7.2-10.3,7.2s-8.754-2.4-10.458-7.2c-.93-2.634-1.317-7.359-1.317-14.332V110.015a7.1,7.1,0,0,0-2.247-5.19,7.3,7.3,0,0,0-5.423-2.169,7.2,7.2,0,0,0-5.268,2.169,7.1,7.1,0,0,0-2.247,5.19V141.7a24.416,24.416,0,0,0,6.972,17.818q7.437,7.669,19.987,7.669c8.289,0,14.874-2.556,19.832-7.669a24.416,24.416,0,0,0,6.972-17.818V110.015a7.229,7.229,0,0,0-2.247-5.19m-147.112-2.169q-12.55,0-19.987,7.669a24.416,24.416,0,0,0-6.972,17.818v31.684a7.1,7.1,0,0,0,2.247,5.19,7.2,7.2,0,0,0,5.268,2.169,7.3,7.3,0,0,0,5.423-2.169,7.1,7.1,0,0,0,2.247-5.19V132.636c-.155-7.05,0-12.008,1.317-14.332,2.556-4.416,5.19-7.2,10.458-7.2s8.676,2.4,10.3,7.2c.93,2.634,1.317,7.359,1.317,14.332v27.191a6.9,6.9,0,0,0,2.324,5.19,7.5,7.5,0,0,0,5.345,2.169,7.2,7.2,0,0,0,5.268-2.169,7.1,7.1,0,0,0,2.247-5.19V128.142a24.416,24.416,0,0,0-6.972-17.818c-4.958-5.113-11.543-7.669-19.832-7.669m-42.452,0a7.2,7.2,0,0,0-5.268,2.169,7.316,7.316,0,0,0-2.247,5.345v49.657a7.1,7.1,0,0,0,2.247,5.19,7.2,7.2,0,0,0,5.268,2.169,7.5,7.5,0,0,0,5.345-2.169,6.9,6.9,0,0,0,2.324-5.19V110.17a7.1,7.1,0,0,0-2.324-5.345,7.559,7.559,0,0,0-5.345-2.169m-17.275,0c-3.1,0-4.8,1.394-4.958,4.106a139.117,139.117,0,0,1-3.951,22.156,132.876,132.876,0,0,1-4.958,15.571c-2.092,4.958-3.873,7.359-5.113,7.359q-3.486,0-8.6-17.663a148.678,148.678,0,0,1-5.423-24.015c-.62-5.035-3.176-7.514-7.747-7.514a7.246,7.246,0,0,0-5.345,2.169,6.613,6.613,0,0,0-1.859,5.655q.7,7.321-2.092,18.36a99.189,99.189,0,0,1-5.268,15.8c-2.092,4.8-3.873,7.2-5.268,7.2-2.324,0-5.113-5.888-8.444-17.74a159.489,159.489,0,0,1-5.423-23.938c-.62-5.035-3.254-7.514-7.9-7.514a6.778,6.778,0,0,0-5.19,2.324,6.619,6.619,0,0,0-1.859,5.5A128.107,128.107,0,0,0,9.7,146.115q8.6,21.149,17.43,21.149c5.113,0,10.458-6.895,15.881-20.761,1.627-4.028,2.789-7.127,3.486-9.374.62-1.782,1.162-1.859,1.627-.155.7,2.247,1.782,5.268,3.331,9.064q8.6,21.149,17.43,21.149c5.035,0,10.3-6.895,15.881-20.684a142.29,142.29,0,0,0,9.993-39.276c-.077-3.021-1.549-4.571-4.88-4.571" transform="translate(0 -20.594)" fill="#e79115"/>
    <path id="Trazado_5230" data-name="Trazado 5230" d="M16.089,257.014a2.607,2.607,0,0,0,2.324-1.085,5.116,5.116,0,0,0,.7-2.169h0a6.732,6.732,0,0,1-2.711.542c-1.007.155-1.859.465-1.859,1.549a1.4,1.4,0,0,0,1.549,1.162m-1.859-4.8c.31-1.859,1.859-2.711,3.641-2.711,1.627,0,3.1.465,3.1,2.169a10.694,10.694,0,0,1-.232,1.549l-.542,2.247a5.144,5.144,0,0,0-.232,1.162c0,.387.155.542.387.542.155,0,.31-.077.465-.077l-.232,1.007a3.493,3.493,0,0,1-.852.232.972.972,0,0,1-1.085-1.162h0a3.2,3.2,0,0,1-2.789,1.239,2.24,2.24,0,0,1-2.556-2.4c0-2.4,2.4-2.556,4.261-2.711,1.472-.155,2.092-.232,2.092-1.317,0-.93-.93-1.085-1.7-1.085-1.085,0-2.092.387-2.247,1.472H14.23Z" transform="translate(-2.898 -56.195)" fill="#213d87"/>
    <path id="Trazado_5231" data-name="Trazado 5231" d="M29.879,245.6h2.944l-.93,4.571h.077l4.648-4.571h4.028l-5.578,4.8,3.486,6.74H35.069l-2.324-4.8L31.2,253.657l-.775,3.486H27.4Z" transform="translate(-6.075 -55.316)" fill="#213d87"/>
    <path id="Trazado_5232" data-name="Trazado 5232" d="M44,245.6h3.021l-2.4,11.543H41.6Z" transform="translate(-9.274 -55.316)" fill="#213d87"/>
    <g id="Grupo_1953" data-name="Grupo 1953" transform="translate(37.129 190.052)">
      <path id="Trazado_5233" data-name="Trazado 5233" d="M53.145,254.829c2.169,0,3.254-2.556,3.254-4.416,0-1.7-.62-2.634-2.247-2.634-2.324,0-3.331,2.556-3.331,4.493,0,1.472.7,2.556,2.324,2.556m1.162-9.529c2.014,0,5.113.775,5.113,4.88,0,4.028-2.4,7.127-6.507,7.127-3.254,0-5.113-1.859-5.113-5.113,0-3.8,2.479-6.895,6.507-6.895" transform="translate(-47.8 -245.3)" fill="#213d87"/>
    </g>
    <path id="Trazado_5234" data-name="Trazado 5234" d="M64.7,245.6h1.627l4.183,9.606h0l1.937-9.606H73.92l-2.4,11.543h-1.7l-4.028-9.451h-.077l-1.937,9.451H62.3Z" transform="translate(-13.939 -55.316)" fill="#213d87"/>
    <g id="Grupo_1954" data-name="Grupo 1954" transform="translate(59.052 190.826)">
      <path id="Trazado_5235" data-name="Trazado 5235" d="M82.607,253.041c.077-1.162-.465-2.4-1.937-2.4a2.919,2.919,0,0,0-2.866,2.4Zm-5.035,1.239c0,.232-.077.465-.077.7a2.033,2.033,0,0,0,2.169,2.014,2.355,2.355,0,0,0,2.4-1.627h1.394a3.618,3.618,0,0,1-3.8,2.789,3.212,3.212,0,0,1-3.564-3.331c0-3.176,2.014-5.423,4.338-5.423,2.479,0,3.564,1.317,3.564,3.718a3.591,3.591,0,0,1-.155,1.085H77.572Z" transform="translate(-76.1 -246.999)" fill="#213d87"/>
      <path id="Trazado_5236" data-name="Trazado 5236" d="M89.644,248.934h1.7l-.232,1.24h-1.7l-1.007,4.88c0,.232-.077.387-.077.542,0,.465.387.542.852.542a2.752,2.752,0,0,0,.775-.155l-.232,1.24a3.771,3.771,0,0,1-.93.077c-1.007,0-1.859-.31-1.859-1.394a2.145,2.145,0,0,1,.077-.7l1.085-5.19H86.7l.232-1.24h1.394l.542-2.479h1.394Z" transform="translate(-78.488 -246.3)" fill="#213d87"/>
    </g>
    <path id="Trazado_5237" data-name="Trazado 5237" d="M99.459,258.067H97.988l-.387-6.507h-.077L94.5,258.067H93.107L92.1,249.7h1.472l.465,6.662h.077l3.021-6.662h1.549l.387,6.662h0l3.176-6.662H103.8Z" transform="translate(-20.653 -56.24)" fill="#213d87"/>
    <g id="Grupo_1955" data-name="Grupo 1955" transform="translate(82.292 193.228)">
      <path id="Trazado_5238" data-name="Trazado 5238" d="M109.818,257.014c2.014,0,3.1-2.324,3.1-3.951a2.138,2.138,0,0,0-2.169-2.4c-2.092,0-3.176,2.324-3.176,4.028a2.1,2.1,0,0,0,2.247,2.324m1.007-7.514a3.146,3.146,0,0,1,3.486,3.486c0,2.711-1.7,5.268-4.648,5.268a3.355,3.355,0,0,1-3.564-3.486c.077-2.789,1.859-5.268,4.726-5.268" transform="translate(-106.1 -249.423)" fill="#213d87"/>
      <path id="Trazado_5239" data-name="Trazado 5239" d="M118.182,249.632H119.5l-.387,1.782h0a3.409,3.409,0,0,1,3.021-2.014h.465l-.31,1.472H121.9a3.474,3.474,0,0,0-.852.077,3.167,3.167,0,0,0-1.782,1.394,5.813,5.813,0,0,0-.7,1.937L117.794,258H116.4Z" transform="translate(-108.421 -249.4)" fill="#213d87"/>
    </g>
    <path id="Trazado_5240" data-name="Trazado 5240" d="M124.6,245.6H126l-1.472,6.817h.077l4.183-3.641h1.782l-3.641,3.1,2.092,5.268h-1.549l-1.627-4.416-1.627,1.472-.62,2.944H122.2Z" transform="translate(-27.435 -55.316)" fill="#213d87"/>
    <g id="Grupo_1956" data-name="Grupo 1956" transform="translate(10.247 81.984)">
      <path id="Trazado_5241" data-name="Trazado 5241" d="M136.788,252.134c.077-.93-.775-1.472-1.7-1.472-.852,0-1.782.232-1.782,1.085,0,.775,1.085,1.085,2.169,1.549s2.247,1.007,2.247,2.324c0,1.859-1.782,2.556-3.409,2.556-1.937,0-3.409-.7-3.409-2.866h1.394c-.077,1.239,1.007,1.627,2.169,1.627.852,0,1.937-.31,1.937-1.24,0-.775-1.085-1.162-2.169-1.549-1.085-.465-2.247-1.007-2.247-2.247,0-1.549,1.549-2.4,3.1-2.4s3.176.7,3.176,2.634h-1.472Z" transform="translate(-39.643 -138.178)" fill="#213d87"/>
      <path id="Trazado_5242" data-name="Trazado 5242" d="M155.471,253.8c-.62,2.556-2.247,4.183-5.113,4.183-3.176,0-4.958-1.859-4.958-5.035,0-3.718,2.4-7.05,6.352-7.05,2.479,0,4.416,1.317,4.416,4.028h-1.549a2.567,2.567,0,0,0-2.866-2.711c-3.254,0-4.8,2.944-4.8,5.733,0,2.247,1.085,3.8,3.409,3.8a3.506,3.506,0,0,0,3.564-2.866h1.549Z" transform="translate(-42.91 -137.367)" fill="#213d87"/>
      <path id="Trazado_5243" data-name="Trazado 5243" d="M162.418,257.614c2.014,0,3.1-2.324,3.1-3.951a2.138,2.138,0,0,0-2.169-2.4c-2.092,0-3.176,2.324-3.176,4.028a2.064,2.064,0,0,0,2.247,2.324m1.007-7.514a3.146,3.146,0,0,1,3.486,3.486c0,2.711-1.7,5.268-4.648,5.268a3.355,3.355,0,0,1-3.564-3.486c.077-2.711,1.782-5.268,4.726-5.268" transform="translate(-45.907 -138.314)" fill="#213d87"/>
      <path id="Trazado_5244" data-name="Trazado 5244" d="M170.837,250.332h1.239l-.31,1.239h0a3.9,3.9,0,0,1,2.944-1.472,1.841,1.841,0,0,1,2.092,1.472,3.525,3.525,0,0,1,2.866-1.472c1.162,0,2.324.542,2.324,1.859a14.868,14.868,0,0,1-.232,1.7l-1.085,5.035h-1.394l1.162-5.268a3.888,3.888,0,0,0,.155-.93,1.209,1.209,0,0,0-1.24-1.162,2.886,2.886,0,0,0-2.092,1.162,3.668,3.668,0,0,0-.775,1.859l-.93,4.338h-1.394l1.007-4.8a8.662,8.662,0,0,0,.232-1.472c0-.7-.387-1.085-1.162-1.085a3.586,3.586,0,0,0-3.021,2.944l-.93,4.416H168.9Z" transform="translate(-48.205 -138.314)" fill="#213d87"/>
      <path id="Trazado_5245" data-name="Trazado 5245" d="M190.643,251.339c-2.092,0-3.254,2.4-3.254,4.183a2.013,2.013,0,0,0,2.092,2.169c2.169,0,3.331-2.247,3.331-4.106,0-1.394-.62-2.247-2.169-2.247m-3.564-1.007H188.4l-.31,1.162h0a3.125,3.125,0,0,1,2.789-1.394c2.169,0,3.254,1.394,3.254,3.409,0,2.556-1.7,5.345-4.648,5.345a2.664,2.664,0,0,1-2.634-1.472h0l-.852,4.493H184.6Z" transform="translate(-51.742 -138.314)" fill="#213d87"/>
      <path id="Trazado_5246" data-name="Trazado 5246" d="M199.566,257.614a2.607,2.607,0,0,0,2.324-1.085,5.116,5.116,0,0,0,.7-2.169h0a6.732,6.732,0,0,1-2.711.542c-1.007.155-1.859.465-1.859,1.549,0,.775.775,1.162,1.549,1.162m-1.859-4.8c.31-1.859,1.859-2.711,3.641-2.711,1.627,0,3.021.465,3.021,2.169a10.694,10.694,0,0,1-.232,1.549l-.542,2.247a5.143,5.143,0,0,0-.232,1.162c0,.387.155.542.387.542.155,0,.31-.077.465-.077l-.232,1.007a3.493,3.493,0,0,1-.852.232.972.972,0,0,1-1.085-1.162h0a3.2,3.2,0,0,1-2.789,1.239,2.24,2.24,0,0,1-2.556-2.4c0-2.4,2.4-2.556,4.261-2.711,1.472-.155,2.092-.232,2.092-1.317,0-.93-.93-1.085-1.7-1.085-1.085,0-2.092.387-2.247,1.472h-1.394Z" transform="translate(-54.469 -138.314)" fill="#213d87"/>
      <path id="Trazado_5247" data-name="Trazado 5247" d="M208.059,250.332h1.317l-.232,1.239h0a3.781,3.781,0,0,1,2.944-1.472c1.549,0,2.324.7,2.324,2.169a7.394,7.394,0,0,1-.232,1.627l-1.007,4.8h-1.394l1.085-4.88a7.826,7.826,0,0,0,.232-1.317c0-.775-.62-1.162-1.472-1.162a2.848,2.848,0,0,0-2.092,1.007,3.291,3.291,0,0,0-.93,1.782l-1.007,4.648H206.2Z" transform="translate(-56.609 -138.314)" fill="#213d87"/>
      <path id="Trazado_5248" data-name="Trazado 5248" d="M219.141,260.138c-.7,1.085-1.317,1.937-2.711,1.937a1.84,1.84,0,0,1-.93-.232l.232-1.085a1.4,1.4,0,0,0,2.092-.7l.852-1.394L217.2,250.3h1.472l1.007,6.662h0l3.486-6.662h1.472Z" transform="translate(-58.705 -138.359)" fill="#213d87"/>
      <path id="Trazado_5249" data-name="Trazado 5249" d="M32.854,228.071a2.739,2.739,0,0,1-4.648,1.937,2.64,2.64,0,0,1-.852-1.937v-9.993a19.679,19.679,0,0,0-.465-5.268,3.628,3.628,0,0,0-3.8-2.634,3.718,3.718,0,0,0-3.873,2.634,19.679,19.679,0,0,0-.465,5.268v9.993a2.64,2.64,0,0,1-.852,1.937,2.743,2.743,0,0,1-2.014.775,2.569,2.569,0,0,1-1.937-.775,2.64,2.64,0,0,1-.852-1.937v-11.62a9.119,9.119,0,0,1,2.556-6.585A9.8,9.8,0,0,1,23.016,207a9.457,9.457,0,0,1,7.282,2.866,9.119,9.119,0,0,1,2.556,6.585Z" transform="translate(-13.1 -128.602)" fill="#213d87"/>
      <path id="Trazado_5250" data-name="Trazado 5250" d="M59.07,213.74a6.348,6.348,0,0,1-3.254,5.733,14.893,14.893,0,0,1-7.127,1.7,1.609,1.609,0,0,1-.93-.387,1.043,1.043,0,0,1-.387-.93,1.1,1.1,0,0,1,.7-1.085,10.345,10.345,0,0,1,1.394-.31q4.88-.813,4.88-5.113c0-2.247-1.007-3.409-2.944-3.409a4.3,4.3,0,0,0-3.486,1.937q-1.859,2.44-1.859,6.972c0,2.944.7,5.268,2.092,6.817a4.815,4.815,0,0,0,3.641,1.859,12.434,12.434,0,0,0,4.648-.93l.7-.155a1.392,1.392,0,0,1,1.394.852,1.309,1.309,0,0,1,.232.775,1.536,1.536,0,0,1-1.162,1.472,15.981,15.981,0,0,1-6.817,1.239,9.412,9.412,0,0,1-7.437-3.021c-1.937-2.092-2.944-5.035-2.944-8.909a11.671,11.671,0,0,1,3.641-8.986A10.842,10.842,0,0,1,51.71,207a7.357,7.357,0,0,1,5.655,2.169,6.574,6.574,0,0,1,1.7,4.571" transform="translate(-19.251 -128.602)" fill="#213d87"/>
      <path id="Trazado_5251" data-name="Trazado 5251" d="M79.849,227.473a1.164,1.164,0,0,1-1.317,1.24,8.469,8.469,0,0,1-1.549.077,10.3,10.3,0,0,1-3.873-.852,9.431,9.431,0,0,1-3.486-2.634c-1.085-1.472-1.549-3.641-1.549-6.43v-9.761c0-.155-.077-.31-.232-.31H65.827a1.438,1.438,0,0,1-1.627-1.627,1.494,1.494,0,0,1,1.627-1.7h2.092a.205.205,0,0,0,.232-.232v-3.951a2.569,2.569,0,0,1,.775-1.937,2.64,2.64,0,0,1,1.937-.852,2.6,2.6,0,0,1,1.859.852,2.569,2.569,0,0,1,.775,1.937v3.951a.205.205,0,0,0,.232.232h2.944c1.085,0,1.627.542,1.627,1.7a1.438,1.438,0,0,1-1.627,1.627H73.729a.284.284,0,0,0-.31.31v7.824c0,3.176.232,5.19.62,6.043a5.833,5.833,0,0,0,4.493,3.176c.93.232,1.317.62,1.317,1.317" transform="translate(-24.614 -126.687)" fill="#213d87"/>
      <path id="Trazado_5252" data-name="Trazado 5252" d="M118,208.8a51.845,51.845,0,0,1-3.641,14.409c-2.014,5.035-3.951,7.592-5.81,7.592-2.169,0-4.261-2.634-6.43-7.824-.542-1.394-.93-2.556-1.239-3.331-.155-.62-.387-.62-.62.077-.232.852-.7,1.937-1.317,3.486-2.014,5.113-3.951,7.592-5.81,7.592-2.169,0-4.261-2.556-6.43-7.747A48.824,48.824,0,0,1,83.3,209.966a2.413,2.413,0,0,1,.7-2.014,2.64,2.64,0,0,1,1.937-.852c1.7,0,2.634.93,2.866,2.789a53.85,53.85,0,0,0,2.014,8.754c1.239,4.338,2.247,6.507,3.1,6.507.542,0,1.162-.852,1.937-2.634a29.982,29.982,0,0,0,1.937-5.81,20.6,20.6,0,0,0,.775-6.74,2.488,2.488,0,0,1,.7-2.092,2.569,2.569,0,0,1,1.937-.775c1.7,0,2.634.93,2.866,2.789a53.432,53.432,0,0,0,2.014,8.831c1.239,4.338,2.324,6.507,3.176,6.507.465,0,1.085-.93,1.859-2.711a38.4,38.4,0,0,0,1.859-5.733,61.43,61.43,0,0,0,1.472-8.134c.077-1.007.7-1.472,1.859-1.472,1.239-.077,1.859.465,1.7,1.627" transform="translate(-28.913 -128.625)" fill="#213d87"/>
      <path id="Trazado_5253" data-name="Trazado 5253" d="M142.584,218.953c0-5.888-1.627-8.831-4.8-8.831s-4.8,2.944-4.8,8.831c0,5.965,1.627,8.909,4.8,8.909s4.8-2.944,4.8-8.909m5.578,0c0,3.873-.93,6.817-2.866,8.831a9.8,9.8,0,0,1-7.514,3.021,9.921,9.921,0,0,1-7.514-3.021c-1.859-2.014-2.866-4.958-2.866-8.831s.93-6.817,2.866-8.831a10.855,10.855,0,0,1,15.029,0c1.937,2.014,2.866,4.958,2.866,8.831" transform="translate(-38.854 -128.625)" fill="#213d87"/>
      <path id="Trazado_5254" data-name="Trazado 5254" d="M170.984,210.709a1.389,1.389,0,0,1-1.782.542c-.465-.232-1.007-.387-1.472-.62a5.072,5.072,0,0,0-2.247-.387,3.252,3.252,0,0,0-3.254,1.782,14.729,14.729,0,0,0-.852,5.81v10.458a2.774,2.774,0,0,1-.852,1.937,2.743,2.743,0,0,1-2.014.775,2.648,2.648,0,0,1-2.711-2.711V216.829c0-6.352,2.944-9.529,8.986-9.529q4.416,0,6.043,1.627c.542.31.62,1.007.155,1.782" transform="translate(-45.253 -128.67)" fill="#213d87"/>
      <path id="Trazado_5255" data-name="Trazado 5255" d="M198.471,224.218a2.689,2.689,0,0,1-.775,1.937,2.518,2.518,0,0,1-1.859.775c-1.782,0-4.416-1.549-7.747-4.648-3.486-3.254-5.268-6.043-5.268-8.367q0-2.905,6.043-6.972,5.578-3.718,7.9-3.718a1.438,1.438,0,0,1,1.627,1.627,1.586,1.586,0,0,1-1.162,1.627,32.419,32.419,0,0,0-6.2,3.021c-2.247,1.472-3.409,2.556-3.409,3.409,0,1.007,1.007,2.479,3.1,4.416a23.746,23.746,0,0,0,6.12,4.261,2.87,2.87,0,0,1,1.627,2.634m-15.416,0a2.64,2.64,0,0,1-.852,1.937,2.743,2.743,0,0,1-2.014.775,2.569,2.569,0,0,1-1.937-.775,2.64,2.64,0,0,1-.852-1.937V192.611a2.518,2.518,0,0,1,.852-1.937,2.569,2.569,0,0,1,1.937-.775,2.743,2.743,0,0,1,2.014.775,2.64,2.64,0,0,1,.852,1.937Z" transform="translate(-50.12 -124.749)" fill="#213d87"/>
      <path id="Trazado_5256" data-name="Trazado 5256" d="M222.811,224.143a5.657,5.657,0,0,1-2.634,4.88,10.787,10.787,0,0,1-6.352,1.859c-3.021,0-5.345-.387-6.972-1.317a1.543,1.543,0,0,1-.852-1.394,1.766,1.766,0,0,1,.232-.852,1.573,1.573,0,0,1,2.169-.542,12.749,12.749,0,0,0,5.19,1.085,6.173,6.173,0,0,0,2.789-.62,2.792,2.792,0,0,0,1.394-2.479q0-1.162-2.092-2.324c-1.394-.7-2.866-1.472-4.261-2.169a11.119,11.119,0,0,1-3.1-2.092,6.443,6.443,0,0,1-2.014-4.726,5.482,5.482,0,0,1,2.324-4.571,10.061,10.061,0,0,1,6.12-1.782,16.484,16.484,0,0,1,6.043,1.007c.93.387,1.394.93,1.394,1.7a1.291,1.291,0,0,1-.31.852,1.477,1.477,0,0,1-1.937.542,12.973,12.973,0,0,0-4.571-1.085c-2.711,0-4.106.93-4.106,2.866,0,.93.7,1.859,2.169,2.634,1.394.62,2.711,1.162,4.028,1.859a12.379,12.379,0,0,1,3.951,2.556,5.861,5.861,0,0,1,1.394,4.106" transform="translate(-56.564 -128.625)" fill="#213d87"/>
      <path id="Trazado_5257" data-name="Trazado 5257" d="M394.961,110.758h1.007c.852,0,1.627-.077,1.627-1.007,0-.852-.7-.93-1.394-.93h-1.24Zm-.93-2.711h2.4c1.472,0,2.169.62,2.169,1.782,0,1.085-.7,1.549-1.627,1.7l1.782,2.711H397.75l-1.7-2.634h-1.007v2.634h-1.007Zm2.014,7.592a4.533,4.533,0,1,0-4.416-4.571,4.5,4.5,0,0,0,4.416,4.571m0-9.838a5.307,5.307,0,1,1-5.345,5.268,5.391,5.391,0,0,1,5.345-5.268" transform="translate(-98.181 -105.8)" fill="#e79115"/>
      <path id="Trazado_5258" data-name="Trazado 5258" d="M140.307,248.562h.232c.232,0,.387,0,.387-.232,0-.155-.155-.232-.31-.232h-.31v.465Zm-.232-.62h.542c.31,0,.465.155.465.387a.366.366,0,0,1-.387.387l.387.62h-.232l-.387-.62h-.232v.62H140v-1.394Zm.465,1.782a1.044,1.044,0,0,0,1.007-1.085.976.976,0,0,0-1.007-1.007,1.025,1.025,0,0,0-1.007,1.007,1.044,1.044,0,0,0,1.007,1.085m0-2.324a1.239,1.239,0,1,1-1.24,1.24,1.331,1.331,0,0,1,1.24-1.24" transform="translate(-41.535 -137.705)" fill="#213d87"/>
    </g>
  </g>
</svg>
