<svg xmlns="http://www.w3.org/2000/svg" width="428.469" height="134.248" viewBox="0 0 428.469 134.248">
  <g id="Grupo_1958" data-name="Grupo 1958" transform="translate(-0.1)">
    <g id="Grupo_84" data-name="Grupo 84" transform="translate(0.1)">
      <g id="Grupo_80" data-name="Grupo 80" transform="translate(0 0.536)">
        <path id="Trazado_243" data-name="Trazado 243" d="M77.74,51.847A37.625,37.625,0,0,1,40.225,89.361,38.084,38.084,0,0,1,21.2,84.27a29.243,29.243,0,0,0,7.771-6.163,26.529,26.529,0,0,0,11.254,2.412A28.452,28.452,0,0,0,55.767,28.266a29.225,29.225,0,0,0-8.307-3.751,33.732,33.732,0,0,0-7.235-1.072,26.529,26.529,0,0,0-11.254,2.412A34.234,34.234,0,0,0,21.2,19.691,38.084,38.084,0,0,1,40.225,14.6,35.973,35.973,0,0,1,49.6,15.672a32.052,32.052,0,0,1,8.843,3.483A37.427,37.427,0,0,1,77.74,51.847Z" transform="translate(35.34 23.986)" fill="#ff9e18"/>
        <path id="Trazado_244" data-name="Trazado 244" d="M74.861,49.327a37.348,37.348,0,0,1-10.45,25.992,34.234,34.234,0,0,1-7.771,6.163,38.084,38.084,0,0,1-19.025,5.091A37.527,37.527,0,0,1,19.661,16.1a50.573,50.573,0,0,0,2.412,9.111A28.452,28.452,0,0,0,37.614,77.463a26.529,26.529,0,0,0,11.254-2.412A26.049,26.049,0,0,0,56.64,69.96a28.465,28.465,0,0,0,9.379-21.169V47.183A32.052,32.052,0,0,0,74.861,43.7Z" transform="translate(-0.1 26.506)" fill="#fff"/>
        <path id="Trazado_245" data-name="Trazado 245" d="M82.129,37.982a32.428,32.428,0,0,1-.268,5.091,32.052,32.052,0,0,0-8.843-3.483V37.982a28.4,28.4,0,0,0-56.808,0V39.59a30.487,30.487,0,0,0,1.876,8.843A27.268,27.268,0,0,0,28.8,61.563a35.167,35.167,0,0,0-2.412,9.111A36.726,36.726,0,0,1,9.78,51.916a35.167,35.167,0,0,1-2.412-9.111A32.429,32.429,0,0,1,7.1,37.714,37.625,37.625,0,0,1,44.614.2,37.854,37.854,0,0,1,82.129,37.982Z" transform="translate(11.657 -0.2)" fill="#ffb71b"/>
      </g>
      <g id="Grupo_81" data-name="Grupo 81" transform="translate(123.262)">
        <path id="Trazado_246" data-name="Trazado 246" d="M79.6.4H89.783V59.351H79.6Z" transform="translate(10.167 0.672)" fill="#ffb71b"/>
        <path id="Trazado_247" data-name="Trazado 247" d="M97.611.4l29.476,40.73V.4h10.183V59.351h-9.111L98.683,18.889V59.351H88.5V.4h9.111Z" transform="translate(25.115 0.672)" fill="#ffb71b"/>
        <path id="Trazado_248" data-name="Trazado 248" d="M152.974,48.769V36.175h-13.4V26.8h23.313v26.8s-7.5,7.5-21.7,7.5c-17.149,0-31.083-13.13-31.083-30.548A30.034,30.034,0,0,1,140.648,0c14.47,0,21.7,8.843,21.7,8.843l-6.967,6.7s-4.823-6.163-15.006-6.163c-11.79,0-20.365,9.647-20.365,21.169,0,11.254,8.843,21.169,20.633,21.169C149.49,51.716,152.974,48.769,152.974,48.769Z" transform="translate(61.395)" fill="#ffb71b"/>
        <path id="Trazado_249" data-name="Trazado 249" d="M169.171.4h10.183V37.914c0,12.862-8.843,22.509-22.777,22.509S133.8,51.045,133.8,37.914V.4h10.183V36.843c0,8.307,4.287,14.2,12.594,14.2s12.594-5.627,12.594-14.2Z" transform="translate(101.201 0.672)" fill="#ffb71b"/>
        <path id="Trazado_250" data-name="Trazado 250" d="M72.9,59.351,87.1,19.425l14.2,39.926h6.967L128.1.4h-10.45L104.783,40.594,91.653.4H83.347l-13.4,40.194L57.354.4H46.1L65.661,59.351Z" transform="translate(-46.1 0.672)" fill="#ffb71b"/>
      </g>
      <g id="Grupo_83" data-name="Grupo 83" transform="translate(132.908 70.206)">
        <path id="Trazado_251" data-name="Trazado 251" d="M77.3,41.933v20.9H71.4V43.005c0-5.627-3.483-8.039-7.771-8.039-5.359,0-8.039,5.359-8.039,5.359V62.566H49.7V30.411h5.359v4.555a11.507,11.507,0,0,1,9.915-5.359C71.673,29.339,77.3,33.894,77.3,41.933Z" transform="translate(-49.7 -20.496)" fill="#fff"/>
        <path id="Trazado_252" data-name="Trazado 252" d="M95.019,46.754V48.63H69.027c.268,4.823,5.091,9.379,11.254,9.379a12.058,12.058,0,0,0,9.647-4.823l3.751,3.751a17.756,17.756,0,0,1-13.4,6.431A16.483,16.483,0,0,1,63.4,46.486c0-9.379,6.431-16.882,16.078-16.882C88.32,29.337,95.019,36.3,95.019,46.754Zm-5.9-3.216a10.131,10.131,0,0,0-20.1,0Z" transform="translate(-26.689 -20.494)" fill="#fff"/>
        <path id="Trazado_253" data-name="Trazado 253" d="M76.7,36.115h6.431V26.2h5.9v9.915h9.915v5.359H88.758V58.891c0,3.216,1.608,5.091,4.823,5.091a7.6,7.6,0,0,0,3.751-1.34l2.144,4.823a12.168,12.168,0,0,1-6.7,1.876c-4.555,0-9.647-2.948-9.647-10.183V41.474H76.7V36.115Z" transform="translate(-4.351 -26.2)" fill="#fff"/>
        <path id="Trazado_254" data-name="Trazado 254" d="M140.527,46.486c0,9.647-7.235,16.882-16.614,16.882-9.647,0-16.614-7.5-16.614-16.882A16.586,16.586,0,0,1,123.914,29.6C133.56,29.336,140.527,36.839,140.527,46.486Zm-5.9,0c0-6.431-4.287-11.522-10.718-11.522S113.2,40.055,113.2,46.486s4.287,11.522,10.718,11.522C130.613,58.008,134.632,52.917,134.632,46.486Z" transform="translate(47.045 -20.494)" fill="#fff"/>
        <path id="Trazado_255" data-name="Trazado 255" d="M141.493,30.431l-2.144,5.359a7.792,7.792,0,0,0-3.751-.8c-5.091,0-7.5,5.359-7.5,5.359V62.586h-5.9V30.431h5.359v5.091s2.948-5.9,9.111-5.9A8.8,8.8,0,0,1,141.493,30.431Z" transform="translate(72.071 -20.516)" fill="#fff"/>
        <path id="Trazado_256" data-name="Trazado 256" d="M144.651,52.913s3.483,5.359,9.915,5.359c3.216,0,6.967-1.34,6.967-4.019s-2.412-4.287-7.235-5.091c-6.967-1.34-11.79-4.019-11.79-10.183,0-4.823,4.823-9.379,11.79-9.379a17.628,17.628,0,0,1,12.058,4.823L162.6,38.443a11.9,11.9,0,0,0-8.039-3.483c-4.019,0-6.163,2.144-6.163,4.019,0,2.412,2.412,3.751,7.771,4.823,6.163,1.34,11.522,3.751,11.522,10.182,0,6.163-6.7,9.379-12.862,9.379a17.987,17.987,0,0,1-13.934-6.7Z" transform="translate(103.48 -20.489)" fill="#fff"/>
        <path id="Trazado_257" data-name="Trazado 257" d="M103.914,62.055l8.843-21.973L121.6,62.055h3.751L138.212,29.9h-5.9l-8.843,22.777L114.9,29.9h-4.019l-8.307,22.777L93.731,29.9H87.3l13.13,32.155Z" transform="translate(13.453 -19.985)" fill="#fff"/>
        <g id="Grupo_82" data-name="Grupo 82" transform="translate(217.852 9.849)">
          <path id="Fill-24_1_" d="M141.718,51.306h10.718L141.718,36.3H131Z" transform="translate(-131 -19.085)" fill="#fff" fill-rule="evenodd"/>
          <g id="Group-28_1_" transform="translate(0 0)">
            <path id="Fill-26_1_" d="M152.169,29.1H141.45L131,43.838h10.718Z" transform="translate(-131 -29.1)" fill="#fff" fill-rule="evenodd"/>
          </g>
        </g>
      </g>
    </g>
    <g id="Grupo_85" data-name="Grupo 85" transform="translate(256.002 122.458)">
      <path id="Trazado_258" data-name="Trazado 258" d="M101.5,46.8v6.163h-1.072V51.891l-.8.8a3.483,3.483,0,0,1-2.68,0,2.092,2.092,0,0,1-1.072-1.072,3.4,3.4,0,0,1-.268-1.608,3.4,3.4,0,0,1,.268-1.608,2.092,2.092,0,0,1,1.072-1.072,3.484,3.484,0,0,1,2.68,0l.8.8V47.068H101.5Zm-1.34,4.823a3.809,3.809,0,0,0,.536-1.608,2.265,2.265,0,0,0-.536-1.608,1.943,1.943,0,0,0-2.68,0,3.809,3.809,0,0,0-.536,1.608,2.265,2.265,0,0,0,.536,1.608,1.943,1.943,0,0,0,2.68,0Z" transform="translate(-95.6 -43.852)" fill="#fff"/>
      <path id="Trazado_259" data-name="Trazado 259" d="M108.007,54.475h-2.68l-3.483-4.019v4.019H99.7V45.9h2.144v3.751l3.216-3.751h2.68l-3.751,4.019Z" transform="translate(-88.714 -45.364)" fill="#fff"/>
      <path id="Trazado_260" data-name="Trazado 260" d="M102.8,54.475V45.9h2.144v8.575Z" transform="translate(-83.507 -45.364)" fill="#fff"/>
      <path id="Trazado_261" data-name="Trazado 261" d="M106.244,54.275a4.55,4.55,0,0,1-1.608-1.608,5.351,5.351,0,0,1-.536-2.412,7.824,7.824,0,0,1,.536-2.412,4.55,4.55,0,0,1,1.608-1.608,5.351,5.351,0,0,1,2.412-.536,7.824,7.824,0,0,1,2.412.536,4.55,4.55,0,0,1,1.608,1.608,5.351,5.351,0,0,1,.536,2.412,7.824,7.824,0,0,1-.536,2.412,4.55,4.55,0,0,1-1.608,1.608,5.694,5.694,0,0,1-4.823,0ZM110,52.4a3.873,3.873,0,0,0,.536-1.876A3.123,3.123,0,0,0,110,48.648a1.62,1.62,0,0,0-1.608-.8,2.316,2.316,0,0,0-1.608.8,3.873,3.873,0,0,0-.536,1.876,3.123,3.123,0,0,0,.536,1.876,2.01,2.01,0,0,0,3.215,0Z" transform="translate(-81.323 -45.7)" fill="#fff"/>
      <path id="Trazado_262" data-name="Trazado 262" d="M113.727,45.9H114.8v8.575H114L108.9,47.508v6.967h-.8V45.9h.8L114,52.867V45.9Z" transform="translate(-74.605 -45.364)" fill="#fff"/>
      <path id="Trazado_263" data-name="Trazado 263" d="M116.627,49.748h-4.555a3.873,3.873,0,0,0,.536,1.876,2.265,2.265,0,0,0,1.608.536,2.433,2.433,0,0,0,1.876-.8l.268.8a1.392,1.392,0,0,1-1.072.536,2.416,2.416,0,0,1-1.34.268,2.638,2.638,0,0,1-2.144-.8,3.275,3.275,0,0,1-.8-2.412,3.4,3.4,0,0,1,.268-1.608,2.092,2.092,0,0,1,1.072-1.072,2.9,2.9,0,0,1,1.608-.268,2.433,2.433,0,0,1,1.876.8,2.637,2.637,0,0,1,.8,2.144Zm-3.751-1.876a2.047,2.047,0,0,0-.536,1.34h3.483a1.71,1.71,0,0,0-2.948-1.34Z" transform="translate(-69.734 -43.852)" fill="#fff"/>
      <path id="Trazado_264" data-name="Trazado 264" d="M115.544,48.78V52c0,.536,0,.8.268,1.072a.984.984,0,0,0,.8.268h.536v.8h-.8a1.832,1.832,0,0,1-1.876-1.876V48.78H113.4v-.8h1.072V46.368l1.072-.268v1.876h1.608v.8h-1.608Z" transform="translate(-65.703 -45.028)" fill="#fff"/>
      <path id="Trazado_265" data-name="Trazado 265" d="M123.675,46.8h1.072L122.6,52.963h-1.072l-1.608-4.823-1.608,4.823h-1.072L115.1,46.8h1.072l1.608,4.823,1.876-4.823h.8l1.876,4.823Z" transform="translate(-62.848 -43.852)" fill="#fff"/>
      <path id="Trazado_266" data-name="Trazado 266" d="M120.34,52.527a2.092,2.092,0,0,1-1.072-1.072A3.4,3.4,0,0,1,119,49.848a3.4,3.4,0,0,1,.268-1.608,2.092,2.092,0,0,1,1.072-1.072,4.957,4.957,0,0,1,3.216,0,2.092,2.092,0,0,1,1.072,1.072,3.4,3.4,0,0,1,.268,1.608,3.4,3.4,0,0,1-.268,1.608,2.092,2.092,0,0,1-1.072,1.072,4.957,4.957,0,0,1-3.216,0Zm2.948-1.072a2.873,2.873,0,0,0,.536-1.608,2.265,2.265,0,0,0-.536-1.608c-.268-.536-.8-.536-1.34-.536a2.047,2.047,0,0,0-1.34.536,3.808,3.808,0,0,0-.536,1.608,2.265,2.265,0,0,0,.536,1.608,1.943,1.943,0,0,0,2.68,0Z" transform="translate(-56.297 -43.684)" fill="#fff"/>
      <path id="Trazado_267" data-name="Trazado 267" d="M125.183,46.8v.8h-.536a1.832,1.832,0,0,0-1.876,1.876v3.483H121.7v-5.9h.8V48.14c.268-.536.268-.8.8-1.072a1.611,1.611,0,0,1,1.072-.268Z" transform="translate(-51.762 -43.852)" fill="#fff"/>
      <path id="Trazado_268" data-name="Trazado 268" d="M128.827,54.643h-1.34L124.272,51.7v2.948H123.2V45.8h1.072v5.627l2.948-2.68h1.34L125.612,51.7Z" transform="translate(-49.243 -45.532)" fill="#fff"/>
      <path id="Trazado_269" data-name="Trazado 269" d="M125.5,52.327l.268-.8a1.392,1.392,0,0,0,1.072.536c.268,0,.8.268,1.072.268.536,0,.8,0,1.072-.268s.268-.268.268-.8c0-.268,0-.536-.268-.536a.984.984,0,0,0-.8-.268l-1.072-.268a1.895,1.895,0,0,1-1.608-1.608,2.047,2.047,0,0,1,.536-1.34,3.809,3.809,0,0,1,1.608-.536c.536,0,.8,0,1.072.268s.8.268,1.072.536l-.268.8a2.433,2.433,0,0,0-1.876-.8c-.536,0-.8,0-1.072.268s-.268.268-.268.8c0,.268,0,.536.268.536.268.268.268.268.8.268l1.072.268a2.047,2.047,0,0,1,1.34.536,1.392,1.392,0,0,1,.536,1.072,2.047,2.047,0,0,1-.536,1.34,3.809,3.809,0,0,1-1.608.536A3.556,3.556,0,0,1,125.5,52.327Z" transform="translate(-45.38 -44.02)" fill="#fff"/>
      <path id="Trazado_270" data-name="Trazado 270" d="M131.351,45.968c.268.268.8.536.8.8a2.008,2.008,0,0,1,.268,1.34,2.416,2.416,0,0,1-.268,1.34c-.268.268-.536.8-.8.8a11.6,11.6,0,0,1-1.34.268,2.416,2.416,0,0,1-1.34-.268c-.268-.268-.8-.536-.8-.8a2.008,2.008,0,0,1-.268-1.34,2.416,2.416,0,0,1,.268-1.34c.268-.268.536-.8.8-.8a3.484,3.484,0,0,1,2.68,0Zm0,4.287.8-.8a1.611,1.611,0,0,0,.268-1.072c0-.536,0-.8-.268-1.072l-.8-.8a1.611,1.611,0,0,0-1.072-.268c-.536,0-.8,0-1.072.268l-.8.8a1.611,1.611,0,0,0-.268,1.072c0,.536,0,.8.268,1.072l.8.8a1.611,1.611,0,0,0,1.072.268C130.548,50.523,131.084,50.255,131.351,50.255Zm-.268-1.34.536.8h-.536l-.536-1.072a.262.262,0,0,0-.268-.268h-.536v1.072h-.536V46.5h1.34a.985.985,0,0,1,.8.268c.268.268.268.268.268.536s0,.536-.268.536c0,.268-.268.268-.536.268C130.816,48.648,130.816,48.648,131.084,48.916Zm-.268-.8.268-.268c0-.268,0-.268-.268-.268h-1.072v1.072h.536C130.548,48.112,130.548,48.112,130.816,48.112Z" transform="translate(-41.853 -45.7)" fill="#fff"/>
      <path id="Trazado_271" data-name="Trazado 271" d="M132.976,54.275a2.745,2.745,0,0,1-1.34-1.608,5.351,5.351,0,0,1-.536-2.412,7.825,7.825,0,0,1,.536-2.412,7.106,7.106,0,0,1,1.34-1.608,5.048,5.048,0,0,1,2.144-.536,3.4,3.4,0,0,1,1.608.268c.536.268.8.536,1.34.8l-.268.8c-.536-.268-.8-.536-1.34-.8a2.008,2.008,0,0,0-1.34-.268,2.637,2.637,0,0,0-2.144.8,4,4,0,0,0-.8,2.68,4.527,4.527,0,0,0,.8,2.68,3.043,3.043,0,0,0,2.144.8,2.416,2.416,0,0,0,1.34-.268c.536-.268.8-.536,1.34-.8l.268.8a5.858,5.858,0,0,1-1.34.8,3.4,3.4,0,0,1-1.608.268A2.042,2.042,0,0,1,132.976,54.275Z" transform="translate(-35.974 -45.7)" fill="#fff"/>
      <path id="Trazado_272" data-name="Trazado 272" d="M135.44,52.527a2.092,2.092,0,0,1-1.072-1.072,3.4,3.4,0,0,1-.268-1.608,3.4,3.4,0,0,1,.268-1.608,2.092,2.092,0,0,1,1.072-1.072,2.9,2.9,0,0,1,1.608-.268,3.4,3.4,0,0,1,1.608.268,2.092,2.092,0,0,1,1.072,1.072A3.4,3.4,0,0,1,140,49.848a3.4,3.4,0,0,1-.268,1.608,2.092,2.092,0,0,1-1.072,1.072,2.9,2.9,0,0,1-1.608.268C136.244,52.8,135.708,52.8,135.44,52.527Zm2.68-1.072a2.873,2.873,0,0,0,.536-1.608,2.265,2.265,0,0,0-.536-1.608c-.268-.536-.8-.536-1.34-.536a2.047,2.047,0,0,0-1.34.536,3.808,3.808,0,0,0-.536,1.608,2.265,2.265,0,0,0,.536,1.608,2.047,2.047,0,0,0,1.34.536A1.575,1.575,0,0,0,138.119,51.455Z" transform="translate(-30.935 -43.684)" fill="#fff"/>
      <path id="Trazado_273" data-name="Trazado 273" d="M145.879,49.076v3.751h-1.072V49.076a2.008,2.008,0,0,0-.268-1.34c-.268-.268-.536-.268-1.072-.268A1.392,1.392,0,0,0,142.4,48a2.047,2.047,0,0,0-.536,1.34v3.483h-1.072V49.076a2.008,2.008,0,0,0-.268-1.34c-.268-.268-.536-.268-1.072-.268s-.8.268-1.34.536a2.047,2.047,0,0,0-.536,1.34v3.483H136.5v-5.9h.8V48c.268-.268.536-.8.8-.8a1.611,1.611,0,0,1,1.072-.268c.536,0,.8,0,1.072.268l.8.8.8-.8a2.008,2.008,0,0,1,1.34-.268C145.343,46.664,145.879,47.468,145.879,49.076Z" transform="translate(-26.904 -43.716)" fill="#fff"/>
      <path id="Trazado_274" data-name="Trazado 274" d="M145.255,47.236a2.092,2.092,0,0,1,1.072,1.072,3.4,3.4,0,0,1,.268,1.608,3.4,3.4,0,0,1-.268,1.608,2.092,2.092,0,0,1-1.072,1.072,3.484,3.484,0,0,1-2.68,0c-.536-.268-.536-.536-.8-.8v3.751H140.7V46.968h.8V48.04a3.7,3.7,0,0,1,.8-1.072,2.008,2.008,0,0,1,1.34-.268C144.183,46.968,144.719,46.968,145.255,47.236Zm-.268,4.555a2.873,2.873,0,0,0,.536-1.608,2.265,2.265,0,0,0-.536-1.608c-.268-.536-.8-.536-1.34-.536a2.047,2.047,0,0,0-1.34.536,2.872,2.872,0,0,0-.536,1.608,2.265,2.265,0,0,0,.536,1.608c.268.536.8.536,1.34.536A2.047,2.047,0,0,0,144.987,51.791Z" transform="translate(-19.85 -44.02)" fill="#fff"/>
      <path id="Trazado_275" data-name="Trazado 275" d="M149.1,46.8v6.163h-1.072V51.891l-.8.8a3.484,3.484,0,0,1-2.68,0,2.092,2.092,0,0,1-1.072-1.072,3.4,3.4,0,0,1-.268-1.608,3.4,3.4,0,0,1,.268-1.608,2.092,2.092,0,0,1,1.072-1.072,3.484,3.484,0,0,1,2.68,0l.8.8V47.068H149.1Zm-1.34,4.823a3.808,3.808,0,0,0,.536-1.608,2.265,2.265,0,0,0-.536-1.608,1.943,1.943,0,0,0-2.68,0,3.809,3.809,0,0,0-.536,1.608,2.265,2.265,0,0,0,.536,1.608,2.047,2.047,0,0,0,1.34.536C146.951,52.159,147.219,51.891,147.755,51.623Z" transform="translate(-15.651 -43.852)" fill="#fff"/>
      <path id="Trazado_276" data-name="Trazado 276" d="M151.359,49.076v3.751h-1.072V49.076a2.008,2.008,0,0,0-.268-1.34c-.268-.268-.536-.268-1.072-.268a1.832,1.832,0,0,0-1.876,1.876v3.483H146v-5.9h.8V48c.268-.268.536-.8.8-.8a2.008,2.008,0,0,1,1.34-.268C150.823,46.664,151.359,47.468,151.359,49.076Z" transform="translate(-10.948 -43.716)" fill="#fff"/>
      <path id="Trazado_277" data-name="Trazado 277" d="M154.563,46.8l-2.948,6.7a3.417,3.417,0,0,1-1.072,1.608,3.809,3.809,0,0,1-1.608.536l-.268-.8a2.047,2.047,0,0,0,1.34-.536,3.7,3.7,0,0,0,.8-1.072l.268-.536-2.68-5.9h1.072l2.144,5.091,2.144-5.091h.8Z" transform="translate(-6.917 -43.852)" fill="#fff"/>
    </g>
    <g id="Grupo_86" data-name="Grupo 86" transform="translate(414.099)">
      <path id="Trazado_278" data-name="Trazado 278" d="M161.835,0A7.235,7.235,0,1,1,154.6,7.235,7.042,7.042,0,0,1,161.835,0Zm0,12.862a5.66,5.66,0,0,0,5.627-5.627,5.627,5.627,0,0,0-11.254,0A5.5,5.5,0,0,0,161.835,12.862Zm-2.68-9.111h3.216A2.114,2.114,0,0,1,164.515,5.9a2.038,2.038,0,0,1-1.608,2.144l1.876,2.412h-2.144l-1.608-2.412H160.5v2.68h-1.608V3.751Zm3.751,2.412c0-.8-.536-.8-1.072-.8h-1.072V6.967h1.072C162.371,6.967,162.907,6.7,162.907,6.163Z" transform="translate(-154.6)" fill="#ffb71b"/>
    </g>
  </g>
</svg>
