<svg xmlns="http://www.w3.org/2000/svg" xmlns:xlink="http://www.w3.org/1999/xlink" width="250" height="250" viewBox="0 0 250 250">
  <defs>
    <clipPath id="clip-path">
      <rect width="250" height="250" fill="none"/>
    </clipPath>
  </defs>
  <g id="logo_PD" data-name="logo PD" clip-path="url(#clip-path)">
    <circle id="Elipse_16" data-name="Elipse 16" cx="125" cy="125" r="125" fill="#0d0ec6"/>
    <g id="Grupo_9" data-name="Grupo 9" transform="translate(52.572 52.572)">
      <circle id="Elipse_17" data-name="Elipse 17" cx="25.98" cy="25.98" r="25.98" transform="matrix(0.044, -0.999, 0.999, 0.044, 45.321, 97.229)" fill="#fff"/>
      <path id="Trazado_6" data-name="Trazado 6" d="M360.607-607.78H334.688v47.768a25.919,25.919,0,0,0,25.919,25.919V-607.78Z" transform="translate(-334.688 678.95)" fill="#fff"/>
      <path id="Trazado_7" data-name="Trazado 7" d="M554.06-739.049h0v72.469h25.919V-713.13a25.919,25.919,0,0,0-25.919-25.919Z" transform="translate(-435.123 739.049)" fill="#fff"/>
      <g id="Grupo_8" data-name="Grupo 8" transform="translate(0 0)">
        <path id="Trazado_8" data-name="Trazado 8" d="M360.607-667.879h.017a46.185,46.185,0,0,1,13.6-31.629,46.2,46.2,0,0,1,32.887-13.623A46.2,46.2,0,0,1,440-699.507q1.64,1.64,3.095,3.411v-33.395a72.089,72.089,0,0,0-35.982-9.558,72.428,72.428,0,0,0-72.428,72.429A72.269,72.269,0,0,0,360.607-611.1Z" transform="translate(-334.688 739.049)" fill="#fff"/>
        <path id="Trazado_9" data-name="Trazado 9" d="M484.4-707.86v56.777h-.018a46.188,46.188,0,0,1-13.6,31.629,46.207,46.207,0,0,1-32.887,13.622,46.205,46.205,0,0,1-32.887-13.622q-1.64-1.641-3.1-3.411v33.4a72.1,72.1,0,0,0,35.982,9.557,72.428,72.428,0,0,0,72.428-72.428A72.269,72.269,0,0,0,484.4-707.86Z" transform="translate(-365.464 724.77)" fill="#fff"/>
      </g>
    </g>
  </g>
</svg>
