<svg xmlns="http://www.w3.org/2000/svg" xmlns:xlink="http://www.w3.org/1999/xlink" width="30" height="30" viewBox="0 0 30 30">
  <defs>
    <clipPath id="clip-path">
      <rect width="30" height="30" fill="none"/>
    </clipPath>
  </defs>
  <g id="phone" clip-path="url(#clip-path)">
    <path id="Sustracción_1" data-name="Sustracción 1" d="M15,30A15,15,0,0,1,4.393,4.393,15,15,0,0,1,25.607,25.606,14.9,14.9,0,0,1,15,30ZM11.152,7.305a.729.729,0,0,0-.161.018l-3.126.721a.719.719,0,0,0-.559.7A13.944,13.944,0,0,0,21.252,22.693a.718.718,0,0,0,.7-.559l.722-3.126a.73.73,0,0,0-.421-.829l-3.366-1.443a.721.721,0,0,0-.841.207l-1.491,1.822a11.171,11.171,0,0,1-5.325-5.325l1.822-1.491a.721.721,0,0,0,.207-.842L11.818,7.741A.726.726,0,0,0,11.152,7.305Z" transform="translate(0 0)" fill="#fff"/>
  </g>
</svg>
