<svg xmlns="http://www.w3.org/2000/svg" width="50" height="50" viewBox="0 0 50 50">
  <g id="Grupo_2011" data-name="Grupo 2011" transform="translate(-162.231 -2807.222)">
    <circle id="Elipse_23" data-name="Elipse 23" cx="25" cy="25" r="25" transform="translate(162.231 2807.222)" fill="#bbdfdc"/>
    <path id="Trazado_187" data-name="Trazado 187" d="M153.728,2832.788c-2.542-.2-5.108.023-7.675-.2a2.989,2.989,0,0,1-2.452-2.412c-.158-1.225-.09-2.473-.137-3.723,3.415-.046,6.829.156,10.219-.113a3.16,3.16,0,0,0,2.431-3.813,3.055,3.055,0,0,0-2.565-2.5c-3.323-.158-6.669-.023-9.992-.044-.023-1.317-.023-2.656-.137-3.972a3.077,3.077,0,0,0-3.767-2.365,3.407,3.407,0,0,0-2.612,3.883c0,4.083-.088,8.188.044,12.27a9.574,9.574,0,0,0,6.671,8.925c2.519.781,5.2.421,7.787.467,1.4,0,3.188.044,3.992-1.383A3.15,3.15,0,0,0,153.728,2832.788Z" transform="translate(40.618 5.834)" fill="#1d4a60"/>
  </g>
</svg>
