<svg xmlns="http://www.w3.org/2000/svg" width="200" height="95.521" viewBox="0 0 200 95.521">
  <g id="Grupo_15" data-name="Grupo 15" transform="translate(-99.669 -1535.124)">
    <g id="Grupo_11" data-name="Grupo 11" transform="translate(99.755 1609.421)">
      <path id="Trazado_13" data-name="Trazado 13" d="M99.844,1593c0-1.7-.058-3.06-.117-4.334h1.343l.119,2.578h.059a5.657,5.657,0,0,1,5.281-2.895c3.668,0,6.149,2.895,6.149,6.89,0,4.875-3.046,7.341-6.508,7.341a5.484,5.484,0,0,1-4.863-2.522h-.059v4.755h-1.4Zm1.4,3.912a6.221,6.221,0,0,0,.12,1.078,4.805,4.805,0,0,0,4.716,3.458c3.281,0,5.161-2.522,5.161-6.151,0-3.06-1.793-5.835-5.041-5.835a4.952,4.952,0,0,0-4.745,3.627,5.216,5.216,0,0,0-.211,1.16Z" transform="translate(-99.727 -1583.594)" fill="#fff"/>
      <path id="Trazado_14" data-name="Trazado 14" d="M110.884,1586.34a1.139,1.139,0,0,1-1.2,1.161,1.115,1.115,0,0,1-1.1-1.161,1.189,1.189,0,0,1,1.163-1.191A1.131,1.131,0,0,1,110.884,1586.34Zm-1.851,17.487v-13.6h1.4v13.6Z" transform="translate(-95.429 -1585.149)" fill="#fff"/>
      <path id="Trazado_15" data-name="Trazado 15" d="M111.676,1595.329c0,4.364,2.506,6.067,5.461,6.067a8.693,8.693,0,0,0,3.968-.766l.358,1.077a9.875,9.875,0,0,1-4.506.878c-4.118,0-6.686-2.86-6.686-6.86,0-4.533,2.748-7.371,6.446-7.371,4.686,0,5.58,4.2,5.58,6.153a3.306,3.306,0,0,1-.058.823Zm9.128-1.078c.034-1.9-.8-4.787-4.266-4.787-3.162,0-4.537,2.691-4.775,4.787Z" transform="translate(-94.611 -1583.594)" fill="#fff"/>
      <path id="Trazado_16" data-name="Trazado 16" d="M118.849,1591.928c0-1.249-.059-2.183-.12-3.259h1.314l.117,2.464h.058a5.425,5.425,0,0,1,4.926-2.78c1.371,0,4.983.655,4.983,5.755v8.164h-1.4v-8.048c0-2.467-1.014-4.707-3.967-4.707a4.545,4.545,0,0,0-4.3,3.117,3.884,3.884,0,0,0-.209,1.221v8.417h-1.4Z" transform="translate(-90.507 -1583.594)" fill="#fff"/>
      <path id="Trazado_17" data-name="Trazado 17" d="M127.332,1600.486a6.566,6.566,0,0,0,3.221.937c2.268,0,3.343-1.164,3.343-2.58,0-1.5-.956-2.3-3.013-3.091-2.357-.846-3.642-2.067-3.642-3.71,0-1.957,1.611-3.689,4.417-3.689a5.9,5.9,0,0,1,3.164.854l-.567,1.1a4.813,4.813,0,0,0-2.835-.821c-1.822,0-2.777,1.1-2.777,2.351,0,1.418,1.017,2.04,2.956,2.807,2.327.849,3.7,1.953,3.7,4.026,0,2.323-1.91,3.909-4.833,3.909a7.239,7.239,0,0,1-3.642-.964Z" transform="translate(-86.579 -1583.594)" fill="#fff"/>
      <path id="Trazado_18" data-name="Trazado 18" d="M142.354,1599.041a23.088,23.088,0,0,0,.209,3.232h-1.286l-.206-1.956h-.091a5.445,5.445,0,0,1-4.567,2.268c-2.863,0-4.2-1.928-4.2-3.741,0-3.146,2.921-5.045,8.74-4.987v-.34c0-1.36-.267-4.052-3.67-4.025a6.313,6.313,0,0,0-3.581,1.022l-.449-.995a8.075,8.075,0,0,1,4.179-1.164c4.148,0,4.925,2.95,4.925,5.39Zm-1.4-4.053c-3.132-.082-7.251.369-7.251,3.628a2.671,2.671,0,0,0,2.866,2.835,4.3,4.3,0,0,0,4.236-2.721,2.789,2.789,0,0,0,.148-.823Z" transform="translate(-83.967 -1583.594)" fill="#fff"/>
      <path id="Trazado_19" data-name="Trazado 19" d="M153.621,1599.019a21.111,21.111,0,0,0,.209,3.317h-3.312l-.241-1.531h-.088a5.518,5.518,0,0,1-4.3,1.843,4.214,4.214,0,0,1-4.565-4.109c0-3.487,3.251-5.243,8.622-5.215v-.227c0-.906-.386-2.407-2.953-2.407a8.011,8.011,0,0,0-3.909,1.02l-.716-2.269a10.889,10.889,0,0,1,5.252-1.218c4.656,0,6,2.806,6,5.81Zm-3.582-3.428c-2.593-.056-5.072.48-5.072,2.578a1.881,1.881,0,0,0,2.09,1.983,2.968,2.968,0,0,0,2.866-1.9,2.437,2.437,0,0,0,.116-.765Z" transform="translate(-79.542 -1583.658)" fill="#fff"/>
      <path id="Trazado_20" data-name="Trazado 20" d="M161.192,1601.911a11.009,11.009,0,0,1-4.118.737c-4.537,0-7.491-2.777-7.491-7.056,0-4.139,2.985-7.37,8.09-7.37a9.65,9.65,0,0,1,3.55.651l-.658,2.609a6.743,6.743,0,0,0-2.774-.541,4.465,4.465,0,0,0,0,8.929,7.547,7.547,0,0,0,2.9-.539Z" transform="translate(-75.537 -1583.658)" fill="#fff"/>
      <path id="Trazado_21" data-name="Trazado 21" d="M162.2,1586.047v3.542H165.7v2.608H162.2v6.091c0,1.674.477,2.555,1.879,2.555a4.55,4.55,0,0,0,1.433-.175l.059,2.669a8.429,8.429,0,0,1-2.656.367,4.394,4.394,0,0,1-3.163-1.161,5.308,5.308,0,0,1-1.135-3.856V1592.2h-2.088v-2.608h2.088v-2.55Z" transform="translate(-72.164 -1584.713)" fill="#fff"/>
      <path id="Trazado_22" data-name="Trazado 22" d="M175.59,1598.1v-9.666h-3.67v8.332a2.984,2.984,0,0,1-.211,1.078,3.087,3.087,0,0,1-2.8,1.868c-1.94,0-2.716-1.472-2.716-3.768v-7.511h-3.671v8.1c0,4.506,2.416,6.009,5.073,6.009a5.314,5.314,0,0,0,4.655-2.406h.059l.178,2.094h3.223C175.648,1601.1,175.59,1599.739,175.59,1598.1Z" transform="translate(-69.26 -1583.556)" fill="#fff"/>
      <path id="Trazado_23" data-name="Trazado 23" d="M170.575,1586.778H167.84l-1.964,3.178h1.917Z" transform="translate(-67.631 -1584.359)" fill="#fff"/>
      <path id="Trazado_24" data-name="Trazado 24" d="M183.593,1599.019a21.153,21.153,0,0,0,.206,3.317h-3.312l-.238-1.531h-.091a5.508,5.508,0,0,1-4.3,1.843,4.214,4.214,0,0,1-4.566-4.109c0-3.487,3.251-5.243,8.623-5.215v-.227c0-.906-.386-2.407-2.953-2.407a8.021,8.021,0,0,0-3.911,1.02l-.714-2.269a10.882,10.882,0,0,1,5.25-1.218c4.655,0,6,2.806,6,5.81Zm-3.579-3.428c-2.6-.056-5.075.48-5.075,2.578a1.88,1.88,0,0,0,2.088,1.983,2.961,2.961,0,0,0,2.865-1.9,2.369,2.369,0,0,0,.122-.765Z" transform="translate(-65 -1583.658)" fill="#fff"/>
      <path id="Trazado_25" data-name="Trazado 25" d="M191.93,1599.041a22.859,22.859,0,0,0,.208,3.232h-1.285l-.208-1.956h-.089a5.442,5.442,0,0,1-4.566,2.268c-2.866,0-4.208-1.928-4.208-3.741,0-3.146,2.926-5.045,8.745-4.987v-.34c0-1.36-.269-4.052-3.673-4.025a6.306,6.306,0,0,0-3.581,1.022l-.447-.995a8.076,8.076,0,0,1,4.179-1.164c4.145,0,4.923,2.95,4.923,5.39Zm-1.4-4.053c-3.135-.082-7.254.369-7.254,3.628a2.672,2.672,0,0,0,2.866,2.835,4.3,4.3,0,0,0,4.236-2.721,2.847,2.847,0,0,0,.151-.823Z" transform="translate(-59.913 -1583.594)" fill="#fff"/>
      <path id="Trazado_26" data-name="Trazado 26" d="M189.812,1588.566l3.343,8.443c.567,1.332,1.014,2.5,1.4,3.628h.061c.417-1.133.924-2.323,1.463-3.628l3.4-8.443h1.494l-5.821,13.6H193.9l-5.613-13.6Z" transform="translate(-56.756 -1583.491)" fill="#fff"/>
      <path id="Trazado_27" data-name="Trazado 27" d="M205.992,1599.041a23.088,23.088,0,0,0,.208,3.232h-1.285l-.209-1.956h-.089a5.439,5.439,0,0,1-4.566,2.268c-2.865,0-4.206-1.928-4.206-3.741,0-3.146,2.926-5.045,8.742-4.987v-.34c0-1.36-.266-4.052-3.668-4.025a6.308,6.308,0,0,0-3.582,1.022l-.447-.995a8.067,8.067,0,0,1,4.178-1.164c4.148,0,4.925,2.95,4.925,5.39Zm-1.4-4.053c-3.131-.082-7.251.369-7.251,3.628a2.671,2.671,0,0,0,2.863,2.835,4.3,4.3,0,0,0,4.239-2.721,2.838,2.838,0,0,0,.149-.823Z" transform="translate(-53.09 -1583.594)" fill="#fff"/>
      <path id="Trazado_28" data-name="Trazado 28" d="M203.839,1591.928c0-1.249-.061-2.183-.12-3.259h1.311l.12,2.464h.061a5.417,5.417,0,0,1,4.923-2.78c1.372,0,4.983.655,4.983,5.755v8.164h-1.4v-8.048c0-2.467-1.011-4.707-3.97-4.707a4.546,4.546,0,0,0-4.3,3.117,4.017,4.017,0,0,0-.206,1.221v8.417h-1.4Z" transform="translate(-49.27 -1583.594)" fill="#fff"/>
      <path id="Trazado_29" data-name="Trazado 29" d="M211.252,1601.348l7.7-9.666c.536-.652,1.074-1.273,1.643-1.955v-.058h-8.715v-1.1h10.444l-.028.906-7.7,9.639c-.509.649-1.014,1.245-1.524,1.9v.056h9.281v1.106h-11.1Z" transform="translate(-45.615 -1583.491)" fill="#fff"/>
      <path id="Trazado_30" data-name="Trazado 30" d="M227.945,1599.041a23.545,23.545,0,0,0,.208,3.232H226.87l-.208-1.956h-.089a5.442,5.442,0,0,1-4.566,2.268c-2.865,0-4.206-1.928-4.206-3.741,0-3.146,2.924-5.045,8.743-4.987v-.34c0-1.36-.269-4.052-3.671-4.025a6.3,6.3,0,0,0-3.579,1.022l-.45-.995a8.07,8.07,0,0,1,4.178-1.164c4.147,0,4.923,2.95,4.923,5.39Zm-1.4-4.053c-3.134-.082-7.251.369-7.251,3.628a2.671,2.671,0,0,0,2.863,2.835,4.3,4.3,0,0,0,4.236-2.721,2.847,2.847,0,0,0,.151-.823Z" transform="translate(-42.437 -1583.594)" fill="#fff"/>
    </g>
    <g id="Grupo_14" data-name="Grupo 14" transform="translate(99.669 1535.124)">
      <g id="Grupo_13" data-name="Grupo 13" transform="translate(0.267)">
        <path id="Trazado_31" data-name="Trazado 31" d="M118.036,1562.355v-26.471h11.335v26.471a37.314,37.314,0,0,1-.858,9.219,12.5,12.5,0,0,1-2.941,5.255,12.138,12.138,0,0,1-4.659,2.942,18.615,18.615,0,0,1-6.281,1.056,18.277,18.277,0,0,1-6.245-1.056,11.523,11.523,0,0,1-4.626-2.942,12.315,12.315,0,0,1-3.006-5.32,37.26,37.26,0,0,1-.86-9.153v-26.471h11.4v26.471c0,2.476.232,4.2.76,5.186a2.67,2.67,0,0,0,2.577,1.455,2.721,2.721,0,0,0,2.612-1.488,11.9,11.9,0,0,0,.792-5.153Zm18.607,17.283v-43.754h4.989l16.293,19.134v-19.134h11.3v43.754H164.1l-16.126-18.969v18.969Zm51.848,0H177.156v-43.754h11.335v43.754Zm24.653-32.719v32.719h-11.4V1546.92h-8.856l1.156-11.035H220.81l1.224,11.035Zm39.985,20.656-3.037,12.063H225.768v-43.754h24.191l1.883,11.6H237.1v4.461h9.88v11.566H237.1v4.065Zm31.66,12.063a14.773,14.773,0,0,1-2.711.561,23.177,23.177,0,0,1-3.14.2c-6.906,0-12.491-2.047-16.755-6.178-4.263-4.163-6.409-9.517-6.409-16.125a22.064,22.064,0,0,1,6.64-16.492q6.643-6.494,16.921-6.477a22.741,22.741,0,0,1,2.51.165c.86.1,1.784.264,2.745.464l.593,12.955a16.151,16.151,0,0,0-3.04-1.026,15.452,15.452,0,0,0-2.941-.331,12.21,12.21,0,0,0-8.391,2.91,9.535,9.535,0,0,0-3.239,7.4,9.806,9.806,0,0,0,3.205,7.471,11.416,11.416,0,0,0,8.029,3.008,13.906,13.906,0,0,0,3.469-.463,15.758,15.758,0,0,0,3.371-1.323Z" transform="translate(-99.827 -1535.124)" fill="#fff"/>
        <path id="Trazado_32" data-name="Trazado 32" d="M235.4,1539.772v-1.258a3.186,3.186,0,0,0,.759-.065.6.6,0,0,0,.33-.264.8.8,0,0,0,.1-.429.54.54,0,0,0-.165-.464.62.62,0,0,0-.429-.23,2.173,2.173,0,0,0-.6-.034v-.992h.1a3.74,3.74,0,0,1,1.387.168,1.617,1.617,0,0,1,.7.56,1.7,1.7,0,0,1,.23.925,1.729,1.729,0,0,1-.364,1.092,1.815,1.815,0,0,1-1.19.527,3.877,3.877,0,0,1,.661.5,10.368,10.368,0,0,1,.662.959l.726,1.157h-1.421l-.858-1.289A9.386,9.386,0,0,0,235.4,1539.772Zm-9.253,2.147v-5.884h1.785l1.057,4,1.057-4h1.784v5.884h-1.092v-4.628l-1.19,4.628h-1.123l-1.19-4.628v4.628Zm9.253-5.884v.992h-1.19v1.487h1.19v1.258h0a.728.728,0,0,0-.364-.23,1.422,1.422,0,0,0-.6-.068h-.23v2.446h-1.19v-5.884Z" transform="translate(-38.571 -1534.682)" fill="#fff"/>
        <g id="Grupo_12" data-name="Grupo 12" transform="translate(0 60.013)">
          <path id="Trazado_33" data-name="Trazado 33" d="M224.568,1584.52v-.561a3.166,3.166,0,0,0,1.056-.63v-2.211a7.2,7.2,0,0,0-1.056.462v-.429c.3-.134.659-.265,1.056-.431v-.233a1.96,1.96,0,0,0-.263-1.188.978.978,0,0,0-.793-.33h0v-.4h.2a2.58,2.58,0,0,1,1.222.265,1.172,1.172,0,0,1,.563.627,4.036,4.036,0,0,1,.1,1.125v1.984c0,.529.033.891.033,1.023a.719.719,0,0,0,.1.23.462.462,0,0,0,.165.066.457.457,0,0,0,.2-.03c.065-.067.232-.235.5-.465v.33c-.463.662-.925.958-1.322.958a.58.58,0,0,1-.5-.2,1.161,1.161,0,0,1-.2-.76A11.733,11.733,0,0,1,224.568,1584.52Zm0-5.948v.4a.82.82,0,0,0-.628.232.592.592,0,0,0-.232.5v.361a.553.553,0,0,1-.132.429.439.439,0,0,1-.4.166.378.378,0,0,1-.362-.166.613.613,0,0,1-.166-.429,1.361,1.361,0,0,1,.561-1.023,2.282,2.282,0,0,1,1.356-.462Zm0,2.578v.429c-.068.033-.132.033-.166.065a2.188,2.188,0,0,0-.694.593,1.24,1.24,0,0,0-.232.662,1.042,1.042,0,0,0,.3.759.743.743,0,0,0,.6.3h.2v.561a.033.033,0,0,0-.034.033,1.791,1.791,0,0,1-.728.165,1.37,1.37,0,0,1-.989-.429,1.61,1.61,0,0,1-.365-1.093,1.564,1.564,0,0,1,.166-.725,2.422,2.422,0,0,1,.893-.826,8.179,8.179,0,0,1,1.057-.495Zm-15.137,6.245v-.76h.365a2.749,2.749,0,0,0,1.652-.4,1.132,1.132,0,0,0,.53-.858.516.516,0,0,0-.3-.5,6.6,6.6,0,0,0-1.289-.165,8.407,8.407,0,0,1-.959-.034v-.989l.068.031a13.625,13.625,0,0,1,1.652.068,1.851,1.851,0,0,1,.958.428,1.487,1.487,0,0,1,.331.893,1.9,1.9,0,0,1-.662,1.356,3.516,3.516,0,0,1-2.347.925Zm0-4.693v-.3h.1a1,1,0,0,0,.76-.362,1.674,1.674,0,0,0,.33-1.156,2.833,2.833,0,0,0-.429-1.588.927.927,0,0,0-.762-.4v-.331h.033a2.256,2.256,0,0,1,1.421.431h1.521a.071.071,0,0,1,.068.064c.031.036.031.1.031.2a.444.444,0,0,1-.031.23.121.121,0,0,1-.068.033c-.034.034-.131.034-.3.034h-.76a1.855,1.855,0,0,1,.364,1.157,1.836,1.836,0,0,1-.627,1.42,2.349,2.349,0,0,1-1.622.563Zm5.155-7.171a.6.6,0,0,1,.463.2.539.539,0,0,1,.2.431.677.677,0,0,1-.662.659.573.573,0,0,1-.428-.2.59.59,0,0,1-.2-.462.678.678,0,0,1,.625-.627Zm.53,3.04v4.693a1.741,1.741,0,0,0,.1.726.374.374,0,0,0,.232.264.989.989,0,0,0,.527.1v.234H213.2v-.234a1.06,1.06,0,0,0,.561-.1.48.48,0,0,0,.232-.264,1.793,1.793,0,0,0,.1-.726v-2.249a8.07,8.07,0,0,0-.068-1.224.614.614,0,0,0-.131-.3.636.636,0,0,0-.266-.065,1.3,1.3,0,0,0-.428.1l-.067-.23,1.718-.726Zm6.444,3.8a3.056,3.056,0,0,1-.893,1.75,2.131,2.131,0,0,1-1.488.63,2.2,2.2,0,0,1-1.717-.827,3.693,3.693,0,0,1,.067-4.494,2.647,2.647,0,0,1,1.949-.859,2.134,2.134,0,0,1,1.387.462,1.247,1.247,0,0,1,.529.958.449.449,0,0,1-.131.364.514.514,0,0,1-.431.166.634.634,0,0,1-.56-.233.921.921,0,0,1-.134-.527.991.991,0,0,0-.264-.561.914.914,0,0,0-.594-.2,1.306,1.306,0,0,0-1.025.46,2.656,2.656,0,0,0-.5,1.655,3.435,3.435,0,0,0,.5,1.849,1.573,1.573,0,0,0,2.445.362,2.845,2.845,0,0,0,.694-1.057Zm-12.13-3.8v.331h-.065a.9.9,0,0,0-.76.362,1.617,1.617,0,0,0-.331,1.155,2.412,2.412,0,0,0,.431,1.554,1,1,0,0,0,.726.429v.3a2.785,2.785,0,0,1-.858-.131,1.857,1.857,0,0,0-.362.429.771.771,0,0,0-.1.3.3.3,0,0,0,.1.23.759.759,0,0,0,.4.131,4.415,4.415,0,0,0,.826.035v.989c-.495-.031-.891-.065-1.221-.1a2.277,2.277,0,0,0-.431.592,1.219,1.219,0,0,0-.165.529c0,.2.132.364.364.529a3.018,3.018,0,0,0,1.453.4v.76h-.2a3.732,3.732,0,0,1-2.05-.561.866.866,0,0,1-.463-.661.94.94,0,0,1,.067-.3,5.063,5.063,0,0,1,.429-.661c.033-.034.263-.265.661-.694a2.039,2.039,0,0,1-.462-.333.488.488,0,0,1-.134-.362,1.2,1.2,0,0,1,.166-.527,4.789,4.789,0,0,1,.824-.827,1.919,1.919,0,0,1-.793-.728,1.965,1.965,0,0,1-.3-1.056,2.052,2.052,0,0,1,.662-1.487,2.2,2.2,0,0,1,1.583-.628Zm-6.278,6.18v-.464c.067,0,.132.033.2.033a1.258,1.258,0,0,0,.991-.527,2.91,2.91,0,0,0,.4-1.753,4.125,4.125,0,0,0-.662-2.445,1.492,1.492,0,0,0-.925-.594v-.431h0a2.482,2.482,0,0,1,2.082,1.025,3.149,3.149,0,0,1,.662,1.947,3.972,3.972,0,0,1-.365,1.589,2.518,2.518,0,0,1-1.025,1.22,2.4,2.4,0,0,1-1.354.4Zm0-7.438v-1.586h1.322Zm0-1.586v1.586l-.529.628h-.23l.661-2.215Zm0,2.844V1579h-.2a1.258,1.258,0,0,0-.661.2,1.5,1.5,0,0,0-.561.693,3.485,3.485,0,0,0-.2,1.289,4.666,4.666,0,0,0,.495,2.213,1.556,1.556,0,0,0,1.123.892v.464h-.065a2.481,2.481,0,0,1-2.082-1.026,3.317,3.317,0,0,1-.628-2.015,3.525,3.525,0,0,1,.4-1.586,2.542,2.542,0,0,1,1.025-1.156,2.492,2.492,0,0,1,1.355-.4Zm-9.945,6.18v-.464c.065,0,.131.033.23.033a1.258,1.258,0,0,0,.991-.527,2.9,2.9,0,0,0,.4-1.753,4.115,4.115,0,0,0-.661-2.445,1.483,1.483,0,0,0-.956-.594v-.431h0a2.5,2.5,0,0,1,2.113,1.025,3.156,3.156,0,0,1,.661,1.947,3.97,3.97,0,0,1-.364,1.589,2.709,2.709,0,0,1-1.023,1.22,2.522,2.522,0,0,1-1.387.4Zm5.584-9.22v7.734a3.881,3.881,0,0,0,.033.726.525.525,0,0,0,.263.264,1.208,1.208,0,0,0,.594.1v.234h-2.774v-.234a1,1,0,0,0,.529-.1.383.383,0,0,0,.232-.264,1.792,1.792,0,0,0,.1-.726v-5.287a7.349,7.349,0,0,0-.068-1.224c-.031-.134-.064-.265-.131-.3a.3.3,0,0,0-.232-.1,1.157,1.157,0,0,0-.429.1l-.1-.2,1.718-.726Zm-5.584,3.04V1579h-.166a1.368,1.368,0,0,0-.694.2,1.46,1.46,0,0,0-.529.693,3.516,3.516,0,0,0-.2,1.289,4.666,4.666,0,0,0,.495,2.213,1.566,1.566,0,0,0,1.092.892v.464h-.068a2.422,2.422,0,0,1-2.048-1.026,3.316,3.316,0,0,1-.628-2.015,3.978,3.978,0,0,1,.362-1.586,2.6,2.6,0,0,1,1.059-1.156,2.39,2.39,0,0,1,1.323-.4Zm-18.277,6.18v-1.19a2.15,2.15,0,0,0,.76.163,1.446,1.446,0,0,0,.992-.33,2.466,2.466,0,0,0,.694-1.056l.2.131a3.229,3.229,0,0,1-.76,1.588,2.083,2.083,0,0,1-1.588.694Zm0-3.8v-.364h1.356a2.724,2.724,0,0,0-.132-.795,1.354,1.354,0,0,0-.5-.56,1.1,1.1,0,0,0-.627-.2h-.1v-.429a2.33,2.33,0,0,1,2.017.628,2.3,2.3,0,0,1,.628,1.718Zm8.262,1.421a3.047,3.047,0,0,1-.893,1.75,2.128,2.128,0,0,1-1.487.63,2.206,2.206,0,0,1-1.718-.827,3.4,3.4,0,0,1-.726-2.247,3.1,3.1,0,0,1,.826-2.247,2.531,2.531,0,0,1,1.916-.859,2.141,2.141,0,0,1,1.389.462,1.247,1.247,0,0,1,.529.958.45.45,0,0,1-.132.364.513.513,0,0,1-.429.166.635.635,0,0,1-.561-.233.932.932,0,0,1-.134-.527.982.982,0,0,0-.264-.561.85.85,0,0,0-.594-.2,1.306,1.306,0,0,0-1.025.46,2.656,2.656,0,0,0-.5,1.655,3.434,3.434,0,0,0,.5,1.849,1.539,1.539,0,0,0,1.354.792,1.6,1.6,0,0,0,1.123-.429,3.355,3.355,0,0,0,.662-1.057l.165.1Zm2.512-2.544a2.67,2.67,0,0,1,1.916-1.256,1.3,1.3,0,0,1,1.323,1.025,3.692,3.692,0,0,1,.132,1.19v2.479a2,2,0,0,0,.1.759.536.536,0,0,0,.232.232,1.139,1.139,0,0,0,.561.1v.234h-2.841v-.234h.132a.821.821,0,0,0,.561-.132.562.562,0,0,0,.2-.361,2.369,2.369,0,0,0,.031-.6v-2.379a2.514,2.514,0,0,0-.2-1.158.74.74,0,0,0-.694-.364,1.919,1.919,0,0,0-1.454.827v3.074a1.756,1.756,0,0,0,.067.726.384.384,0,0,0,.23.264,1.283,1.283,0,0,0,.628.1v.234h-2.841v-.234h.131c.3,0,.5-.065.6-.231a1.67,1.67,0,0,0,.132-.857v-2.148a10.236,10.236,0,0,0-.033-1.289,1.191,1.191,0,0,0-.132-.333.635.635,0,0,0-.264-.065,1.147,1.147,0,0,0-.429.1l-.1-.23,1.718-.726h.3Zm-10.774-1.224v.429a1.229,1.229,0,0,0-.826.4,1.982,1.982,0,0,0-.495,1.157h1.32v.364h-1.32a3.043,3.043,0,0,0,.627,2.05,3.527,3.527,0,0,0,.694.561v1.19a2.227,2.227,0,0,1-1.453-.793,3.08,3.08,0,0,1-.7-1.521v-1.422a3.155,3.155,0,0,1,.7-1.619,2.543,2.543,0,0,1,1.453-.793Zm-2.148-.627v-1.092l.034,1.092Zm0-1.092v1.092h-.2a2.7,2.7,0,0,0-.165-.762,1.48,1.48,0,0,0-.53-.562,2.108,2.108,0,0,0-.86-.165h-1.188v6.611a1.942,1.942,0,0,0,.165.991,1.031,1.031,0,0,0,.728.263h.3v.234h-3.567v-.234h.3a.924.924,0,0,0,.76-.329,1.927,1.927,0,0,0,.132-.924v-6.611h-1.025a2.466,2.466,0,0,0-.826.1.965.965,0,0,0-.561.465,1.813,1.813,0,0,0-.3.927h-.233l.1-2.017h6.939l.033.925Zm0,4.13a3.9,3.9,0,0,0,0,1.422v-1.422Zm-13.814,3.735v-.728a1.1,1.1,0,0,0,.33.034,1.47,1.47,0,0,0,1.092-.563v-3.009a1.987,1.987,0,0,0-.2-.79,1.294,1.294,0,0,0-.495-.53,1.271,1.271,0,0,0-.628-.2h-.1v-.4h.2a1.648,1.648,0,0,1,1.222.495v-1.089a9.859,9.859,0,0,0-.033-1.224c-.033-.134-.065-.265-.132-.3a.379.379,0,0,0-.264-.1,1.312,1.312,0,0,0-.429.1l-.067-.2,1.686-.726h.3v6.74a9.781,9.781,0,0,0,.034,1.256c.033.131.065.266.165.3a.3.3,0,0,0,.23.1,1.311,1.311,0,0,0,.431-.1l.1.233-1.718.694h-.3v-.827a2.637,2.637,0,0,1-.793.628A2.323,2.323,0,0,1,158.969,1584.751Zm0-6.18v.4a1.23,1.23,0,0,0-.858.495,2.868,2.868,0,0,0-.594,1.95,2.984,2.984,0,0,0,.561,1.95,1.676,1.676,0,0,0,.891.661v.728h-.232a2.142,2.142,0,0,1-1.65-.793,3.015,3.015,0,0,1-.7-2.05,3.871,3.871,0,0,1,.76-2.281,2.452,2.452,0,0,1,1.816-1.056Zm-6.113,5.948v-.561a3.155,3.155,0,0,0,1.057-.63v-2.211a9.345,9.345,0,0,0-1.057.462v-.429c.3-.134.661-.265,1.057-.431v-.233a1.741,1.741,0,0,0-.264-1.188.9.9,0,0,0-.793-.33h0v-.4h.2a2.83,2.83,0,0,1,1.257.265,1.112,1.112,0,0,1,.529.627,3.919,3.919,0,0,1,.1,1.125v1.984c0,.529.033.891.033,1.023.033.1.067.2.132.23a.239.239,0,0,0,.165.066.319.319,0,0,0,.165-.03,4.794,4.794,0,0,0,.5-.465v.33c-.462.662-.891.958-1.322.958a.67.67,0,0,1-.495-.2,1.161,1.161,0,0,1-.2-.76A11.458,11.458,0,0,1,152.856,1584.52Zm0-5.948v.4a.819.819,0,0,0-.628.232.591.591,0,0,0-.23.5v.361a.553.553,0,0,1-.132.429.438.438,0,0,1-.4.166.414.414,0,0,1-.362-.166.619.619,0,0,1-.166-.429,1.359,1.359,0,0,1,.563-1.023,2.365,2.365,0,0,1,1.355-.462Zm0,2.578v.429c-.065.033-.1.033-.165.065a2.189,2.189,0,0,0-.694.593,1.2,1.2,0,0,0-.2.662,1.023,1.023,0,0,0,.264.759.745.745,0,0,0,.6.3h.2v.561l-.033.033a1.8,1.8,0,0,1-.728.165,1.371,1.371,0,0,1-.991-.429,1.609,1.609,0,0,1-.364-1.093,1.262,1.262,0,0,1,.2-.725,2.6,2.6,0,0,1,.86-.826,8.176,8.176,0,0,1,1.057-.495Zm-5.979,3.6v-.728a1.308,1.308,0,0,0,.362.034,1.59,1.59,0,0,0,1.09-.563v-3.009a2.005,2.005,0,0,0-.232-.79,1.284,1.284,0,0,0-.495-.53,1.072,1.072,0,0,0-.6-.2h-.131v-.4h.2a1.725,1.725,0,0,1,1.255.495v-1.089a7.687,7.687,0,0,0-.065-1.224c-.034-.134-.067-.265-.134-.3a.376.376,0,0,0-.264-.1,1.5,1.5,0,0,0-.429.1l-.065-.2,1.717-.726h.266v6.74c0,.695.033,1.092.033,1.256a.5.5,0,0,0,.166.3.352.352,0,0,0,.23.1,1.466,1.466,0,0,0,.462-.1l.067.233-1.686.694h-.3v-.827a3.248,3.248,0,0,1-.826.628A2.027,2.027,0,0,1,146.877,1584.751Zm0-6.18v.4a1.378,1.378,0,0,0-.861.495,3.053,3.053,0,0,0-.561,1.95,2.986,2.986,0,0,0,.529,1.95,1.955,1.955,0,0,0,.894.661v.728h-.233a2.145,2.145,0,0,1-1.652-.793,3.014,3.014,0,0,1-.694-2.05,3.685,3.685,0,0,1,.792-2.281,2.343,2.343,0,0,1,1.787-1.056Zm-18.806,6.18v-1.19a2.15,2.15,0,0,0,.76.163,1.445,1.445,0,0,0,.991-.33,2.441,2.441,0,0,0,.7-1.056l.2.131a3.229,3.229,0,0,1-.76,1.588,2.083,2.083,0,0,1-1.586.694Zm0-3.8v-.364h1.322a1.482,1.482,0,0,0-.132-.795,1.223,1.223,0,0,0-1.089-.759h-.1v-.429a2.329,2.329,0,0,1,2.017.628,2.3,2.3,0,0,1,.628,1.718Zm5.09-2.379v1.322c.463-.891.958-1.322,1.454-1.322a.8.8,0,0,1,.594.229.682.682,0,0,1,.2.5.53.53,0,0,1-.132.4.57.57,0,0,1-.4.2.872.872,0,0,1-.5-.23,1.29,1.29,0,0,0-.4-.233c-.1,0-.165.065-.264.132a3.464,3.464,0,0,0-.561.858v2.81a2.122,2.122,0,0,0,.1.728.772.772,0,0,0,.3.263.991.991,0,0,0,.594.132v.234h-2.941v-.234a1.158,1.158,0,0,0,.661-.132.833.833,0,0,0,.232-.331c0-.066.033-.3.033-.625v-2.249a6.856,6.856,0,0,0-.067-1.224.3.3,0,0,0-.131-.264.378.378,0,0,0-.264-.1,1.31,1.31,0,0,0-.463.1l-.065-.23,1.753-.726Zm6.279,0v1.981h-.2a2.436,2.436,0,0,0-.628-1.255,1.273,1.273,0,0,0-.925-.33,1.06,1.06,0,0,0-.726.232.733.733,0,0,0-.264.527.92.92,0,0,0,.2.6,2.484,2.484,0,0,0,.793.563l.925.429a1.93,1.93,0,0,1,1.256,1.686,1.6,1.6,0,0,1-.594,1.288,2.14,2.14,0,0,1-1.322.464,4.521,4.521,0,0,1-1.191-.2,1.385,1.385,0,0,0-.331-.033c-.1,0-.163.033-.23.163H136V1582.6h.2a2.208,2.208,0,0,0,.661,1.322,1.635,1.635,0,0,0,1.123.463,1.067,1.067,0,0,0,.7-.266.85.85,0,0,0,.264-.627.974.974,0,0,0-.3-.728,4.678,4.678,0,0,0-1.222-.759,4,4,0,0,1-1.19-.826,1.547,1.547,0,0,1-.264-.927,1.626,1.626,0,0,1,.5-1.19,1.6,1.6,0,0,1,1.222-.495,2.761,2.761,0,0,1,.827.166,2.447,2.447,0,0,0,.429.1.263.263,0,0,0,.165-.067,1.668,1.668,0,0,0,.132-.2Zm2.742-3.04a.678.678,0,0,1,.628.627.6.6,0,0,1-.2.462.531.531,0,0,1-.431.2.645.645,0,0,1-.462-.2.709.709,0,0,1-.165-.462.512.512,0,0,1,.165-.431.6.6,0,0,1,.462-.2Zm.529,3.04v4.693a1.935,1.935,0,0,0,.067.726.657.657,0,0,0,.23.264,1.154,1.154,0,0,0,.563.1v.234h-2.777v-.234a1.146,1.146,0,0,0,.563-.1.485.485,0,0,0,.232-.264,3.164,3.164,0,0,0,.065-.726v-2.249a10.57,10.57,0,0,0-.033-1.224.649.649,0,0,0-.166-.3.473.473,0,0,0-.23-.065,1.16,1.16,0,0,0-.431.1l-.1-.23,1.718-.726Zm-36.814-2.381v-.23H108.9v.23h-.33a.813.813,0,0,0-.76.429,1.851,1.851,0,0,0-.132.926v3.469a6.173,6.173,0,0,1-.264,2.016,2.558,2.558,0,0,1-.992,1.256,4.464,4.464,0,0,1-4.1,0,2.538,2.538,0,0,1-1.025-1.322,7.346,7.346,0,0,1-.2-2.115v-3.37a1.607,1.607,0,0,0-.232-1.059.838.838,0,0,0-.694-.231h-.331v-.23h3.67v.23h-.331a.777.777,0,0,0-.728.331,1.983,1.983,0,0,0-.165.959v3.768a7.881,7.881,0,0,0,.1,1.154,2.319,2.319,0,0,0,.33.992,1.3,1.3,0,0,0,.661.6,2.282,2.282,0,0,0,1.124.23,2.944,2.944,0,0,0,1.487-.361,2.023,2.023,0,0,0,.893-.928,5.625,5.625,0,0,0,.232-1.95v-3.5a2.121,2.121,0,0,0-.165-1.026,1.031,1.031,0,0,0-.726-.264Zm22.174,2.413v.429a1.229,1.229,0,0,0-.826.4,1.973,1.973,0,0,0-.495,1.157h1.32v.364h-1.32a3.043,3.043,0,0,0,.627,2.05,3.484,3.484,0,0,0,.694.561v1.19a2.237,2.237,0,0,1-1.454-.793,3.225,3.225,0,0,1-.76-2.216,3.457,3.457,0,0,1,.76-2.345,2.556,2.556,0,0,1,1.454-.793Zm-16.951,1.224a2.668,2.668,0,0,1,1.914-1.256,1.293,1.293,0,0,1,1.323,1.025,3.494,3.494,0,0,1,.165,1.19v2.479a2.2,2.2,0,0,0,.065.759.822.822,0,0,0,.232.232,1.15,1.15,0,0,0,.563.1v.234H112.54v-.234h.131a.826.826,0,0,0,.563-.132.766.766,0,0,0,.232-.361v-2.975a2.511,2.511,0,0,0-.2-1.158.74.74,0,0,0-.694-.364,2.021,2.021,0,0,0-1.453.827v3.074a1.833,1.833,0,0,0,.064.726.384.384,0,0,0,.233.264,1.268,1.268,0,0,0,.627.1v.234H109.2v-.234h.134c.3,0,.495-.065.594-.231a1.67,1.67,0,0,0,.132-.857v-2.148a10.243,10.243,0,0,0-.033-1.289.638.638,0,0,0-.132-.333.63.63,0,0,0-.266-.065,1.159,1.159,0,0,0-.429.1l-.1-.23,1.751-.726h.266v1.256Zm6.18-4.3a.681.681,0,0,1,.627.627.592.592,0,0,1-.2.462.527.527,0,0,1-.428.2.649.649,0,0,1-.465-.2.717.717,0,0,1-.165-.462.512.512,0,0,1,.165-.431.609.609,0,0,1,.465-.2Zm.527,3.04v4.693a1.977,1.977,0,0,0,.065.726.638.638,0,0,0,.232.264,1.143,1.143,0,0,0,.561.1v.234H115.91v-.234a1.139,1.139,0,0,0,.561-.1c.1-.034.165-.134.232-.264a3.055,3.055,0,0,0,.067-.726v-2.249a10.572,10.572,0,0,0-.033-1.224.677.677,0,0,0-.166-.3.478.478,0,0,0-.23-.065,1.153,1.153,0,0,0-.431.1l-.1-.23,1.718-.726Zm1.289.166h2.675V1579h-.163a.52.52,0,0,0-.364.1.417.417,0,0,0-.132.328,1.133,1.133,0,0,0,.132.53l1.322,3.2,1.32-3.336a1.545,1.545,0,0,0,.166-.53.172.172,0,0,0-.067-.132c-.033-.064-.1-.132-.163-.132a1.457,1.457,0,0,0-.431-.031v-.265h1.851V1579c-.2,0-.362.031-.429.131a1.289,1.289,0,0,0-.4.628l-2.05,4.99h-.23l-2.05-4.924a3.244,3.244,0,0,0-.264-.5,1.144,1.144,0,0,0-.331-.229,1.437,1.437,0,0,0-.4-.1Z" transform="translate(-99.849 -1575.531)" fill="#fff"/>
          <path id="Trazado_34" data-name="Trazado 34" d="M239.1,1584.751v-.464c.065,0,.131.033.232.033a1.258,1.258,0,0,0,.991-.527,2.913,2.913,0,0,0,.4-1.753,4.125,4.125,0,0,0-.659-2.445,1.482,1.482,0,0,0-.958-.594v-.431h0a2.5,2.5,0,0,1,2.115,1.025,3.147,3.147,0,0,1,.661,1.947,3.993,3.993,0,0,1-.362,1.589,2.714,2.714,0,0,1-1.026,1.22A2.515,2.515,0,0,1,239.1,1584.751Zm0-6.18V1579h-.166a1.363,1.363,0,0,0-.692.2,1.46,1.46,0,0,0-.529.693,3.513,3.513,0,0,0-.2,1.289,4.649,4.649,0,0,0,.5,2.213,1.569,1.569,0,0,0,1.09.892v.464h-.067a2.419,2.419,0,0,1-2.048-1.026,3.307,3.307,0,0,1-.628-2.015,3.955,3.955,0,0,1,.364-1.586,2.592,2.592,0,0,1,1.057-1.156,2.382,2.382,0,0,1,1.322-.4Zm-21.81,6.18v-1.19a2,2,0,0,0,.76.163,1.566,1.566,0,0,0,.991-.33,2.44,2.44,0,0,0,.694-1.056l.165.131a2.957,2.957,0,0,1-.759,1.588,1.967,1.967,0,0,1-1.553.694Zm0-3.8v-.364h1.322a2.777,2.777,0,0,0-.132-.795,1.285,1.285,0,0,0-.465-.56,1.2,1.2,0,0,0-.659-.2h-.065v-.429a1.761,1.761,0,0,1,.429-.033,2.165,2.165,0,0,1,1.588.661,2.421,2.421,0,0,1,.593,1.718Zm0-3.239v-1.126l.264-.858h1.387l-1.652,1.984Zm3.172,1.026h2.676V1579c-.165,0-.3,0-.365.064a.3.3,0,0,0-.1.232,1.016,1.016,0,0,0,.23.495,2.407,2.407,0,0,0,.2.3l.4.659.463-.659a2.1,2.1,0,0,0,.463-.795.36.36,0,0,0-.1-.232.889.889,0,0,0-.362-.064v-.265h1.952V1579a.915.915,0,0,0-.53.163,4.074,4.074,0,0,0-.826.927l-.795,1.057,1.423,2.115a4.459,4.459,0,0,0,.759.922.935.935,0,0,0,.561.166v.234h-2.676v-.234a.6.6,0,0,0,.429-.132.3.3,0,0,0,.1-.23,2.228,2.228,0,0,0-.4-.726l-.826-1.257-.925,1.257a2.994,2.994,0,0,0-.429.659c0,.134.065.2.165.3a.617.617,0,0,0,.4.132v.234h-1.851v-.234a.984.984,0,0,0,.4-.166,5.383,5.383,0,0,0,.793-.922l1.19-1.62-1.09-1.62a3.105,3.105,0,0,0-.694-.859,1,1,0,0,0-.628-.163v-.265Zm8.063-3.206a.6.6,0,0,1,.462.2.512.512,0,0,1,.165.431.572.572,0,0,1-.165.462.594.594,0,0,1-.462.2.524.524,0,0,1-.429-.2.6.6,0,0,1-.2-.462.537.537,0,0,1,.2-.431.532.532,0,0,1,.429-.2Zm.529,3.04v4.693a3.163,3.163,0,0,0,.065.726.649.649,0,0,0,.232.264,1.143,1.143,0,0,0,.561.1v.234h-2.774v-.234a1.06,1.06,0,0,0,.561-.1.478.478,0,0,0,.23-.264,1.8,1.8,0,0,0,.1-.726v-2.249a8.744,8.744,0,0,0-.064-1.224.643.643,0,0,0-.132-.3.635.635,0,0,0-.264-.065,1.146,1.146,0,0,0-.429.1l-.1-.23,1.753-.726Zm6.444,3.8a3.285,3.285,0,0,1-.893,1.75,2.14,2.14,0,0,1-3.207-.2,3.7,3.7,0,0,1,.067-4.494,2.6,2.6,0,0,1,1.952-.859,2.136,2.136,0,0,1,1.386.462,1.247,1.247,0,0,1,.529.958.384.384,0,0,1-.165.364.475.475,0,0,1-.429.166.578.578,0,0,1-.529-.233.9.9,0,0,1-.166-.527.789.789,0,0,0-.23-.561.946.946,0,0,0-.628-.2,1.285,1.285,0,0,0-.991.46,2.656,2.656,0,0,0-.5,1.655,3.434,3.434,0,0,0,.5,1.849,1.537,1.537,0,0,0,1.353.792,1.584,1.584,0,0,0,1.093-.429,2.535,2.535,0,0,0,.661-1.057Zm-18.209-5.786v1.126l-.2.23h-.2l.4-1.356Zm0,2.018v.429a1.3,1.3,0,0,0-.86.4,1.779,1.779,0,0,0-.463,1.157h1.323v.364h-1.323a3.218,3.218,0,0,0,.6,2.05,2.873,2.873,0,0,0,.728.561v1.19a2.4,2.4,0,0,1-1.49-.793,3.208,3.208,0,0,1-.725-2.216,3.287,3.287,0,0,1,.76-2.345,2.546,2.546,0,0,1,1.454-.793Zm-20.258,6.147v-1.19a1.886,1.886,0,0,0,.76.163,1.425,1.425,0,0,0,.959-.33,2,2,0,0,0,.692-1.056l.2.131a2.978,2.978,0,0,1-.759,1.588,2.086,2.086,0,0,1-1.588.694Zm0-3.8v-.364h1.323a2.777,2.777,0,0,0-.132-.795,1.282,1.282,0,0,0-.463-.56,1.3,1.3,0,0,0-.662-.2h-.065v-.429a1.762,1.762,0,0,1,.429-.033,2.159,2.159,0,0,1,1.586.661,2.416,2.416,0,0,1,.6,1.718Zm11.435,3.636-3.3-7.273v5.786a1.573,1.573,0,0,0,.2.991.929.929,0,0,0,.728.263h.3v.234h-2.941v-.234h.3a.973.973,0,0,0,.76-.329,2.445,2.445,0,0,0,.131-.924v-5.653a1.708,1.708,0,0,0-.131-.827.591.591,0,0,0-.331-.3,1.348,1.348,0,0,0-.726-.134v-.23h2.378l3.076,6.741,3.04-6.741h2.378v.23h-.3a.836.836,0,0,0-.76.331,1.823,1.823,0,0,0-.134.925v5.653a1.954,1.954,0,0,0,.166.991.976.976,0,0,0,.728.263h.3v.234h-3.6v-.234h.3a1,1,0,0,0,.8-.329,2.5,2.5,0,0,0,.132-.924v-5.786l-3.273,7.273Zm-16.092-.662a2.76,2.76,0,0,1-.829.628,2.127,2.127,0,0,1-.594.2v-.728a.994.994,0,0,0,.331.034,1.593,1.593,0,0,0,1.092-.563v-3.009a2.03,2.03,0,0,0-.233-.79,1.275,1.275,0,0,0-.495-.53,1.072,1.072,0,0,0-.6-.2h-.1v-.4h.165a1.734,1.734,0,0,1,1.258.495v-1.089a9.438,9.438,0,0,0-.034-1.224.51.51,0,0,0-.166-.3.3.3,0,0,0-.23-.1,1.164,1.164,0,0,0-.431.1l-.1-.2,1.718-.726h.264v6.74a7.914,7.914,0,0,0,.065,1.256c.033.131.067.266.132.3a.361.361,0,0,0,.232.1,1.319,1.319,0,0,0,.463-.1l.065.233-1.686.694h-.3v-.827Zm4.658-5.32v.429a1.3,1.3,0,0,0-.858.4,1.763,1.763,0,0,0-.462,1.157h1.32v.364h-1.32a3.026,3.026,0,0,0,.594,2.05,2.867,2.867,0,0,0,.726.561v1.19a2.307,2.307,0,0,1-1.487-.793,3.2,3.2,0,0,1-.726-2.216,3.439,3.439,0,0,1,.726-2.345A2.638,2.638,0,0,1,197.03,1578.6Zm-6.08,6.147h-.264a2.084,2.084,0,0,1-1.619-.793,3.034,3.034,0,0,1-.728-2.05,3.679,3.679,0,0,1,.795-2.281,2.394,2.394,0,0,1,1.816-1.056v.4a1.363,1.363,0,0,0-.891.495,3.045,3.045,0,0,0-.563,1.95,2.984,2.984,0,0,0,.563,1.95,1.67,1.67,0,0,0,.891.661Z" transform="translate(-56.913 -1575.531)" fill="#fff"/>
        </g>
      </g>
      <rect id="Rectángulo_9" data-name="Rectángulo 9" width="185.785" height="2.698" transform="translate(0 52.739)" fill="#fff"/>
    </g>
  </g>
</svg>
