<svg xmlns="http://www.w3.org/2000/svg" width="50" height="50" viewBox="0 0 50 50">
  <g id="Grupo_2012" data-name="Grupo 2012" transform="translate(-231.462 -2807.222)">
    <circle id="Elipse_24" data-name="Elipse 24" cx="25" cy="25" r="25" transform="translate(231.462 2807.222)" fill="#bbdfdc"/>
    <g id="Grupo_53" data-name="Grupo 53" transform="translate(242.399 2822.3)">
      <path id="Trazado_188" data-name="Trazado 188" d="M170.839,2820.987c.194-2.681.692-5.45,4.158-5.65a173.6,173.6,0,0,1,19.51,0c3.467.2,3.962,2.969,4.156,5.65a52.846,52.846,0,0,1,0,8c-.194,2.679-.688,5.45-4.156,5.648a173.827,173.827,0,0,1-19.51,0c-3.465-.2-3.963-2.969-4.158-5.648a52.846,52.846,0,0,1,0-8Zm11.042-.244v7.894l7.531-3.944-7.531-3.95Z" transform="translate(-170.687 -2815.063)" fill="#1d4a60" fill-rule="evenodd"/>
      <path id="Trazado_189" data-name="Trazado 189" d="M176.508,2818.016l7.53,3.951-.978.511-6.551-4.379v-.083Z" transform="translate(-165.314 -2812.336)" fill="#1d4a60" fill-rule="evenodd"/>
    </g>
  </g>
</svg>
