<svg xmlns="http://www.w3.org/2000/svg" width="460" height="168.912" viewBox="0 0 460 168.912">
  <g id="Grupo_1998" data-name="Grupo 1998" transform="translate(-5 -693.3)">
    <path id="Trazado_1" data-name="Trazado 1" d="M45.452,693.3h66.056l-2.208,8.648H66.612l-9.2,36.064,32.384-1.1-2.576,9.016L55.2,745.74l-9.568,41.584,44.528-1.1L87.22,796.34H21.9Z" transform="translate(14.196)" fill="#fff"/>
    <path id="Trazado_2" data-name="Trazado 2" d="M151.128,698.8H138.616L94.272,735.784l8.648-36.432H85.072L65.2,780.5H83.6l9.936-41.584L117.272,780.5l20.976-.736-28.336-45.448Z" transform="translate(50.568 4.62)" fill="#fff"/>
    <path id="Trazado_3" data-name="Trazado 3" d="M179.576,709.392l2.576-8.28A60.858,60.858,0,0,0,162.28,697.8c-31.1,0-58.88,23.368-58.88,50.968,0,33.856,34.776,33.3,39.744,33.3a155.063,155.063,0,0,0,20.608-3.312l1.84-12.328a77.759,77.759,0,0,1-19.5,2.576c-11.776,0-23.92-4.784-23.92-20.608s18.4-43.608,41.032-43.608A29.1,29.1,0,0,1,179.576,709.392Z" transform="translate(82.656 3.78)" fill="#fff"/>
    <path id="Trazado_4" data-name="Trazado 4" d="M196.12,697.616a52.069,52.069,0,0,0-47.656,27.416C141.84,736.624,140,745.272,140,752.816c0,9.016,5.52,29.624,36.432,29.624A55.562,55.562,0,0,0,219.3,762.2a57.115,57.115,0,0,0,11.776-35.328C231.08,701.664,208.632,697.616,196.12,697.616Zm-19.32,75.44c-24.288.368-19.136-25.208-17.664-31.1,1.472-5.7,9.752-37.352,37.536-37.352,2.208,0,19.5.552,18.768,18.768-.92,20.24-12.144,49.312-38.64,49.68Z" transform="translate(113.4 3.596)" fill="#fff"/>
    <g id="Grupo_2" data-name="Grupo 2" transform="translate(354.149 705.746)">
      <path id="Trazado_5" data-name="Trazado 5" d="M203.035,700.064a8.28,8.28,0,1,0,8.28,8.28h0a8.246,8.246,0,0,0-8.28-8.28Zm0,14.72a6.6,6.6,0,0,1-6.624-6.624,6.716,6.716,0,0,1,6.624-6.624,6.6,6.6,0,0,1,6.624,6.624h0a6.6,6.6,0,0,1-6.624,6.624Z" transform="translate(-194.755 -700.064)" fill="#fff"/>
      <path id="Trazado_6" data-name="Trazado 6" d="M202.339,707.116a2.607,2.607,0,0,0,1.656-3.312,2.8,2.8,0,0,0-2.392-1.84h-4.048v9.568h1.656v-3.864h1.656c1.656,0,1.472,4.048,1.472,4.048h2.024a6.493,6.493,0,0,1-.552-2.576A2.344,2.344,0,0,0,202.339,707.116Zm-1.84-.736h-1.288v-2.76H200.5a1.407,1.407,0,0,1,.552,2.76Z" transform="translate(-192.403 -698.468)" fill="#fff"/>
    </g>
    <path id="Trazado_7" data-name="Trazado 7" d="M5,763.116S32.784,772.5,87.984,772.5c79.672,0,105.616-18.032,158.424-18.032,68.264,0,96.968,7.544,123.1,13.432,0,0-48.392-18.4-123.1-18.4-57.224,0-94.024,18.952-157.136,18.952C29.84,768.268,5,763.116,5,763.116Z" transform="translate(0 47.208)" fill="#fff"/>
    <path id="Trazado_8" data-name="Trazado 8" d="M108.612,769.2H95.18L91.5,797.168h6.256l1.472-11.04h7.728a9.087,9.087,0,0,0,8.832-7.728l.184-1.472A6.969,6.969,0,0,0,109.9,769.2Zm.552,8.464-.184.552a4.751,4.751,0,0,1-4.6,3.128h-4.6l.92-6.808h4.968c2.208.184,3.864,1.472,3.5,3.128Z" transform="translate(72.66 63.756)" fill="#d1c388"/>
    <path id="Trazado_9" data-name="Trazado 9" d="M123.612,769.2H110.18l-3.68,27.968h6.256l1.472-11.04h3.128l4.232,11.04h7.728l-5.152-11.408a9.089,9.089,0,0,0,6.624-7.36l.184-1.472A6.969,6.969,0,0,0,124.9,769.2Zm.736,8.464-.184.552a4.751,4.751,0,0,1-4.6,3.128H114.78l.92-6.808h4.968c2.208.184,3.864,1.472,3.68,3.128Z" transform="translate(85.26 63.756)" fill="#d1c388"/>
    <path id="Trazado_10" data-name="Trazado 10" d="M176.912,769.2H163.48l-3.68,27.968h6.256l1.472-11.04h3.128l4.232,11.04h7.728l-5.152-11.408a9.089,9.089,0,0,0,6.624-7.36l.184-1.472A6.969,6.969,0,0,0,178.2,769.2Zm.552,8.464-.184.552a4.751,4.751,0,0,1-4.6,3.128H167.9l.92-6.808h4.968c2.208.184,4.048,1.472,3.68,3.128Z" transform="translate(130.032 63.756)" fill="#d1c388"/>
    <path id="Trazado_11" data-name="Trazado 11" d="M140,768.9a18.341,18.341,0,0,0-18.032,14.9,12.884,12.884,0,0,0,10.672,14.72,13.929,13.929,0,0,0,2.76.184,18.341,18.341,0,0,0,18.032-14.9,12.884,12.884,0,0,0-10.672-14.72A14.878,14.878,0,0,0,140,768.9Zm-3.68,23.92a7.821,7.821,0,0,1-8.1-7.544,5.094,5.094,0,0,1,.184-1.656,11.166,11.166,0,0,1,10.488-9.2,7.821,7.821,0,0,1,8.1,7.544,5.1,5.1,0,0,1-.184,1.656,10.854,10.854,0,0,1-10.488,9.2Z" transform="translate(98.124 63.504)" fill="#d1c388"/>
    <path id="Trazado_12" data-name="Trazado 12" d="M170,781.028H158.775l-1.288,6.072h5.152l-.368,3.68A10.038,10.038,0,0,1,156.2,792.8a7.821,7.821,0,0,1-8.1-7.544,5.094,5.094,0,0,1,.184-1.656,11.166,11.166,0,0,1,10.488-9.2,7.385,7.385,0,0,1,6.44,3.128l5.336-5.336a17.952,17.952,0,0,0-11.04-3.5,18.341,18.341,0,0,0-18.032,14.9c-1.288,8.28,4.784,14.9,13.616,14.9a21.989,21.989,0,0,0,12.7-2.944Z" transform="translate(114.497 63.336)" fill="#d1c388"/>
    <path id="Trazado_13" data-name="Trazado 13" d="M197.732,774.82l1.1-5.52H178.964L175.1,797.452h20.056l1.1-5.52h-13.8l.736-5.888h12.328l.92-5.52H184.116l.736-5.52h12.88Z" transform="translate(142.884 63.84)" fill="#d1c388"/>
    <path id="Trazado_14" data-name="Trazado 14" d="M264.732,774.82l1.1-5.52H245.964L242.1,797.452h20.056l1.1-5.52H249.276l.736-5.888H262.34l.92-5.52H250.748l.736-5.52h13.248Z" transform="translate(199.164 63.84)" fill="#d1c388"/>
    <path id="Trazado_15" data-name="Trazado 15" d="M209.692,784.181a6.239,6.239,0,0,1,1.288,5.336c-.92,4.968-6.808,9.016-13.248,9.016a10.824,10.824,0,0,1-8.832-3.68l5.336-5.152a5.559,5.559,0,0,0,3.5,2.576,5.976,5.976,0,0,0,6.624-1.656c.736-1.288-.184-2.944-1.84-3.68a21.514,21.514,0,0,0-3.68-.92h0a.642.642,0,0,1-.368-.184,16.314,16.314,0,0,1-3.128-1.472,7.026,7.026,0,0,1-1.656-1.656,6.12,6.12,0,0,1-1.1-4.968c.92-4.784,6.624-8.832,12.88-8.832a10.648,10.648,0,0,1,7.912,2.944l-4.968,4.968a3.841,3.841,0,0,0-3.864-2.208,5.217,5.217,0,0,0-5.152,3.128,2.189,2.189,0,0,0,.736,2.024,49.719,49.719,0,0,0,7.36,2.576A16.565,16.565,0,0,1,209.692,784.181Z" transform="translate(154.476 63.495)" fill="#d1c388"/>
    <path id="Trazado_16" data-name="Trazado 16" d="M223.492,784.181a6.239,6.239,0,0,1,1.288,5.336c-.92,4.968-6.808,9.016-13.248,9.016a10.824,10.824,0,0,1-8.832-3.68l5.336-5.152a5.559,5.559,0,0,0,3.5,2.576,5.976,5.976,0,0,0,6.624-1.656c.736-1.288-.184-2.944-1.84-3.68a21.514,21.514,0,0,0-3.68-.92h0a.642.642,0,0,1-.368-.184,16.314,16.314,0,0,1-3.128-1.472,7.027,7.027,0,0,1-1.656-1.656,6.12,6.12,0,0,1-1.1-4.968c.92-4.784,6.624-8.832,12.88-8.832a10.648,10.648,0,0,1,7.912,2.944l-4.968,4.968a3.841,3.841,0,0,0-3.864-2.208,5.217,5.217,0,0,0-5.152,3.128,2.189,2.189,0,0,0,.736,2.024,49.718,49.718,0,0,0,7.36,2.576A9.756,9.756,0,0,1,223.492,784.181Z" transform="translate(166.068 63.495)" fill="#d1c388"/>
    <path id="Trazado_17" data-name="Trazado 17" d="M227.888,769.2h-6.624L217.4,797.536h6.624Z" transform="translate(178.416 63.756)" fill="#d1c388"/>
    <path id="Trazado_18" data-name="Trazado 18" d="M254.4,769.3l-14.9,26.128-1.1,2.024h-5.152l-.368-1.1L225.7,769.3h7.544l4.232,18.032,9.2-18.032Z" transform="translate(185.388 63.84)" fill="#d1c388"/>
  </g>
</svg>
