<svg xmlns="http://www.w3.org/2000/svg" width="150" height="150" viewBox="0 0 150 150"><ellipse cx="75" cy="75" rx="75" ry="75" transform="translate(0 0)" fill="#dc1b1c"/><path d="M287.167,327.613H258.259c-.147-.043-.283-.1-.431-.13-.235-.033-.477-.045-.718-.06a23.4,23.4,0,0,1-4.039-.706,25.458,25.458,0,0,1-11.672-6.773,25.076,25.076,0,0,1-6.79-12.551c-.252-1.16-.359-2.348-.535-3.521-.029-.151-.1-.3-.142-.452V300.6c.153-.126.142-.309.153-.479a23.077,23.077,0,0,1,.6-4.068,25.8,25.8,0,0,1,17.519-18.629,26.424,26.424,0,0,1,5.776-1.026,25.642,25.642,0,0,1,5.077.169,1.264,1.264,0,0,0,1.189-.407,29.679,29.679,0,0,1,8.061-5.776,28.479,28.479,0,0,1,7.373-2.474c1-.182,2-.324,3.009-.442.712-.085,1.438-.118,2.155-.146.572-.027,1.149,0,1.725,0a3.815,3.815,0,0,1,.454.019c.706.074,1.414.165,2.121.239a25.648,25.648,0,0,1,3.122.493,29.1,29.1,0,0,1,8.833,3.552,30.048,30.048,0,0,1,12.19,13.988,28.974,28.974,0,0,1,2.318,9.743,1.315,1.315,0,0,0,.072.276v3.4a.547.547,0,0,0-.072.177c-.047.489-.081.972-.14,1.467a29.993,29.993,0,0,1-.543,3.543,29.216,29.216,0,0,1-4.228,9.819,30.045,30.045,0,0,1-14.487,11.581,25.442,25.442,0,0,1-4.8,1.35c-1.209.2-2.439.334-3.651.506C287.555,327.51,287.367,327.57,287.167,327.613Zm-17.184-48.922c.136.087.225.155.318.206.4.213.8.411,1.184.629a29.419,29.419,0,0,1,3.234,2.053.589.589,0,0,0,.747.027,1.483,1.483,0,0,1,.136-.085,21.117,21.117,0,0,1,2.578-1.352,18.118,18.118,0,0,1,7.326-1.506,19.67,19.67,0,0,1,3.6.363,18.381,18.381,0,0,1,6.395,2.462,19.6,19.6,0,0,1,6.672,7.128,17.075,17.075,0,0,1,2.243,8.362,20.519,20.519,0,0,1-1.919,8.771,19.294,19.294,0,0,1-6.872,7.761,16.728,16.728,0,0,1-6.886,2.666,19.2,19.2,0,0,1-4.033.208,21.408,21.408,0,0,1-3.626-.489,17.027,17.027,0,0,1-7.3-3.626c-.83-.7-1.6-1.478-2.361-2.245q-5.125-5.122-10.236-10.254c-.177-.178-.365-.347-.547-.5a2.668,2.668,0,0,0-2.833-.365,2.733,2.733,0,0,0-.854,4.55c.631.613,1.244,1.22,1.866,1.833q5.247,5.2,10.506,10.391a20.389,20.389,0,0,0,6.272,4.3,24.711,24.711,0,0,0,9.976,2,23.972,23.972,0,0,0,5.341-.621,24.444,24.444,0,0,0,16.84-13.721,24.2,24.2,0,0,0,2.173-8.833,23.819,23.819,0,0,0-.524-6.5,24.239,24.239,0,0,0-2.767-7.192,25.263,25.263,0,0,0-5.006-5.966,23.25,23.25,0,0,0-9.658-5.256,25.186,25.186,0,0,0-5.359-.788,24.913,24.913,0,0,0-5.842.407,24.148,24.148,0,0,0-10.477,4.924C270.2,278.51,270.119,278.586,269.984,278.691Zm-2.043,43.2a.5.5,0,0,1,.041-.109c-.087-.07-.165-.128-.252-.2q-1.467-1.388-2.951-2.778c-.741-.706-1.484-1.414-2.22-2.122a1.508,1.508,0,0,0-1.178-.464c-.5.023-1,.021-1.5.017a15.534,15.534,0,0,1-3.57-.365,14.391,14.391,0,0,1-10.77-16.695,13.486,13.486,0,0,1,4.245-7.57,14.031,14.031,0,0,1,12.361-3.673,13.831,13.831,0,0,1,7.745,4.1c2.59,2.641,5.211,5.242,7.819,7.867a2.53,2.53,0,0,0,2.54.716,2.664,2.664,0,0,0,2.142-2.448,2.514,2.514,0,0,0-.782-2.068c-.59-.605-1.189-1.209-1.779-1.826-2.144-2.186-4.28-4.385-6.513-6.478a22.362,22.362,0,0,0-4.369-3.256,17.85,17.85,0,0,0-8.622-2.377,21.346,21.346,0,0,0-6.218.854,19.608,19.608,0,0,0-14.221,17.418,19.2,19.2,0,0,0,.382,5.654,19.842,19.842,0,0,0,19.493,15.806c2.538.008,5.081,0,7.621,0Z" transform="translate(-199.807 -222.463)" fill="#fff"/></svg>