<svg xmlns="http://www.w3.org/2000/svg" width="150" height="150" viewBox="0 0 150 150"><path d="M291.343,604.7a75,75,0,1,1,75-75A75.087,75.087,0,0,1,291.343,604.7Z" transform="translate(-216.343 -454.705)" fill="#fff"/><g transform="translate(37.856 35.269)"><g transform="translate(4.581 0)"><rect width="18.559" height="55.821" rx="9.28" transform="translate(16.073 57.622) rotate(-150)" fill="#fbba00"/><rect width="18.559" height="18.559" rx="9.28" transform="translate(16.073 57.622) rotate(-150)" fill="#30a84f"/><rect width="18.559" height="55.821" rx="9.28" transform="matrix(0.866, -0.5, 0.5, 0.866, 18.597, 9.28)" fill="#3f84f7"/></g><path d="M266.95,511.746a3.644,3.644,0,0,1,3.428-3.841,2.888,2.888,0,0,1,2.458,1.236h.058l-.058-1v-3.325h1.352v10.535h-1.294v-1h-.058a2.888,2.888,0,0,1-2.458,1.236,3.643,3.643,0,0,1-3.428-3.84m5.945,0a2.313,2.313,0,1,0-2.3,2.6,2.376,2.376,0,0,0,2.3-2.6" transform="translate(-206.621 -442.863)" opacity="0.54"/><path d="M235.855,510.162a5.948,5.948,0,0,1,5.952-5.867,5.587,5.587,0,0,1,4.02,1.616l-1.129,1.131a4.088,4.088,0,0,0-2.891-1.145,4.264,4.264,0,0,0,0,8.527,3.925,3.925,0,0,0,2.961-1.172,3.348,3.348,0,0,0,.873-2.018h-3.834v-1.6H247.2a5.138,5.138,0,0,1,.085,1,5.287,5.287,0,0,1-1.387,3.748,5.362,5.362,0,0,1-4.092,1.645,5.948,5.948,0,0,1-5.952-5.865" transform="translate(-235.855 -443.353)" opacity="0.54"/><path d="M246.018,506.448a3.777,3.777,0,1,0,3.791,3.777,3.725,3.725,0,0,0-3.791-3.777m0,6.067a2.3,2.3,0,1,1,2.13-2.289,2.185,2.185,0,0,1-2.13,2.289" transform="translate(-229.866 -441.329)" opacity="0.54"/><path d="M250.279,506.448a3.777,3.777,0,1,0,3.791,3.777,3.725,3.725,0,0,0-3.791-3.777m0,6.067a2.3,2.3,0,1,1,2.13-2.289,2.185,2.185,0,0,1-2.13,2.289" transform="translate(-225.86 -441.329)" opacity="0.54"/><path d="M256.523,506.677v.615h-.056a2.624,2.624,0,0,0-1.989-.844,3.781,3.781,0,0,0,0,7.555,2.577,2.577,0,0,0,1.989-.858h.056v.543c0,1.445-.772,2.218-2.016,2.218a2.09,2.09,0,0,1-1.9-1.344l-1.445.6a3.6,3.6,0,0,0,3.349,2.231c1.946,0,3.591-1.145,3.591-3.935v-6.783Zm-1.9,5.838a2.3,2.3,0,0,1,0-4.579,2.308,2.308,0,0,1,0,4.579" transform="translate(-221.75 -441.329)" opacity="0.54"/><rect width="1.66" height="11.103" transform="translate(37.688 61.452)" opacity="0.54"/><path d="M260.388,512.515a1.921,1.921,0,0,1-1.832-1.145l5.05-2.088-.171-.431a3.51,3.51,0,0,0-3.234-2.4,3.59,3.59,0,0,0-3.562,3.777A3.7,3.7,0,0,0,260.388,514a3.75,3.75,0,0,0,3.147-1.674l-1.286-.858a2.16,2.16,0,0,1-1.861,1.044m-.128-4.606a1.458,1.458,0,0,1,1.4.8l-3.376,1.4a2.071,2.071,0,0,1,1.975-2.2" transform="translate(-216.314 -441.329)" opacity="0.54"/><path d="M274.206,514.052a3.209,3.209,0,0,1-1.973-.582,3.444,3.444,0,0,1-1.143-1.457l1.193-.495a1.975,1.975,0,0,0,1.938,1.339,1.769,1.769,0,0,0,1.026-.276.849.849,0,0,0,.4-.729c0-.466-.324-.78-.976-.947l-1.442-.349a3.448,3.448,0,0,1-1.3-.662,1.6,1.6,0,0,1-.611-1.319,1.8,1.8,0,0,1,.838-1.536,3.366,3.366,0,0,1,1.987-.59,3.307,3.307,0,0,1,1.69.431,2.426,2.426,0,0,1,1.063,1.23l-1.166.481a1.58,1.58,0,0,0-1.63-.947,1.9,1.9,0,0,0-1.005.248.756.756,0,0,0-.409.669q0,.611.947.83l1.414.334a2.678,2.678,0,0,1,1.484.8,1.936,1.936,0,0,1,.481,1.282,1.99,1.99,0,0,1-.786,1.6A3.111,3.111,0,0,1,274.206,514.052Z" transform="translate(-202.729 -441.329)" opacity="0.54"/><path d="M269.981,515.419h1.6l-3.989-10.6H266l-3.981,10.6h1.62l1.024-2.856h4.278Zm-4.839-4.191,1.643-4.577,1.668,4.577Z" transform="translate(-211.257 -442.863)" opacity="0.54"/></g></svg>