<svg xmlns="http://www.w3.org/2000/svg" xmlns:xlink="http://www.w3.org/1999/xlink" width="150" height="149.998" viewBox="0 0 150 149.998"><defs><linearGradient id="a" x1="-103.644" y1="12.596" x2="-103.278" y2="12.596" gradientUnits="objectBoundingBox"><stop offset="0" stop-color="#ff7000"/><stop offset="1" stop-color="#ff7a00"/></linearGradient></defs><path d="M393.234,603.469a75,75,0,1,1,75-75A75.083,75.083,0,0,1,393.234,603.469Z" transform="translate(-318.234 -453.471)" fill="#fff"/><g transform="translate(25.375 38.876)"><g transform="translate(0 58.113)"><path d="M359.83,505.592l1.686,4.429h-3.269Zm-.634-1.477-3.69,9.7h1.37l.951-2.637h4.113l.949,2.637h1.372l-3.692-9.7Z" transform="translate(-308.569 -502.848)" opacity="0.54"/><path d="M367.682,513.818h1.265v-9.7h-1.265Z" transform="translate(-297.121 -502.848)" opacity="0.54"/><path d="M361.659,506.742a2.7,2.7,0,0,1,2.109-1.16c1.688,0,2.532,1.16,2.532,2.848v4.113h-1.265v-3.9c0-1.372-.739-1.9-1.688-1.9a1.965,1.965,0,0,0-1.793,2v3.692h-1.265v-6.75h1.265Z" transform="translate(-304.072 -501.469)" opacity="0.54"/><path d="M363.931,510.434c0-1.477,1.372-2.32,2.953-2.32a2.889,2.889,0,0,1,1.793.421v-.21a1.577,1.577,0,0,0-1.688-1.583,1.543,1.543,0,0,0-1.581.951l-1.16-.528a3.035,3.035,0,0,1,5.694,1.265v4.008h-1.16v-.949h-.1a2.543,2.543,0,0,1-2.214,1.16,2.311,2.311,0,0,1-2.532-2.216m4.746-.844a2.654,2.654,0,0,0-1.581-.421c-1.267,0-1.793.737-1.793,1.265,0,.739.737,1.055,1.37,1.055a2.057,2.057,0,0,0,2-1.9" transform="translate(-300.648 -501.469)" opacity="0.54"/><path d="M369.82,515.289l1.477-3.481-2.637-6.117h1.267l2,4.641,2-4.641H375.2l-4.113,9.6Z" transform="translate(-296.202 -501.367)" fill-rule="evenodd" opacity="0.54"/><path d="M381.279,508.111a2,2,0,0,0-1.793-1.372,2.345,2.345,0,0,0,0,4.641,2.056,2.056,0,0,0,1.793-1.265l1.055.632a3.1,3.1,0,0,1-2.848,1.9,3.431,3.431,0,0,1-3.269-3.586,3.367,3.367,0,0,1,3.269-3.585,3.1,3.1,0,0,1,2.848,1.9Z" transform="translate(-289.097 -501.571)" fill-rule="evenodd" opacity="0.54"/><path d="M382.442,512.7c1.686,0,2.53-.951,2.53-2.111,0-2.53-3.69-1.581-3.69-3.058,0-.528.421-.844,1.16-.844a2.11,2.11,0,0,1,1.793.844l.737-.739a3.922,3.922,0,0,0-2.637-1.265,2.146,2.146,0,0,0-2.425,2.109c0,2.427,3.8,1.583,3.8,2.848,0,.632-.421,1.055-1.265,1.055a2.091,2.091,0,0,1-1.688-1.055l-.949.739A4.155,4.155,0,0,0,382.442,512.7Z" transform="translate(-285.724 -501.52)" opacity="0.54"/><path d="M374.966,512.387h1.267v-6.75h-1.267Z" transform="translate(-290.273 -501.417)" opacity="0.54"/><path d="M375.647,503.951a.844.844,0,0,1,0,1.688.844.844,0,0,1,0-1.688Z" transform="translate(-290.426 -503.002)" fill-rule="evenodd" opacity="0.54"/><path d="M376.256,512.3l.212.951H375.2c-1.16,0-1.686-.844-1.686-2.111v-3.269h-1.267v-1.265h1.267v-2h1.265v2h1.476v1.265H374.78v3.481c0,.949.737.949,1.476.949Z" transform="translate(-292.828 -502.388)" fill-rule="evenodd" opacity="0.54"/><path d="M337.009,508.631v1.581H340.7a3.2,3.2,0,0,1-.844,1.9,3.789,3.789,0,0,1-2.848,1.16A4.03,4.03,0,0,1,333,509.158a4.033,4.033,0,0,1,6.75-3.06l1.055-1.054a5.483,5.483,0,0,0-3.8-1.583,5.591,5.591,0,1,0,0,11.181,5.05,5.05,0,0,0,5.273-5.169,2.628,2.628,0,0,0-.1-.949h-5.169Z" transform="translate(-331.313 -503.462)" opacity="0.54"/><path d="M340.824,505.474a3.585,3.585,0,1,0,0,7.171,3.557,3.557,0,0,0,3.587-3.586,3.493,3.493,0,0,0-3.587-3.585Zm0,5.8a2.227,2.227,0,0,1,0-4.431,2.227,2.227,0,0,1,0,4.431Z" transform="translate(-325.742 -501.571)" opacity="0.54"/><path d="M350.61,506.263a2.743,2.743,0,0,0-2-.844,3.593,3.593,0,0,0,0,7.173,2.484,2.484,0,0,0,1.9-.844h.107v.528c0,1.372-.739,2.109-1.9,2.109a2.018,2.018,0,0,1-1.793-1.265l-1.372.528a3.483,3.483,0,0,0,3.164,2.109c1.9,0,3.481-1.055,3.481-3.8v-6.54h-1.476v.844Zm-1.793,5.064a2.242,2.242,0,1,1,1.9-2.216A2.046,2.046,0,0,1,348.817,511.327Z" transform="translate(-318.229 -501.622)" opacity="0.54"/><path d="M344.847,505.474a3.585,3.585,0,1,0,0,7.171,3.555,3.555,0,0,0,3.585-3.586A3.431,3.431,0,0,0,344.847,505.474Zm0,5.8a2.227,2.227,0,0,1,0-4.431,2.227,2.227,0,0,1,0,4.431Z" transform="translate(-321.96 -501.571)" opacity="0.54"/><path d="M349.416,503.517H351v10.968h-1.583Z" transform="translate(-314.294 -503.41)" opacity="0.54"/><path d="M354.2,511.275a2.043,2.043,0,0,1-1.793-1.055l4.852-2-.211-.421a3.3,3.3,0,0,0-6.434,1.265,3.555,3.555,0,0,0,3.585,3.586,3.839,3.839,0,0,0,3.06-1.581l-1.265-.844a2.046,2.046,0,0,1-1.795,1.055Zm-.1-4.431a1.414,1.414,0,0,1,1.372.844l-3.271,1.372a1.981,1.981,0,0,1,1.9-2.216Z" transform="translate(-313.169 -501.571)" opacity="0.54"/></g><path d="M366.4,514.774H348.368a4.007,4.007,0,0,1-4.008-4.008v-8.647a4.007,4.007,0,0,1,4.008-4.008h11.391V485.452a4.005,4.005,0,0,1,4.008-4.006h12.657v33.223H366.4Z" transform="translate(-319.047 -466.047)" fill="#ffc500" fill-rule="evenodd"/><path d="M373.543,522.236H360.887v-44.72a4.005,4.005,0,0,1,4.006-4.006h8.649a4.006,4.006,0,0,1,4.008,4.006v40.712a4.15,4.15,0,0,1-4.008,4.008Z" transform="translate(-303.509 -473.509)" fill="#ff7f00" fill-rule="evenodd"/><path d="M377.5,498.11v12.655a4.005,4.005,0,0,1-4.006,4.008H360.832V481.446Z" transform="translate(-303.561 -466.047)" fill-rule="evenodd" fill="url(#a)"/></g></svg>