<svg xmlns="http://www.w3.org/2000/svg" width="150" height="150" viewBox="0 0 150 150"><path d="M291.343,604.7a75,75,0,1,1,75-75A75.087,75.087,0,0,1,291.343,604.7Z" transform="translate(-216.343 -454.705)" fill="#fff"/><g transform="translate(15.54 26.688)"><path d="M54.9,8.005a5.615,5.615,0,0,1,3.368,1.049c.028.028.055.028.083.055l27.77,21.339h0a28.427,28.427,0,0,1,6.874,7.564A26.516,26.516,0,0,1,96.942,54a25.806,25.806,0,0,1-1.1,5.714A27.439,27.439,0,0,1,89.93,69.951,30.6,30.6,0,0,1,79.606,77.4a33.259,33.259,0,0,1-13.554,2.871H66a33.313,33.313,0,0,1-13.5-2.816,30.164,30.164,0,0,1-10.324-7.426A27.493,27.493,0,0,1,36.266,59.82a21.178,21.178,0,0,1-.939-5.19,26.833,26.833,0,0,1,.221-3.092L18.13,65.81a8.093,8.093,0,0,1-4.941,1.85,5.052,5.052,0,0,1-4.113-1.85c-1.9-2.429-.911-6.266,2.1-8.585.028-.028.083-.055.11-.083L43.223,32.629l-17.888.028h0c-3.037,0-5.024-2.043-4.444-4.527.552-2.429,3.368-4.334,6.294-4.334h.055l35.279-.055L50.924,14.327h0c-1.794-1.491-1.573-3.837.442-5.245A6.2,6.2,0,0,1,54.9,8.005M66.024,66.8h.028A19.616,19.616,0,0,0,80.1,61.062a16.792,16.792,0,0,0,3.837-6.018,15.819,15.819,0,0,0,.883-6.708,15.644,15.644,0,0,0-1.932-6.322,16.913,16.913,0,0,0-4.279-5.052A19.791,19.791,0,0,0,66.052,32.6h-.028A19.948,19.948,0,0,0,53.437,36.99a17.36,17.36,0,0,0-4.279,5.079A15.761,15.761,0,0,0,48.109,55.1a17.175,17.175,0,0,0,3.837,6.018A19.68,19.68,0,0,0,66.024,66.8M54.9,0h0a14.188,14.188,0,0,0-8.116,2.512,11.514,11.514,0,0,0-5.079,9,11.094,11.094,0,0,0,.69,4.251l-15.21.028h-.028A15.24,15.24,0,0,0,18.6,18.468a13.152,13.152,0,0,0-5.549,7.84h0A11.337,11.337,0,0,0,15.2,35.969a12.18,12.18,0,0,0,5.438,3.865L6.481,50.71a1.532,1.532,0,0,1-.221.166A15.616,15.616,0,0,0,.214,61.117,12.788,12.788,0,0,0,2.782,70.7a13.1,13.1,0,0,0,10.435,4.941,16.021,16.021,0,0,0,9.965-3.616l.028-.028,7.012-5.742a35.845,35.845,0,0,0,6.045,9.11,38.437,38.437,0,0,0,13,9.358,41.156,41.156,0,0,0,16.756,3.506h.083a41.106,41.106,0,0,0,16.811-3.561,38.888,38.888,0,0,0,13-9.386,35.45,35.45,0,0,0,7.591-13.2,33.288,33.288,0,0,0,1.215-14.907A34.673,34.673,0,0,0,99.84,33.761a36.462,36.462,0,0,0-8.447-9.413c-.11-.083-.221-.193-.331-.276L63.291,2.816c-.083-.083-.193-.138-.276-.221A13.683,13.683,0,0,0,54.9,0ZM66.024,58.8a11.605,11.605,0,0,1-8.337-3.313,8.4,8.4,0,0,1-2.015-3.147,7.78,7.78,0,0,1-.442-3.285v-.028a7.6,7.6,0,0,1,.966-3.147,9.418,9.418,0,0,1,2.319-2.733,11.987,11.987,0,0,1,7.536-2.595h.028a11.887,11.887,0,0,1,7.509,2.567,9.691,9.691,0,0,1,2.319,2.705h0a7.714,7.714,0,0,1,.524,6.432A9,9,0,0,1,74.416,55.4a11.467,11.467,0,0,1-8.392,3.4Z" fill="#fff"/><path d="M196.861,148.952a10.538,10.538,0,0,1,3.809-7.426,12.949,12.949,0,0,1,16.4,0,10.538,10.538,0,0,1,3.809,7.426,10.316,10.316,0,0,1-3.2,7.978,12.886,12.886,0,0,1-17.612,0A10.278,10.278,0,0,1,196.861,148.952Z" transform="translate(-142.43 -100.34)" fill="#0e548b"/><path d="M56.261,75.579a22.58,22.58,0,0,0,.939,5.19,27.122,27.122,0,0,0,5.907,10.214,30.533,30.533,0,0,0,10.324,7.426,33.213,33.213,0,0,0,13.554,2.816,32.813,32.813,0,0,0,13.554-2.871A30.234,30.234,0,0,0,110.863,90.9a27.818,27.818,0,0,0,5.907-10.241,25.806,25.806,0,0,0,1.1-5.714,26.516,26.516,0,0,0-3.947-15.983,28.428,28.428,0,0,0-6.874-7.564h0L79.283,30.086c-.028-.028-.055-.028-.083-.055a6.164,6.164,0,0,0-6.9,0c-2.015,1.408-2.264,3.754-.442,5.245h0l11.594,9.413-35.334.055h-.055c-2.926,0-5.714,1.9-6.294,4.334-.58,2.457,1.408,4.5,4.444,4.527h0L64.1,53.578,32.19,78.091c-.028.028-.083.055-.11.083-3.009,2.319-3.975,6.156-2.1,8.585,1.932,2.457,6.018,2.484,9.054.028L56.454,72.515C56.482,72.515,56.233,74.447,56.261,75.579Zm44.775,6.46a20.166,20.166,0,0,1-28.129.055,16.558,16.558,0,0,1-3.837-6.018,15.761,15.761,0,0,1,1.049-13.029A17.36,17.36,0,0,1,74.4,57.967a20.3,20.3,0,0,1,25.176-.028,17.688,17.688,0,0,1,4.279,5.052,15.645,15.645,0,0,1,1.932,6.322,15.819,15.819,0,0,1-.883,6.708A17.256,17.256,0,0,1,101.036,82.038Z" transform="translate(-20.933 -20.976)" fill="#f4792b"/></g></svg>