<svg xmlns="http://www.w3.org/2000/svg" width="150" height="150" viewBox="0 0 150 150"><path d="M393.234,498.216a75,75,0,1,1,75-75A75.085,75.085,0,0,1,393.234,498.216Z" transform="translate(-318.234 -348.216)" fill="#30a8db"/><g transform="translate(47.301 35.953)"><path d="M364.168,400.573v7.08a3.224,3.224,0,0,1-1.315-.184,20.349,20.349,0,0,0-2.091-.584,14.336,14.336,0,0,1-2-.563c-.927-.324-1.894-.483-2.821-.817-.757-.276-1.558-.435-2.34-.648-.749-.2-1.506-.4-2.255-.613a6.785,6.785,0,0,0-1.259-.328,10.886,10.886,0,0,1-.3-2.4c-.115-.724-.031-1.461-.19-2.148a9.122,9.122,0,0,1-.14-2.072c-.008-.394-.281-.716-.212-1.131a2.239,2.239,0,0,0-.012-1.106,7.986,7.986,0,0,1-.178-2.1h6.858c.037.05.12.144.215.26a.383.383,0,0,1,.019.138c-.128,1.191.235,2.353.223,3.549a15.653,15.653,0,0,1,.14,1.56c1.335.254,2.606.729,3.94,1.015a8.35,8.35,0,0,1,1.564.479c.464.194,1.022.157,1.506.407.171.089.425.012.642.012Z" transform="translate(-336.554 -342.098)" fill="#ebecec" fill-rule="evenodd"/><path d="M342.614,374.622h55.4c-.12.617.173,1.232-.2,1.8-.031.045-.012.12-.006.184.128,1.071-.3,2.113-.179,3.18.052.438-.279.786-.21,1.23a2.391,2.391,0,0,1-.012,1.2,3.464,3.464,0,0,0-.14,1.608c.031.471-.287.846-.217,1.321a2.964,2.964,0,0,1-.012,1.294,4.525,4.525,0,0,0-.147,1.795c.014.407-.3.712-.215,1.139a2.335,2.335,0,0,1-.012,1.2,3.989,3.989,0,0,0-.147,1.7c.019.438-.285.78-.215,1.232a2.3,2.3,0,0,1-.014,1.2,5.028,5.028,0,0,0-.159,1.61,14.182,14.182,0,0,0-.184,2.625,3.565,3.565,0,0,0-.177,1.787,10.246,10.246,0,0,0-.217,1.412,1.7,1.7,0,0,1-.165,1.323c-.014.019-.006.06,0,.089a27.922,27.922,0,0,1-.184,2.9,27.476,27.476,0,0,0-.19,2.9,3.358,3.358,0,0,0-.173,1.785c.025.407-.285.718-.215,1.139a2.417,2.417,0,0,1-.006,1.2,10.774,10.774,0,0,0-.178,1.791c-.184.815-.05,1.643-.21,2.431-.134.671-.025,1.343-.173,1.973-.165.726-.037,1.469-.2,2.159a6.854,6.854,0,0,0-.14,1.791c.025.411-.279.72-.21,1.135a2.484,2.484,0,0,1-.014,1.2,4.194,4.194,0,0,0-.145,1.793c.031.448-.262.793-.217,1.234a3.976,3.976,0,0,1-.012,1.3,2.276,2.276,0,0,0-.153.832c-.254.483-.819.169-1.117.493a12.438,12.438,0,0,0-2.282.588c-.9.2-1.779.483-2.675.722-.947.25-1.9.526-2.835.8-.807.225-1.608.464-2.421.685-1,.281-2,.566-3.013.821-.838.215-1.659.495-2.511.689-.706.159-1.4.376-2.091.576-.858.258-1.748.419-2.58.733a3.407,3.407,0,0,1-2.408,0c-.77-.244-1.558-.454-2.332-.66-.846-.227-1.7-.417-2.524-.675-.941-.291-1.894-.518-2.84-.782-.807-.225-1.608-.47-2.415-.7-.749-.213-1.506-.407-2.256-.619-.807-.223-1.608-.462-2.413-.683-1.005-.283-2.01-.57-3.013-.825-.846-.211-1.659-.52-2.518-.679a8.267,8.267,0,0,1-1.218-.413,5.723,5.723,0,0,1,.006-1.05c.1-.479-.243-.863-.2-1.321a2.925,2.925,0,0,0-.019-1.294,3.222,3.222,0,0,1-.14-1.517c.025-.468-.254-.86-.215-1.323a3.494,3.494,0,0,0-.019-1.385,5.767,5.767,0,0,1-.153-1.795,10.536,10.536,0,0,1-.21-1.418,1.713,1.713,0,0,0-.165-1.315c-.019-.025-.006-.064,0-.1a27.986,27.986,0,0,0-.19-2.9,27.267,27.267,0,0,1-.184-2.9,3.311,3.311,0,0,1-.173-1.787c.019-.409-.285-.718-.211-1.137a2.6,2.6,0,0,0-.01-1.2,4.19,4.19,0,0,1-.153-1.7c.019-.464-.274-.852-.21-1.321a2.768,2.768,0,0,0-.019-1.294,3.566,3.566,0,0,1-.14-1.606c.039-.446-.266-.792-.209-1.23a2.716,2.716,0,0,0-.019-1.2,12.831,12.831,0,0,1-.179-1.793c-.171-.782-.045-1.585-.2-2.34a6.548,6.548,0,0,1-.134-1.791c.025-.446-.268-.8-.217-1.23a2.847,2.847,0,0,0-.017-1.294,3.57,3.57,0,0,1-.14-1.606c.037-.446-.268-.792-.212-1.23a2.715,2.715,0,0,0-.017-1.2,5.971,5.971,0,0,1-.153-1.981,8.444,8.444,0,0,1-.21-1.416,1.727,1.727,0,0,0-.171-1.319c-.014-.023,0-.06,0-.093a21.84,21.84,0,0,0-.186-2.805,23.6,23.6,0,0,1-.19-2.815c-.388-.916-.056-1.872-.221-2.85m27.614,25.123h-8.143a3.727,3.727,0,0,0,.109,1.436c.083.776.134,1.564.165,2.34a18.525,18.525,0,0,1,.217,3.089,58.128,58.128,0,0,0,7.652.215v10.807c-.217,0-.471.08-.642-.016-.483-.246-1.042-.21-1.506-.408a8.634,8.634,0,0,0-1.564-.475c-1.335-.285-2.606-.761-3.94-1.015a15.637,15.637,0,0,0-.14-1.56c.012-1.2-.351-2.357-.223-3.549a.384.384,0,0,0-.019-.138c-.095-.116-.178-.21-.215-.26H355.12a7.97,7.97,0,0,0,.178,2.1,2.24,2.24,0,0,1,.012,1.106c-.07.415.2.737.212,1.131a9.124,9.124,0,0,0,.14,2.072c.159.687.076,1.424.19,2.148a10.885,10.885,0,0,0,.3,2.4,6.787,6.787,0,0,1,1.259.328c.749.21,1.506.409,2.254.613.782.215,1.583.372,2.34.648.927.334,1.894.493,2.821.817a14.337,14.337,0,0,0,2,.563,20.336,20.336,0,0,1,2.091.584,3.226,3.226,0,0,0,1.315.184v7.861c.7-.211,1.327-.409,1.958-.59.838-.227,1.684-.433,2.522-.665.718-.2,1.424-.473,2.155-.633.85-.177,1.67-.466,2.509-.683,1.011-.256,2-.568,3.013-.809.788-.192,1.564-.427,2.346-.65,1.3-.374,2.617-.7,3.935-1.108a10.761,10.761,0,0,1,.171-1.962c.153-.625-.095-1.327.21-1.96a25.6,25.6,0,0,1,.184-2.809,29.766,29.766,0,0,0,.19-3,.154.154,0,0,1,0-.089,1.677,1.677,0,0,0,.165-1.317,9.413,9.413,0,0,1,.217-1.414,5.166,5.166,0,0,1,.153-1.793,2.664,2.664,0,0,0,.012-1.2c-.05-.413.223-.731.21-1.137a4.06,4.06,0,0,1,.173-1.971,21.555,21.555,0,0,1,.19-2.805,21.99,21.99,0,0,0,.184-2.809c-.006-.029-.014-.074,0-.091a1.7,1.7,0,0,0,.165-1.319,9.672,9.672,0,0,1,.215-1.414,5.807,5.807,0,0,1,.153-1.979,2.627,2.627,0,0,0,.014-1.2c-.052-.438.254-.784.215-1.232a3.409,3.409,0,0,1,.146-1.6,2.476,2.476,0,0,0,.008-1.2c-.07-.444.235-.794.221-1.226a7.006,7.006,0,0,1,.128-1.7c.171-.817.019-1.682.21-2.526a11.46,11.46,0,0,1,.179-1.791,2.646,2.646,0,0,0,.012-1.2c-.05-.438.254-.786.21-1.23-.107-1.127.312-2.233.178-3.362a.374.374,0,0,1,.064-.254c.215-.244.1-.5.089-.759-4.552-.14-21.844-.083-22.7.076v6.422H352.967c-.184.473.07.852.107,1.255a6.641,6.641,0,0,0,.2,2.06c-.12,1.129.3,2.233.19,3.364a.643.643,0,0,0,.058.213h16.709Z" transform="translate(-342.614 -359.344)" fill="#0d73b8" fill-rule="evenodd"/><path d="M369.971,374.758v2.536H359.943v-2.92h4.536a.284.284,0,0,0-.062-.448c-1.366-1.244-2.441-2.769-3.82-4-.279-.252-.33-.652-.667-.85v-2.332h9.813v2.968H365.23c1.734,1.668,3.223,3.407,4.742,5.042" transform="translate(-326.336 -366.747)" fill="#464442" fill-rule="evenodd"/><path d="M363.83,377.323h-9.844V374.38h4.747c-1.645-1.793-3.176-3.463-4.759-5.186v-2.447h9.813v2.72c-.058.06-.122.124-.223.223h-4.119c-.132.2.064.211.114.291a3,3,0,0,0,.254.268q1.336,1.464,2.683,2.9c.45.487.877,1,1.333,1.486Z" transform="translate(-331.934 -366.747)" fill="#464442" fill-rule="evenodd"/><path d="M357.212,377.091c-.1.1-.165.161-.223.223H348.7V366.75h8.535c.031.439.006.927.012,1.409v1.509h-4.988v4.484h4.691c.1.1.165.165.266.264Z" transform="translate(-336.895 -366.744)" fill="#464442" fill-rule="evenodd"/><path d="M356.847,383.556v-6.422c.858-.159,18.15-.215,22.7-.076.012.254.126.514-.089.759a.367.367,0,0,0-.064.248c.134,1.135-.285,2.241-.178,3.368.045.444-.26.792-.21,1.23a2.645,2.645,0,0,1-.012,1.2,11.46,11.46,0,0,0-.179,1.791c-.19.844-.039,1.709-.209,2.526a7,7,0,0,0-.128,1.7c.014.433-.291.782-.221,1.226a2.477,2.477,0,0,1-.008,1.2,3.4,3.4,0,0,0-.146,1.6c.039.448-.268.794-.215,1.232a2.626,2.626,0,0,1-.014,1.2,5.807,5.807,0,0,0-.153,1.979,9.675,9.675,0,0,0-.215,1.414,1.7,1.7,0,0,1-.165,1.319c-.014.017-.006.062,0,.091a21.974,21.974,0,0,1-.184,2.809,21.56,21.56,0,0,0-.19,2.805,4.06,4.06,0,0,0-.173,1.971c.014.405-.26.724-.209,1.137a2.664,2.664,0,0,1-.012,1.2,5.166,5.166,0,0,0-.153,1.793,9.471,9.471,0,0,0-.217,1.407,1.692,1.692,0,0,1-.165,1.325.154.154,0,0,0,0,.089,29.75,29.75,0,0,1-.19,3,25.627,25.627,0,0,0-.184,2.809c-.3.632-.056,1.335-.21,1.959a10.756,10.756,0,0,0-.171,1.962c-1.317.409-2.633.733-3.935,1.108-.782.223-1.558.458-2.346.65-1.011.241-2,.553-3.013.809-.838.217-1.659.506-2.509.683-.731.159-1.438.433-2.155.633-.838.233-1.684.433-2.522.665-.63.175-1.253.378-1.958.59v-7.673c.413-.025.755-.3,1.149-.367a43.935,43.935,0,0,0,4.538-1.193c1.385-.382,2.778-.782,4.152-1.2,1.486-.448,3-.848,4.511-1.215a4.473,4.473,0,0,0-.012-.78c-.045-.272.171-.452.184-.671a14.013,14.013,0,0,1,.171-2.251c.14-.638.033-1.308.184-1.973s.039-1.37.184-2.062c.145-.667.05-1.372.19-2.064.147-.728.008-1.494.192-2.251.151-.629.025-1.3.177-1.969.153-.693.039-1.43.192-2.155.14-.638.031-1.31.184-1.973s.045-1.366.184-2.062c.146-.757.017-1.558.2-2.342a14.135,14.135,0,0,1,.184-1.882,2.793,2.793,0,0,0,.014-1.2c-.058-.438.246-.786.215-1.236a2.433,2.433,0,0,1,.165-1.593,21.684,21.684,0,0,1,.2-3.089,2.664,2.664,0,0,1,.14-1.147,2.563,2.563,0,0,0,.025-1.286c-.064-.458.363-.84.134-1.358Z" transform="translate(-329.233 -357.128)" fill="#30a8db" fill-rule="evenodd"/><path d="M356.847,380.369H374.3c.229.518-.2.9-.134,1.358a2.563,2.563,0,0,1-.025,1.286,2.664,2.664,0,0,0-.14,1.147,21.684,21.684,0,0,0-.2,3.089,2.433,2.433,0,0,0-.165,1.593c.031.45-.274.8-.215,1.236a2.793,2.793,0,0,1-.014,1.2,14.135,14.135,0,0,0-.184,1.882c-.178.784-.05,1.585-.2,2.342-.14.7-.033,1.4-.184,2.062s-.045,1.335-.184,1.973c-.153.726-.039,1.463-.192,2.156-.151.665-.025,1.341-.177,1.969-.184.757-.045,1.523-.192,2.251-.14.693-.045,1.4-.19,2.064-.145.693-.039,1.4-.184,2.062s-.045,1.335-.184,1.973a14.013,14.013,0,0,0-.171,2.251c-.014.219-.229.4-.184.671a4.473,4.473,0,0,1,.012.78c-1.511.367-3.025.766-4.511,1.215-1.374.417-2.767.817-4.152,1.2A43.936,43.936,0,0,1,358,419.317c-.394.064-.735.341-1.149.367v-7.268c.26-.25.609-.171.914-.254.617-.159,1.215-.365,1.837-.508,1.036-.235,2.041-.642,3.083-.848a8.91,8.91,0,0,1,2-.473c-.052-.726.146-1.438.146-2.14a32.7,32.7,0,0,0,.215-3.453,5.511,5.511,0,0,0,.192-2.059c0-.089-.014-.21.037-.262.287-.291.07-.633.179-1h-8.6v-7.08h9.068a2.259,2.259,0,0,0,.254-.972c-.12-1.061.318-2.1.184-3.172-.012-.06-.031-.146,0-.18.343-.4.184-.887.165-1.319-.025-.483.2-.918.2-1.436h-9.875Z" transform="translate(-329.233 -353.941)" fill="#fefefe" fill-rule="evenodd"/><path d="M365.244,380.369v6.893H348.535a.642.642,0,0,1-.058-.213c.115-1.131-.31-2.235-.19-3.364a6.657,6.657,0,0,1-.2-2.06c-.037-.4-.291-.782-.107-1.255Z" transform="translate(-337.63 -353.941)" fill="#ebecec" fill-rule="evenodd"/><path d="M356.847,402.215V391.22h8.6c-.109.365.109.706-.179,1-.05.052-.037.173-.037.262a5.5,5.5,0,0,1-.192,2.059,32.7,32.7,0,0,1-.215,3.453c0,.7-.2,1.414-.146,2.14a9.123,9.123,0,0,0-2,.473c-1.042.206-2.047.613-3.083.848-.623.144-1.22.349-1.837.508-.3.083-.654.006-.914.254" transform="translate(-329.233 -343.739)" fill="#30a8db" fill-rule="evenodd"/><path d="M356.847,383.922h9.875c0,.518-.229.953-.2,1.436.019.433.179.916-.165,1.319-.031.035-.012.12,0,.18.134,1.071-.3,2.111-.184,3.172a2.259,2.259,0,0,1-.254.972h-9.068Z" transform="translate(-329.233 -350.6)" fill="#30a8db" fill-rule="evenodd"/><path d="M360.815,387.571v7.079a58.117,58.117,0,0,1-7.652-.215,18.528,18.528,0,0,0-.217-3.089c-.031-.776-.081-1.564-.165-2.34a3.728,3.728,0,0,1-.109-1.436Z" transform="translate(-333.201 -347.17)" fill="#ebecec" fill-rule="evenodd"/></g></svg>