<svg xmlns="http://www.w3.org/2000/svg" width="150" height="150" viewBox="0 0 150 150"><g transform="translate(395 -1472)"><ellipse cx="75" cy="75" rx="75" ry="75" transform="translate(-395 1472)" fill="#fb4f28"/><path d="M662.4,378.4l-37.52-37.52a7.917,7.917,0,0,0-11.2,0l-6.842,6.842,9.95,9.949a7.335,7.335,0,0,1,9.2,9.2l10.085,10.086a7.37,7.37,0,1,1-4.678,4.492l-9.271-9.272v24.436a7.332,7.332,0,1,1-6.485.109V371.183a7.3,7.3,0,0,1-3.531-9.019l-9.857-9.856L576.164,378.4a7.919,7.919,0,0,0,0,11.2l37.52,37.52a7.917,7.917,0,0,0,11.2,0L662.4,389.6A7.919,7.919,0,0,0,662.4,378.4Z" transform="translate(-938.845 1163.438)" fill="#fff"/></g></svg>