<svg xmlns="http://www.w3.org/2000/svg" width="150" height="150" viewBox="0 0 150 150"><g transform="translate(395 -1687)"><ellipse cx="75" cy="75" rx="75" ry="75" transform="translate(-395 1687)" fill="#1a1715"/><path d="M180.945,107.44a44.634,44.634,0,0,0-14.1,86.978c2.233.408,3.047-.967,3.047-2.151,0-1.06-.038-3.866-.06-7.592-12.414,2.7-15.033-5.981-15.033-5.981-2.03-5.156-4.956-6.529-4.956-6.529-4.052-2.77.307-2.712.307-2.712,4.479.315,6.836,4.6,6.836,4.6,3.981,6.822,10.447,4.852,12.989,3.71a9.54,9.54,0,0,1,2.833-5.967c-9.91-1.126-20.329-4.953-20.329-22.058a17.253,17.253,0,0,1,4.595-11.975c-.46-1.129-1.992-5.666.438-11.811,0,0,3.745-1.2,12.271,4.575a42.323,42.323,0,0,1,22.345,0c8.521-5.775,12.26-4.575,12.26-4.575,2.436,6.145.9,10.682.447,11.811a17.223,17.223,0,0,1,4.586,11.975c0,17.145-10.436,20.918-20.378,22.022,1.6,1.378,3.03,4.1,3.03,8.266,0,5.967-.055,10.781-.055,12.244,0,1.192.806,2.581,3.069,2.145a44.636,44.636,0,0,0-14.137-86.973Z" transform="translate(-500.659 1610.92)" fill="#fff" fill-rule="evenodd"/></g></svg>