<svg xmlns="http://www.w3.org/2000/svg" width="150" height="150" viewBox="0 0 150 150"><ellipse cx="75" cy="75" rx="75" ry="75" fill="#f0672c"/><g transform="translate(48.599 37.704)"><path d="M241.392,376.467q25.9,0,51.8.006c.328,0,.722-.157.964.231.151.241-.194.316-.163.541.151,1.044-.279,2.066-.159,3.108.043.419-.266.747-.2,1.172a2.178,2.178,0,0,1-.012,1.135,2.941,2.941,0,0,0-.134,1.444c.023.446-.242.815-.206,1.257a3.338,3.338,0,0,1-.014,1.317,5.435,5.435,0,0,0-.146,1.705,9.064,9.064,0,0,0-.2,1.348,1.653,1.653,0,0,1-.157,1.253c-.019.017-.008.06-.008.087.14.99-.272,1.952-.163,2.935.048.45-.237.817-.2,1.257a3.31,3.31,0,0,1-.014,1.319,13.716,13.716,0,0,0-.169,1.7c-.157.747-.048,1.509-.194,2.229a6.808,6.808,0,0,0-.134,1.614c.023.413-.268.741-.2,1.168a2.256,2.256,0,0,1-.014,1.139,4.734,4.734,0,0,0-.151,1.529,13.261,13.261,0,0,0-.177,2.495c-.291.541-.072,1.145-.194,1.694-.157.747-.048,1.509-.194,2.229a6.692,6.692,0,0,0-.134,1.614c.019.437-.254.807-.2,1.255a2.7,2.7,0,0,1-.012,1.228,3.39,3.39,0,0,0-.134,1.529c.037.421-.254.753-.206,1.172a2.566,2.566,0,0,1-.014,1.141,4.312,4.312,0,0,0-.14,1.7c.019.386-.272.683-.206,1.077a2.376,2.376,0,0,1-.006,1.145,3.873,3.873,0,0,0-.134,1.7c.025.421-.254.753-.213,1.17a3.379,3.379,0,0,1-.012,1.234,3.612,3.612,0,0,0-.151.9v.978a5.527,5.527,0,0,1-1.791.592c-.747.179-1.48.437-2.233.6-.772.173-1.525.442-2.3.656-.953.268-1.913.512-2.866.774-.77.21-1.529.433-2.3.646-.929.254-1.862.491-2.792.741-.819.223-1.628.491-2.458.685-.644.155-1.275.347-1.907.535-.844.248-1.686.5-2.544.691-.237.048-.485.347-.7.146-.244-.223-.5-.083-.735-.169-1.009-.376-2.059-.6-3.091-.887-.892-.248-1.779-.568-2.675-.79-1.234-.3-2.435-.722-3.68-.98-.63-.13-1.261-.359-1.894-.543-.764-.221-1.523-.456-2.287-.667-.955-.264-1.919-.51-2.871-.772-.766-.206-1.531-.431-2.3-.648a3.176,3.176,0,0,1-.869-.244c-.231-.145-.442-.07-.667-.109-.413-.316-.237-.84-.442-1.23a.148.148,0,0,1,0-.087c.109-1.05-.3-2.07-.177-3.114a14.014,14.014,0,0,1-.211-2.045c-.147-.607-.031-1.215-.165-1.791-.171-.747-.049-1.506-.188-2.229-.134-.662-.023-1.331-.177-1.959s-.035-1.269-.169-1.876c-.145-.689-.031-1.4-.188-2.049s-.025-1.333-.165-1.967c-.157-.72-.037-1.451-.188-2.136a8.1,8.1,0,0,1-.14-1.7,9.12,9.12,0,0,1-.2-1.346,1.612,1.612,0,0,0-.157-1.257c-.014-.019-.006-.054,0-.085a26.761,26.761,0,0,0-.182-2.759c.037-.925-.3-1.83-.177-2.759a3.181,3.181,0,0,1-.163-1.7c.023-.388-.268-.681-.2-1.081a2.305,2.305,0,0,0-.012-1.139,4.988,4.988,0,0,1-.146-1.793c0-.462-.243-.869-.2-1.348a1.871,1.871,0,0,0-.159-1.341c-.017-.019-.006-.062,0-.089.134-1.019-.291-2.012-.169-3.023.054-.429-.25-.753-.2-1.168a2.464,2.464,0,0,0-.012-1.143,5.688,5.688,0,0,1-.145-1.884,8.322,8.322,0,0,1-.2-1.345,1.651,1.651,0,0,0-.157-1.253c-.019-.021-.006-.058,0-.089.132-1.05-.274-2.066-.182-3.114v-1.374c0-.122-.014-.235-.177-.219Zm26.219,41.449c-.607-.188-1.226-.3-1.833-.485-1.129-.355-2.3-.576-3.43-.92a16.168,16.168,0,0,1-1.985-.605,5.386,5.386,0,0,0-.194-1.851c.126-1.05-.285-2.07-.177-3.114,0-.021-.031-.049-.048-.07-.06-.064-.122-.124-.188-.184a54.652,54.652,0,0,0-6.5.06,3.977,3.977,0,0,1-.012.887c-.074.322.211.508.2.813a8.383,8.383,0,0,0,.14,2.059c.151.629.023,1.3.177,1.96a13.179,13.179,0,0,1,.163,1.961c.068.887.2,1.76.262,2.635a.8.8,0,0,0,.363.231c.675.151,1.331.357,2,.518s1.312.409,1.991.549a19.435,19.435,0,0,1,2.136.607,24.308,24.308,0,0,1,2.677.8c.559-.072,1,.316,1.537.376a13.2,13.2,0,0,1,1.494.429,4.2,4.2,0,0,0,1.226.258h.175v6.985a5.489,5.489,0,0,1,1.015-.307,23.754,23.754,0,0,1,3.017-.832,3.031,3.031,0,0,0,1.075-.374c.382-.3.813-.113,1.22-.287a2.8,2.8,0,0,1,1.335-.4,1.085,1.085,0,0,0,.923-.353,3.311,3.311,0,0,0,1-.153,3.874,3.874,0,0,1,1.081-.37,12.233,12.233,0,0,0,2.476-.66,3.136,3.136,0,0,1,.693-.215,15.388,15.388,0,0,0,2.088-.539c.493-.091.9-.419,1.426-.382-.066-.374.213-.607.208-.939a5.154,5.154,0,0,1,.14-1.793,2.426,2.426,0,0,0,.012-1.139c-.074-.429.219-.768.188-1.168-.085-1.106.3-2.187.182-3.29-.012-.06-.031-.14,0-.173a1.522,1.522,0,0,0,.157-1.17,8.223,8.223,0,0,1,.188-1.164,13.008,13.008,0,0,1,.153-1.876A17.464,17.464,0,0,0,286.52,412a20.1,20.1,0,0,0,.225-3.289c-.012-.058-.031-.136,0-.173a1.53,1.53,0,0,0,.157-1.168c-.06-.452.188-.828.2-1.253a5.15,5.15,0,0,1,.146-1.707,2.7,2.7,0,0,0,.014-1.228c-.062-.45.231-.817.194-1.257-.091-1.071.309-2.121.169-3.2-.006-.058-.023-.14.006-.171.336-.382.177-.85.153-1.257-.031-.448.248-.807.217-1.255a2.311,2.311,0,0,1,.159-1.519c-.025-.836.109-1.669.146-2.493a18.885,18.885,0,0,0,.206-3.2c-.006-.058-.023-.14.006-.173a1.372,1.372,0,0,0,.153-1.166c-.049-.431.229-.77.194-1.168-.091-1.1.3-2.183.182-3.29-.006-.058-.025-.13,0-.173.351-.632.083-1.294.194-1.936-4.414-.134-20.639-.08-21.454.072v6.459h-16.65a2.385,2.385,0,0,1-.006.557c-.068.239.188.339.188.549a8.052,8.052,0,0,1-.019,1.147c-.072.4.225.693.208,1.077a4.045,4.045,0,0,0,.14,1.7,2.138,2.138,0,0,1,.012,1.052c-.068.4.225.7.188,1.079-.1,1.1.3,2.181.177,3.285-.008.06-.025.144.006.177a1.683,1.683,0,0,1,.157,1.253,7.694,7.694,0,0,0,.194,1.345,9.1,9.1,0,0,0,.14,1.7,12.511,12.511,0,0,1,.171,2.13c.043.98.248,1.94.237,2.963h14.86v10.45Z" transform="translate(-241.392 -361.78)" fill="#e45227" fill-rule="evenodd"/><path d="M255.187,379.11v-9.994c.08-.078.14-.194.2-.194,1.057-.012,2.113-.008,3.224-.008a16.465,16.465,0,0,1,2.287,3.481c.832-1.135,1.348-2.47,2.272-3.51h3.248c.3.159.266.4.266.632v9.588h-3.533v-4.532a14.14,14.14,0,0,0-2.033,2.963c-.213.031-.413.039-.547-.167-.029-.045-.054-.093-.083-.142-.559-.887-1.118-1.779-1.719-2.732a16.72,16.72,0,0,0-.048,2.19c-.017.735-.006,1.469-.006,2.188-.08.08-.14.144-.231.235Z" transform="translate(-228.423 -368.883)" fill="#464442" fill-rule="evenodd"/><path d="M247.389,375.777v3.333c-1.16.072-2.326.012-3.516.035V369.1c.048-.048.14-.13.231-.215h3.036l.237.241V372.2h2.786c-.019.012.012,0,.023-.025a.118.118,0,0,0,.031-.076c.006-1,.006-2,.006-2.964.085-.091.151-.161.237-.243h3.265v10.223H250.46l-.26-.262v-3.077Z" transform="translate(-239.06 -368.883)" fill="#464442" fill-rule="evenodd"/><path d="M249.712,372.349v-3.368h9.365c0,.555.031,1.139-.006,1.715-.035.534.2,1.108-.2,1.62H256.1v6.441c-.109.109-.194.19-.279.274h-3.046l-.244-.243v-6.439Z" transform="translate(-233.57 -368.793)" fill="#464442" fill-rule="evenodd"/><path d="M262.08,379.111l-.237-.235v-9.363c0-.237-.054-.493.4-.629H265.1c.365.173.291.458.291.716v5.989h4.767v3.521Z" transform="translate(-222.167 -368.884)" fill="#464442" fill-rule="evenodd"/><path d="M255,385.316v-6.459c.815-.151,17.04-.206,21.454-.072-.11.642.157,1.3-.194,1.936-.025.043-.006.114,0,.173.12,1.108-.274,2.185-.182,3.29.035.4-.243.737-.194,1.168.043.376.163.811-.153,1.166-.029.033-.012.114-.006.173a18.885,18.885,0,0,1-.206,3.2c-.037.825-.171,1.657-.145,2.493a2.31,2.31,0,0,0-.159,1.519c.031.448-.248.807-.217,1.255.023.407.182.871-.153,1.257-.029.031-.012.112-.006.171.14,1.081-.26,2.13-.169,3.2.037.44-.256.807-.194,1.259a2.691,2.691,0,0,1-.014,1.226,5.15,5.15,0,0,0-.145,1.707c-.012.425-.26.8-.2,1.253a1.53,1.53,0,0,1-.157,1.168c-.031.037-.012.114,0,.173a20.1,20.1,0,0,1-.225,3.289,17.341,17.341,0,0,1-.163,2.223,13.114,13.114,0,0,0-.153,1.88,8.233,8.233,0,0,0-.188,1.164,1.522,1.522,0,0,1-.157,1.17c-.031.033-.012.113,0,.173.114,1.1-.268,2.188-.182,3.291.031.4-.262.739-.188,1.168a2.425,2.425,0,0,1-.012,1.139,5.162,5.162,0,0,0-.14,1.793c.006.332-.273.565-.208.939-.522-.037-.933.291-1.426.382a15.986,15.986,0,0,1-2.088.539,3.137,3.137,0,0,0-.693.215,12.332,12.332,0,0,1-2.476.66,3.872,3.872,0,0,0-1.081.37,3.313,3.313,0,0,1-1,.153,1.1,1.1,0,0,1-.923.353,2.8,2.8,0,0,0-1.335.4c-.407.175-.838-.012-1.22.287a2.955,2.955,0,0,1-1.075.371,24.432,24.432,0,0,0-3.017.836,5.489,5.489,0,0,0-1.015.307v-6.985c.145,0,.382.058.425-.01.219-.343.6-.1.881-.268a5.853,5.853,0,0,1,.941-.287c.753-.262,1.537-.4,2.3-.654a13.261,13.261,0,0,1,1.9-.534c1.032-.2,2.027-.543,3.048-.784,1.038-.239,2.045-.619,3.095-.858a1.133,1.133,0,0,0,.875-.44c-.012-.215.14-.52.151-.794a21.469,21.469,0,0,1,.194-2.315,8.694,8.694,0,0,1,.165-1.614,2.352,2.352,0,0,0,.012-1.139c-.066-.4.225-.695.206-1.081a4.328,4.328,0,0,1,.14-1.705,2.779,2.779,0,0,0,.008-1.226c-.068-.456.243-.811.211-1.259a3.2,3.2,0,0,1,.134-1.527,2.274,2.274,0,0,0,.012-1.143c-.072-.425.237-.753.194-1.164-.1-1.075.3-2.124.171-3.2-.006-.062-.025-.134.006-.177.359-.537.08-1.123.2-1.737H255v-6.732h15.942a6.92,6.92,0,0,0-.014-1.087c-.054-.367.244-.625.2-.991-.122-1.042.285-2.062.169-3.108-.006-.056-.029-.14,0-.175.347-.415.1-.885.194-1.372Z" transform="translate(-228.602 -359.647)" fill="#f0672c" fill-rule="evenodd"/><path d="M262.9,402.132H248.213c.012-1.022-.194-1.983-.237-2.963a12.511,12.511,0,0,0-.171-2.13,9.118,9.118,0,0,1-.14-1.7,7.693,7.693,0,0,1-.194-1.344,1.683,1.683,0,0,0-.157-1.253c-.031-.037-.014-.116-.006-.177.12-1.1-.274-2.183-.177-3.285.037-.376-.256-.679-.188-1.079a2.138,2.138,0,0,0-.012-1.052,4.045,4.045,0,0,1-.14-1.7c.017-.384-.279-.675-.208-1.077a8.052,8.052,0,0,0,.019-1.147c0-.21-.256-.31-.188-.549a2.383,2.383,0,0,0,.006-.557H262.9v6.732h-9.1c-.023,0-.048.027-.066.049s-.031.047-.054.085c-.031.194.206.291.2.528a4.486,4.486,0,0,0,.165,1.961c-.074,1.244.3,2.474.175,3.723-.012.113,0,.225,0,.386H262.9Z" transform="translate(-236.679 -356.446)" fill="#ebecec" fill-rule="evenodd"/><path d="M254.906,395.608v-6.554h15.436c-.12.613.159,1.2-.2,1.737-.031.043-.012.114-.006.177.134,1.075-.268,2.124-.171,3.2.043.411-.266.739-.194,1.164a2.273,2.273,0,0,1-.012,1.143,3.207,3.207,0,0,0-.134,1.529c.031.446-.279.8-.211,1.257a2.779,2.779,0,0,1-.008,1.226,4.328,4.328,0,0,0-.14,1.705c.019.386-.272.679-.206,1.081a2.352,2.352,0,0,1-.012,1.139,8.694,8.694,0,0,0-.165,1.614,21.47,21.47,0,0,0-.194,2.315c-.012.274-.163.578-.151.794a1.133,1.133,0,0,1-.875.44c-1.05.239-2.057.619-3.095.861-1.021.237-2.016.582-3.048.78a13.261,13.261,0,0,0-1.9.534c-.759.258-1.542.392-2.3.654a6.516,6.516,0,0,0-.941.285c-.285.173-.662-.074-.881.27-.043.07-.279.01-.425.01h-.175v-6.909h.175a.972.972,0,0,0,.353-.006,20.047,20.047,0,0,0,2.27-.7c1.5-.221,2.908-.834,4.4-1.1.074-.014.128-.118.244-.231a2.33,2.33,0,0,1,.157-.832,3.628,3.628,0,0,0,.006-1.141c-.06-.423.237-.753.194-1.166-.1-1.071.3-2.119.171-3.2-.006-.058-.025-.13,0-.173.382-.6.066-1.24.2-1.9h-8.17Z" transform="translate(-228.687 -349.921)" fill="#fefdfc" fill-rule="evenodd"/><path d="M261.872,401.351v6.909a4.2,4.2,0,0,1-1.226-.258,13.217,13.217,0,0,0-1.494-.429c-.541-.06-.978-.448-1.537-.376a24.3,24.3,0,0,0-2.677-.8,19.428,19.428,0,0,0-2.136-.607c-.679-.14-1.323-.388-1.991-.549s-1.323-.367-2-.518a.8.8,0,0,1-.363-.231c-.062-.875-.194-1.748-.262-2.635a13.184,13.184,0,0,0-.163-1.961c-.153-.662-.025-1.331-.177-1.96a8.381,8.381,0,0,1-.14-2.058c.012-.3-.274-.491-.2-.813a3.977,3.977,0,0,0,.012-.887,54.667,54.667,0,0,1,6.5-.06c.066.06.128.12.188.184.017.021.048.048.048.07-.109,1.044.3,2.064.177,3.114a5.385,5.385,0,0,1,.194,1.851,16.162,16.162,0,0,0,1.985.605c1.135.343,2.3.565,3.43.92.607.188,1.226.3,1.833.485" transform="translate(-235.653 -345.215)" fill="#ebecec" fill-rule="evenodd"/><path d="M254.906,388.846v-6.732h16.668c-.1.487.153.956-.194,1.372-.029.035-.006.118,0,.175.116,1.046-.291,2.066-.169,3.108.043.367-.256.625-.2.991a6.919,6.919,0,0,1,.014,1.086H254.906Z" transform="translate(-228.687 -356.446)" fill="#fefefe" fill-rule="evenodd"/><path d="M255,392.432h8c-.134.664.182,1.308-.2,1.9-.025.043-.006.114,0,.173.134,1.077-.268,2.124-.171,3.2.043.413-.254.743-.194,1.166a3.627,3.627,0,0,1-.006,1.141,2.33,2.33,0,0,0-.157.832c-.116.113-.171.217-.244.231-1.492.264-2.9.877-4.4,1.1a20.059,20.059,0,0,1-2.27.7.973.973,0,0,1-.353.006Z" transform="translate(-228.602 -346.746)" fill="#f0672c" fill-rule="evenodd"/><path d="M259.376,385.584h.175v6.732h-8.857c0-.161-.012-.273,0-.386.128-1.249-.248-2.48-.175-3.723a4.486,4.486,0,0,1-.165-1.961c.006-.237-.231-.334-.2-.528.023-.039.029-.066.054-.085s.043-.049.066-.049Z" transform="translate(-233.157 -353.184)" fill="#e45227" fill-rule="evenodd"/></g></svg>