<svg xmlns="http://www.w3.org/2000/svg" width="150" height="149.998" viewBox="0 0 150 149.998"><path d="M291.343,819.447a75,75,0,1,1,75-75A75.086,75.086,0,0,1,291.343,819.447Z" transform="translate(-216.343 -669.449)" fill="#fff"/><path d="M244.531,703.52v17.535h-3.141v-7.107h-6.615v7.107h-3.141V703.52h3.141v7.346h6.615V703.52Z" transform="translate(-201.966 -637.418)" fill="#33475b" fill-rule="evenodd"/><path d="M247.455,713.38a2.6,2.6,0,1,1-5.194,0v-7.6h-2.972v7.6a5.572,5.572,0,1,0,11.138,0v-7.6h-2.972Z" transform="translate(-194.771 -635.293)" fill="#33475b" fill-rule="evenodd"/><path d="M256.677,708.65a1.867,1.867,0,0,1,2.107-2.027,4.466,4.466,0,0,1,2.823,1.513l1.962-2.344a6.147,6.147,0,0,0-4.594-2.272c-3.256,0-5.6,1.928-5.6,5.13,0,5.933,7.155,4.053,7.155,7.375a2.076,2.076,0,0,1-2.105,1.928c-1.771,0-2.348-.879-3.16-1.806l-2.179,2.3a6.392,6.392,0,0,0,5.171,2.613c3.089,0,5.578-1.954,5.578-5.007,0-6.593-7.157-4.542-7.157-7.4" transform="translate(-181.799 -637.418)" fill="#33475b" fill-rule="evenodd"/><path d="M280.423,717.745c-1.795,0-2.3-.78-2.3-1.977v-5.3h2.788v-2.685H278.12v-3.543l-3.079,1.391v10.8c0,2.759,1.892,4.152,4.484,4.152a6.217,6.217,0,0,0,1.213-.1l.753-2.784c-.339.023-.728.047-1.067.047" transform="translate(-161.159 -636.742)" fill="#33475b" fill-rule="evenodd"/><path d="M252.511,718.079a3.471,3.471,0,1,0-3.389-3.469,3.432,3.432,0,0,0,3.389,3.469m.019-10.095a6.4,6.4,0,0,1,6.206,6.587,6.614,6.614,0,0,1-6.662,6.587c-3.2,0-6.038-2.757-6.038-6.783V703.623h2.988v5.8a4.532,4.532,0,0,1,3.506-1.44" transform="translate(-188.427 -637.321)" fill="#33475b" fill-rule="evenodd"/><path d="M266.143,715.825a3.475,3.475,0,1,0-3.407-3.473,3.44,3.44,0,0,0,3.407,3.473m6.255-3.436a6.422,6.422,0,0,1-6.238,6.595,4.551,4.551,0,0,1-3.521-1.442v5.809h-3V712.585c0-4.03,2.858-6.788,6.067-6.788a6.635,6.635,0,0,1,6.7,6.592" transform="translate(-175.642 -635.278)" fill="#33475b" fill-rule="evenodd"/><path d="M279.189,719.97a3.456,3.456,0,1,0-3.4-3.455,3.427,3.427,0,0,0,3.4,3.455m1.017-10.106a6.744,6.744,0,0,1-1.017,13.389,6.522,6.522,0,0,1-4.01-1.383l-2.452,2.5a2.2,2.2,0,0,1,.1.625,2.153,2.153,0,1,1-2.154-2.19,2.085,2.085,0,0,1,.615.1l2.48-2.526a6.819,6.819,0,0,1-.1-7.578l-8.154-6.459a2.545,2.545,0,0,1-1.29.357,2.666,2.666,0,1,1,2.623-2.662,2.694,2.694,0,0,1-.1.666l8.292,6.563a6.534,6.534,0,0,1,3.129-1.4v-3.073a2.372,2.372,0,0,1-1.341-2.134v-.07a2.35,2.35,0,0,1,2.322-2.363h.07a2.35,2.35,0,0,1,2.322,2.363v.07a2.372,2.372,0,0,1-1.341,2.134v3.073" transform="translate(-173.789 -639.443)" fill="#ff7a59" fill-rule="evenodd"/></svg>