<svg xmlns="http://www.w3.org/2000/svg" width="150" height="150" viewBox="0 0 150 150"><g transform="translate(1487.734 167.207)"><rect width="150" height="150" rx="75" transform="translate(-1487.734 -167.207)" fill="#ffe000"/><g transform="translate(-1448.358 -117.539)"><path d="M-1425.815-100.9h10.343v34.231c0,9.1-3.716,15.893-14.23,15.893-12.446,0-16.284-9.12-16.284-9.12l8.348-5.313s1.53,5.24,6.909,5.24c2.885,0,4.914-1.663,4.914-4.181Z" transform="translate(1445.986 101.444)"/><path d="M-1339.78-88.923c.2-.049,7.726-4.988,7.726-4.988s-2.347-8.216-14.377-8.216c0,0-14.768-.489-14.768,13.5,0,17.213,21.908,14.67,21.908,22.788,0,3.961-3.765,5.233-6.211,5.233a11.949,11.949,0,0,1-10.612-6.211l-8.068,4.939s3.179,10.416,18.533,10.416c7.775,0,16.626-4.157,16.626-13.839,0-17.9-22.446-15.355-22.446-23.423,0-3.327,3.57-4.643,5.477-4.6C-1341.98-93.226-1339.78-88.923-1339.78-88.923Z" transform="translate(1400.27 102.129)"/></g></g></svg>