<svg xmlns="http://www.w3.org/2000/svg" width="150" height="149.998" viewBox="0 0 150 149.998"><path d="M291.343,709.958a75,75,0,1,1,75-75A75.085,75.085,0,0,1,291.343,709.958Z" transform="translate(-216.343 -559.96)" fill="#fff"/><g transform="translate(39.45 42.717)"><path d="M247.09,610.58" transform="translate(-226.887 -555.087)"/><path d="M289.046,619.112h.023a2.378,2.378,0,0,0,2.491-2.45,2.9,2.9,0,0,0-.58-1.843,2.052,2.052,0,0,0-1.63-.776h-.012c-.9,0-1.729.683-2.545,2.08l-.064.111-.041-.122c-.206-.6-.39-1.1-.5-1.4-.072-.211-.107-.3-.116-.334a.331.331,0,0,0-.338-.246.6.6,0,0,0-.322.1.374.374,0,0,0-.18.254l-.006.018c-.815,2.545-1.488,3.779-2.06,3.779a.256.256,0,0,1-.2-.08c-.146-.167-.111-.557-.06-1.1a10.16,10.16,0,0,0,.06-1.329,1.342,1.342,0,0,0-1.346-1.482c-1.03,0-1.7,1.1-2.006,1.752l-.093.194-.021-.215c-.076-.807-.349-1.773-1.2-1.783-1,0-1.762,1.174-2.227,2.161l-.126.264.014-.293c.056-1.312.1-2.088.136-2.3a.57.57,0,0,0-.056-.442.445.445,0,0,0-.38-.1c-.32.021-.481.217-.73.871-.407,1.071-1.436,3.57-2.254,3.57a.5.5,0,0,1-.39-.165c-.345-.4-.206-1.467-.016-2.945l.016-.113c.091-.7-.064-.848-.446-.921a.8.8,0,0,0-.116-.01c-.3,0-.448.291-.73,1.1-.5,1.442-1.154,2.955-1.913,2.955a.386.386,0,0,1-.083-.008c-.4-.068-.394-.666-.382-1.42a8.5,8.5,0,0,0-.048-1.292c-.114-.753-.557-1.22-1.16-1.224-1.191,0-2,1.529-2.379,2.443l-.081.208-.027-.223c-.052-.394-.116-1.021-.145-1.766v-.019l.008-.018c2.241-2.819,3.242-4.854,3.257-6.6.012-1.114-.5-1.777-1.372-1.787-.638,0-2.146.528-2.668,5.43-.1.908-.151,1.839-.161,2.77v.016l-.012.018c-1.022,1.48-3.207,4.032-5.347,4.032-1.934,0-3.477-1.566-3.477-4.325,0-3.7,2.621-5.976,4.592-5.976h.014a1.656,1.656,0,0,1,1.063.345,1.161,1.161,0,0,1,.419.941,1.693,1.693,0,0,1-.33,1.024c-.043.068-.083.132-.12.2a.261.261,0,0,0-.023.256.405.405,0,0,0,.347.146,1.62,1.62,0,0,0,1.184-1.7,2.294,2.294,0,0,0-2.5-2.177c-2.437,0-5.716,2.677-5.716,7.018,0,3.067,1.925,5.186,4.53,5.186,1.851,0,3.679-1.323,5.3-3.535l.1-.132.01.165c.031.811.093,1.449.134,1.913.027.3.05.514.047.634a.879.879,0,0,0,.132.557.545.545,0,0,0,.452.165c.363,0,.437-.246.58-.859l.041-.175c.18-.741.84-3.164,1.835-3.164a.517.517,0,0,1,.378.144c.219.235.19.712.167,1.269a6.991,6.991,0,0,0,0,1.048c.093.941.5,1.4,1.24,1.407.761,0,1.554-.821,1.971-1.581l.078-.143.033.161c.074.407.421,1.746,1.5,1.746.982,0,1.822-1.034,2.745-3.16l.122-.276-.008.3c-.021.807-.062,1.791-.062,2.551,0,.586.058.811.328.811.021,0,.041.006.062.006.258,0,.438-.157.528-.468.693-2.417,1.294-3.545,1.888-3.545s.636,1.069.683,2.949l0,.13c.016.66.039.951.446.955.31,0,.386-.246.547-.844.029-.115.064-.241.1-.375.557-1.944,1.024-2.738,1.6-2.738.5,0,.524.514.534.681a7.447,7.447,0,0,1-.054,1.1,7.451,7.451,0,0,0-.054,1.011,1.1,1.1,0,0,0,1.168,1.189c.947,0,1.795-1.1,2.54-3.275l.052-.151.058.149c.136.341.31.8.472,1.358l.01.017-.01.021a13.145,13.145,0,0,0-1.236,4.334c-.012,1.257.557,2.07,1.447,2.076h.016c.483,0,1.61-.192,1.63-1.989a12.7,12.7,0,0,0-.514-3.093l-.041-.149.128.085a2.649,2.649,0,0,0,1.465.46m-24.275-6.088c.021-.448.058-.889.113-1.3.347-2.672,1.075-4.536,1.766-4.536h0c.336,0,.5.25.493.743-.006,1.2-.768,2.93-2.264,5.128l-.116.173Zm22.119,9.6a.547.547,0,0,1-.454.225.6.6,0,0,1-.5-.235c-.316-.421-.229-1.414.285-3.222.066-.213.13-.433.2-.644l.058-.178.052.182c.6,2.082.72,3.386.355,3.872m.186-5.337-.008-.019-.023-.072.012-.019c.685-1.412,1.467-2.224,2.156-2.224h.006c.772.006,1.31.7,1.3,1.69a1.547,1.547,0,0,1-.537,1.242,1.6,1.6,0,0,1-1.013.363,2.489,2.489,0,0,1-1.89-.96" transform="translate(-220.462 -559.234)"/><path d="M259.53,618.385c1.061-.085,1.9-1.527,2.212-2.144l.081-.155.029.173c.149.863.621,2.322,2.093,2.334h.012a3.159,3.159,0,0,0,2.091-1.127l.054-.056.037.068A2.112,2.112,0,0,0,268,618.7a1.756,1.756,0,0,0,1.719-1.294.433.433,0,0,0-.1-.334.215.215,0,0,0-.324-.021l-.049.045a2.121,2.121,0,0,1-1.18.689q-.9.044-1.327-1.067l-.008-.031.017-.027a13.31,13.31,0,0,0,2.685-7.638c-.05-1.022-.349-2.235-1.461-2.235l-.083,0a1.637,1.637,0,0,0-1.152.6c-1.034,1.156-1.573,4-1.378,7.244a7.3,7.3,0,0,0,.349,1.876l.008.031-.019.027a2.6,2.6,0,0,1-1.7,1.1c-1.164,0-1.125-1.948-1.034-3.564.019-.351.048-.574-.052-.7a.468.468,0,0,0-.378-.136h-.023c-.411,0-.495.085-.708.7-.44,1.273-1.31,3.419-2.187,3.419a.663.663,0,0,1-.553-.246c-.421-.543-.1-1.9.155-2.98.05-.192.091-.38.132-.555a.655.655,0,0,0-.052-.557.58.58,0,0,0-.512-.142c-.376.029-.615.188-.729.9l-.027.146-.085-.1a1.225,1.225,0,0,0-1.075-.528c-.052,0-.1,0-.161.006a2.916,2.916,0,0,0-1.876,1.149,3.834,3.834,0,0,0-.83,2.736c.01.052.016.1.021.151l0,.029-.016.021a1.56,1.56,0,0,1-1.119.6c-.57,0-.9-.431-.9-1.139,0-1.2.809-4.794.809-6.1,0-1.389-.619-2.144-1.694-2.15H251.1c-1.568,0-2.792,1.777-3.954,5.436-.113.334-.229.724-.328,1.054l-.165.553.05-.57c.107-1.277.18-2.516.219-3.688.06-1.767-.178-2.9-.729-3.479a1.6,1.6,0,0,0-1.2-.466h-.012c-1.919,0-2.838,3.234-3.506,5.518-.2.689-.6,2.243-.867,3.3l.159-.254c.116-1.339.46-4.689.436-6.509-.023-1.948-.675-2.823-2.107-2.835h-.017a2.21,2.21,0,0,0-1.6.7,2.779,2.779,0,0,0-.793,1.907c.012.392.252.741.436.741.116,0,.184-.157.21-.252.446-1.465,1.017-2.177,1.756-2.177a.9.9,0,0,1,.7.276c.574.615.469,2.281.281,5.3-.064.974-.132,2.08-.19,3.335-.012.213-.023.425-.035.621-.056.873-.1,1.564.231,1.614a.7.7,0,0,0,.852-.534c.213-.633.689-2.363,1.61-5.518.889-3.03,1.556-4.132,2.412-4.132.99,0,1.063,1.7.881,5.281-.037.755-.091,1.62-.128,2.553-.006.132-.012.262-.017.382-.035.778-.068,1.387.151,1.622a.393.393,0,0,0,.287.111c.429,0,.561-.374.774-1,.035-.111.076-.227.12-.351,1.469-4.049,2.553-7.565,4.012-7.565.437,0,.776.355.776,1.048,0,1.6-.78,4.687-.78,6.255a2.156,2.156,0,0,0,.466,1.416,1.644,1.644,0,0,0,1.265.563h.016a2.294,2.294,0,0,0,1.508-.706l.05-.045.039.054a1.661,1.661,0,0,0,1.474.656,2.493,2.493,0,0,0,1.948-1.637l.056-.149.056.149a1.566,1.566,0,0,0,1.634,1.166m8.346-10.587h.016a.333.333,0,0,1,.272.155c.357.485.365,2.26-.254,4.278a14.464,14.464,0,0,1-1.374,3.155l-.087.144-.023-.167c-.062-.489-.1-1-.118-1.43-.157-3.052.764-6.092,1.57-6.135m-10.048,7.134c-.318,1.275-.925,2.811-2.022,2.9-.031,0-.06.006-.089.006-.452,0-.71-.3-.759-.887a3.034,3.034,0,0,1,.811-2.192,1.571,1.571,0,0,1,1.11-.588h.008a1.092,1.092,0,0,1,.937.72l.008.021Z" transform="translate(-236.677 -558.739)"/><path d="M260.484,606.725" transform="translate(-214.294 -558.711)" fill="#12110b"/><path d="M250.552,608.532a.714.714,0,1,0-.012,1.428l.006.06v-.06a.714.714,0,1,0,.006-1.428" transform="translate(-224.319 -557.013)"/><path d="M263.666,608.532a.714.714,0,1,0-.012,1.428l.006.06v-.06a.714.714,0,1,0,.006-1.428" transform="translate(-211.994 -557.013)"/><path d="M265.2,603.425a.734.734,0,0,1-.522.211.739.739,0,0,1-.745-.745.7.7,0,0,1,.233-.541.71.71,0,0,1,.512-.2.738.738,0,0,1,.743.743.73.73,0,0,1-.221.534m-.958-.964a.586.586,0,0,0-.178.431.6.6,0,0,0,.18.436.607.607,0,0,0,.867,0,.6.6,0,0,0,.178-.436.594.594,0,0,0-.178-.431.6.6,0,0,0-.869,0m.673.8a.391.391,0,0,1-.219.07.41.41,0,0,1-.293-.118.431.431,0,0,1-.124-.32.475.475,0,0,1,.107-.311.357.357,0,0,1,.293-.132.4.4,0,0,1,.2.05.353.353,0,0,1,.173.276l-.186,0a.176.176,0,0,0-.074-.12.188.188,0,0,0-.1-.031.173.173,0,0,0-.138.07.337.337,0,0,0-.052.208.3.3,0,0,0,.058.2.2.2,0,0,0,.144.064.158.158,0,0,0,.115-.041.19.19,0,0,0,.05-.107h.184a.362.362,0,0,1-.138.246" transform="translate(-211.047 -563.015)" fill="#6f5243"/><path d="M284.556,614.4a1.763,1.763,0,0,0-.017-.211c-.006-.047-.016-.091-.023-.134a2.916,2.916,0,0,0-.078-.291v0a1.652,1.652,0,0,0-.31-.537,1.6,1.6,0,0,0-.46-.369l-.006,0a1.855,1.855,0,0,0-.5-.173c-.047-.006-.089-.012-.132-.016a2.593,2.593,0,0,0-.21-1.8.305.305,0,0,0,.037-.035,6.145,6.145,0,0,0,.541-.592l.029-.041a1.979,1.979,0,0,0,.252-.516,2.016,2.016,0,0,0,.076-.382h0v-.01l0-.016,0-.037h0l0-.039h0v-.1a1,1,0,0,0,0-.153,2.525,2.525,0,0,0-.231-.972,2.267,2.267,0,0,0-.363-.547,2.293,2.293,0,0,0-.58-.464.2.2,0,0,1-.045-.023,8.147,8.147,0,0,0-1.478-1.632c-.246-.209-.477-.388-.673-.53s-.359-.254-.448-.322a3.794,3.794,0,0,0-.44-.287,4.252,4.252,0,0,1-.372-.246.645.645,0,0,1-.1-.087l-.006-.006a.153.153,0,0,1-.016-.062.927.927,0,0,1-.023-.239,7.87,7.87,0,0,1,.016-.79c.031-.555.093-1.323.161-2.365.019-.332.023-.644.012-.941a5.821,5.821,0,0,0-.182-1.284v0c-.017-.087-.045-.173-.07-.26-.021-.066-.039-.115-.05-.143v0a1.568,1.568,0,0,0-.062-.169v0c-.012-.029-.025-.064-.047-.109-.035-.085-.076-.174-.126-.271l-.017-.027-.023-.047-.017-.029a4.455,4.455,0,0,0-.3-.433,7.793,7.793,0,0,0-.3-1,5.849,5.849,0,0,0-.576-1.135,4.131,4.131,0,0,0-.3-.4l.037-.041a17.369,17.369,0,0,0,2.268-3.044c1.812-3.149,1.207-5.075.384-6.133l-.023-.029-.027-.025a4.986,4.986,0,0,0-3.217-1.585,13.849,13.849,0,0,0-6.73,1.4l-1.492-1.653-.006,0a2.948,2.948,0,0,0-.435-.39,3.391,3.391,0,0,0-.506-.3,4.033,4.033,0,0,0-1.166-.318,7.635,7.635,0,0,0-2.8.258,19.6,19.6,0,0,0-5.046,2.237,34.884,34.884,0,0,0-5.485,4.129,33.572,33.572,0,0,0-5.392,6.2,19.45,19.45,0,0,0-1.614,2.943,9.912,9.912,0,0,0-.77,2.648,4.826,4.826,0,0,0,.056,1.68,3.29,3.29,0,0,0,.225.654,2.757,2.757,0,0,0,.483.73l0,0,1.566,1.641.173.18-.012.019-.052.1c-.029.05-.056.1-.08.149l-.052.1c-.023.048-.05.1-.074.151l-.043.107c-.027.048-.045.1-.068.157-.012.035-.027.07-.041.1a1.474,1.474,0,0,0-.058.161l-.035.109c-.021.056-.037.112-.054.167l-.014.046a.268.268,0,0,0-.016.062c-.017.056-.031.114-.047.173-.008.035-.014.07-.023.107l-.017.078c-.006.035-.016.072-.021.107s-.014.066-.019.1c-.012.074-.023.146-.033.223a.641.641,0,0,0-.008.064l0,.008v.019l-.017.145c-.006.078-.012.153-.014.233a.611.611,0,0,0-.006.1c0,.025,0,.052-.006.078v.336c0,.035,0,.066,0,.1s0,.076.01.115,0,.058,0,.087,0,.045.006.058l.01.109c.006.041.008.085.017.134v.006a.175.175,0,0,0,.006.049l.017.122c.006.039.012.079.019.13l.006.052.017.072v0l0,0,.006.031c.006.035.016.076.027.134a.165.165,0,0,1,.008.039c.01.037.017.064.023.083l.01.039.008.041.01.035L247,610l0,.025.012.037.012.031.025.085c.01.031.021.074.043.132l0-.01,0,.012.012.029c.017.05.025.089.031.109h.006c.012.033.027.08.05.138l0,0v0l.008.027.035.087.012.027v.006c0,.014.016.031.023.054s.021.045.033.074v0l.012.025c.012.023.019.05.031.068a.3.3,0,0,0,.025.05h0l0,0v0l.054.118,0,0v0l.012.021.029.056c.012.025.023.047.029.064l0,0c.016.027.035.062.06.109v0h0l.008.019a.212.212,0,0,1,.029.054.8.8,0,0,1,.045.07l.006.006v0l.056.1.006,0,.006.016.037.054c.017.029.035.056.05.078l0,0c.016.023.039.056.068.1v.008l0,0h0c.017.019.029.041.045.058a.7.7,0,0,0,.054.076l0,0c.017.023.035.05.062.082l.006.006.049.068c.023.027.043.052.066.076l.006.01.048.06.01.012,0,0,.006.006.089.1.029.035,0,0h0c.016.014.029.035.056.058l.006.006v0l.006,0h0c.035.035.066.07.1.1.012.016.027.027.041.043v0a.373.373,0,0,1,.05.05l.006,0,.012.017a1.191,1.191,0,0,1,.124.118l.012.008.006,0h0c.01.008.027.025.052.049.054.05.109.1.161.138l0,.006.031.025.021.016v0l.029.027c.047.035.087.07.132.1l.012.012.006,0a.143.143,0,0,1,.033.027l.008.006.01,0a.223.223,0,0,0,.037.029l.114.081.033.021,0,0,.041.025.021.017c.039.025.08.049.116.078.027.014.045.027.068.039l.035.021.017.012.016.008c.064.039.126.07.178.1l.006,0,.033.017,0,0c.076.041.149.074.217.111l.012.006.035.019c.039.018.076.031.111.049a.2.2,0,0,1,.05.023c.023.01.045.021.064.029l.017.006,0,0,.008,0c.039.016.074.031.109.043l.016.008c.041.016.078.033.116.047l.012,0,.029.012.056.017.017.006c.056.019.111.041.169.058l.014.006h.008c.087.029.173.052.264.08h0l.012,0h0c.08.021.155.039.229.054l.029.008.029.006c.074.016.146.029.219.041l.021.006.052.01.132.017.019.052v0c.12.332.252.66.4.991,2.086,5.77,7.85,10.244,14.425,11.061s13.606-3.554,16.466-9.462c.122-.229.237-.448.34-.666a3.24,3.24,0,0,0,.65-.914,2.353,2.353,0,0,0,.217-1.1" transform="translate(-228.811 -581.977)" fill="#6f5243"/><path d="M262.427,589.961v0Z" transform="translate(-212.468 -574.472)" fill="#6f5243"/><path d="M247.464,598.29v0Z" transform="translate(-226.535 -566.643)" fill="#6f5243"/><path d="M246.5,597.388v0Z" transform="translate(-227.438 -567.49)" fill="#6f5243"/><path d="M246.5,597.39" transform="translate(-227.438 -567.487)" fill="#6f5243"/><path d="M246.058,596.439l0,0Z" transform="translate(-227.861 -568.385)" fill="#6f5243"/><path d="M246.017,596.286" transform="translate(-227.895 -568.525)" fill="#6f5243"/><path d="M246.593,597.512v0l0,0Z" transform="translate(-227.356 -567.379)" fill="#6f5243"/><path d="M278.376,585.007a3.61,3.61,0,0,0-1.086-.817c-.074-.029-.149-.056-.223-.08-.039-.023-.076-.043-.114-.07a5.157,5.157,0,0,0-1.116-.272,11.672,11.672,0,0,0-5.333.943l-.206.087c-.1.045-.209.087-.316.142-.179.076-.359.157-.547.243-.027.012-.052.025-.08.039l-.336-.394-.153-.174-.144-.165-.058-.07-1.282-1.49-.113-.13-.136-.161-.027.006-.363.081-.417.1a2.78,2.78,0,0,0-.825-.225,6.584,6.584,0,0,0-2.373.231,16.368,16.368,0,0,0-3.056,1.183,31.632,31.632,0,0,0-6.99,4.92c-.821.751-1.585,1.515-2.291,2.28-.679.743-1.306,1.49-1.864,2.231a20.665,20.665,0,0,0-2.573,4.243,8.839,8.839,0,0,0-.685,2.334,3.664,3.664,0,0,0,.039,1.28,1.9,1.9,0,0,0,.1.322,1.655,1.655,0,0,0,.334.547l1.42,1.492.153.161.012-.01c.043-.054.087-.1.13-.151l.012-.016.05-.049c.045-.045.087-.091.132-.136a1.05,1.05,0,0,0,.081-.079c.027-.023.054-.048.083-.072a.209.209,0,0,1,.037-.035c.027-.027.058-.054.087-.08l.126-.1.078-.062.012-.01c.043-.035.091-.07.134-.1l.087-.062.147-.1c.029-.017.056-.037.085-.058q.079-.047.151-.093c.029-.017.062-.033.091-.052a1.787,1.787,0,0,1,.161-.091c.029-.016.056-.033.085-.047l.031-.018.006,0,.138-.068a.724.724,0,0,1,.08-.037l.118-.052c.035-.016.07-.029.1-.041l.043-.021c.087-.035.175-.07.262-.1l.089-.025c.029-.012.06-.023.089-.033l.039-.012.056-.017c.037-.012.076-.021.115-.033l.029-.006.128-.037.13-.031.157-.035c.021-.006.045-.008.064-.012a.24.24,0,0,1,.066-.008c.052-.012.1-.023.153-.029s.091-.012.138-.021.074-.008.109-.012a.377.377,0,0,1,.048-.006.218.218,0,0,0,.049-.006h.027a5.267,5.267,0,0,1,.6.01l.033,0a6.4,6.4,0,0,1,.708.1c.062.012.12.027.182.043l.037-.072c.136-.237.268-.471.406-.7a24.96,24.96,0,0,1,2.509-3.5c.3-.347.592-.677.891-.987a23.044,23.044,0,0,1,3.642-3.093q.381-.259.747-.483c.328-.212.646-.4.949-.562.246-.138.483-.262.706-.375.374-.186.714-.343,1.013-.471.093-.039.18-.078.266-.113.132-.052.252-.1.361-.14-.093-.01-.19-.017-.287-.023s-.184-.006-.277-.006h-.072c-.093,0-.19,0-.287.008a5.366,5.366,0,0,0-.561.062c-.066.008-.132.022-.194.035a8.173,8.173,0,0,1,1.4-.57,7.707,7.707,0,0,1,.877-.221,9.026,9.026,0,0,1,1.1-.144c.229-.014.444-.017.644-.017s.384.012.547.025a5.656,5.656,0,0,1,.925.134,1.488,1.488,0,0,0-.295-.309,2.659,2.659,0,0,0-.648-.351c-.082-.031-.157-.058-.225-.082s-.1-.033-.146-.044c.1-.014.192-.029.287-.041s.2-.025.3-.035a7.714,7.714,0,0,1,2.107.1,5.544,5.544,0,0,1,1.055.287,1.621,1.621,0,0,0-.384-.471,2.764,2.764,0,0,0-.341-.248c.221.049.429.107.632.169a9.593,9.593,0,0,1,1.325.518c.118.052.221.109.314.159a.394.394,0,0,1,.076.041c.322.177.5.3.5.3a1.684,1.684,0,0,0-.293-.53c-.033-.039-.064-.079-.1-.116l.017.006c.008.006.035.012.07.025a.568.568,0,0,1,.093.031,5.958,5.958,0,0,1,.609.262l.039.021c.031.013.07.035.1.052.087.047.175.1.27.149s.169.109.256.167c.047.029.091.062.138.093a3,3,0,0,1,.285.227,3.443,3.443,0,0,1,.287.254c.017.021.037.039.054.058.068.068.132.142.2.217a4.01,4.01,0,0,1,.33.468,3.043,3.043,0,0,1,.293.644l.012.043c.054-.056.151-.165.274-.309,1.04-1.2,4.1-5.07,2.256-7.437" transform="translate(-228.257 -581.424)" fill="#1f2534"/><path d="M276.822,609.115h0a.881.881,0,0,0-.109-.51l0-.006a.314.314,0,0,0-.027-.041l-.008-.013c-.016-.021-.035-.041-.052-.062a.8.8,0,0,0-.124-.1.549.549,0,0,0-.081-.047,1.088,1.088,0,0,0-.293-.085,1.644,1.644,0,0,0-.283-.012c-.043,0-.085,0-.13.006h-.019l.008.029c.006.018.012.041.021.076l.008.041c.017.062.033.136.052.219a.5.5,0,0,1-.019.05l-.006.017a3.054,3.054,0,0,1-.51.764c-.056.062-.111.126-.179.194-.881.914-2.792,2.208-6.8,2.933a14.2,14.2,0,0,1-3.692.072,5.164,5.164,0,0,1-3.327-1.389c-.047-.058-.1-.116-.136-.179-.029-.045-.058-.091-.087-.138a.384.384,0,0,1-.029-.05,2.613,2.613,0,0,1-.334-1.319,2.55,2.55,0,0,1,.46-1.451,1.766,1.766,0,0,1,.9-.675,1.53,1.53,0,0,1,.563-.068q.055,0,.157.017l.541.07c.023,0,.048.006.074.012a18.55,18.55,0,0,0,3.407.118,14.941,14.941,0,0,0,9.27-3.838l.008-.012v-.006a1.433,1.433,0,0,0-.322-1,1.26,1.26,0,0,0-.184-.165,1.3,1.3,0,0,0-.128-.085c-.045-.025-.089-.052-.13-.078s-.109-.068-.155-.1l-.006-.014c-.023-.033-.043-.064-.064-.1a8.9,8.9,0,0,0-2.4-2.287,2.536,2.536,0,0,0-.347-.221c-.974-.6-1.116-.794-1.024-2.406.033-.58.093-1.341.159-2.375q.012-.2.017-.39v-.087c0-.115,0-.235-.006-.345v-.029l0-.035-.017-.258a1.042,1.042,0,0,0-.012-.109c-.008-.087-.019-.173-.031-.258l-.027-.122c-.006-.046-.017-.089-.027-.138s-.017-.085-.029-.13-.029-.1-.043-.149a.561.561,0,0,1-.016-.054l-.016-.049-.006-.016-.017-.049c-.014-.041-.029-.076-.041-.112l-.006-.014-.014-.035-.016-.041-.006-.008c-.029-.068-.058-.136-.091-.2l-.025-.047c-.039-.06-.078-.116-.114-.169l-.016-.027-.019-.025-.083-.109-.037-.047-.113-.13,0-.006v-.008l0-.012v-.013l-.006-.016,0-.025,0-.018-.006-.031,0-.016-.056-.252,0-.008c-.006-.023-.016-.05-.023-.076v-.01c-.01-.029-.016-.058-.023-.085v0c-.021-.068-.043-.144-.068-.217a.482.482,0,0,0-.027-.079c-.014-.052-.035-.1-.054-.161l-.037-.095c-.019-.05-.043-.1-.064-.159-.014-.033-.031-.068-.046-.1a1.577,1.577,0,0,0-.074-.151,1.025,1.025,0,0,0-.054-.113c-.027-.052-.058-.1-.089-.157-.019-.035-.037-.068-.058-.1l-.115-.169c-.017-.027-.041-.056-.054-.082s-.041-.048-.06-.072c-.043-.052-.087-.115-.138-.167l-.006-.006-.025-.025a2.366,2.366,0,0,0-.2-.194l-.012-.012c-.031-.023-.064-.052-.1-.076l0,0L269.2,589l-.089-.062-.014-.012.006.01a1.145,1.145,0,0,0-.161-.089.813.813,0,0,1-.085-.035,5.786,5.786,0,0,0-.6-.194l-.047-.012q-.305-.081-.663-.14c-.081-.012-.163-.027-.244-.033-.039-.006-.08-.008-.12-.012l-.047-.006c-.188-.017-.378-.029-.568-.029h-.012a3.92,3.92,0,0,0-.728.072.978.978,0,0,1,.355-.274,3.308,3.308,0,0,1,.372-.186,2.744,2.744,0,0,0-.326.037l-.1.017a.52.52,0,0,1-.068.016l-.021,0-.054.012a8.735,8.735,0,0,0-1.372.435c-.043.018-.078.035-.111.047l-.017.008c-.033,0-.062.01-.093.012h.006a1.707,1.707,0,0,1,.778-.731.685.685,0,0,1,.12-.05.112.112,0,0,1,.039-.014c.035-.012.064-.023.087-.029a.869.869,0,0,1,.093-.023.508.508,0,0,0-.074.006l-.064,0c-.031,0-.064,0-.093.006l-.058.006a4.251,4.251,0,0,0-1.608.528,5.57,5.57,0,0,0-.84.57c-.064.016-.132.027-.2.041-.664.142-1.42.326-2.218.568q-.445.137-.9.3c-.235.085-.475.177-.708.274-.173.07-.343.143-.51.215a11.989,11.989,0,0,0-3.444,2.247c-.039.033-.074.068-.113.1-.087.087-.173.178-.258.272-.031.037-.07.072-.1.109s-.081.1-.122.148a7.817,7.817,0,0,0-.539.691c-.126.179-.242.369-.355.559l-.014.023a8.083,8.083,0,0,0-.6,1.3c-.085.231-.159.471-.225.716-.017.066-.037.132-.05.2l-.01.035c-.064.27-.115.547-.157.834-.006.056-.016.111-.023.167-.017.144-.033.289-.045.437s-.019.272-.025.413v.029c0,.07-.014.138-.014.207v.293c0,.159,0,.314.014.475v.025c.008.161.019.326.031.489.006.068.012.136.021.206l.006.05c0,.041.008.078.012.117.019.182.041.367.074.557.006.05.014.1.023.155.025.163.052.334.087.5a2.7,2.7,0,0,1-.012-.533c.006-.074.012-.153.019-.235a3.12,3.12,0,0,1,.13-.586,1.272,1.272,0,0,1,.052-.151l.027-.066a3.112,3.112,0,0,1,.134-.283c.012.068.027.134.039.2l.006.019v.033c0,.041,0,.085,0,.132v.342c0,.124.006.262.01.4a11.69,11.69,0,0,0,.2,1.938s.027-1.121.215-1.247a20.9,20.9,0,0,0,.638,2.856,1.008,1.008,0,0,0,.116.231l-.006-.2-.045-1.15s0-.045.006-.12c.233.474.493.956.79,1.455.081.138.165.278.254.419a5.955,5.955,0,0,0-1.477,2.057c-.062.134-.116.274-.167.415-.033.081-.058.163-.085.246l-.025.078-.054.176c-.008.035-.017.062-.023.093-.017.058-.031.12-.046.178-.006.029-.014.056-.019.085-.019.085-.039.177-.054.262v.008c-.017.087-.031.177-.043.266,0,.031-.01.06-.012.089-.006.06-.016.126-.021.19l-.008.1c-.006.064-.012.13-.016.2,0,.029,0,.058,0,.089,0,.093,0,.19,0,.285v.013c0,.072,0,.146,0,.221s.008.149.014.225l0,.031v.019c.01.091.017.184.029.273l.012.089c.01.062.017.126.027.194.008.033.014.068.019.1.01.058.021.115.035.173.01.039.016.076.025.115.014.054.025.115.041.169.008.039.019.078.029.118s.031.114.052.173c.01.035.021.076.033.111.019.062.041.12.06.182.012.035.023.07.039.109.023.064.05.128.076.2l.035.087c.08.194.171.386.27.576a.968.968,0,0,1,.045.089l.114.2.06.1c.039.062.072.124.113.184.023.039.049.074.072.115.039.058.078.115.118.177l.081.116c.041.056.081.115.126.173l.087.115c.045.062.1.12.142.178.029.039.058.074.087.112.056.064.111.128.171.192.025.029.052.062.076.091.087.1.175.19.27.289l0-.006s-.052-.076-.126-.21v0a.536.536,0,0,1-.043-.081l0-.01c-.014-.029-.031-.06-.047-.095l0-.006c-.019-.035-.033-.078-.05-.114a3.058,3.058,0,0,1-.248-1.281c.052.07.1.138.157.208.062.124.138.28.225.454.035.058.068.118.1.182.134.246.289.52.46.8a9.457,9.457,0,0,0,.656.945,6.32,6.32,0,0,1-.357-.929.534.534,0,0,1-.023-.248.521.521,0,0,0,.064.066c.023.023.043.045.064.068.045.056.1.13.155.208l.033.041c.029.039.06.08.1.124v0l.12.155a14.581,14.581,0,0,0,1.236,1.443,1.25,1.25,0,0,0,.3.233l-.516-.924c1.166.949,5.989,2.171,10.737.809a13.775,13.775,0,0,0,1.711-.613c.34-.149.677-.31,1.013-.489l.047-.029c.235-.126.466-.264.7-.407l.006,0c.169-.112.342-.223.512-.343.281-.2.565-.409.838-.638v0a.49.49,0,0,0,.048-.043,10.514,10.514,0,0,0,.763-.728,11.546,11.546,0,0,0,.846-1l.017-.023c.062-.081.122-.167.182-.246l.017-.027.052-.078c.081-.12.163-.239.237-.355a.914.914,0,0,0,.058-.085l.115-.184c.029-.05.058-.1.085-.144s.062-.1.091-.157c.054-.091.1-.186.155-.279.019-.035.037-.07.058-.109.039-.07.074-.14.109-.21.017-.035.035-.068.05-.1l.014-.029c.045-.091.085-.178.126-.266l.01-.017a2.893,2.893,0,0,0,.365-.408l.041-.056a1.438,1.438,0,0,0,.285-.817" transform="translate(-222.134 -576.567)" fill="#986b48"/><path d="M253.772,600.748l-.012-.068h0c-.056-.3-.1-.621-.126-.939l-.01-.068c-.052.012-.111.085-.173.18-.019.037-.043.078-.064.115a6.2,6.2,0,0,0-.307.718c.008-.134.029-.281.043-.425l.01-.052c.017-.149.039-.3.058-.444l.01-.054q.038-.253.082-.495a.3.3,0,0,1,.012-.06v-.012a.558.558,0,0,0,.008-.056l.017-.082c.021-.13.048-.252.068-.37s.045-.2.062-.3l.006-.029.006-.043a.313.313,0,0,0,.008-.041l.006-.006c.008-.023.01-.049.016-.072v-.006l.016-.06c0-.033.014-.066.019-.1v-.006l.017-.074c.01-.033.016-.062.021-.087v-.006l.012-.041v0l.006-.041a.47.47,0,0,1,.019-.076l0-.017,0-.01.006-.019,0-.016v0l0,0-.031.029c-.027.027-.056.05-.085.08l-.033.031c-.025.037-.058.072-.087.113l-.014.019c-.037.049-.068.1-.1.153l0,.006-.016.027c-.006.012-.014.023-.019.037a.812.812,0,0,0-.052.1l0,0-.006.014-.006.013c-.027.052-.047.1-.074.155-.058.146-.1.283-.14.4a1.183,1.183,0,0,0-.033.115c-.019.074-.035.132-.045.161v0l-.006.014,0-.017c0-.043.01-.091.012-.134.006-.091.016-.184.023-.275s.021-.155.029-.231a.49.49,0,0,0,.012-.074c.006-.035.01-.07.016-.1a.662.662,0,0,1,.019-.1l.006-.035,0-.012c.006-.039.014-.079.019-.12l.01-.047.006-.025,0,0,.008-.041.008-.047c.016-.058.031-.114.043-.173v-.01c.008-.041.023-.085.035-.126v-.006l0-.012c.023-.087.047-.173.074-.258l.006-.023.006-.023a.165.165,0,0,1,.016-.047c.041-.138.083-.275.13-.407l.008-.018c.037-.114.078-.225.122-.334l.006-.012c.017-.05.035-.1.056-.143l0-.006c.029-.074.058-.144.087-.211v0l.006-.01c.008-.017.025-.062.054-.122l.006-.01a.737.737,0,0,1,.031-.072c.016-.039.035-.078.05-.118l.017-.031v0l.3-.539.035-.07.008-.01.016-.029c.031-.058.064-.118.1-.178.049-.087.091-.169.138-.244.091-.161.165-.3.212-.378.027-.045.041-.074.047-.081l0-.006h0l0,0c-.012-.008-.1-.07-.252-.161a8.092,8.092,0,0,0-.726-.384c-.1-.047-.2-.093-.3-.134-.13-.052-.268-.107-.407-.153-.033-.012-.07-.019-.107-.031-.118-.039-.239-.072-.363-.1l-.006,0c-.085-.017-.169-.041-.254-.056-.07-.013-.142-.025-.208-.035-.033-.006-.068-.006-.1-.012l-.1-.01c-.1-.008-.188-.012-.285-.014-.045,0-.087,0-.134,0a4.4,4.4,0,0,0-.6.05l-.035,0a5.235,5.235,0,0,0-1.022.266c-.111.043-.219.089-.324.132-.033.017-.062.033-.1.048s-.072.035-.107.054a4.721,4.721,0,0,0-.9.6l-.01.006a4.8,4.8,0,0,0-.656.66,2.42,2.42,0,0,0-.167.208,2.739,2.739,0,0,0-.179.258,4.808,4.808,0,0,0-.3.516c-.031.06-.06.126-.093.19a.152.152,0,0,1-.016.037,4.748,4.748,0,0,0-.371,1.333c-.016.091-.023.184-.033.279l0,.035q-.009.108-.012.221c0,.091,0,.182,0,.275l0,.045.01.214.006.039,0,.049c.006.056.01.113.017.165l0,.016v0c0,.029.008.056.012.081.008.05.014.1.023.149s.014.074.019.109a.97.97,0,0,0,.029.142c.006.035.017.07.027.109l.006.025.012.039.006.029.01.035.035.116a.605.605,0,0,0,.037.12c.012.039.027.076.043.118l.012.029a.574.574,0,0,0,.029.081,1.028,1.028,0,0,0,.048.12l.045.1.029.062a.334.334,0,0,1,.023.058.962.962,0,0,1,.052.1l.062.12c.016.029.033.062.052.1l.07.12c.016.029.033.054.05.083s.052.082.076.12l.058.08c.027.041.056.079.083.12.023.025.037.049.058.07a.809.809,0,0,0,.1.122.43.43,0,0,0,.052.066c.029.041.07.078.1.12l.05.058c.039.037.08.076.116.116.017.017.033.035.05.05.041.041.08.081.126.12a.326.326,0,0,0,.047.041,1.346,1.346,0,0,0,.136.116.427.427,0,0,0,.043.039c.047.039.1.076.147.111l.041.035c.047.035.1.07.151.109l.041.027.165.1.035.021c.056.035.116.066.177.1l.029.017c.058.033.122.064.184.093l.023.012c.068.033.132.062.2.089l.023.012c.068.029.136.054.2.081l.021.006c.07.023.14.05.212.074l.014.006c.035.008.068.019.1.029l.115.035h.012c.078.021.153.039.227.056l.008,0h0c.076.017.155.029.233.045h0a4.745,4.745,0,0,0,.745.064c.064,0,.12,0,.18,0,.083,0,.169-.006.25-.014a3.157,3.157,0,0,0,.345-.043c.1-.012.206-.031.3-.052a4.744,4.744,0,0,0,.466-.114,3.805,3.805,0,0,0,1.094-.485s-.157-.7-.289-1.406l-.045-.231" transform="translate(-227.457 -571.632)" fill="#986b48"/><path d="M260.882,588.347h0Z" transform="translate(-213.92 -575.989)" fill="#986b48"/><path d="M265.887,584.343l-.056-.706.355-.786.138-.029a2.766,2.766,0,0,0-.823-.225,6.584,6.584,0,0,0-2.373.231,16.1,16.1,0,0,0-3.056,1.183,31.736,31.736,0,0,0-6.994,4.92c-.817.751-1.581,1.515-2.287,2.28-.679.743-1.306,1.49-1.864,2.227a20.831,20.831,0,0,0-2.573,4.245,8.852,8.852,0,0,0-.685,2.34,3.75,3.75,0,0,0,.035,1.277,2.241,2.241,0,0,0,.107.322,1.655,1.655,0,0,0,.334.547l1.42,1.492.153.161.012-.012c.043-.052.087-.1.13-.149l.012-.012.05-.052c.045-.045.087-.091.132-.136a.629.629,0,0,0,.081-.079c.027-.023.054-.048.083-.076l.037-.031c.027-.027.058-.054.087-.08l.126-.1.078-.062.012-.006c.043-.039.091-.074.134-.109l.087-.062.147-.1.085-.058q.079-.047.151-.093l.091-.052a1.79,1.79,0,0,1,.161-.091c.029-.016.056-.033.085-.047l.031-.018,0-.006a16.42,16.42,0,0,1,1.511-3.032,28.706,28.706,0,0,1,3.083-4.053c.776-.862,1.626-1.719,2.545-2.557a35.77,35.77,0,0,1,3.6-2.891c.8-.565,1.6-1.065,2.381-1.508.074-.041.147-.085.221-.126.2-.115.411-.223.615-.328q.667-.343,1.308-.621l-.21-.252-.035-.041-.256-.308-1.473-1.769.014-1.267-.014-.017,1.036-.308Z" transform="translate(-228.258 -581.424)" fill="#2d80c1"/><path d="M274.953,607.369h0a.881.881,0,0,0-.109-.51l0-.006a.309.309,0,0,0-.027-.041l-.008-.013c-.016-.021-.035-.041-.052-.062a.8.8,0,0,0-.124-.1.545.545,0,0,0-.081-.047,1.088,1.088,0,0,0-.293-.085,1.644,1.644,0,0,0-.283-.012c-.043,0-.085,0-.13.006h-.019l.008.029c.006.018.012.041.021.076l.008.041c.017.062.033.136.052.219a.5.5,0,0,1-.019.05l-.006.017a3.053,3.053,0,0,1-.51.764c-.056.062-.111.126-.179.194-.881.914-2.792,2.208-6.8,2.933a14.2,14.2,0,0,1-3.692.072,5.165,5.165,0,0,1-3.327-1.389c-.047-.058-.1-.116-.136-.179-.029-.045-.058-.091-.087-.138a.386.386,0,0,1-.029-.05,2.613,2.613,0,0,1-.334-1.319,2.551,2.551,0,0,1,.46-1.451,1.766,1.766,0,0,1,.9-.675,1.53,1.53,0,0,1,.563-.068q.055,0,.157.017l.541.07c.023,0,.048.006.074.012a18.551,18.551,0,0,0,3.407.118,14.94,14.94,0,0,0,9.27-3.838l.008-.012v-.006a1.433,1.433,0,0,0-.322-1,1.263,1.263,0,0,0-.184-.165,1.315,1.315,0,0,0-.128-.085c-.045-.025-.089-.052-.13-.078s-.109-.068-.155-.1l-.006-.014c-.023-.033-.043-.064-.064-.1a8.9,8.9,0,0,0-2.4-2.288,2.53,2.53,0,0,0-.347-.221c-.974-.6-1.116-.794-1.024-2.406.033-.58.093-1.341.159-2.375q.012-.2.017-.39v-.087c0-.115,0-.235-.006-.345V592.3l0-.035-.017-.258a1.042,1.042,0,0,0-.012-.109c-.008-.087-.019-.173-.031-.258l-.027-.122c-.006-.046-.017-.089-.027-.138s-.017-.085-.029-.13-.029-.1-.043-.149c-.008-.017-.01-.037-.016-.054l-.016-.049-.006-.016-.017-.049c-.014-.041-.029-.076-.041-.113l-.006-.014-.014-.035-.016-.041-.006-.008c-.029-.068-.058-.136-.091-.2l-.025-.047c-.039-.06-.078-.116-.114-.169l-.016-.027-.019-.025-.083-.109-.037-.047-.113-.13h0c-.045-.043-.091-.093-.138-.138-.052-.029-.1-.062-.159-.087a.313.313,0,0,0-.052-.023.476.476,0,0,0-.1-.041c-.021-.012-.041-.017-.062-.027s-.06-.018-.1-.025l-.06-.016c-.031-.008-.066-.012-.093-.018s-.041-.006-.062-.006a.769.769,0,0,0-.093-.006h-.058c-.033,0-.062,0-.1,0l-.058.008-.041,0-.058.01-.05.01c-.037.008-.08.019-.114.029l-.031.008a2.053,2.053,0,0,0-.3.114l-.031.016c-.039.019-.079.037-.118.058l-.043.019c-.035.021-.072.039-.107.058l-.047.031a.883.883,0,0,0-.1.06l-.047.029c-.035.021-.074.045-.109.068l-.041.027-.12.081-.025.016c-.045.031-.1.064-.138.1l0,0-.008,0h0c-.087.06-.173.12-.26.182s-.147.1-.223.153l-.035.025c-.076.05-.155.1-.231.149l-.039.023c-.076.047-.157.1-.235.142l-.043.019a2.481,2.481,0,0,1-.235.126l-.041.017c-.081.041-.165.076-.248.109l-.037.012a2.324,2.324,0,0,1-.262.085l-.025.006a2.061,2.061,0,0,1-.285.058,3.791,3.791,0,0,1-.5.029,5.134,5.134,0,0,1-.8-.062c-.089-.014-.18-.029-.27-.047a.686.686,0,0,1-.1-.018c-.239-.041-.471-.1-.71-.155-.1-.023-.2-.047-.3-.074-.161-.037-.32-.076-.487-.112l-.1-.023h0a.454.454,0,0,0-.07-.014l-.109-.025a.689.689,0,0,1-.1-.021l-.017,0-.012,0-.1-.017c-.074-.014-.145-.029-.223-.041l-.064-.008-.169-.027-.08-.01h-.006c-.05-.006-.1-.008-.147-.018l-.1-.008a.2.2,0,0,1-.047,0c-.029,0-.06-.006-.1-.006s-.062-.006-.1-.006c-.052,0-.1,0-.151-.006h-.089c-.06,0-.122,0-.186,0a.419.419,0,0,0-.05,0c-.082,0-.163.01-.243.017l-.064.01c-.054.008-.107.012-.159.021l-.023,0c-.027,0-.058.01-.085.013-.054.014-.109.021-.161.033-.031.006-.064.016-.1.023l-.157.041c-.033.01-.062.016-.093.027-.056.017-.114.037-.173.058l-.08.027c-.085.031-.167.066-.256.1a5.658,5.658,0,0,0-1.7,1.523,6.8,6.8,0,0,0-.417.638,7.385,7.385,0,0,0-.347.73c-.029.074-.054.145-.081.219-.045.126-.085.252-.12.378a.289.289,0,0,0-.012.045c-.037.14-.074.283-.1.429s-.052.309-.07.46c-.01.085-.021.169-.023.25a5.262,5.262,0,0,0,0,.677v.058c0,.058.01.114.016.173.017.157.037.322.07.477q.018.087.041.169c.014.054.027.112.041.165a4.711,4.711,0,0,0,.464,1.1,6.246,6.246,0,0,0,2.8,2.412,10.257,10.257,0,0,0,1.057.4.377.377,0,0,0-.043.029c-.062.016-.142.035-.227.058-.126.037-.272.083-.436.138-.18.06-.38.132-.59.221a7.138,7.138,0,0,0-1.773,1.028,2.4,2.4,0,0,0-.208.175,3.843,3.843,0,0,0-.334.332c-.012.014-.023.025-.039.041l-.047.052c-.041.05-.08.1-.12.149l-.043.056c-.054.07-.1.134-.149.2s-.091.142-.132.215a3.643,3.643,0,0,0-.47,2.124l.006-.008v-.035l.006-.01.01-.041,0-.008a.438.438,0,0,1,.017-.068l0-.017.023-.081c.008-.029.017-.062.029-.1l.006-.019c.012-.033.023-.068.035-.1l.01-.017a.748.748,0,0,1,.041-.1l.006-.017c.014-.039.031-.08.048-.12l.016-.023a1.27,1.27,0,0,1,.062-.126v-.006q.052-.1.111-.192c.017-.027.029-.05.047-.074l.016-.021v0a1.728,1.728,0,0,1,.109-.153c.025-.041.064-.082.1-.122l.037-.035a.952.952,0,0,1,.083-.095l.039-.037c.041-.039.081-.078.126-.114l0,0a5.8,5.8,0,0,0-.431,3.092v-.047l0-.008a.388.388,0,0,0,0-.05v-.008a.431.431,0,0,1,0-.068v-.006c0-.027,0-.056.006-.085v-.01l.01-.1v-.01c0-.031.008-.07.014-.1v-.012c.006-.041.016-.082.021-.124l0-.008,0-.023a1.158,1.158,0,0,1,.035-.147v-.012c.014-.047.029-.1.043-.145l.016-.045.012-.031c.012-.037.029-.08.045-.12l0-.006c.027-.056.052-.113.081-.167a.132.132,0,0,0,.023-.043c.037-.052.068-.1.107-.155v0a8.171,8.171,0,0,0-.033.931c0,.08.006.161.012.243,0,.056.006.109.012.167a6.67,6.67,0,0,1,.276-1.531,6.791,6.791,0,0,0-.258,2.609,7.887,7.887,0,0,0,.47,1.971,2.576,2.576,0,0,1,.1-1.591c.033.07.064.144.1.217.025.237.076.574.144.943a6.7,6.7,0,0,0,1.616,3.76,2.2,2.2,0,0,1-.4-1.416,3.037,3.037,0,0,0,.147.279,9.09,9.09,0,0,0,1.106,1.67s-.378-.733-.289-.891a10.084,10.084,0,0,0,1.622,1.682l-.516-.854-.012-.025a8.225,8.225,0,0,0,7.279.931,14.265,14.265,0,0,0,1.616-.555c.34-.149.677-.31,1.013-.489l.047-.029c.235-.126.466-.264.7-.407l.006,0c.169-.113.342-.223.512-.343.281-.2.565-.409.838-.638v0a.487.487,0,0,0,.048-.043q.41-.355.762-.728a11.565,11.565,0,0,0,.846-1l.017-.023c.062-.081.122-.167.182-.246l.017-.027.052-.078c.081-.12.163-.239.237-.355a.906.906,0,0,0,.058-.085l.115-.184c.029-.05.058-.1.085-.144s.062-.1.091-.157c.054-.091.1-.186.155-.279.019-.035.037-.07.058-.109.039-.07.074-.14.109-.209.017-.035.035-.068.05-.1l.014-.029c.045-.091.085-.178.126-.266l.01-.017a2.893,2.893,0,0,0,.365-.407l.041-.056a1.438,1.438,0,0,0,.285-.817" transform="translate(-220.266 -574.82)" fill="#fdedd4"/><path d="M252.112,598.56c-.052.013-.111.085-.173.18-.019.037-.043.078-.064.115a6.133,6.133,0,0,0-.307.722c.012-.138.029-.285.043-.429l.01-.052c.017-.149.039-.3.054-.444a.317.317,0,0,0,.014-.054q.038-.253.082-.495a.3.3,0,0,1,.012-.06v-.012a.559.559,0,0,0,.008-.056c.006-.029.01-.056.016-.082.023-.13.05-.252.07-.37s.045-.2.062-.3l.006-.029.008-.043.01-.041,0-.006c.008-.023.01-.049.016-.072v-.006l.016-.06c0-.033.014-.066.019-.1v-.006l.017-.074a.432.432,0,0,0,.017-.087v0a.217.217,0,0,1,.016-.043v0l.008-.041.017-.076,0-.017,0-.01.006-.019,0-.016v0l0,0-.031.029c-.027.027-.056.05-.085.08l-.029.031c-.027.037-.062.072-.091.113l-.014.019c-.037.049-.068.1-.1.153l0,.006-.016.027c-.006.012-.014.023-.019.037a.6.6,0,0,0-.052.1l0,0-.006.014-.006.014c-.027.052-.047.1-.07.155a3.791,3.791,0,0,0-.144.4,1.178,1.178,0,0,0-.033.115c-.019.074-.035.132-.045.161v0l-.006.018,0-.021c0-.043.01-.091.012-.134.006-.091.016-.184.023-.275s.021-.155.029-.231a.323.323,0,0,0,.01-.074l.017-.1c.006-.033.014-.066.019-.1l.006-.035,0-.012c.006-.039.014-.079.019-.12l.01-.047.006-.025,0,0,.008-.041.008-.047c.016-.058.027-.114.043-.172l0-.01c.01-.041.021-.085.033-.126v-.006l0-.012c.023-.087.047-.173.07-.258l.01-.023.006-.023c.006-.014.01-.031.016-.05.041-.134.083-.272.13-.4l.008-.018c.037-.114.078-.225.122-.334l.006-.012c.017-.05.035-.1.056-.143l0-.006c.029-.074.058-.144.087-.211v0l.006-.01c.008-.017.025-.062.05-.122l.006-.01a.485.485,0,0,0,.035-.072c.016-.039.035-.078.05-.118l.017-.031a.689.689,0,0,0-.076-.039l-.016-.006-.025-.016a3.024,3.024,0,0,0-.52-.19l-.029-.008a3.524,3.524,0,0,0-.351-.062c-.074-.008-.14-.016-.217-.017-.052,0-.113,0-.173,0-.087,0-.179.01-.264.021-.029,0-.054.01-.082.012s-.083.016-.128.021c-.017.006-.033.006-.05.012l-.087.017c-.058.018-.116.031-.173.049-.027.01-.052.016-.076.023-.078.031-.153.054-.227.091a.817.817,0,0,0-.083.041c-.037.016-.068.033-.1.048l-.035.019-.1.062c-.039.023-.068.041-.1.064s-.076.05-.111.08l-.068.052a1.768,1.768,0,0,0-.173.149,1.142,1.142,0,0,0-.083.085,1.474,1.474,0,0,0-.142.149l-.023.025c-.023.027-.047.056-.07.089l0,0,0,0-.045.058-.006.008-.006.01a2.624,2.624,0,0,0-.241.4.422.422,0,0,1-.029.06c-.029.072-.062.138-.087.211-.01.027-.021.056-.029.085-.027.074-.047.146-.068.223l-.006.029-.006.035,0,0c-.008.056-.023.113-.029.167-.006.027-.008.056-.012.083l0,.008-.01.085-.008.074a2.394,2.394,0,0,0-.006.266c0,.068.008.138.014.208v0l0,.031c0,.039.012.074.014.113a3.084,3.084,0,0,0,.089.4c.029.1.064.192.1.287a2.726,2.726,0,0,0,.266.485,2.805,2.805,0,0,0,.823.805,2.737,2.737,0,0,0,.6.291,2.777,2.777,0,0,0,.634.149c.047.006.1.006.149.008a1.462,1.462,0,0,0,.225.01c.072,0,.142-.012.21-.017.041,0,.078,0,.118-.01a2.065,2.065,0,0,0,.293-.058l.025,0,.113-.037a2.229,2.229,0,0,0,.351-.136l.027-.008c.029-.016.064-.027.093-.045h0c-.052-.3-.1-.621-.126-.943l-.01-.064" transform="translate(-225.941 -570.518)" fill="#fdedd4"/><path d="M256.3,583.6l.053.026,0-.006Z" transform="translate(-218.227 -580.454)" fill="#579fd7"/><path d="M270.973,599.872l-.008-.041c-.01-.035-.016-.058-.021-.076a2.824,2.824,0,0,0-.293-.656,1.781,1.781,0,0,0-.229-.3,1.7,1.7,0,0,0,.05-.208,2.283,2.283,0,0,0,.045-.26,2.54,2.54,0,0,0-.233-1.42c-.023-.045-.041-.083-.06-.115-.1.07-.2.138-.3.2a15.306,15.306,0,0,1-6.338,2.46,18.275,18.275,0,0,1-5.007.056l.029.01a1.684,1.684,0,0,0-1.333,1.151l.017.008-.087.677a2.092,2.092,0,0,0,.925,1.787,7.324,7.324,0,0,0,1.754.413,13.821,13.821,0,0,0,3.83-.107l.006,0h.01a15.968,15.968,0,0,0,6.15-2.441,9.209,9.209,0,0,0,1.11-.887l.012-.008.023-.025c-.019-.083-.035-.157-.052-.219" transform="translate(-217.376 -568.047)" fill="#fff"/><path d="M270.285,597.658c-.974-.594-1.116-.79-1.024-2.4.033-.58.093-1.341.159-2.375q.012-.2.017-.39V592.4c0-.116,0-.235-.006-.345v-.029l0-.035-.017-.258a1.046,1.046,0,0,0-.012-.109c-.008-.087-.019-.173-.031-.258l-.027-.122c-.006-.046-.017-.091-.027-.138s-.017-.085-.029-.13a2.608,2.608,0,0,0-.5-.547l-.039-.027-.006,0-.029-.025-.01-.006c-.029-.023-.058-.041-.087-.06s-.062-.041-.093-.062a2.494,2.494,0,0,0-.953-.334,2.952,2.952,0,0,0-.588-.029c-.091,0-.188.008-.281.019a4.425,4.425,0,0,0-.762.161c-.087.06-.173.12-.26.182s-.147.1-.223.153l-.035.025c-.076.05-.155.1-.231.149l-.039.023c-.076.047-.155.1-.235.142l-.041.019c-.076.047-.157.087-.237.126l-.041.017c-.081.041-.165.076-.246.109l-.039.012a2.31,2.31,0,0,1-.262.085l-.025.006a2.842,2.842,0,0,1-.285.058,3.793,3.793,0,0,1-.493.029,5.136,5.136,0,0,1-.8-.062l-.27-.043c-.035-.01-.064-.012-.1-.021-.239-.043-.475-.1-.71-.155-.1-.023-.2-.047-.3-.074-.161-.037-.322-.076-.487-.113-.031-.008-.064-.012-.1-.023-.138.012-.272.023-.409.037l-.029.006a6.145,6.145,0,0,0-1.2.283c-.023.008-.043.016-.066.025a1.624,1.624,0,0,0-.184.07c-.083.031-.167.064-.25.1a6.777,6.777,0,0,0-1.651,1.036,7.094,7.094,0,0,0-.592.563,6.666,6.666,0,0,0-.749.955.253.253,0,0,0-.039.058,5.538,5.538,0,0,0-.318.551c-.037.068-.072.136-.1.2l-.006.012a6.363,6.363,0,0,0-.276.671.2.2,0,0,0-.01.041l-.031.1c-.033.1-.066.208-.091.312s-.056.223-.076.332a.385.385,0,0,0-.016.074c-.012.064-.027.132-.039.2a6.256,6.256,0,0,0-.06.739c0,.058,0,.122,0,.184a4.632,4.632,0,0,0,.466,1.1,6.232,6.232,0,0,0,2.794,2.412,10.262,10.262,0,0,0,1.057.4l.01.016h0l.023-.017.142-.107.052-.041c.05-.035.1-.066.151-.1.016-.016.037-.027.05-.039.052-.037.107-.072.161-.109l.056-.037c.052-.035.111-.07.167-.109a.446.446,0,0,0,.058-.035l.173-.107.062-.035.179-.1a.471.471,0,0,0,.068-.039c.06-.031.122-.066.184-.1l.076-.041c.062-.033.122-.064.188-.1.025-.014.054-.025.081-.041.064-.033.126-.064.19-.093.033-.016.062-.029.091-.045l.192-.087c.037-.017.072-.033.107-.047l.19-.085.116-.047c.062-.027.126-.052.19-.08l.132-.052.188-.074.147-.052c.06-.023.122-.045.186-.068s.1-.039.161-.056.124-.043.184-.064.118-.037.178-.058.118-.039.177-.056l.2-.06c.056-.016.111-.033.171-.047l.219-.066c.037-.008.072-.019.111-.031.287-.724,1.143-2.526,2.609-2.722a2.893,2.893,0,0,1,.435-.031c.035,0,.07,0,.1,0a2.8,2.8,0,0,1-.039-.324c-.047-.776.192-1.422.534-1.442.262-.021.471.363.508.5a2.618,2.618,0,0,1,.19.871,2.861,2.861,0,0,1-.07.821.762.762,0,0,1,.08.1,2.145,2.145,0,0,1,.38,1.4l.4-.035.1-.01.023,0,.058-.006c.165-.016.334-.027.5-.039h.008c.384-.025.776-.05,1.187-.068a2.918,2.918,0,0,0-.347-.225" transform="translate(-220.119 -574.546)" fill="#f5d8b2"/><path d="M267.969,599.544a10.8,10.8,0,0,1-1.981,1.4c-.33.18-.662.341-.986.483a12.068,12.068,0,0,1-2.027.679,10.762,10.762,0,0,1-2.3.334,4.081,4.081,0,0,0,2.311.345,5.465,5.465,0,0,0,.745-.12,5.409,5.409,0,0,1-.1.753,3.63,3.63,0,0,1-.217.706l-.006.018v0a3.549,3.549,0,0,1-.39.7.556.556,0,0,0-.047.066l.047-.029c.235-.126.466-.264.7-.407l.006,0c.169-.112.342-.223.512-.343.281-.2.565-.409.838-.638v0a.491.491,0,0,0,.049-.043,10.534,10.534,0,0,0,.762-.728,11.555,11.555,0,0,0,.846-1l.017-.023c.062-.082.122-.167.182-.246l.017-.027.052-.078c.081-.12.163-.239.241-.355.017-.029.037-.056.054-.085l.115-.184c.029-.05.058-.1.085-.144s.062-.1.091-.157c.054-.091.1-.188.155-.279.019-.035.041-.07.058-.109.039-.07.074-.14.109-.21.017-.035.035-.068.05-.1l.014-.031c.045-.089.085-.176.126-.264l-.132.12" transform="translate(-214.114 -565.576)" fill="#f5d8b2"/><path d="M258.047,595.92c-.184.06-.38.132-.59.221a7.24,7.24,0,0,0-1.773,1.024c-.07.056-.14.115-.208.179a3.851,3.851,0,0,0-.334.332c-.012.014-.027.025-.039.041s-.031.035-.047.052l-.12.147-.043.058c-.054.066-.1.132-.153.2s-.087.142-.132.215a3.688,3.688,0,0,0-.466,2.125l0-.008V600.5l.006-.029,0-.01.01-.041,0-.012a.549.549,0,0,1,.017-.064l0-.017.023-.082.025-.1.01-.019c.012-.033.023-.068.035-.1l.01-.018a.888.888,0,0,1,.041-.1l.006-.016a1.031,1.031,0,0,1,.049-.12l.016-.023a1.26,1.26,0,0,1,.062-.126v-.006q.052-.1.111-.192c.017-.027.029-.051.047-.074l.016-.021v0c.031-.05.068-.1.1-.153s.068-.082.1-.122l.037-.035c.025-.033.054-.064.083-.095l.039-.037c.041-.039.081-.078.126-.114l0,0a5.8,5.8,0,0,0-.431,3.093v-.047l0-.008a.388.388,0,0,0,0-.05v-.008a.419.419,0,0,1,0-.068v-.006c0-.027,0-.056.006-.085v-.01l.01-.1v-.006c0-.031.008-.07.014-.1v-.016c.006-.037.012-.078.021-.12l0-.008,0-.023a1.012,1.012,0,0,1,.035-.147v-.012c.014-.047.029-.1.043-.145l.016-.045.016-.031a.8.8,0,0,1,.041-.12l0-.006.08-.167a.108.108,0,0,0,.025-.043c.037-.052.068-.1.1-.155v0a8.788,8.788,0,0,0-.029.931c0,.08.006.161.012.243,0,.056.006.109.012.167a6.57,6.57,0,0,1,.276-1.531c.041-.132.085-.258.136-.384a.238.238,0,0,1,.017-.056c.043-.12.093-.237.144-.347a.5.5,0,0,1,.029-.064c.048-.115.1-.227.155-.334.012-.016.019-.033.029-.048.116-.225.243-.439.373-.644l.029-.045q.073-.114.151-.221a.356.356,0,0,0,.035-.058.471.471,0,0,0,.041-.05c.066-.091.13-.178.194-.264l.033-.039c.066-.083.138-.169.2-.25l.006-.006c.085-.1.171-.2.258-.293.062-.068.124-.132.184-.2a.866.866,0,0,1,.074-.072c.147-.149.287-.281.419-.4a8.279,8.279,0,0,1,.815-.644q-.1.023-.227.058c-.126.037-.272.083-.437.138" transform="translate(-220.266 -569.054)" fill="#f5d8b2"/><path d="M262.738,594.278s-.006-.043-.021-.111c-.062-.252-.31-.846-1.288-.753a1.668,1.668,0,0,0-1.461,1.211c-.021.058-.031.089-.031.089l.031.027a.534.534,0,0,1,.6.047.826.826,0,0,1,.243.235.373.373,0,0,1,.046.384.175.175,0,0,1-.046.058.75.75,0,0,0,.1.037,1.409,1.409,0,0,0,1.506-.3.751.751,0,0,0,.058-.08.351.351,0,0,1-.128-.314.687.687,0,0,1,.029-.221c.07-.233.231-.371.355-.307" transform="translate(-214.81 -571.234)" fill="#f5d8b2"/><path d="M259.579,600.1c-.663.138-1.244.237-1.7.314a.33.33,0,0,1,.074.008,18.723,18.723,0,0,0,3.407.118,14.952,14.952,0,0,0,9.27-3.838l.006-.012v-.006a1.411,1.411,0,0,0-.32-1,1.354,1.354,0,0,0-.184-.165l-.035-.023a1.95,1.95,0,0,1-.223-.14,1.348,1.348,0,0,1-.155-.1l-.006-.012a5.881,5.881,0,0,1-.671.8c-.089.087-.184.173-.281.26a12.338,12.338,0,0,1-3.209,1.975,30.46,30.46,0,0,1-5.976,1.824" transform="translate(-216.74 -569.512)" fill="#f5d8b2"/><path d="M252,596.5c-.027.027-.058.05-.085.08l-.029.031c-.029.037-.062.072-.091.113l-.014.019c-.037.049-.068.1-.1.153l0,.006-.016.027c-.006.012-.014.023-.019.037a.8.8,0,0,0-.052.1l0,0-.006.014-.01.014c-.023.052-.043.1-.066.155a3.407,3.407,0,0,0-.144.4c-.016.041-.023.08-.035.115-.017.074-.033.132-.043.161v0l-.006.018,0-.021c0-.043.01-.091.012-.134.006-.091.016-.184.021-.275s.023-.155.031-.231a.491.491,0,0,0,.012-.074c.006-.035.01-.07.016-.1s.014-.066.019-.1l.006-.035,0-.012c.006-.039.014-.079.019-.12l.01-.047.006-.025v0l.012-.041a.336.336,0,0,1,.008-.047c.016-.058.031-.112.043-.172l0-.01c.01-.041.021-.085.033-.126v-.006l0-.012c.023-.087.047-.173.074-.258l.006-.023.006-.023.016-.047c.041-.138.083-.276.13-.407l.008-.018c.037-.114.078-.225.122-.334l.006-.012a1.172,1.172,0,0,1,.056-.143l0-.006c.029-.074.058-.14.087-.211v0l.006-.01a.966.966,0,0,1,.054-.122l.006-.01c.012-.023.019-.047.031-.072a1.229,1.229,0,0,0,.047-.118l.021-.031c-.027-.016-.052-.027-.076-.039l-.016-.006-.025-.016a3.024,3.024,0,0,0-.52-.19l-.029-.006a3.188,3.188,0,0,0-.351-.064c-.074-.008-.14-.016-.213-.017-.056,0-.116,0-.177,0-.087,0-.179.01-.264.021a.641.641,0,0,1-.082.012c-.041.006-.083.016-.128.021-.021.006-.033.006-.05.012l-.091.017c-.054.018-.113.031-.169.049-.027.01-.052.016-.08.023-.074.031-.149.056-.223.091-.031.012-.058.029-.083.041a.81.81,0,0,0-.1.05l-.035.017-.1.062c-.035.023-.068.041-.1.064s-.076.05-.111.08l-.068.052c-.06.047-.116.1-.175.149-.027.027-.056.056-.081.085a1.474,1.474,0,0,0-.142.149l-.027.029c-.019.023-.043.052-.066.085l0,0,0,0-.047.058-.006.008-.006.01a3.1,3.1,0,0,0-.241.4c-.01.019-.016.041-.027.06-.029.072-.058.138-.087.211-.01.027-.021.056-.029.085l.012.052c.023.064.043.126.064.188l.01.019.006.021c.023.06.043.12.07.178a4.543,4.543,0,0,0,.219.474c.01.021.023.043.033.062l.008.016.012.014c.056.1.113.19.161.268.08.122.153.213.2.278l.031.035.023.023.029.035a.725.725,0,0,1-.017-.093,3.79,3.79,0,0,1-.078-.666v-.037a4.122,4.122,0,0,1,.012-.413c.012.052.031.1.045.151.023.074.045.147.074.221l.008.019,0,.012a4.965,4.965,0,0,0,.349.747,4.125,4.125,0,0,0,.347.5.248.248,0,0,0,.039.047l.035.037a3.881,3.881,0,0,1-.1-.7c0-.08,0-.155,0-.233a2.809,2.809,0,0,1,.016-.289,4.466,4.466,0,0,0,.144.454l0,.012a4.826,4.826,0,0,0,.58,1.108l.021.023c.023.037.052.07.072.1s.029.039.041.05a.294.294,0,0,1,.037.043l.019.021-.008-.033-.019-.1c-.023-.12-.037-.241-.048-.357-.006-.08-.016-.155-.017-.235v-.258c0-.037,0-.076,0-.11l0-.023v-.018c.006-.1.014-.19.025-.281.017.062.039.122.058.178s.031.087.049.128l0,.01.006.014.006.023c.021.054.041.1.062.147.039.091.074.177.111.254.05.1.1.188.144.27.027.047.052.091.08.132a1.285,1.285,0,0,0,.093.148c.027.041.054.076.078.111l.019.023a.65.65,0,0,0,.062.085c.016.018.027.035.041.049a.692.692,0,0,0,.064.074l.006.01.017.014.01-.052c.014-.149.039-.3.058-.444l.01-.054q.038-.253.082-.495a.208.208,0,0,1,.012-.06v-.012a.559.559,0,0,0,.008-.056l.017-.082c.021-.13.048-.252.068-.37s.045-.2.062-.3l.006-.029.008-.043.01-.041,0-.006c.008-.023.01-.049.016-.072v-.006l.016-.06.017-.1v-.006c.006-.027.014-.047.019-.074s.016-.062.021-.087v0a.139.139,0,0,1,.012-.043v0l.008-.041.017-.076,0-.017,0-.01.006-.019,0-.016v0l0,0Z" transform="translate(-225.868 -570.518)" fill="#f5d8b2"/><path d="M265.228,600.138c.25-.083.466-.155.636-.229.336-.144.518-.239.506-.274s-.217-.01-.576.07c-.177.043-.394.08-.646.134-.122.029-.26.047-.4.078s-.3.054-.454.072c-.314.045-.671.085-1.055.13-.186.014-.38.029-.58.047s-.407.019-.615.029a12.927,12.927,0,0,1-2.738-.188,5.58,5.58,0,0,1-1.655-.592l-.017-.008a1.681,1.681,0,0,1,1.333-1.151l-.029-.01-.054-.006c-.151-.021-.285-.039-.4-.052-.085-.01-.155-.021-.217-.029l-.126-.012a1.2,1.2,0,0,0-1.1.724c-.016.035-.033.066-.047.1a2.042,2.042,0,0,0-.167.7,2.017,2.017,0,0,0,.45,1.434,2.864,2.864,0,0,0,1.211.768,2.092,2.092,0,0,1-.925-1.787,7.524,7.524,0,0,0,1.636.458,12,12,0,0,0,2.866.155c.217-.017.431-.037.638-.056s.409-.052.6-.074c.378-.068.729-.132,1.057-.2.163-.033.316-.076.46-.117s.281-.074.4-.118" transform="translate(-217.735 -566.778)" fill="#f5d8b2"/><path d="M260.744,593.957a1.544,1.544,0,0,1,1.125.423,2.725,2.725,0,0,0,.068-.821,2.615,2.615,0,0,0-.188-.873c-.035-.132-.246-.518-.508-.5-.34.021-.578.669-.532,1.442a2.887,2.887,0,0,0,.035.328" transform="translate(-214.089 -572.379)" fill="#6f5243"/><path d="M261.185,594.393a.343.343,0,0,0,.128.312c.13.062.285-.072.355-.307a.429.429,0,0,1,.016-.058v0c.047-.208,0-.413-.114-.471s-.285.076-.355.3a.694.694,0,0,0-.029.223" transform="translate(-213.636 -570.817)" fill="#6f5243"/><path d="M259.986,594.569a.777.777,0,0,0,.248.248.534.534,0,0,0,.609.041.24.24,0,0,0,.047-.06.374.374,0,0,0-.05-.384.794.794,0,0,0-.239-.237.537.537,0,0,0-.6-.045.206.206,0,0,0-.054.062.372.372,0,0,0,.043.375" transform="translate(-214.835 -570.619)" fill="#6f5243"/><path d="M264.466,595.988v-.006l-.015.021,0,0Z" transform="translate(-210.564 -568.811)" fill="#6f5243"/><path d="M271.634,600.871l-.012.012a8.5,8.5,0,0,1-1.11.883,15.966,15.966,0,0,1-6.15,2.441l-.01,0h-.006a13.9,13.9,0,0,1-3.83.109,7.565,7.565,0,0,1-1.754-.413,2.885,2.885,0,0,1-1.211-.77,2.1,2.1,0,0,1-.283-2.134.993.993,0,0,1,.048-.1,1.2,1.2,0,0,1,1.1-.726l.122.012c.062.008.132.019.217.029.115.018.248.035.4.052l.054.01a18.5,18.5,0,0,0,5.007-.056,15.383,15.383,0,0,0,6.338-2.46l.3-.208,1.04-1.556a14.964,14.964,0,0,1-9.264,3.832,18.2,18.2,0,0,1-3.407-.118l-.074-.008c-.227-.029-.409-.056-.541-.074-.064-.01-.12-.012-.161-.016a1.48,1.48,0,0,0-.559.066,1.766,1.766,0,0,0-.9.675,2.55,2.55,0,0,0-.46,1.451,2.637,2.637,0,0,0,.334,1.323.386.386,0,0,1,.029.05c.029.047.056.089.087.134.041.062.089.12.136.179a5.165,5.165,0,0,0,3.327,1.389,14.122,14.122,0,0,0,3.692-.074c4.012-.724,5.923-2.018,6.8-2.932.064-.068.122-.13.179-.194a3.128,3.128,0,0,0,.51-.764l.006-.017a.494.494,0,0,0,.019-.047Z" transform="translate(-218.008 -568.801)" fill="#6f5243"/><path d="M259.673,591.439a1.876,1.876,0,0,0-.405-.153,2.318,2.318,0,0,0-.277-.048.9.9,0,0,0-.1-.012,3.56,3.56,0,0,0-.875.037c-.085.021-.171.045-.252.068a2.783,2.783,0,0,0-1.395.912,2.957,2.957,0,0,0-.518.984c-.01.025-.017.06-.027.087-.023.087-.043.171-.064.254a4.258,4.258,0,0,0-.085.741,3.78,3.78,0,0,0,.012.458c.113-.243.229-.466.349-.677a6.381,6.381,0,0,1,.943-1.271,4.811,4.811,0,0,1,1.785-1.178,3.115,3.115,0,0,1,.914-.2" transform="translate(-218.821 -573.294)" fill="#ecbc86"/><path d="M262.727,591.087l-.023-.025a1.213,1.213,0,0,0-.26-.246,1.3,1.3,0,0,0-1.04-.157,1.9,1.9,0,0,0-.873.491,2.132,2.132,0,0,1,1.975.31,2.254,2.254,0,0,1,.277.229,2.958,2.958,0,0,1,.285.295,2.051,2.051,0,0,0-.293-.825c-.016-.023-.033-.047-.048-.072" transform="translate(-214.25 -573.854)" fill="#ecbc86"/><path d="M258,596.063c.371-.111.768-.217,1.2-.31a3.631,3.631,0,0,0,.039-1.185c-.12-1.028-.586-1.82-1.04-1.764s-.714.937-.592,1.965a3.374,3.374,0,0,0,.4,1.294" transform="translate(-217.033 -571.802)" fill="#6f5243"/><path d="M258.8,582.6l-.947.213.2,1.736-2.522-1.282-1.04.308.017.017,3.064,3.494.031-.021.041-.023c.1-.058.19-.12.287-.182l.1-.064c.138-.081.276-.167.417-.25l-1.3-1.488,2.1,1.026.012,0,.19-.1-.2-1.506.958,1.106.012-.006c.081-.041.161-.078.239-.116l.025-.016.041-.017.041-.019c.031-.017.066-.035.1-.05l.021-.008c.114-.06.225-.109.336-.161Z" transform="translate(-219.929 -581.389)" fill="#ffd344"/><path d="M256.232,582.769l-.006-.056Z" transform="translate(-218.297 -581.286)" fill="#579fd7"/><path d="M263.686,582.851l.14-.029A2.79,2.79,0,0,0,263,582.6a6.6,6.6,0,0,0-2.373.231,16.174,16.174,0,0,0-3.052,1.183,31.521,31.521,0,0,0-6.99,4.92c-.821.751-1.585,1.515-2.291,2.28l2.86,3.5c.77-.854,1.61-1.7,2.518-2.526a36.6,36.6,0,0,1,3.673-2.949,28.351,28.351,0,0,1,3.481-2.1l-.5-2.235.012-1.267-.014-.017,1.036-.308,2.027,1.038-.056-.706Z" transform="translate(-225.758 -581.424)" fill="#579fd7"/><path d="M256.4,582.713l-.354.785.056.706.5.246Z" transform="translate(-218.469 -581.286)" fill="#1f2534"/><path d="M255.861,583.87l2.1,1.028-.8.46Z" transform="translate(-218.641 -580.199)" fill="#1f2534"/><path d="M256.948,583.568l.19,1.506.765-.4Z" transform="translate(-217.619 -580.482)" fill="#1f2534"/><path d="M271.1,583.4c.128-.006.256-.006.38,0a4.391,4.391,0,0,1,1.005.126.518.518,0,0,0,.052.012h0l.012,0,.029.012.029.006q-.052-.035-.111-.07a4.827,4.827,0,0,0-1.116-.27,11.645,11.645,0,0,0-5.333.941c-.068.029-.134.058-.206.087-.1.045-.21.087-.316.138-.179.081-.359.161-.547.246-.027.012-.052.025-.08.039-.111.052-.221.1-.336.161l-.021.012a.665.665,0,0,0-.1.047l-.041.019-.041.018-.025.016-.239.116-.012.006-.006,0c-.021.008-.043.023-.062.029l-.01.006a.478.478,0,0,0-.043.023c-.124.062-.246.126-.37.194-.087.043-.173.089-.256.134l-.016.012-.19.1-.01,0c-.2.115-.409.233-.611.349-.021.016-.045.027-.064.039l-.056.031-.05.029-.019.014c-.142.083-.279.169-.413.25l-.1.064c-.1.062-.19.124-.287.182l-.041.023-.031.021c-.262.169-.526.341-.79.524-.431.293-.858.6-1.28.91l-.163.124c-1.108.834-2.177,1.725-3.2,2.652-1.081.98-2.109,2-3.081,3.021-.528.528-.978,1-1.346,1.4a12.665,12.665,0,0,0-1.127,1.3.965.965,0,0,0,.184-.167c-.1.109-.188.219-.285.33a71.389,71.389,0,0,1,5.328-5.145c1.168-1.007,2.384-1.977,3.642-2.877.547-.394,1.106-.776,1.67-1.141.18-.115.361-.231.543-.345.093-.056.184-.113.275-.167.049-.033.1-.062.155-.1.1-.054.2-.116.293-.175s.192-.113.287-.167c.052-.029.1-.06.151-.089l.367-.2.219-.124h0c.231-.126.462-.248.7-.365l.058-.033.111-.052c.047-.027.1-.05.144-.074a.159.159,0,0,1,.054-.025l.008-.01c.033-.015.064-.029.1-.047l.021-.01.012-.006c.1-.049.2-.1.3-.149a.261.261,0,0,0,.06-.025l.1-.045.349-.165c.033-.014.064-.027.093-.043l.05-.023.1-.045c.136-.058.27-.12.4-.175s.237-.1.355-.153q1-.422,1.87-.7a11.331,11.331,0,0,1,2.928-.59" transform="translate(-223.809 -580.865)" fill="#fff"/></g></svg>