<svg xmlns="http://www.w3.org/2000/svg" width="150" height="150" viewBox="0 0 150 150"><path d="M393.234,818.214a75,75,0,1,1,75-75A75.085,75.085,0,0,1,393.234,818.214Z" transform="translate(-318.234 -668.214)" fill="#fff"/><g transform="translate(27.94 41.297)"><path d="M63.691,3H21V56.925H63.691ZM43.469,45.691H36.728V14.234h6.741Z" transform="translate(26.184 3.741)" fill="#5d86a0"/><path d="M5.842,6.741a172.223,172.223,0,0,0,41.343,5.168A173.64,173.64,0,0,0,88.527,6.741L84.932,4.718c1.123,2.7,1.8,7.19,2.472,12.358.449,5.168.9,10.785.9,16.627a128.02,128.02,0,0,1-.9,16.627,47.541,47.541,0,0,1-2.472,12.358l3.595-2.022A173.64,173.64,0,0,0,47.184,55.5H46.96A173.64,173.64,0,0,0,5.617,60.666l3.82,2.022A73.722,73.722,0,0,1,6.965,50.33c-.449-5.168-.9-10.785-.9-16.627a128.022,128.022,0,0,1,.9-16.627A47.541,47.541,0,0,1,9.437,4.718l-3.6,2.022L6.516,3.6,3.6,2.7C2.247,6.291,1.573,11.01.9,16.4A141.3,141.3,0,0,0,0,33.7,141.3,141.3,0,0,0,.9,51C1.573,56.4,2.247,61.115,3.6,64.71l.9,2.7,2.7-.674a162.454,162.454,0,0,1,79.539,0l2.7.674.9-2.7c1.348-3.6,2.022-8.313,2.7-13.706a143.728,143.728,0,0,0,.9-17.3,141.3,141.3,0,0,0-.9-17.3c-.674-5.392-1.348-10.111-2.7-13.706L89.65,0l-2.7.674a160.684,160.684,0,0,1-39.77,4.943H46.96A157.626,157.626,0,0,1,7.415.674L4.494,0,3.6,2.7,6.516,3.82" fill="#111"/><path d="M14.741,39.456V23.728l4.494,15.728h6.741V8H19.234V21.481L14.741,8H8V39.456Z" transform="translate(9.975 9.975)" fill="#111"/></g></svg>