<svg xmlns="http://www.w3.org/2000/svg" width="150" height="150" viewBox="0 0 150 150"><g transform="translate(242.833 -376.907)"><rect width="150" height="150" rx="75" transform="translate(-242.833 376.907)" fill="#6082bb"/><path d="M-210.1,386.775h-12.822l-5.727,28.933h6.466l1.593-7.419h7.31s12.408-.425,12.408-12.936c0-8.263-6.681-8.577-9.227-8.577m-4.449,16.531h-5.4l2.227-11.972h5.827c2.012,0,4.129.524,4.129,4.344,0,7.838-6.781,7.629-6.781,7.629" transform="translate(71.726 54.48)" fill="#fff" fill-rule="evenodd"/><path d="M-220.032,386.775H-232.86l-5.722,28.933h6.471l1.588-7.419h7.31s12.4-.425,12.4-12.936c0-8.263-6.681-8.577-9.222-8.577m-4.449,16.531h-5.408l2.227-11.972h5.827c2.012,0,4.134.524,4.134,4.344,0,7.838-6.781,7.629-6.781,7.629" transform="translate(32.058 54.48)" fill="#fff" fill-rule="evenodd"/><path d="M-227.679,385.245-233.3,414.3h6.256l3.286-16.755h5.717s3.505-.1,2.871,3.285-2.761,13.47-2.761,13.47h6.361l2.866-13.68s2.327-7.734-6.576-7.734h-7.315l1.054-7.639Z" transform="translate(53.166 48.371)" fill="#fff" fill-rule="evenodd"/></g></svg>