<svg xmlns="http://www.w3.org/2000/svg" width="150" height="149.998" viewBox="0 0 150 149.998"><path d="M393.234,708.724a75,75,0,1,1,75-75A75.085,75.085,0,0,1,393.234,708.724Z" transform="translate(-318.234 -558.726)" fill="#ff0114"/><g transform="translate(45.112 45.111)"><rect width="59.776" height="59.776"/><g transform="translate(5.277 17.971)"><path d="M351.973,591.431h1.5c.027.208.047.382.074.6a1.335,1.335,0,0,0,.231-.144,2.368,2.368,0,0,1,3.422.281,3.319,3.319,0,0,1-.367,4.482,2.433,2.433,0,0,1-3.009-.018,2.164,2.164,0,0,0-.308-.178v2.272h-1.5A63.3,63.3,0,0,1,351.973,591.431Zm4.264,2.864a1.468,1.468,0,0,0-.763-1.473,1.269,1.269,0,0,0-1.42.136,1.772,1.772,0,0,0-.241,2.3,1.263,1.263,0,0,0,1.6.411A1.4,1.4,0,0,0,356.237,594.294Z" transform="translate(-336.987 -591.204)" fill="#fff" fill-rule="evenodd"/><path d="M355.192,594.257a3.089,3.089,0,0,1,6.173-.027,3.023,3.023,0,0,1-3.093,2.97A2.943,2.943,0,0,1,355.192,594.257Zm1.595-.05a1.49,1.49,0,1,0,1.492-1.513A1.447,1.447,0,0,0,356.787,594.207Z" transform="translate(-333.88 -591.203)" fill="#fff" fill-rule="evenodd"/><path d="M351.322,596.131a3.116,3.116,0,0,1-4.767-.109,3.218,3.218,0,0,1,.163-3.774,2.852,2.852,0,0,1,3.422-.673,2.76,2.76,0,0,1,1.449,2.284,6.6,6.6,0,0,1,.01.927h-3.882c.1,1.174,1.4,1.436,2.707.555C350.7,595.591,351,595.851,351.322,596.131Zm-1.346-2.377a1.142,1.142,0,0,0-1.09-1.164,1.2,1.2,0,0,0-1.226,1.164Z" transform="translate(-342.5 -591.205)" fill="#fff" fill-rule="evenodd"/><path d="M365.9,591.369c.409,1.211.811,2.4,1.218,3.585.041,0,.081,0,.124-.006.4-1.2.786-2.4,1.185-3.6h1.653c-.159.462-.3.883-.454,1.294-.59,1.562-1.191,3.118-1.775,4.684a2.007,2.007,0,0,1-3.207.958c.153-.347.312-.71.456-1.022.417.033.766.06,1.236.093a3.46,3.46,0,0,0-.087-.751c-.557-1.436-1.139-2.864-1.7-4.293-.12-.3-.223-.6-.345-.945Z" transform="translate(-325.405 -591.136)" fill="#fff" fill-rule="evenodd"/><path d="M360.16,597.091c-.46,0-.828,0-1.2,0-.114,0-.221-.016-.365-.025v-5.617h1.517c.025.179.056.361.093.582a8.43,8.43,0,0,1,.823-.537,1.832,1.832,0,0,1,2.716,1.566c.066,1.251.023,2.507.031,3.76a1.128,1.128,0,0,1-.062.248h-1.519c-.01-.176-.029-.349-.029-.522-.006-.91.01-1.822-.012-2.734a.934.934,0,0,0-1.172-1.007c-.495.058-.807.454-.819,1.1-.016.863,0,1.727,0,2.588Z" transform="translate(-330.677 -591.206)" fill="#fff" fill-rule="evenodd"/><path d="M348.939,596.057c.336-.3.65-.576.991-.887a1.715,1.715,0,0,0,2.652.322c-.134-.475-.464-.51-.784-.574a13.523,13.523,0,0,1-1.471-.326,1.447,1.447,0,0,1-1.021-1.2,1.631,1.631,0,0,1,.7-1.571,2.69,2.69,0,0,1,1.938-.481,3.61,3.61,0,0,1,2.14.815c-.312.328-.605.64-.885.927-.761-.359-1.426-.887-2.2-.287-.056.423.206.5.493.559.473.1.958.18,1.426.316a1.584,1.584,0,0,1,.9,2.648,2.683,2.683,0,0,1-.968.623A3.673,3.673,0,0,1,348.939,596.057Z" transform="translate(-339.756 -591.16)" fill="#fff" fill-rule="evenodd"/><path d="M370.465,595.068c-.248-.05-.5-.1-.747-.159a10.1,10.1,0,0,1-1.416-.351,1.563,1.563,0,0,1-.254-2.738,2.809,2.809,0,0,1,2.039-.474,3.62,3.62,0,0,1,2.068.817c-.334.314-.642.607-.96.908-.567-.3-1.085-.679-1.74-.493a2.147,2.147,0,0,0-.5.293v.167a3.138,3.138,0,0,0,.6.3c.516.146,1.048.227,1.56.386a1.508,1.508,0,0,1,1.176,1.387,1.648,1.648,0,0,1-.889,1.612,3.761,3.761,0,0,1-4.394-.642c.314-.3.623-.6.947-.906.285.182.52.339.766.495a1.813,1.813,0,0,0,1.323.2C370.485,595.792,370.6,595.588,370.465,595.068Z" transform="translate(-322.777 -591.16)" fill="#fff" fill-rule="evenodd"/><path d="M361.486,596.071c.328-.3.636-.584.988-.9a2.236,2.236,0,0,0,2.171.658,1.9,1.9,0,0,0,.5-.374c-.184-.442-.5-.479-.828-.541a10.167,10.167,0,0,1-1.465-.334,1.386,1.386,0,0,1-.978-1.172,1.646,1.646,0,0,1,.632-1.552,2.351,2.351,0,0,1,1.393-.514,3.951,3.951,0,0,1,2.772.823c-.345.314-.658.6-.982.9-.669-.34-1.306-.813-2.084-.345-.1.442-.031.536.413.631.493.1.991.19,1.469.33a1.559,1.559,0,0,1,1.226,1.994,1.579,1.579,0,0,1-.85,1.069A3.758,3.758,0,0,1,361.486,596.071Z" transform="translate(-327.96 -591.158)" fill="#fff" fill-rule="evenodd"/><path d="M344.206,591.4h1.55c.023.264.047.5.076.844.493-.574.947-1.1,1.748-.953v1.583a.652.652,0,0,1-.113.064,1.579,1.579,0,0,0-1.632,1.641c-.029.57-.029,1.139-.039,1.705v.681a5.215,5.215,0,0,1-1.591.035Z" transform="translate(-344.206 -591.216)" fill="#fff" fill-rule="evenodd"/><g transform="translate(49.961)"><path d="M372.045,592.255a1.022,1.022,0,0,1-1.038,1.03,1.023,1.023,0,1,1,0-2.045A1.018,1.018,0,0,1,372.045,592.255Zm-1.826,0a.787.787,0,0,0,.794.813.778.778,0,0,0,.776-.805.785.785,0,1,0-1.57-.008Zm.627.534h-.235v-1.015a2.119,2.119,0,0,1,.386-.031.641.641,0,0,1,.353.072.287.287,0,0,1,.1.225.263.263,0,0,1-.211.235v.01a.315.315,0,0,1,.184.252.737.737,0,0,0,.074.252h-.254a.858.858,0,0,1-.082-.248c-.016-.109-.081-.159-.21-.159h-.111Zm.006-.576h.114c.128,0,.231-.043.231-.149,0-.091-.068-.153-.217-.153a1.159,1.159,0,0,0-.128.01Z" transform="translate(-369.957 -591.24)" fill="#fff"/></g></g><g transform="translate(0 39.858)"><rect width="59.776" height="19.918" fill="#ff0114"/><g transform="translate(4.36 6.74)"><path d="M348.991,606c.871.05,1.766.047,2.629.177a3.253,3.253,0,0,1,2.417,4.228,3.152,3.152,0,0,1-3.023,2.272,43.079,43.079,0,0,1-4.641-.093,3.134,3.134,0,0,1-2.559-2.429,3.265,3.265,0,0,1,1.766-3.733,4.171,4.171,0,0,1,1.465-.353c.642-.056,1.294-.018,1.938-.018C348.983,606.032,348.991,606.013,348.991,606Zm0,1.3c-.609,0-1.215-.017-1.824,0a2.072,2.072,0,0,0-2.109,1.961,1.968,1.968,0,0,0,1.822,2.144,29.6,29.6,0,0,0,4.167,0,1.982,1.982,0,0,0,1.818-2.206,2.111,2.111,0,0,0-2.109-1.9C350.171,607.281,349.585,607.289,348.991,607.291Z" transform="translate(-343.733 -605.995)" fill="#fff" fill-rule="evenodd"/><path d="M349.443,606.085c.192-.019.328-.05.464-.05,1.665-.006,3.333-.019,5,0a2.259,2.259,0,0,1,.405,4.489c-.184.035-.376.05-.693.085.786.677,1.5,1.292,2.2,1.9-.025.05-.049.1-.07.144-.778,0-1.55.244-2.26-.456-.844-.832-1.795-1.571-2.695-2.353a3.848,3.848,0,0,1-.365-.4c.021-.041.045-.081.066-.126.2-.01.405-.031.615-.031.92-.008,1.843.008,2.767-.018a.938.938,0,0,0,1-.933,1,1,0,0,0-.982-1.05c-1.331-.027-2.66-.006-4.1-.006v5.341h-1.352Z" transform="translate(-338.365 -605.967)" fill="#fff" fill-rule="evenodd"/><path d="M373.4,608.887l-.671,1.077h-5.219a1.537,1.537,0,0,0,1.209,1.358,3.574,3.574,0,0,0,.929.114c1.18.016,2.359.006,3.531.012.208,0,.409.023.743.041-.291.46-.522.807-.772,1.2-.741,0-1.463.012-2.187-.01a19.168,19.168,0,0,1-2.34-.114,3.127,3.127,0,0,1-2.695-3.033,3.255,3.255,0,0,1,2.167-3.306,2.979,2.979,0,0,1,1.028-.188c1.418-.021,2.835-.012,4.241-.012a2.478,2.478,0,0,1,.4.074c-.235.406-.442.762-.673,1.166-1.207,0-2.4,0-3.6,0a2.111,2.111,0,0,0-1.76.784,4.491,4.491,0,0,0-.363.685h5.976C373.37,608.786,373.391,608.835,373.4,608.887Z" transform="translate(-322.866 -605.963)" fill="#fff" fill-rule="evenodd"/><path d="M362.892,612.668h-1.465c-.25-.388-.485-.747-.735-1.129h-3.376c-.243-.378-.47-.735-.757-1.189H359.9c-.6-.964-1.123-1.808-1.709-2.755-1.129,1.764-2.2,3.453-3.248,5.085h-1.453a2.1,2.1,0,0,1,.122-.409c1.209-1.9,2.417-3.793,3.642-5.683a1.012,1.012,0,0,1,1.839,0c1.209,1.853,2.392,3.717,3.587,5.574A4.025,4.025,0,0,1,362.892,612.668Z" transform="translate(-334.562 -605.992)" fill="#fff" fill-rule="evenodd"/><path d="M366.034,611.492c-.332.487-.568.838-.852,1.25-1.509-.052-3.019-.029-4.513-.179a3.286,3.286,0,0,1,.508-6.509c1.453-.058,2.9-.017,4.354-.01a1.659,1.659,0,0,1,.345.091c-.25.4-.473.745-.714,1.141-1.218,0-2.427-.01-3.642,0a2.051,2.051,0,0,0-1.872,1.021,2.075,2.075,0,0,0,1.868,3.145c1.249.029,2.507.006,3.756.012C365.482,611.453,365.69,611.471,366.034,611.492Z" transform="translate(-330.315 -605.969)" fill="#fff" fill-rule="evenodd"/><path d="M363.747,611.42h5.743c-.18.949-.508,1.242-1.36,1.242h-4.59c-.945-.01-1.172-.237-1.172-1.2V606.76c0-.207.021-.417.035-.7h1.345Z" transform="translate(-326.213 -605.931)" fill="#fff" fill-rule="evenodd"/></g><g transform="translate(56.024 6.079)"><path d="M372.878,606.875a1.259,1.259,0,1,1-1.259-1.22A1.237,1.237,0,0,1,372.878,606.875Zm-2.2,0a.945.945,0,1,0,.945-.978A.946.946,0,0,0,370.674,606.875Zm.753.642h-.291v-1.222a2.511,2.511,0,0,1,.475-.037.747.747,0,0,1,.429.091.349.349,0,0,1,.122.266.314.314,0,0,1-.256.285v.012a.373.373,0,0,1,.221.3.955.955,0,0,0,.089.307h-.3a1.348,1.348,0,0,1-.1-.3c-.023-.134-.093-.192-.25-.192h-.134Zm0-.693h.14c.155,0,.283-.05.283-.175s-.085-.19-.264-.19c-.074,0-.128.01-.159.012Z" transform="translate(-370.362 -605.654)" fill="#fff"/></g></g></g></svg>