<svg xmlns="http://www.w3.org/2000/svg" width="150" height="150" viewBox="0 0 150 150"><g transform="translate(395 -1257)"><ellipse cx="75" cy="75" rx="75" ry="75" transform="translate(-395 1257)" fill="#cf649a"/><path d="M643.459,935.722a18.678,18.678,0,0,0-8.218,1.913,16.911,16.911,0,0,1-1.842-4.25,11.755,11.755,0,0,1-.159-3.578,28.687,28.687,0,0,1,1.08-3.861c-.018-.159-.195-.939-2.019-.956s-3.4.354-3.578.832a20.349,20.349,0,0,0-.762,2.71c-.319,1.665-3.648,7.562-5.543,10.662a10.871,10.871,0,0,1-1.258-3.117A11.754,11.754,0,0,1,621,932.5a28.681,28.681,0,0,1,1.08-3.861c-.018-.16-.195-.939-2.019-.956s-3.4.354-3.577.832-.372,1.612-.762,2.71c-.372,1.1-4.8,10.945-5.951,13.513-.584,1.311-1.1,2.355-1.47,3.064s-.018.053-.053.124c-.319.6-.5.939-.5.939v.018c-.248.443-.514.868-.638.868a5.906,5.906,0,0,1,.035-2.816c.655-3.418,2.249-8.749,2.232-8.944,0-.089.3-1.027-1.027-1.505a1.614,1.614,0,0,0-1.86.319c-.106,0-.195.283-.195.283s1.435-6-2.745-6c-2.621,0-6.234,2.851-8.023,5.455-1.133.62-3.542,1.93-6.092,3.329-.974.531-1.984,1.1-2.94,1.612l-.195-.213c-5.065-5.4-14.434-9.227-14.044-16.488.142-2.639,1.063-9.6,17.994-18.029,13.867-6.907,24.972-5.012,26.9-.8,2.745,6.021-5.933,17.214-20.349,18.826-5.49.62-8.377-1.505-9.1-2.3-.761-.832-.868-.868-1.151-.708-.461.248-.177.992,0,1.434a8.549,8.549,0,0,0,5.207,4.091c2.639.868,9.085,1.346,16.878-1.665,8.731-3.383,15.55-12.769,13.548-20.615-2.037-7.987-15.284-10.609-27.805-6.163-7.456,2.657-15.532,6.8-21.341,12.238-6.907,6.446-8.005,12.078-7.545,14.416,1.612,8.342,13.106,13.779,17.71,17.8-.23.124-.443.248-.638.354-2.3,1.134-11.069,5.72-13.265,10.573-2.479,5.49.39,9.44,2.3,9.971,5.915,1.647,11.972-1.311,15.249-6.181,3.259-4.87,2.869-11.193,1.364-14.08l-.053-.106,1.807-1.063c1.169-.691,2.32-1.328,3.33-1.877a22.049,22.049,0,0,0-1.187,6.022c-.248,3.117,1.027,7.155,2.71,8.749a3,3,0,0,0,2.178.708c1.948,0,2.834-1.612,3.808-3.542,1.2-2.355,2.267-5.083,2.267-5.083s-1.328,7.385,2.3,7.385c1.328,0,2.657-1.718,3.259-2.6v.018s.035-.053.106-.177c.142-.213.213-.337.213-.337V952c.531-.921,1.718-3.028,3.489-6.517,2.285-4.5,4.481-10.13,4.481-10.13A32.322,32.322,0,0,0,617.8,939a34.975,34.975,0,0,0,1.9,4.251c-.531.744-.85,1.169-.85,1.169l.018.018c-.425.567-.9,1.169-1.4,1.771a51.448,51.448,0,0,0-4.25,5.331,1.459,1.459,0,0,0,.39,1.948,3.544,3.544,0,0,0,2.232.354,9.944,9.944,0,0,0,3.33-.762,11.533,11.533,0,0,0,2.869-1.505,6.388,6.388,0,0,0,2.745-5.65,11.358,11.358,0,0,0-1.045-3.985c.159-.23.319-.46.478-.708a74.749,74.749,0,0,0,4.959-8.59,32.322,32.322,0,0,0,.868,3.648,25.591,25.591,0,0,0,1.612,3.648,15.747,15.747,0,0,0-4.835,6.252c-1.045,3.011-.23,4.374,1.311,4.693a4.716,4.716,0,0,0,2.426-.5,10.986,10.986,0,0,0,3.064-1.576c1.771-1.311,3.471-3.135,3.383-5.6a10.727,10.727,0,0,0-.761-3.312,17.253,17.253,0,0,1,8.784-1.01c7.881.921,9.44,5.844,9.139,7.9a5.291,5.291,0,0,1-2.5,3.542c-.549.336-.726.46-.673.708.071.372.319.354.8.283a6.131,6.131,0,0,0,4.286-5.473c.213-4.87-4.41-10.183-12.61-10.13Zm-60.782,20.491c-2.6,2.851-6.269,3.932-7.828,3.011-1.682-.974-1.027-5.172,2.178-8.2a41.688,41.688,0,0,1,6.146-4.587c.372-.23.939-.567,1.612-.974a1.851,1.851,0,0,1,.177-.106c.124-.071.266-.159.407-.248a11.3,11.3,0,0,1-2.692,11.1Zm19.039-12.946c-.9,2.214-2.816,7.9-3.967,7.58-.992-.266-1.594-4.569-.195-8.82a19.692,19.692,0,0,1,3.1-5.685c1.435-1.594,2.993-2.125,3.383-1.47C604.5,935.722,602.282,941.885,601.715,943.267Zm15.709,7.509c-.39.195-.744.336-.9.23-.124-.071.159-.337.159-.337s1.966-2.108,2.745-3.082c.443-.567.974-1.222,1.541-1.966v.213C620.967,948.385,618.523,950.085,617.425,950.776Zm12.114-2.763c-.283-.213-.248-.868.708-2.922a10.951,10.951,0,0,1,2.692-3.471,4.383,4.383,0,0,1,.266,1.523A4.983,4.983,0,0,1,629.539,948.013Z" transform="translate(-925.763 398.197)" fill="#fff"/></g></svg>