<svg xmlns="http://www.w3.org/2000/svg" width="150" height="150" viewBox="0 0 150 150"><path d="M393.234,818.214a75,75,0,1,1,75-75A75.085,75.085,0,0,1,393.234,818.214Z" transform="translate(-318.234 -668.214)" fill="#fff"/><g transform="translate(46.532 34.232)"><path d="M378.823,724.029V745.32c-.664,0-1.275-.037-1.878.016-.452.041-.817-.279-1.275-.219a3.624,3.624,0,0,1-1.253-.006c-1.1-.262-2.243-.322-3.339-.588a41.475,41.475,0,0,1-4.233-1.207c-1.121-.406-2.2-.906-3.31-1.348a46.317,46.317,0,0,1-6.119-3.44,21.038,21.038,0,0,0-2.256-1.822c-1.259-1.042-2.369-2.235-3.51-3.388a28.906,28.906,0,0,1-2.3-2.8c-.7-.9-1.269-1.886-1.952-2.784a38.4,38.4,0,0,1-2.09-4.164c-.359-.786-.71-1.57-1-2.388-.456-1.275-.776-2.586-1.133-3.89a22.972,22.972,0,0,1-.5-2.384,7.766,7.766,0,0,1-.239-2.425c.08-.485-.274-.883-.208-1.374a11.18,11.18,0,0,0,.008-1.35v-.442h21.877a8.282,8.282,0,0,0,.233,2.718,14.389,14.389,0,0,0,1.2,3.453,17.956,17.956,0,0,0,2.2,3.341,15.216,15.216,0,0,0,3.271,2.846,4.88,4.88,0,0,0,1.713.956c.689.142,1.213.743,1.964.65a12.851,12.851,0,0,0,4.134.747" transform="translate(-342.218 -663.804)" fill="#f2b401" fill-rule="evenodd"/><path d="M361.764,723.682H344.731c-.107-1.145.338-2.254.192-3.4.345-1.133.239-2.363.757-3.457a12.927,12.927,0,0,1,1.009-3.551,20.9,20.9,0,0,1,1.591-3.494,33.338,33.338,0,0,1,2.5-3.906,31.726,31.726,0,0,1,4.491-4.786,21.009,21.009,0,0,1,4.48-3.153c.6-.328,1.2-.687,1.826-.962a23.693,23.693,0,0,1,4.876-1.767,4.633,4.633,0,0,0,1.275-.411c.439-.237.968.072,1.313-.341.636.136,1.22-.215,1.851-.213a29.252,29.252,0,0,1,2.92-.179c.153.016.312,0,.532,0V711.1a10.47,10.47,0,0,1-1.44-.014c-.491-.066-.891.227-1.368.246a4.189,4.189,0,0,0-1.048.233,11.643,11.643,0,0,0-4.1,2.2,12.855,12.855,0,0,0-3.781,5.069,14.876,14.876,0,0,0-.842,3.7,10.926,10.926,0,0,0-.008,1.156" transform="translate(-339.871 -678.168)" fill="#4480f5" fill-rule="evenodd"/><path d="M359.987,708.646v-12h.2c-.019.178.107.192.241.192h1.692c.378.037.79-.13,1.127.08s.743-.043,1,.136c.332.233.755.019,1.028.328.656-.023,1.2.409,1.851.446.279.012.532.309.809.351.532.08.9.471,1.4.6a7.408,7.408,0,0,1,1.36.693,15.392,15.392,0,0,1,2.887,1.855,12.533,12.533,0,0,1,3.112,3,12.682,12.682,0,0,0,1.034,1.211,20.727,20.727,0,0,1,2.575,4.253,17.052,17.052,0,0,1,1.56,4.668c.318.382.033.91.239,1.251.239.417.041.819.159,1.2a9.443,9.443,0,0,1,.186,2.582H370.829a14.547,14.547,0,0,0-.151-2.255,11.951,11.951,0,0,0-.485-1.74,10.709,10.709,0,0,0-4.008-4.99,9.8,9.8,0,0,0-5.8-1.859c-.134,0-.26,0-.392,0" transform="translate(-325.512 -675.716)" fill="#da4635" fill-rule="evenodd"/><path d="M369.8,708.42h7.167a6.132,6.132,0,0,1-.014.865c-.047.392.12.782-.159,1.191-.2.3.153.817-.219,1.158a14.006,14.006,0,0,1-1.558,4.557c-.438.826-1,1.579-1.513,2.367a10.869,10.869,0,0,1-1.779,1.96,15.667,15.667,0,0,1-4.214,2.858,16.079,16.079,0,0,1-2.833,1.055,4.611,4.611,0,0,1-1.645.25c-.658-.08-1.275.343-1.944.19v-7.732a12.139,12.139,0,0,0,2.1-.376,8.171,8.171,0,0,0,4.154-2.32c.266-.252.425-.623.691-.86.47-.4.543-1.042.988-1.434a8.8,8.8,0,0,0,.776-3.731" transform="translate(-324.48 -664.647)" fill="#d8d7d4" fill-rule="evenodd"/><path d="M352.591,692.5v-1.554h4.944l.274.27a12.028,12.028,0,0,1-.18,1.845c-.644,2.154-1.492,3.095-3.29,3.646a5.623,5.623,0,0,1-4.831-.784,5.45,5.45,0,0,1-2.117-2.8,4.665,4.665,0,0,1-.047-3.207,5.829,5.829,0,0,1,2.934-3.424,4.027,4.027,0,0,1,3.258-.448c.417.146.856.239,1.294.392a3.655,3.655,0,0,1,1.44.922,1.926,1.926,0,0,1-.749,1.046c-.339.062-.584-.169-.83-.322a7.31,7.31,0,0,0-1.678-.627,2.83,2.83,0,0,0-1.606.287,3.471,3.471,0,0,0-2.5,3.452,4.625,4.625,0,0,0,.146,1.579,3.926,3.926,0,0,0,5.19,2.349c.675-.2,1.086-.85,1.566-1.35a1.5,1.5,0,0,0,.231-1.271Z" transform="translate(-337.645 -685.859)" fill="#4480f5" fill-rule="evenodd"/><path d="M365.718,694.386c-1.686,1.3-3.841.574-5.023-1.822,0-.338.019-.724-.006-1.108a3.365,3.365,0,0,1,1.207-2.778,2.692,2.692,0,0,1,1.28-.646c1.374-.289,1.088-.159,2.681.555.14-.138,0-.312.113-.5h1.3v2.093c0,1.612-.006,3.223,0,4.831A2.993,2.993,0,0,1,365.7,697.8a3.147,3.147,0,0,1-4.406-1.042c-.14-.182-.406-.316-.406-.687.452-.18.85-.592,1.447-.477a2.117,2.117,0,0,0,1.306,1.164,1.988,1.988,0,0,0,2.078-1.075v-1.294c.1.052.153.014.178-.078.008-.016-.039-.058-.052-.056-.093.021-.132.079-.126.134m-1.346-.733c.431-.219.749-.384,1.034-.528.18-.361.345-.681.479-.939.165-1.224.033-2.266-1.341-2.794-.107,0-.332,0-.559,0a1.772,1.772,0,0,0-1.744,1.761v.925a2.058,2.058,0,0,0,2.13,1.573" transform="translate(-324.86 -683.95)" fill="#4480f5" fill-rule="evenodd"/><path d="M360.207,695a3.386,3.386,0,0,1-3.49-3.647,3.541,3.541,0,1,1,7.08.2A3.375,3.375,0,0,1,360.207,695m1.9-2.621a.96.96,0,0,1,.206-.85c-.3-.411-.159-.939-.45-1.294a2.288,2.288,0,0,0-1.143-.865,3.1,3.1,0,0,0-1.081.076,2.217,2.217,0,0,0-.716,3.622,1.705,1.705,0,0,0,1.486.532c.518-.134,1.234-.2,1.426-.939.027-.107.173-.182.272-.281" transform="translate(-328.591 -683.948)" fill="#f0be27" fill-rule="evenodd"/><path d="M355.478,695.03c-.8-.434-1.659-.714-2.076-1.533a3.4,3.4,0,0,1-.578-1.3,4.669,4.669,0,0,1,.213-2.134c.272-.63,1.075-1.651,1.645-1.777a4.348,4.348,0,0,1,2.136-.369c2.895.766,3.139,2.524,2.934,4.581-.085.877-.836,1.447-1.473,1.989a3.948,3.948,0,0,1-2.8.547m.219-5.6a2.325,2.325,0,0,0-1.075,3.257c.225.225.5.495.79.79.312-.1.545.188.856.219.34.029.551-.355.883-.206,1.348-1.255,1.083-1.2,1.055-2.745a2.227,2.227,0,0,0-1.313-1.315Z" transform="translate(-332.272 -683.978)" fill="#da4635" fill-rule="evenodd"/><path d="M372.229,690.632c-1.645.691-3.172,1.335-4.718,1.977.293.3.565.568.883.887a2.541,2.541,0,0,0,.419,0c.192-.033.258.153.4.2a2.965,2.965,0,0,0,1.752-1.075c.279.477,1.05.378,1.017,1.158a3.783,3.783,0,0,1-3.479,1.24,2.307,2.307,0,0,1-1.44-.706,3.749,3.749,0,0,1-1.168-1.746c-.4-2.025.066-3.632,2.231-4.468a1.6,1.6,0,0,1,1.067-.213,5.417,5.417,0,0,1,1.275.409,4.076,4.076,0,0,1,1.127,1.135c.272.374.365.819.631,1.207m-5,.776,3.058-1.294a1.625,1.625,0,0,0-.549-.665H368.38l-1.034,1.032c-.052.281.08.6-.112.927" transform="translate(-320.078 -683.99)" fill="#da4635" fill-rule="evenodd"/><rect width="1.679" height="10.418" transform="translate(43.413 0.425)" fill="#48be5e"/><path d="M362.022,696.838h-1.692c-.134,0-.26-.014-.241-.192h1.694c.132,0,.25.01.239.192" transform="translate(-325.417 -675.716)" fill="#f0672c" fill-rule="evenodd"/><path d="M363.281,691.341a.14.14,0,0,1,.12-.173c.014,0,.06.041.052.056a.137.137,0,0,1-.173.116" transform="translate(-322.417 -680.867)" fill="#fefefe" fill-rule="evenodd"/></g></svg>