<svg xmlns="http://www.w3.org/2000/svg" width="150" height="149.998" viewBox="0 0 150 149.998"><path d="M393.234,392.96a75,75,0,1,1,75-75A75.083,75.083,0,0,1,393.234,392.96Z" transform="translate(-318.234 -242.962)" fill="#464442"/><g transform="translate(38.462 38.591)"><path d="M374.381,335.6c-16.076.925-36.023-12.685-36.319-36.29-.25-19.968,16.534-36.471,36.62-36.461,19.987.01,36.793,16.66,36.446,36.636C410.712,323.315,390.494,336.729,374.381,335.6Z" transform="translate(-338.059 -262.853)" fill="#464543" fill-rule="evenodd"/><path d="M339,298.44a34.711,34.711,0,1,1,34.917,34.783A34.717,34.717,0,0,1,339,298.44Z" transform="translate(-337.173 -262.004)" fill="#fefefe" fill-rule="evenodd"/><path d="M361.606,316.033c-2.233-6.6-4.259-12.558-6.265-18.524-1.444-4.282-2.78-8.61-4.329-12.855-.665-1.822-.681-2.871,1.634-2.751a5.4,5.4,0,0,0,.766-.058c.854-.1,1.533-.444,1.416-1.434s-.879-1.154-1.715-1.11c-2.559.138-5.12.277-7.675.4-.57.029-1.145.008-1.822.008,8.092-14.615,31.684-19.89,46.276-6.307-5.407,2.379-6.74,5.687-3.354,10.688,4.424,6.534,4.693,13.077,1.969,20.191-1.335,3.471-2.216,7.116-3.537,11.462-1.882-5.58-3.523-10.43-5.157-15.282-1.855-5.5-3.638-11.024-5.591-16.491-.557-1.548-.155-2.01,1.317-2.029.338,0,.681-.047,1.02-.074.906-.062,1.857-.246,1.766-1.379-.1-1.29-1.187-1.215-2.157-1.17-2.986.124-5.972.318-8.958.338-2.047.012-4.092-.229-6.141-.353-.941-.058-1.783.14-1.806,1.279-.016.989.747,1.319,1.585,1.265,2.3-.153,2.922,1.282,3.878,3.116,3.632,7,3.851,13.812.353,20.924C363.628,308.849,362.9,312.166,361.606,316.033Z" transform="translate(-332.833 -260.32)" fill="#464442" fill-rule="evenodd"/><path d="M361.617,283.041c2.48,6.8,4.767,13.112,7.066,19.409.52,1.445,1.067,2.875,1.595,4.313,1.224,3.335,1.224,3.358-2.142,4.094a32.617,32.617,0,0,1-14.2-.027c-.848-.194-1.872-.2-1.339-1.717C355.587,300.613,358.5,292.084,361.617,283.041Z" transform="translate(-324.529 -243.874)" fill="#464442" fill-rule="evenodd"/><path d="M358.129,315.5c-14.774-6.946-21.309-24.871-14.84-40.141C344.4,277,356.736,310.32,358.129,315.5Z" transform="translate(-335.485 -251.098)" fill="#464442" fill-rule="evenodd"/><path d="M377.667,274.983c8.042,17.77-2.468,35.037-12.609,39.458,3.153-9.06,6.255-18.022,9.4-26.97a41.341,41.341,0,0,0,2.293-8.9C377.562,277.505,375.963,275.817,377.667,274.983Z" transform="translate(-312.675 -251.449)" fill="#464442" fill-rule="evenodd"/><path d="M372,275.581c-1.09.993.064,2.563-.918,3.585v-4.819C371.85,274.465,371.982,274.978,372,275.581Z" transform="translate(-307.01 -252.047)" fill="gray" fill-rule="evenodd"/></g></svg>